G04 #@! TF.GenerationSoftware,KiCad,Pcbnew,10.0.5*
G04 #@! TF.CreationDate,2026-09-11T11:47:56-03:00*
G04 #@! TF.ProjectId,e36-kline-onboard,6533362d-6b6c-4696-9e65-2d6f6e626f61,rev?*
G04 #@! TF.SameCoordinates,Original*
G04 #@! TF.FileFunction,Copper,L2,Bot*
G04 #@! TF.FilePolarity,Positive*
%FSLAX46Y46*%
G04 Gerber Fmt 4.6, Leading zero omitted, Abs format (unit mm)*
G04 Created by KiCad (PCBNEW 10.0.5) date 2026-09-11 11:47:56*
%MOMM*%
%LPD*%
G01*
G04 APERTURE LIST*
G04 Aperture macros list*
%AMRoundRect*
0 Rectangle with rounded corners*
0 $1 Rounding radius*
0 $2 $3 $4 $5 $6 $7 $8 $9 X,Y pos of 4 corners*
0 Add a 4 corners polygon primitive as box body*
4,1,4,$2,$3,$4,$5,$6,$7,$8,$9,$2,$3,0*
0 Add four circle primitives for the rounded corners*
1,1,$1+$1,$2,$3*
1,1,$1+$1,$4,$5*
1,1,$1+$1,$6,$7*
1,1,$1+$1,$8,$9*
0 Add four rect primitives between the rounded corners*
20,1,$1+$1,$2,$3,$4,$5,0*
20,1,$1+$1,$4,$5,$6,$7,0*
20,1,$1+$1,$6,$7,$8,$9,0*
20,1,$1+$1,$8,$9,$2,$3,0*%
G04 Aperture macros list end*
G04 #@! TA.AperFunction,ComponentPad*
%ADD10O,1.000000X2.100000*%
G04 #@! TD*
G04 #@! TA.AperFunction,ComponentPad*
%ADD11O,1.000000X1.600000*%
G04 #@! TD*
G04 #@! TA.AperFunction,ComponentPad*
%ADD12C,2.100000*%
G04 #@! TD*
G04 #@! TA.AperFunction,HeatsinkPad*
%ADD13C,0.600000*%
G04 #@! TD*
G04 #@! TA.AperFunction,ComponentPad*
%ADD14R,1.700000X1.700000*%
G04 #@! TD*
G04 #@! TA.AperFunction,ComponentPad*
%ADD15C,1.700000*%
G04 #@! TD*
G04 #@! TA.AperFunction,ComponentPad*
%ADD16RoundRect,0.250000X0.725000X-0.600000X0.725000X0.600000X-0.725000X0.600000X-0.725000X-0.600000X0*%
G04 #@! TD*
G04 #@! TA.AperFunction,ComponentPad*
%ADD17O,1.950000X1.700000*%
G04 #@! TD*
G04 #@! TA.AperFunction,ViaPad*
%ADD18C,0.700000*%
G04 #@! TD*
G04 #@! TA.AperFunction,ViaPad*
%ADD19C,0.900000*%
G04 #@! TD*
G04 #@! TA.AperFunction,Conductor*
%ADD20C,0.800000*%
G04 #@! TD*
G04 #@! TA.AperFunction,Conductor*
%ADD21C,0.500000*%
G04 #@! TD*
G04 #@! TA.AperFunction,Conductor*
%ADD22C,0.250000*%
G04 #@! TD*
G04 #@! TA.AperFunction,Conductor*
%ADD23C,0.400000*%
G04 #@! TD*
G04 #@! TA.AperFunction,Conductor*
%ADD24C,0.200000*%
G04 #@! TD*
G04 APERTURE END LIST*
D10*
G04 #@! TO.P,J3,SH*
G04 #@! TO.N,GND*
X82180000Y-64770000D03*
D11*
X82180000Y-68950000D03*
D10*
X90820000Y-64770000D03*
D11*
X90820000Y-68950000D03*
G04 #@! TD*
D12*
G04 #@! TO.P,J1,1*
G04 #@! TO.N,N/C*
X22250000Y-30000000D03*
G04 #@! TO.P,J1,2*
X22250000Y-34000000D03*
G04 #@! TO.P,J1,3*
X22250000Y-38000000D03*
G04 #@! TO.P,J1,4*
G04 #@! TO.N,GND*
X22250000Y-42000000D03*
G04 #@! TO.P,J1,5*
X22250000Y-46000000D03*
G04 #@! TO.P,J1,6*
G04 #@! TO.N,N/C*
X22250000Y-50000000D03*
G04 #@! TO.P,J1,7*
G04 #@! TO.N,K_LINE*
X22250000Y-54000000D03*
G04 #@! TO.P,J1,8*
G04 #@! TO.N,N/C*
X22250000Y-58000000D03*
G04 #@! TO.P,J1,9*
X25250000Y-30000000D03*
G04 #@! TO.P,J1,10*
X25250000Y-34000000D03*
G04 #@! TO.P,J1,11*
X25250000Y-38000000D03*
G04 #@! TO.P,J1,12*
X25250000Y-42000000D03*
G04 #@! TO.P,J1,13*
X25250000Y-46000000D03*
G04 #@! TO.P,J1,14*
X25250000Y-50000000D03*
G04 #@! TO.P,J1,15*
G04 #@! TO.N,K_LINE*
X25250000Y-54000000D03*
G04 #@! TO.P,J1,16*
G04 #@! TO.N,VBAT_RAW*
X25250000Y-58000000D03*
G04 #@! TD*
D13*
G04 #@! TO.P,U3,41*
G04 #@! TO.N,GND*
X94100000Y-34860000D03*
X94100000Y-36260000D03*
X94800000Y-34160000D03*
X94800000Y-35560000D03*
X94800000Y-36960000D03*
X95500000Y-34860000D03*
X95500000Y-36260000D03*
X96200000Y-34160000D03*
X96200000Y-35560000D03*
X96200000Y-36960000D03*
X96900000Y-34860000D03*
X96900000Y-36260000D03*
G04 #@! TD*
D14*
G04 #@! TO.P,J2,1*
G04 #@! TO.N,EN*
X95000000Y-64500000D03*
D15*
G04 #@! TO.P,J2,2*
G04 #@! TO.N,IO0*
X97540000Y-64500000D03*
G04 #@! TO.P,J2,3*
G04 #@! TO.N,TXD0*
X100080000Y-64500000D03*
G04 #@! TO.P,J2,4*
G04 #@! TO.N,RXD0*
X102620000Y-64500000D03*
G04 #@! TO.P,J2,5*
G04 #@! TO.N,GND*
X105160000Y-64500000D03*
G04 #@! TO.P,J2,6*
G04 #@! TO.N,+3V3*
X107700000Y-64500000D03*
G04 #@! TD*
D16*
G04 #@! TO.P,J4,1*
G04 #@! TO.N,GND*
X30000000Y-37000000D03*
D17*
G04 #@! TO.P,J4,2*
G04 #@! TO.N,K_LINE*
X30000000Y-34500000D03*
G04 #@! TO.P,J4,3*
G04 #@! TO.N,VBAT_RAW*
X30000000Y-32000000D03*
G04 #@! TD*
D18*
G04 #@! TO.N,GND*
X36338300Y-48472000D03*
X71000000Y-29000000D03*
X59000000Y-53000000D03*
X65000000Y-47000000D03*
X29000000Y-59000000D03*
X42220300Y-29775500D03*
X71000000Y-23000000D03*
X107000000Y-47000000D03*
X47000000Y-23000000D03*
X53000000Y-47000000D03*
X65000000Y-35000000D03*
X65000000Y-53000000D03*
X38981200Y-64675000D03*
X53000000Y-29000000D03*
X82863800Y-30686300D03*
X77000000Y-29000000D03*
X64559500Y-25210500D03*
X59000000Y-47000000D03*
X29000000Y-29000000D03*
X29000000Y-47000000D03*
X101000000Y-29000000D03*
X41000000Y-35000000D03*
X77000000Y-35000000D03*
X41000000Y-47000000D03*
X83000000Y-47000000D03*
X29000000Y-65000000D03*
X59000000Y-65000000D03*
X47000000Y-41000000D03*
X77000000Y-53000000D03*
X83000000Y-35000000D03*
X41000000Y-23000000D03*
X47000000Y-29000000D03*
X77000000Y-47000000D03*
X35000000Y-23000000D03*
X65000000Y-23000000D03*
X52531700Y-55206700D03*
X35000000Y-35000000D03*
X35000000Y-29000000D03*
X35000000Y-41000000D03*
X29000000Y-41000000D03*
X59000000Y-23000000D03*
X71000000Y-35000000D03*
X65000000Y-65000000D03*
X41000000Y-59000000D03*
X83000000Y-53000000D03*
X53000000Y-53000000D03*
X59000000Y-29000000D03*
X41000000Y-29000000D03*
X71000000Y-47000000D03*
X53000000Y-35000000D03*
X23000000Y-23000000D03*
X41000000Y-41000000D03*
X59000000Y-35000000D03*
X47000000Y-53000000D03*
X71000000Y-53000000D03*
X95000000Y-29000000D03*
X77000000Y-65000000D03*
X65000000Y-29000000D03*
X71000000Y-65000000D03*
X89000000Y-47000000D03*
X53000000Y-23000000D03*
X84936200Y-34637500D03*
X89000000Y-59000000D03*
D19*
G04 #@! TO.N,VBAT_F*
X39505900Y-60898100D03*
X35441200Y-58625900D03*
X32928700Y-48797800D03*
G04 #@! TO.N,VIN*
X64251000Y-58455600D03*
X55141400Y-61934000D03*
G04 #@! TO.N,+3V3*
X86293900Y-37445100D03*
X89692600Y-29002300D03*
D18*
G04 #@! TO.N,K_RX*
X49472800Y-45877200D03*
X38884900Y-54345400D03*
G04 #@! TO.N,EN*
X86367600Y-32421500D03*
G04 #@! TO.N,IO0*
X97959300Y-51316200D03*
G04 #@! TO.N,TXD0*
X101428600Y-34959600D03*
G04 #@! TO.N,RXD0*
X104031600Y-36956500D03*
G04 #@! TO.N,IO38*
X99131700Y-58386500D03*
X100456900Y-39669200D03*
G04 #@! TO.N,VBUS*
X83685600Y-61544600D03*
X80501200Y-54007700D03*
X51448600Y-57280700D03*
G04 #@! TO.N,USB_DP*
X86875000Y-65704300D03*
X87551400Y-45774000D03*
G04 #@! TO.N,USB_DN*
X86620900Y-42940700D03*
X85327800Y-65090900D03*
G04 #@! TO.N,CC1*
X84663800Y-66222900D03*
X84412500Y-57344100D03*
G04 #@! TO.N,CC2*
X87997800Y-65757400D03*
X88168000Y-57344100D03*
G04 #@! TD*
G04 #@! TO.N,VBAT_RAW*
D20*
X31580200Y-33580200D02*
X30000000Y-32000000D01*
X25250000Y-58000000D02*
X31580200Y-51669800D01*
X31580200Y-51669800D02*
X31580200Y-33580200D01*
G04 #@! TO.N,VBAT_F*
X35441200Y-51310300D02*
X32928700Y-48797800D01*
X35441200Y-58625900D02*
X37233700Y-58625900D01*
X35441200Y-58625900D02*
X35441200Y-51310300D01*
X37233700Y-58625900D02*
X39505900Y-60898100D01*
G04 #@! TO.N,K_LINE*
D21*
X27323800Y-51926200D02*
X25250000Y-54000000D01*
X27323800Y-37176200D02*
X27323800Y-51926200D01*
X30000000Y-34500000D02*
X27323800Y-37176200D01*
G04 #@! TO.N,VIN*
D20*
X55141400Y-61934000D02*
X60772600Y-61934000D01*
X60772600Y-61934000D02*
X64251000Y-58455600D01*
G04 #@! TO.N,+3V3*
X92594400Y-64689900D02*
X92594400Y-43745600D01*
X92594400Y-43745600D02*
X86293900Y-37445100D01*
X85385800Y-33449600D02*
X85385800Y-31981000D01*
X86293900Y-34357700D02*
X85385800Y-33449600D01*
X107700000Y-64500000D02*
X105686200Y-66513800D01*
X88364500Y-29002300D02*
X89692600Y-29002300D01*
X94418300Y-66513800D02*
X92594400Y-64689900D01*
X105686200Y-66513800D02*
X94418300Y-66513800D01*
X86293900Y-37445100D02*
X86293900Y-34357700D01*
X85385800Y-31981000D02*
X88364500Y-29002300D01*
G04 #@! TO.N,K_RX*
D22*
X38884900Y-54345400D02*
X47353100Y-45877200D01*
X47353100Y-45877200D02*
X49472800Y-45877200D01*
G04 #@! TO.N,EN*
X95000000Y-41053900D02*
X95000000Y-64500000D01*
X86367600Y-32421500D02*
X95000000Y-41053900D01*
G04 #@! TO.N,IO0*
X97959300Y-51316200D02*
X97959300Y-64080700D01*
X97959300Y-64080700D02*
X97540000Y-64500000D01*
G04 #@! TO.N,TXD0*
X100080000Y-64500000D02*
X101428600Y-63151400D01*
X101428600Y-63151400D02*
X101428600Y-34959600D01*
G04 #@! TO.N,RXD0*
X104031600Y-63088400D02*
X102620000Y-64500000D01*
X104031600Y-36956500D02*
X104031600Y-63088400D01*
G04 #@! TO.N,IO38*
X100456900Y-39669200D02*
X100456900Y-57061300D01*
X100456900Y-57061300D02*
X99131700Y-58386500D01*
G04 #@! TO.N,VBUS*
D23*
X51448600Y-57280700D02*
X80501200Y-57280700D01*
X80501200Y-57280700D02*
X80501200Y-58360200D01*
X80501200Y-57280700D02*
X80501200Y-54007700D01*
X80501200Y-58360200D02*
X83685600Y-61544600D01*
G04 #@! TO.N,USB_DP*
D24*
X86875000Y-46450400D02*
X87551400Y-45774000D01*
X86875000Y-65704300D02*
X86875000Y-46450400D01*
G04 #@! TO.N,USB_DN*
X85327800Y-65090900D02*
X85327800Y-44233800D01*
X85327800Y-44233800D02*
X86620900Y-42940700D01*
G04 #@! TO.N,CC1*
X84663800Y-57595400D02*
X84412500Y-57344100D01*
X84663800Y-66222900D02*
X84663800Y-57595400D01*
G04 #@! TO.N,CC2*
X87997800Y-57514300D02*
X88168000Y-57344100D01*
X87997800Y-65757400D02*
X87997800Y-57514300D01*
G04 #@! TD*
G04 #@! TA.AperFunction,Conductor*
G04 #@! TO.N,GND*
G36*
X103926883Y-64508652D02*
G01*
X103985116Y-64547262D01*
X104012726Y-64607720D01*
X104038317Y-64769293D01*
X104094251Y-64941444D01*
X104094252Y-64941447D01*
X104176434Y-65102734D01*
X104217667Y-65159487D01*
X104217668Y-65159487D01*
X104691980Y-64685176D01*
X104694075Y-64692993D01*
X104759901Y-64807007D01*
X104852993Y-64900099D01*
X104967007Y-64965925D01*
X104974822Y-64968019D01*
X104500510Y-65442330D01*
X104500511Y-65442331D01*
X104557265Y-65483565D01*
X104718552Y-65565747D01*
X104718555Y-65565748D01*
X104735855Y-65571369D01*
X104793530Y-65610806D01*
X104820729Y-65675164D01*
X104808815Y-65744011D01*
X104761571Y-65795487D01*
X104697537Y-65813300D01*
X103084083Y-65813300D01*
X103017044Y-65793615D01*
X102971289Y-65740811D01*
X102961345Y-65671653D01*
X102990370Y-65608097D01*
X103045766Y-65571369D01*
X103061633Y-65566213D01*
X103061639Y-65566211D01*
X103086878Y-65553351D01*
X103222994Y-65483996D01*
X103369501Y-65377553D01*
X103497553Y-65249501D01*
X103603996Y-65102994D01*
X103686211Y-64941639D01*
X103742171Y-64769409D01*
X103767780Y-64607720D01*
X103797709Y-64544585D01*
X103857021Y-64507654D01*
X103926883Y-64508652D01*
G37*
G04 #@! TD.AperFunction*
G04 #@! TA.AperFunction,Conductor*
G36*
X72943039Y-20220185D02*
G01*
X72988794Y-20272989D01*
X73000000Y-20324500D01*
X73000000Y-26350000D01*
X73000000Y-26500000D01*
X109675500Y-26500000D01*
X109742539Y-26519685D01*
X109788294Y-26572489D01*
X109799500Y-26624000D01*
X109799500Y-69675500D01*
X109779815Y-69742539D01*
X109727011Y-69788294D01*
X109675500Y-69799500D01*
X91643883Y-69799500D01*
X91576844Y-69779815D01*
X91531089Y-69727011D01*
X91521145Y-69657853D01*
X91529322Y-69628047D01*
X91589256Y-69483351D01*
X91589258Y-69483343D01*
X91619999Y-69328797D01*
X91620000Y-69328794D01*
X91620000Y-69150000D01*
X91120000Y-69150000D01*
X91120000Y-68750000D01*
X91620000Y-68750000D01*
X91620000Y-68571206D01*
X91619999Y-68571202D01*
X91589258Y-68416656D01*
X91589256Y-68416648D01*
X91528952Y-68271060D01*
X91528947Y-68271051D01*
X91441401Y-68140030D01*
X91441398Y-68140026D01*
X91329973Y-68028601D01*
X91329969Y-68028598D01*
X91198948Y-67941052D01*
X91198939Y-67941047D01*
X91053351Y-67880743D01*
X91053343Y-67880741D01*
X91020000Y-67874108D01*
X91020000Y-68425735D01*
X91004205Y-68409940D01*
X90935796Y-68370444D01*
X90859496Y-68350000D01*
X90780504Y-68350000D01*
X90704204Y-68370444D01*
X90635795Y-68409940D01*
X90620000Y-68425735D01*
X90620000Y-67874109D01*
X90619999Y-67874108D01*
X90586656Y-67880741D01*
X90586648Y-67880743D01*
X90441060Y-67941047D01*
X90441051Y-67941052D01*
X90310030Y-68028598D01*
X90310026Y-68028601D01*
X90198601Y-68140026D01*
X90198598Y-68140030D01*
X90111052Y-68271051D01*
X90111047Y-68271060D01*
X90050743Y-68416648D01*
X90050741Y-68416656D01*
X90020000Y-68571202D01*
X90020000Y-68750000D01*
X90520000Y-68750000D01*
X90520000Y-69150000D01*
X90020000Y-69150000D01*
X90020000Y-69328797D01*
X90050741Y-69483343D01*
X90050743Y-69483351D01*
X90110678Y-69628047D01*
X90118147Y-69697517D01*
X90086872Y-69759996D01*
X90026783Y-69795648D01*
X89996117Y-69799500D01*
X83003883Y-69799500D01*
X82936844Y-69779815D01*
X82891089Y-69727011D01*
X82881145Y-69657853D01*
X82889322Y-69628047D01*
X82949256Y-69483351D01*
X82949258Y-69483343D01*
X82979999Y-69328797D01*
X82980000Y-69328794D01*
X82980000Y-69150000D01*
X82480000Y-69150000D01*
X82480000Y-68750000D01*
X82980000Y-68750000D01*
X82980000Y-68571206D01*
X82979999Y-68571202D01*
X82949258Y-68416656D01*
X82949256Y-68416648D01*
X82888952Y-68271060D01*
X82888947Y-68271051D01*
X82801401Y-68140030D01*
X82801398Y-68140026D01*
X82689973Y-68028601D01*
X82689969Y-68028598D01*
X82558948Y-67941052D01*
X82558939Y-67941047D01*
X82413351Y-67880743D01*
X82413343Y-67880741D01*
X82380000Y-67874108D01*
X82380000Y-68425735D01*
X82364205Y-68409940D01*
X82295796Y-68370444D01*
X82219496Y-68350000D01*
X82140504Y-68350000D01*
X82064204Y-68370444D01*
X81995795Y-68409940D01*
X81980000Y-68425735D01*
X81980000Y-67874109D01*
X81979999Y-67874108D01*
X81946656Y-67880741D01*
X81946648Y-67880743D01*
X81801060Y-67941047D01*
X81801051Y-67941052D01*
X81670030Y-68028598D01*
X81670026Y-68028601D01*
X81558601Y-68140026D01*
X81558598Y-68140030D01*
X81471052Y-68271051D01*
X81471047Y-68271060D01*
X81410743Y-68416648D01*
X81410741Y-68416656D01*
X81380000Y-68571202D01*
X81380000Y-68750000D01*
X81880000Y-68750000D01*
X81880000Y-69150000D01*
X81380000Y-69150000D01*
X81380000Y-69328797D01*
X81410741Y-69483343D01*
X81410743Y-69483351D01*
X81470678Y-69628047D01*
X81478147Y-69697517D01*
X81446872Y-69759996D01*
X81386783Y-69795648D01*
X81356117Y-69799500D01*
X20324500Y-69799500D01*
X20257461Y-69779815D01*
X20211706Y-69727011D01*
X20200500Y-69675500D01*
X20200500Y-65878711D01*
X22649500Y-65878711D01*
X22649500Y-66121288D01*
X22681161Y-66361785D01*
X22743947Y-66596104D01*
X22836773Y-66820205D01*
X22836777Y-66820214D01*
X22858974Y-66858661D01*
X22958064Y-67030289D01*
X22958066Y-67030292D01*
X22958067Y-67030293D01*
X23105733Y-67222736D01*
X23105739Y-67222743D01*
X23277256Y-67394260D01*
X23277262Y-67394265D01*
X23469711Y-67541936D01*
X23679788Y-67663224D01*
X23903900Y-67756054D01*
X24138211Y-67818838D01*
X24318586Y-67842584D01*
X24378711Y-67850500D01*
X24378712Y-67850500D01*
X24621289Y-67850500D01*
X24669388Y-67844167D01*
X24861789Y-67818838D01*
X25096100Y-67756054D01*
X25320212Y-67663224D01*
X25530289Y-67541936D01*
X25722738Y-67394265D01*
X25894265Y-67222738D01*
X26041936Y-67030289D01*
X26163224Y-66820212D01*
X26256054Y-66596100D01*
X26318838Y-66361789D01*
X26350500Y-66121288D01*
X26350500Y-65878712D01*
X26350500Y-65878711D01*
X72649500Y-65878711D01*
X72649500Y-66121288D01*
X72681161Y-66361785D01*
X72743947Y-66596104D01*
X72836773Y-66820205D01*
X72836777Y-66820214D01*
X72858974Y-66858661D01*
X72958064Y-67030289D01*
X72958066Y-67030292D01*
X72958067Y-67030293D01*
X73105733Y-67222736D01*
X73105739Y-67222743D01*
X73277256Y-67394260D01*
X73277262Y-67394265D01*
X73469711Y-67541936D01*
X73679788Y-67663224D01*
X73903900Y-67756054D01*
X74138211Y-67818838D01*
X74318586Y-67842584D01*
X74378711Y-67850500D01*
X74378712Y-67850500D01*
X74621289Y-67850500D01*
X74669388Y-67844167D01*
X74861789Y-67818838D01*
X75096100Y-67756054D01*
X75320212Y-67663224D01*
X75530289Y-67541936D01*
X75722738Y-67394265D01*
X75894265Y-67222738D01*
X76041936Y-67030289D01*
X76163224Y-66820212D01*
X76256054Y-66596100D01*
X76318838Y-66361789D01*
X76350500Y-66121288D01*
X76350500Y-65878712D01*
X76318838Y-65638211D01*
X76256054Y-65403900D01*
X76252850Y-65396166D01*
X76220518Y-65318109D01*
X76163224Y-65179788D01*
X76041936Y-64969711D01*
X76041935Y-64969709D01*
X75894266Y-64777263D01*
X75894260Y-64777256D01*
X75722743Y-64605739D01*
X75722736Y-64605733D01*
X75530293Y-64458067D01*
X75530292Y-64458066D01*
X75530289Y-64458064D01*
X75357976Y-64358579D01*
X75320214Y-64336777D01*
X75320205Y-64336773D01*
X75109934Y-64249676D01*
X75096104Y-64243947D01*
X74978944Y-64212554D01*
X74861789Y-64181162D01*
X74861788Y-64181161D01*
X74861785Y-64181161D01*
X74621289Y-64149500D01*
X74621288Y-64149500D01*
X74378712Y-64149500D01*
X74378711Y-64149500D01*
X74138214Y-64181161D01*
X73903895Y-64243947D01*
X73679794Y-64336773D01*
X73679785Y-64336777D01*
X73469706Y-64458067D01*
X73277263Y-64605733D01*
X73277256Y-64605739D01*
X73105739Y-64777256D01*
X73105733Y-64777263D01*
X72958067Y-64969706D01*
X72958064Y-64969710D01*
X72958064Y-64969711D01*
X72951755Y-64980638D01*
X72836777Y-65179785D01*
X72836773Y-65179794D01*
X72743947Y-65403895D01*
X72681161Y-65638214D01*
X72649500Y-65878711D01*
X26350500Y-65878711D01*
X26318838Y-65638211D01*
X26256054Y-65403900D01*
X26252850Y-65396166D01*
X26220518Y-65318109D01*
X26163224Y-65179788D01*
X26041936Y-64969711D01*
X25898494Y-64782773D01*
X25894266Y-64777263D01*
X25894260Y-64777256D01*
X25722743Y-64605739D01*
X25722736Y-64605733D01*
X25530293Y-64458067D01*
X25530292Y-64458066D01*
X25530289Y-64458064D01*
X25357976Y-64358579D01*
X25320214Y-64336777D01*
X25320205Y-64336773D01*
X25096104Y-64243947D01*
X24978944Y-64212554D01*
X24861789Y-64181162D01*
X24861788Y-64181161D01*
X24861785Y-64181161D01*
X24621289Y-64149500D01*
X24621288Y-64149500D01*
X24378712Y-64149500D01*
X24378711Y-64149500D01*
X24138214Y-64181161D01*
X23903895Y-64243947D01*
X23679794Y-64336773D01*
X23679785Y-64336777D01*
X23469706Y-64458067D01*
X23277263Y-64605733D01*
X23277256Y-64605739D01*
X23105739Y-64777256D01*
X23105733Y-64777263D01*
X22958067Y-64969706D01*
X22958064Y-64969710D01*
X22958064Y-64969711D01*
X22951755Y-64980638D01*
X22836777Y-65179785D01*
X22836773Y-65179794D01*
X22743947Y-65403895D01*
X22681161Y-65638214D01*
X22649500Y-65878711D01*
X20200500Y-65878711D01*
X20200500Y-57893713D01*
X20899500Y-57893713D01*
X20899500Y-58106286D01*
X20930407Y-58301429D01*
X20932754Y-58316243D01*
X20976399Y-58450569D01*
X20998444Y-58518414D01*
X21094951Y-58707820D01*
X21219890Y-58879786D01*
X21370213Y-59030109D01*
X21542179Y-59155048D01*
X21542181Y-59155049D01*
X21542184Y-59155051D01*
X21731588Y-59251557D01*
X21933757Y-59317246D01*
X22143713Y-59350500D01*
X22143714Y-59350500D01*
X22356286Y-59350500D01*
X22356287Y-59350500D01*
X22566243Y-59317246D01*
X22768412Y-59251557D01*
X22957816Y-59155051D01*
X23005117Y-59120685D01*
X23129786Y-59030109D01*
X23129788Y-59030106D01*
X23129792Y-59030104D01*
X23280104Y-58879792D01*
X23280106Y-58879788D01*
X23280109Y-58879786D01*
X23405048Y-58707820D01*
X23405047Y-58707820D01*
X23405051Y-58707816D01*
X23501557Y-58518412D01*
X23567246Y-58316243D01*
X23600500Y-58106287D01*
X23600500Y-57893713D01*
X23567246Y-57683757D01*
X23501557Y-57481588D01*
X23405051Y-57292184D01*
X23405049Y-57292181D01*
X23405048Y-57292179D01*
X23280109Y-57120213D01*
X23129786Y-56969890D01*
X22957820Y-56844951D01*
X22768414Y-56748444D01*
X22768413Y-56748443D01*
X22768412Y-56748443D01*
X22566243Y-56682754D01*
X22566241Y-56682753D01*
X22566240Y-56682753D01*
X22392256Y-56655197D01*
X22356287Y-56649500D01*
X22143713Y-56649500D01*
X22107744Y-56655197D01*
X21933760Y-56682753D01*
X21731585Y-56748444D01*
X21542179Y-56844951D01*
X21370213Y-56969890D01*
X21219890Y-57120213D01*
X21094951Y-57292179D01*
X20998444Y-57481585D01*
X20932753Y-57683760D01*
X20899500Y-57893713D01*
X20200500Y-57893713D01*
X20200500Y-53893713D01*
X20899500Y-53893713D01*
X20899500Y-54106286D01*
X20932687Y-54315824D01*
X20932754Y-54316243D01*
X20968788Y-54427145D01*
X20998444Y-54518414D01*
X21094951Y-54707820D01*
X21219890Y-54879786D01*
X21370213Y-55030109D01*
X21542179Y-55155048D01*
X21542181Y-55155049D01*
X21542184Y-55155051D01*
X21731588Y-55251557D01*
X21933757Y-55317246D01*
X22143713Y-55350500D01*
X22143714Y-55350500D01*
X22356286Y-55350500D01*
X22356287Y-55350500D01*
X22566243Y-55317246D01*
X22768412Y-55251557D01*
X22957816Y-55155051D01*
X22979789Y-55139086D01*
X23129786Y-55030109D01*
X23129788Y-55030106D01*
X23129792Y-55030104D01*
X23280104Y-54879792D01*
X23280106Y-54879788D01*
X23280109Y-54879786D01*
X23405048Y-54707820D01*
X23405047Y-54707820D01*
X23405051Y-54707816D01*
X23501557Y-54518412D01*
X23567246Y-54316243D01*
X23600500Y-54106287D01*
X23600500Y-53893713D01*
X23567246Y-53683757D01*
X23501557Y-53481588D01*
X23405051Y-53292184D01*
X23405049Y-53292181D01*
X23405048Y-53292179D01*
X23280109Y-53120213D01*
X23129786Y-52969890D01*
X22957820Y-52844951D01*
X22768414Y-52748444D01*
X22768413Y-52748443D01*
X22768412Y-52748443D01*
X22566243Y-52682754D01*
X22566241Y-52682753D01*
X22566240Y-52682753D01*
X22404957Y-52657208D01*
X22356287Y-52649500D01*
X22143713Y-52649500D01*
X22095042Y-52657208D01*
X21933760Y-52682753D01*
X21731585Y-52748444D01*
X21542179Y-52844951D01*
X21370213Y-52969890D01*
X21219890Y-53120213D01*
X21094951Y-53292179D01*
X20998444Y-53481585D01*
X20932753Y-53683760D01*
X20899500Y-53893713D01*
X20200500Y-53893713D01*
X20200500Y-49893713D01*
X20899500Y-49893713D01*
X20899500Y-50106287D01*
X20932754Y-50316243D01*
X20949890Y-50368983D01*
X20998444Y-50518414D01*
X21094951Y-50707820D01*
X21219890Y-50879786D01*
X21370213Y-51030109D01*
X21542179Y-51155048D01*
X21542181Y-51155049D01*
X21542184Y-51155051D01*
X21731588Y-51251557D01*
X21933757Y-51317246D01*
X22143713Y-51350500D01*
X22143714Y-51350500D01*
X22356286Y-51350500D01*
X22356287Y-51350500D01*
X22566243Y-51317246D01*
X22768412Y-51251557D01*
X22957816Y-51155051D01*
X23025368Y-51105972D01*
X23129786Y-51030109D01*
X23129788Y-51030106D01*
X23129792Y-51030104D01*
X23280104Y-50879792D01*
X23280106Y-50879788D01*
X23280109Y-50879786D01*
X23405048Y-50707820D01*
X23405047Y-50707820D01*
X23405051Y-50707816D01*
X23501557Y-50518412D01*
X23567246Y-50316243D01*
X23600500Y-50106287D01*
X23600500Y-49893713D01*
X23567246Y-49683757D01*
X23501557Y-49481588D01*
X23405051Y-49292184D01*
X23405049Y-49292181D01*
X23405048Y-49292179D01*
X23280109Y-49120213D01*
X23129786Y-48969890D01*
X22957820Y-48844951D01*
X22768414Y-48748444D01*
X22768413Y-48748443D01*
X22768412Y-48748443D01*
X22566243Y-48682754D01*
X22566241Y-48682753D01*
X22566240Y-48682753D01*
X22404957Y-48657208D01*
X22356287Y-48649500D01*
X22143713Y-48649500D01*
X22095042Y-48657208D01*
X21933760Y-48682753D01*
X21731585Y-48748444D01*
X21542179Y-48844951D01*
X21370213Y-48969890D01*
X21219890Y-49120213D01*
X21094951Y-49292179D01*
X20998444Y-49481585D01*
X20932753Y-49683760D01*
X20899500Y-49893713D01*
X20200500Y-49893713D01*
X20200500Y-45893753D01*
X20900000Y-45893753D01*
X20900000Y-46106246D01*
X20933242Y-46316127D01*
X20933242Y-46316130D01*
X20998904Y-46518217D01*
X21095375Y-46707550D01*
X21164484Y-46802672D01*
X21669669Y-46297487D01*
X21673978Y-46307890D01*
X21745112Y-46414351D01*
X21835649Y-46504888D01*
X21942110Y-46576022D01*
X21952510Y-46580330D01*
X21447326Y-47085513D01*
X21447326Y-47085515D01*
X21542442Y-47154620D01*
X21731782Y-47251095D01*
X21933870Y-47316757D01*
X22143754Y-47350000D01*
X22356246Y-47350000D01*
X22566127Y-47316757D01*
X22566130Y-47316757D01*
X22768217Y-47251095D01*
X22957554Y-47154622D01*
X23052672Y-47085514D01*
X23052673Y-47085514D01*
X22547488Y-46580330D01*
X22557890Y-46576022D01*
X22664351Y-46504888D01*
X22754888Y-46414351D01*
X22826022Y-46307890D01*
X22830330Y-46297488D01*
X23335514Y-46802673D01*
X23335514Y-46802672D01*
X23404622Y-46707554D01*
X23501095Y-46518217D01*
X23566757Y-46316130D01*
X23566757Y-46316127D01*
X23600000Y-46106246D01*
X23600000Y-45893753D01*
X23566757Y-45683872D01*
X23566757Y-45683869D01*
X23501095Y-45481782D01*
X23404620Y-45292442D01*
X23335515Y-45197326D01*
X23335513Y-45197326D01*
X22830330Y-45702510D01*
X22826022Y-45692110D01*
X22754888Y-45585649D01*
X22664351Y-45495112D01*
X22557890Y-45423978D01*
X22547488Y-45419669D01*
X23052672Y-44914484D01*
X22957550Y-44845375D01*
X22768217Y-44748904D01*
X22566129Y-44683242D01*
X22356246Y-44650000D01*
X22143754Y-44650000D01*
X21933872Y-44683242D01*
X21933869Y-44683242D01*
X21731782Y-44748904D01*
X21542447Y-44845376D01*
X21542445Y-44845377D01*
X21447326Y-44914483D01*
X21447326Y-44914484D01*
X21952511Y-45419669D01*
X21942110Y-45423978D01*
X21835649Y-45495112D01*
X21745112Y-45585649D01*
X21673978Y-45692110D01*
X21669669Y-45702511D01*
X21164484Y-45197326D01*
X21164483Y-45197326D01*
X21095377Y-45292445D01*
X21095376Y-45292447D01*
X20998904Y-45481782D01*
X20933242Y-45683869D01*
X20933242Y-45683872D01*
X20900000Y-45893753D01*
X20200500Y-45893753D01*
X20200500Y-41893753D01*
X20900000Y-41893753D01*
X20900000Y-42106246D01*
X20933242Y-42316127D01*
X20933242Y-42316130D01*
X20998904Y-42518217D01*
X21095375Y-42707550D01*
X21164484Y-42802672D01*
X21669669Y-42297487D01*
X21673978Y-42307890D01*
X21745112Y-42414351D01*
X21835649Y-42504888D01*
X21942110Y-42576022D01*
X21952510Y-42580330D01*
X21447326Y-43085513D01*
X21447326Y-43085515D01*
X21542442Y-43154620D01*
X21731782Y-43251095D01*
X21933870Y-43316757D01*
X22143754Y-43350000D01*
X22356246Y-43350000D01*
X22566127Y-43316757D01*
X22566130Y-43316757D01*
X22768217Y-43251095D01*
X22957554Y-43154622D01*
X23052672Y-43085514D01*
X23052673Y-43085514D01*
X22547488Y-42580330D01*
X22557890Y-42576022D01*
X22664351Y-42504888D01*
X22754888Y-42414351D01*
X22826022Y-42307890D01*
X22830330Y-42297488D01*
X23335514Y-42802673D01*
X23335514Y-42802672D01*
X23404622Y-42707554D01*
X23501095Y-42518217D01*
X23566757Y-42316130D01*
X23566757Y-42316127D01*
X23600000Y-42106246D01*
X23600000Y-41893753D01*
X23566757Y-41683872D01*
X23566757Y-41683869D01*
X23501095Y-41481782D01*
X23404620Y-41292442D01*
X23335515Y-41197326D01*
X23335513Y-41197326D01*
X22830330Y-41702510D01*
X22826022Y-41692110D01*
X22754888Y-41585649D01*
X22664351Y-41495112D01*
X22557890Y-41423978D01*
X22547488Y-41419669D01*
X23052672Y-40914484D01*
X22957550Y-40845375D01*
X22768217Y-40748904D01*
X22566129Y-40683242D01*
X22356246Y-40650000D01*
X22143754Y-40650000D01*
X21933872Y-40683242D01*
X21933869Y-40683242D01*
X21731782Y-40748904D01*
X21542447Y-40845376D01*
X21542445Y-40845377D01*
X21447326Y-40914483D01*
X21447326Y-40914484D01*
X21952511Y-41419669D01*
X21942110Y-41423978D01*
X21835649Y-41495112D01*
X21745112Y-41585649D01*
X21673978Y-41692110D01*
X21669669Y-41702511D01*
X21164484Y-41197326D01*
X21164483Y-41197326D01*
X21095377Y-41292445D01*
X21095376Y-41292447D01*
X20998904Y-41481782D01*
X20933242Y-41683869D01*
X20933242Y-41683872D01*
X20900000Y-41893753D01*
X20200500Y-41893753D01*
X20200500Y-37893713D01*
X20899500Y-37893713D01*
X20899500Y-38106287D01*
X20932754Y-38316243D01*
X20949890Y-38368983D01*
X20998444Y-38518414D01*
X21094951Y-38707820D01*
X21219890Y-38879786D01*
X21370213Y-39030109D01*
X21542179Y-39155048D01*
X21542181Y-39155049D01*
X21542184Y-39155051D01*
X21731588Y-39251557D01*
X21933757Y-39317246D01*
X22143713Y-39350500D01*
X22143714Y-39350500D01*
X22356286Y-39350500D01*
X22356287Y-39350500D01*
X22566243Y-39317246D01*
X22768412Y-39251557D01*
X22957816Y-39155051D01*
X23043583Y-39092738D01*
X23129786Y-39030109D01*
X23129788Y-39030106D01*
X23129792Y-39030104D01*
X23280104Y-38879792D01*
X23280106Y-38879788D01*
X23280109Y-38879786D01*
X23405048Y-38707820D01*
X23405047Y-38707820D01*
X23405051Y-38707816D01*
X23501557Y-38518412D01*
X23567246Y-38316243D01*
X23600500Y-38106287D01*
X23600500Y-37893713D01*
X23899500Y-37893713D01*
X23899500Y-38106287D01*
X23932754Y-38316243D01*
X23949890Y-38368983D01*
X23998444Y-38518414D01*
X24094951Y-38707820D01*
X24219890Y-38879786D01*
X24370213Y-39030109D01*
X24542179Y-39155048D01*
X24542181Y-39155049D01*
X24542184Y-39155051D01*
X24731588Y-39251557D01*
X24933757Y-39317246D01*
X25143713Y-39350500D01*
X25143714Y-39350500D01*
X25356286Y-39350500D01*
X25356287Y-39350500D01*
X25566243Y-39317246D01*
X25768412Y-39251557D01*
X25957816Y-39155051D01*
X26043583Y-39092738D01*
X26129786Y-39030109D01*
X26129788Y-39030106D01*
X26129792Y-39030104D01*
X26280104Y-38879792D01*
X26280106Y-38879788D01*
X26280109Y-38879786D01*
X26405048Y-38707820D01*
X26405047Y-38707820D01*
X26405051Y-38707816D01*
X26501557Y-38518412D01*
X26531369Y-38426657D01*
X26570806Y-38368983D01*
X26635165Y-38341785D01*
X26704011Y-38353700D01*
X26755487Y-38400944D01*
X26773300Y-38464977D01*
X26773300Y-41535022D01*
X26753615Y-41602061D01*
X26700811Y-41647816D01*
X26631653Y-41657760D01*
X26568097Y-41628735D01*
X26531369Y-41573340D01*
X26501557Y-41481588D01*
X26405051Y-41292184D01*
X26405049Y-41292181D01*
X26405048Y-41292179D01*
X26280109Y-41120213D01*
X26129786Y-40969890D01*
X25957820Y-40844951D01*
X25768414Y-40748444D01*
X25768413Y-40748443D01*
X25768412Y-40748443D01*
X25566243Y-40682754D01*
X25566241Y-40682753D01*
X25566240Y-40682753D01*
X25404957Y-40657208D01*
X25356287Y-40649500D01*
X25143713Y-40649500D01*
X25095042Y-40657208D01*
X24933760Y-40682753D01*
X24731585Y-40748444D01*
X24542179Y-40844951D01*
X24370213Y-40969890D01*
X24219890Y-41120213D01*
X24094951Y-41292179D01*
X23998444Y-41481585D01*
X23932753Y-41683760D01*
X23899500Y-41893713D01*
X23899500Y-42106286D01*
X23932735Y-42316127D01*
X23932754Y-42316243D01*
X23971478Y-42435424D01*
X23998444Y-42518414D01*
X24094951Y-42707820D01*
X24219890Y-42879786D01*
X24370213Y-43030109D01*
X24542179Y-43155048D01*
X24542181Y-43155049D01*
X24542184Y-43155051D01*
X24731588Y-43251557D01*
X24933757Y-43317246D01*
X25143713Y-43350500D01*
X25143714Y-43350500D01*
X25356286Y-43350500D01*
X25356287Y-43350500D01*
X25566243Y-43317246D01*
X25768412Y-43251557D01*
X25957816Y-43155051D01*
X26053525Y-43085515D01*
X26129786Y-43030109D01*
X26129788Y-43030106D01*
X26129792Y-43030104D01*
X26280104Y-42879792D01*
X26280106Y-42879788D01*
X26280109Y-42879786D01*
X26405048Y-42707820D01*
X26405047Y-42707820D01*
X26405051Y-42707816D01*
X26501557Y-42518412D01*
X26531369Y-42426657D01*
X26570806Y-42368983D01*
X26635165Y-42341785D01*
X26704011Y-42353700D01*
X26755487Y-42400944D01*
X26773300Y-42464977D01*
X26773300Y-45535022D01*
X26753615Y-45602061D01*
X26700811Y-45647816D01*
X26631653Y-45657760D01*
X26568097Y-45628735D01*
X26531369Y-45573340D01*
X26529980Y-45569066D01*
X26501557Y-45481588D01*
X26405051Y-45292184D01*
X26405049Y-45292181D01*
X26405048Y-45292179D01*
X26280109Y-45120213D01*
X26129786Y-44969890D01*
X25957820Y-44844951D01*
X25768414Y-44748444D01*
X25768413Y-44748443D01*
X25768412Y-44748443D01*
X25566243Y-44682754D01*
X25566241Y-44682753D01*
X25566240Y-44682753D01*
X25404957Y-44657208D01*
X25356287Y-44649500D01*
X25143713Y-44649500D01*
X25095042Y-44657208D01*
X24933760Y-44682753D01*
X24731585Y-44748444D01*
X24542179Y-44844951D01*
X24370213Y-44969890D01*
X24219890Y-45120213D01*
X24094951Y-45292179D01*
X23998444Y-45481585D01*
X23932753Y-45683760D01*
X23899500Y-45893713D01*
X23899500Y-46106286D01*
X23932735Y-46316127D01*
X23932754Y-46316243D01*
X23993338Y-46502702D01*
X23998444Y-46518414D01*
X24094951Y-46707820D01*
X24219890Y-46879786D01*
X24370213Y-47030109D01*
X24542179Y-47155048D01*
X24542181Y-47155049D01*
X24542184Y-47155051D01*
X24731588Y-47251557D01*
X24933757Y-47317246D01*
X25143713Y-47350500D01*
X25143714Y-47350500D01*
X25356286Y-47350500D01*
X25356287Y-47350500D01*
X25566243Y-47317246D01*
X25768412Y-47251557D01*
X25957816Y-47155051D01*
X26053525Y-47085515D01*
X26129786Y-47030109D01*
X26129788Y-47030106D01*
X26129792Y-47030104D01*
X26280104Y-46879792D01*
X26280106Y-46879788D01*
X26280109Y-46879786D01*
X26405048Y-46707820D01*
X26405047Y-46707820D01*
X26405051Y-46707816D01*
X26501557Y-46518412D01*
X26531369Y-46426657D01*
X26570806Y-46368983D01*
X26635165Y-46341785D01*
X26704011Y-46353700D01*
X26755487Y-46400944D01*
X26773300Y-46464977D01*
X26773300Y-49535022D01*
X26753615Y-49602061D01*
X26700811Y-49647816D01*
X26631653Y-49657760D01*
X26568097Y-49628735D01*
X26531369Y-49573340D01*
X26501557Y-49481588D01*
X26405051Y-49292184D01*
X26405049Y-49292181D01*
X26405048Y-49292179D01*
X26280109Y-49120213D01*
X26129786Y-48969890D01*
X25957820Y-48844951D01*
X25768414Y-48748444D01*
X25768413Y-48748443D01*
X25768412Y-48748443D01*
X25566243Y-48682754D01*
X25566241Y-48682753D01*
X25566240Y-48682753D01*
X25404957Y-48657208D01*
X25356287Y-48649500D01*
X25143713Y-48649500D01*
X25095042Y-48657208D01*
X24933760Y-48682753D01*
X24731585Y-48748444D01*
X24542179Y-48844951D01*
X24370213Y-48969890D01*
X24219890Y-49120213D01*
X24094951Y-49292179D01*
X23998444Y-49481585D01*
X23932753Y-49683760D01*
X23899500Y-49893713D01*
X23899500Y-50106287D01*
X23932754Y-50316243D01*
X23949890Y-50368983D01*
X23998444Y-50518414D01*
X24094951Y-50707820D01*
X24219890Y-50879786D01*
X24370213Y-51030109D01*
X24542179Y-51155048D01*
X24542181Y-51155049D01*
X24542184Y-51155051D01*
X24731588Y-51251557D01*
X24933757Y-51317246D01*
X25143713Y-51350500D01*
X25143714Y-51350500D01*
X25356286Y-51350500D01*
X25356287Y-51350500D01*
X25566243Y-51317246D01*
X25768412Y-51251557D01*
X25957816Y-51155051D01*
X26025368Y-51105972D01*
X26129786Y-51030109D01*
X26129788Y-51030106D01*
X26129792Y-51030104D01*
X26280104Y-50879792D01*
X26280106Y-50879788D01*
X26280109Y-50879786D01*
X26405048Y-50707820D01*
X26405047Y-50707820D01*
X26405051Y-50707816D01*
X26501557Y-50518412D01*
X26531369Y-50426657D01*
X26570806Y-50368983D01*
X26635165Y-50341785D01*
X26704011Y-50353700D01*
X26755487Y-50400944D01*
X26773300Y-50464977D01*
X26773300Y-51646812D01*
X26753615Y-51713851D01*
X26736981Y-51734493D01*
X25787891Y-52683582D01*
X25726568Y-52717067D01*
X25661893Y-52713832D01*
X25566244Y-52682754D01*
X25566240Y-52682753D01*
X25404957Y-52657208D01*
X25356287Y-52649500D01*
X25143713Y-52649500D01*
X25095042Y-52657208D01*
X24933760Y-52682753D01*
X24731585Y-52748444D01*
X24542179Y-52844951D01*
X24370213Y-52969890D01*
X24219890Y-53120213D01*
X24094951Y-53292179D01*
X23998444Y-53481585D01*
X23932753Y-53683760D01*
X23899500Y-53893713D01*
X23899500Y-54106286D01*
X23932687Y-54315824D01*
X23932754Y-54316243D01*
X23968788Y-54427145D01*
X23998444Y-54518414D01*
X24094951Y-54707820D01*
X24219890Y-54879786D01*
X24370213Y-55030109D01*
X24542179Y-55155048D01*
X24542181Y-55155049D01*
X24542184Y-55155051D01*
X24731588Y-55251557D01*
X24933757Y-55317246D01*
X25143713Y-55350500D01*
X25143714Y-55350500D01*
X25356286Y-55350500D01*
X25356287Y-55350500D01*
X25566243Y-55317246D01*
X25768412Y-55251557D01*
X25957816Y-55155051D01*
X25979789Y-55139086D01*
X26129786Y-55030109D01*
X26129788Y-55030106D01*
X26129792Y-55030104D01*
X26280104Y-54879792D01*
X26280106Y-54879788D01*
X26280109Y-54879786D01*
X26405048Y-54707820D01*
X26405047Y-54707820D01*
X26405051Y-54707816D01*
X26501557Y-54518412D01*
X26567246Y-54316243D01*
X26600500Y-54106287D01*
X26600500Y-53893713D01*
X26567246Y-53683757D01*
X26536165Y-53588104D01*
X26534171Y-53518266D01*
X26566414Y-53462109D01*
X27764310Y-52264215D01*
X27836784Y-52138685D01*
X27874300Y-51998674D01*
X27874300Y-51853726D01*
X27874300Y-37455586D01*
X27893985Y-37388547D01*
X27910614Y-37367910D01*
X28514082Y-36764442D01*
X28575404Y-36730958D01*
X28645096Y-36735942D01*
X28689443Y-36764443D01*
X28725000Y-36800000D01*
X29566987Y-36800000D01*
X29557370Y-36816657D01*
X29525000Y-36937465D01*
X29525000Y-37062535D01*
X29557370Y-37183343D01*
X29566987Y-37200000D01*
X28725000Y-37200000D01*
X28725000Y-37643053D01*
X28735613Y-37731443D01*
X28791079Y-37872095D01*
X28882435Y-37992564D01*
X29002904Y-38083920D01*
X29143556Y-38139386D01*
X29231946Y-38150000D01*
X29800000Y-38150000D01*
X29800000Y-37433013D01*
X29816657Y-37442630D01*
X29937465Y-37475000D01*
X30062535Y-37475000D01*
X30183343Y-37442630D01*
X30200000Y-37433013D01*
X30200000Y-38150000D01*
X30755700Y-38150000D01*
X30822739Y-38169685D01*
X30868494Y-38222489D01*
X30879700Y-38274000D01*
X30879700Y-51328280D01*
X30860015Y-51395319D01*
X30843381Y-51415961D01*
X25619849Y-56639492D01*
X25558526Y-56672977D01*
X25512771Y-56674284D01*
X25356287Y-56649500D01*
X25143713Y-56649500D01*
X25107744Y-56655197D01*
X24933760Y-56682753D01*
X24731585Y-56748444D01*
X24542179Y-56844951D01*
X24370213Y-56969890D01*
X24219890Y-57120213D01*
X24094951Y-57292179D01*
X23998444Y-57481585D01*
X23932753Y-57683760D01*
X23899500Y-57893713D01*
X23899500Y-58106286D01*
X23930407Y-58301429D01*
X23932754Y-58316243D01*
X23976399Y-58450569D01*
X23998444Y-58518414D01*
X24094951Y-58707820D01*
X24219890Y-58879786D01*
X24370213Y-59030109D01*
X24542179Y-59155048D01*
X24542181Y-59155049D01*
X24542184Y-59155051D01*
X24731588Y-59251557D01*
X24933757Y-59317246D01*
X25143713Y-59350500D01*
X25143714Y-59350500D01*
X25356286Y-59350500D01*
X25356287Y-59350500D01*
X25566243Y-59317246D01*
X25768412Y-59251557D01*
X25957816Y-59155051D01*
X26005117Y-59120685D01*
X26129786Y-59030109D01*
X26129788Y-59030106D01*
X26129792Y-59030104D01*
X26280104Y-58879792D01*
X26280106Y-58879788D01*
X26280109Y-58879786D01*
X26405048Y-58707820D01*
X26405047Y-58707820D01*
X26405051Y-58707816D01*
X26501557Y-58518412D01*
X26567246Y-58316243D01*
X26600500Y-58106287D01*
X26600500Y-57893713D01*
X26597164Y-57872649D01*
X26575715Y-57737227D01*
X26584670Y-57667933D01*
X26610504Y-57630151D01*
X32124314Y-52116343D01*
X32200975Y-52001611D01*
X32253780Y-51874128D01*
X32269526Y-51794968D01*
X32280700Y-51738796D01*
X32280700Y-49499426D01*
X32300385Y-49432387D01*
X32353189Y-49386632D01*
X32422347Y-49376688D01*
X32473590Y-49396323D01*
X32573205Y-49462884D01*
X32573211Y-49462886D01*
X32573212Y-49462887D01*
X32601497Y-49474603D01*
X32641726Y-49501483D01*
X34704381Y-51564138D01*
X34737866Y-51625461D01*
X34740700Y-51651819D01*
X34740700Y-58331242D01*
X34731262Y-58378690D01*
X34726947Y-58389110D01*
X34719541Y-58406990D01*
X34719540Y-58406993D01*
X34690700Y-58551979D01*
X34690700Y-58551982D01*
X34690700Y-58699818D01*
X34690700Y-58699820D01*
X34690699Y-58699820D01*
X34719540Y-58844807D01*
X34719543Y-58844817D01*
X34776112Y-58981388D01*
X34776119Y-58981401D01*
X34858248Y-59104315D01*
X34858251Y-59104319D01*
X34962780Y-59208848D01*
X34962784Y-59208851D01*
X35085698Y-59290980D01*
X35085711Y-59290987D01*
X35218731Y-59346085D01*
X35222287Y-59347558D01*
X35222291Y-59347558D01*
X35222292Y-59347559D01*
X35367279Y-59376400D01*
X35367282Y-59376400D01*
X35515120Y-59376400D01*
X35612662Y-59356996D01*
X35660113Y-59347558D01*
X35674572Y-59341568D01*
X35688406Y-59335839D01*
X35735858Y-59326400D01*
X36892181Y-59326400D01*
X36959220Y-59346085D01*
X36979862Y-59362719D01*
X38802216Y-61185073D01*
X38829096Y-61225301D01*
X38840814Y-61253591D01*
X38840819Y-61253601D01*
X38922948Y-61376515D01*
X38922951Y-61376519D01*
X39027480Y-61481048D01*
X39027484Y-61481051D01*
X39150398Y-61563180D01*
X39150411Y-61563187D01*
X39286982Y-61619756D01*
X39286987Y-61619758D01*
X39286991Y-61619758D01*
X39286992Y-61619759D01*
X39431979Y-61648600D01*
X39431982Y-61648600D01*
X39579820Y-61648600D01*
X39677362Y-61629196D01*
X39724813Y-61619758D01*
X39861395Y-61563184D01*
X39984316Y-61481051D01*
X40088851Y-61376516D01*
X40170984Y-61253595D01*
X40180482Y-61230666D01*
X40188071Y-61212343D01*
X40227558Y-61117013D01*
X40245053Y-61029063D01*
X40256400Y-60972020D01*
X40256400Y-60824179D01*
X40227559Y-60679192D01*
X40227558Y-60679191D01*
X40227558Y-60679187D01*
X40227556Y-60679182D01*
X40170987Y-60542611D01*
X40170980Y-60542598D01*
X40088851Y-60419684D01*
X40088848Y-60419680D01*
X39984319Y-60315151D01*
X39984315Y-60315148D01*
X39861401Y-60233019D01*
X39861391Y-60233014D01*
X39833101Y-60221296D01*
X39792873Y-60194416D01*
X37680246Y-58081788D01*
X37680245Y-58081787D01*
X37565507Y-58005122D01*
X37438032Y-57952321D01*
X37438022Y-57952318D01*
X37302696Y-57925400D01*
X37302694Y-57925400D01*
X37302693Y-57925400D01*
X36265700Y-57925400D01*
X36198661Y-57905715D01*
X36152906Y-57852911D01*
X36141700Y-57801400D01*
X36141700Y-57344771D01*
X50798099Y-57344771D01*
X50823097Y-57470438D01*
X50823099Y-57470444D01*
X50872133Y-57588824D01*
X50872138Y-57588833D01*
X50943323Y-57695368D01*
X50943326Y-57695372D01*
X51033927Y-57785973D01*
X51033931Y-57785976D01*
X51140466Y-57857161D01*
X51140472Y-57857164D01*
X51140473Y-57857165D01*
X51258856Y-57906201D01*
X51258860Y-57906201D01*
X51258861Y-57906202D01*
X51384528Y-57931200D01*
X51384531Y-57931200D01*
X51512671Y-57931200D01*
X51597215Y-57914382D01*
X51638344Y-57906201D01*
X51756727Y-57857165D01*
X51839141Y-57802098D01*
X51905818Y-57781220D01*
X51908032Y-57781200D01*
X63567013Y-57781200D01*
X63634052Y-57800885D01*
X63679807Y-57853689D01*
X63689751Y-57922847D01*
X63670115Y-57974091D01*
X63585920Y-58100097D01*
X63585914Y-58100109D01*
X63574193Y-58128403D01*
X63547315Y-58168627D01*
X60518762Y-61197181D01*
X60457439Y-61230666D01*
X60431081Y-61233500D01*
X55436058Y-61233500D01*
X55388606Y-61224061D01*
X55360317Y-61212343D01*
X55360307Y-61212340D01*
X55215320Y-61183500D01*
X55215318Y-61183500D01*
X55067482Y-61183500D01*
X55067480Y-61183500D01*
X54922492Y-61212340D01*
X54922482Y-61212343D01*
X54785911Y-61268912D01*
X54785898Y-61268919D01*
X54662984Y-61351048D01*
X54662980Y-61351051D01*
X54558451Y-61455580D01*
X54558448Y-61455584D01*
X54476319Y-61578498D01*
X54476312Y-61578511D01*
X54419743Y-61715082D01*
X54419740Y-61715092D01*
X54390900Y-61860079D01*
X54390900Y-61860082D01*
X54390900Y-62007918D01*
X54390900Y-62007920D01*
X54390899Y-62007920D01*
X54419740Y-62152907D01*
X54419743Y-62152917D01*
X54476312Y-62289488D01*
X54476319Y-62289501D01*
X54558448Y-62412415D01*
X54558451Y-62412419D01*
X54662980Y-62516948D01*
X54662984Y-62516951D01*
X54785898Y-62599080D01*
X54785911Y-62599087D01*
X54922482Y-62655656D01*
X54922487Y-62655658D01*
X54922491Y-62655658D01*
X54922492Y-62655659D01*
X55067479Y-62684500D01*
X55067482Y-62684500D01*
X55215320Y-62684500D01*
X55312862Y-62665096D01*
X55360313Y-62655658D01*
X55374772Y-62649668D01*
X55388606Y-62643939D01*
X55436058Y-62634500D01*
X60841596Y-62634500D01*
X60932640Y-62616389D01*
X60976928Y-62607580D01*
X61040669Y-62581177D01*
X61104407Y-62554777D01*
X61104408Y-62554776D01*
X61104411Y-62554775D01*
X61219143Y-62478114D01*
X64537973Y-59159281D01*
X64578199Y-59132403D01*
X64606495Y-59120684D01*
X64729416Y-59038551D01*
X64833951Y-58934016D01*
X64916084Y-58811095D01*
X64920196Y-58801169D01*
X64929197Y-58779437D01*
X64972658Y-58674513D01*
X64982096Y-58627062D01*
X65001500Y-58529520D01*
X65001500Y-58381679D01*
X64972659Y-58236692D01*
X64972658Y-58236691D01*
X64972658Y-58236687D01*
X64956118Y-58196756D01*
X64916087Y-58100111D01*
X64916080Y-58100098D01*
X64831885Y-57974091D01*
X64811007Y-57907413D01*
X64829492Y-57840033D01*
X64881471Y-57793343D01*
X64934987Y-57781200D01*
X79876700Y-57781200D01*
X79943739Y-57800885D01*
X79989494Y-57853689D01*
X80000700Y-57905200D01*
X80000700Y-58426091D01*
X80034808Y-58553387D01*
X80048005Y-58576244D01*
X80100700Y-58667514D01*
X80100702Y-58667516D01*
X83006824Y-61573638D01*
X83040309Y-61634961D01*
X83040760Y-61637127D01*
X83060097Y-61734338D01*
X83060099Y-61734344D01*
X83109133Y-61852724D01*
X83109138Y-61852733D01*
X83180323Y-61959268D01*
X83180326Y-61959272D01*
X83270927Y-62049873D01*
X83270931Y-62049876D01*
X83377466Y-62121061D01*
X83377472Y-62121064D01*
X83377473Y-62121065D01*
X83495856Y-62170101D01*
X83495860Y-62170101D01*
X83495861Y-62170102D01*
X83621528Y-62195100D01*
X83621531Y-62195100D01*
X83749671Y-62195100D01*
X83834215Y-62178282D01*
X83875344Y-62170101D01*
X83993727Y-62121065D01*
X84070409Y-62069828D01*
X84137086Y-62048950D01*
X84204466Y-62067434D01*
X84251157Y-62119413D01*
X84263300Y-62172930D01*
X84263300Y-64840058D01*
X84243615Y-64907097D01*
X84190811Y-64952852D01*
X84121653Y-64962796D01*
X84058097Y-64933771D01*
X84051619Y-64927739D01*
X83963367Y-64839487D01*
X83963365Y-64839485D01*
X83865141Y-64782775D01*
X83832136Y-64763719D01*
X83753548Y-64742662D01*
X83685766Y-64724500D01*
X83534234Y-64724500D01*
X83387863Y-64763719D01*
X83256635Y-64839485D01*
X83256632Y-64839487D01*
X83143738Y-64952382D01*
X83142067Y-64950711D01*
X83095380Y-64984789D01*
X83025634Y-64988931D01*
X82991457Y-64970000D01*
X82480000Y-64970000D01*
X82480000Y-64570000D01*
X82980000Y-64570000D01*
X82980000Y-64141206D01*
X82979999Y-64141202D01*
X82949258Y-63986656D01*
X82949256Y-63986648D01*
X82888952Y-63841060D01*
X82888947Y-63841051D01*
X82801401Y-63710030D01*
X82801398Y-63710026D01*
X82689973Y-63598601D01*
X82689969Y-63598598D01*
X82558948Y-63511052D01*
X82558939Y-63511047D01*
X82413351Y-63450743D01*
X82413343Y-63450741D01*
X82380000Y-63444108D01*
X82380000Y-63995735D01*
X82364205Y-63979940D01*
X82295796Y-63940444D01*
X82219496Y-63920000D01*
X82140504Y-63920000D01*
X82064204Y-63940444D01*
X81995795Y-63979940D01*
X81980000Y-63995735D01*
X81980000Y-63444109D01*
X81979999Y-63444108D01*
X81946656Y-63450741D01*
X81946648Y-63450743D01*
X81801060Y-63511047D01*
X81801051Y-63511052D01*
X81670030Y-63598598D01*
X81670026Y-63598601D01*
X81558601Y-63710026D01*
X81558598Y-63710030D01*
X81471052Y-63841051D01*
X81471047Y-63841060D01*
X81410743Y-63986648D01*
X81410741Y-63986656D01*
X81380000Y-64141202D01*
X81380000Y-64570000D01*
X81880000Y-64570000D01*
X81880000Y-64970000D01*
X81380000Y-64970000D01*
X81380000Y-65398797D01*
X81410741Y-65553343D01*
X81410743Y-65553351D01*
X81471047Y-65698939D01*
X81471052Y-65698948D01*
X81558598Y-65829969D01*
X81558601Y-65829973D01*
X81670026Y-65941398D01*
X81670030Y-65941401D01*
X81801051Y-66028947D01*
X81801061Y-66028952D01*
X81946647Y-66089256D01*
X81946653Y-66089258D01*
X81979999Y-66095890D01*
X81980000Y-66095890D01*
X81980000Y-65544265D01*
X81995795Y-65560060D01*
X82064204Y-65599556D01*
X82140504Y-65620000D01*
X82219496Y-65620000D01*
X82295796Y-65599556D01*
X82364205Y-65560060D01*
X82380000Y-65544265D01*
X82380000Y-66095890D01*
X82413346Y-66089258D01*
X82413352Y-66089256D01*
X82558938Y-66028952D01*
X82558948Y-66028947D01*
X82689969Y-65941401D01*
X82689973Y-65941398D01*
X82801398Y-65829973D01*
X82801401Y-65829969D01*
X82888947Y-65698948D01*
X82888951Y-65698941D01*
X82912552Y-65641962D01*
X82956393Y-65587558D01*
X83022687Y-65565492D01*
X83090386Y-65582770D01*
X83134500Y-65627411D01*
X83141900Y-65640228D01*
X83149485Y-65653365D01*
X83256635Y-65760515D01*
X83387865Y-65836281D01*
X83534234Y-65875500D01*
X83534236Y-65875500D01*
X83685764Y-65875500D01*
X83685766Y-65875500D01*
X83832135Y-65836281D01*
X83893926Y-65800605D01*
X83961824Y-65784132D01*
X84027851Y-65806983D01*
X84071043Y-65861904D01*
X84077686Y-65931457D01*
X84070488Y-65955443D01*
X84038299Y-66033156D01*
X84038297Y-66033161D01*
X84013300Y-66158828D01*
X84013300Y-66158831D01*
X84013300Y-66286969D01*
X84013300Y-66286971D01*
X84013299Y-66286971D01*
X84038297Y-66412638D01*
X84038299Y-66412644D01*
X84087333Y-66531024D01*
X84087338Y-66531033D01*
X84158523Y-66637568D01*
X84158526Y-66637572D01*
X84249127Y-66728173D01*
X84249131Y-66728176D01*
X84355666Y-66799361D01*
X84355672Y-66799364D01*
X84355673Y-66799365D01*
X84474056Y-66848401D01*
X84474060Y-66848401D01*
X84474061Y-66848402D01*
X84599728Y-66873400D01*
X84599731Y-66873400D01*
X84727871Y-66873400D01*
X84812415Y-66856582D01*
X84853544Y-66848401D01*
X84971927Y-66799365D01*
X85078469Y-66728176D01*
X85169076Y-66637569D01*
X85240265Y-66531027D01*
X85289301Y-66412644D01*
X85300807Y-66354800D01*
X85314300Y-66286971D01*
X85314300Y-66158828D01*
X85289302Y-66033161D01*
X85289301Y-66033160D01*
X85289301Y-66033156D01*
X85280715Y-66012427D01*
X85239470Y-65912852D01*
X85232001Y-65843383D01*
X85263276Y-65780904D01*
X85284400Y-65768371D01*
X86224499Y-65768371D01*
X86249497Y-65894038D01*
X86249499Y-65894044D01*
X86298533Y-66012424D01*
X86298538Y-66012433D01*
X86369723Y-66118968D01*
X86369726Y-66118972D01*
X86460327Y-66209573D01*
X86460331Y-66209576D01*
X86566866Y-66280761D01*
X86566875Y-66280766D01*
X86593692Y-66291874D01*
X86685256Y-66329801D01*
X86685260Y-66329801D01*
X86685261Y-66329802D01*
X86810928Y-66354800D01*
X86810931Y-66354800D01*
X86939071Y-66354800D01*
X87044313Y-66333865D01*
X87064744Y-66329801D01*
X87183127Y-66280765D01*
X87289669Y-66209576D01*
X87289672Y-66209573D01*
X87322169Y-66177077D01*
X87383492Y-66143592D01*
X87453184Y-66148576D01*
X87497531Y-66177077D01*
X87583127Y-66262673D01*
X87583131Y-66262676D01*
X87689666Y-66333861D01*
X87689672Y-66333864D01*
X87689673Y-66333865D01*
X87808056Y-66382901D01*
X87808060Y-66382901D01*
X87808061Y-66382902D01*
X87933728Y-66407900D01*
X87933731Y-66407900D01*
X88061871Y-66407900D01*
X88146415Y-66391082D01*
X88187544Y-66382901D01*
X88305927Y-66333865D01*
X88412469Y-66262676D01*
X88503076Y-66172069D01*
X88574265Y-66065527D01*
X88623301Y-65947144D01*
X88637552Y-65875500D01*
X88648300Y-65821471D01*
X88648300Y-65693328D01*
X88636335Y-65633179D01*
X88636334Y-65633176D01*
X88623301Y-65567656D01*
X88574265Y-65449273D01*
X88574263Y-65449270D01*
X88574261Y-65449266D01*
X88503076Y-65342731D01*
X88503073Y-65342727D01*
X88434619Y-65274273D01*
X88407296Y-65224234D01*
X88814500Y-65224234D01*
X88814500Y-65375765D01*
X88819875Y-65395828D01*
X88819878Y-65395837D01*
X88853719Y-65522135D01*
X88870401Y-65551030D01*
X88870403Y-65551034D01*
X88898418Y-65599556D01*
X88929485Y-65653365D01*
X89036635Y-65760515D01*
X89167865Y-65836281D01*
X89314234Y-65875500D01*
X89314236Y-65875500D01*
X89465764Y-65875500D01*
X89465766Y-65875500D01*
X89612135Y-65836281D01*
X89743365Y-65760515D01*
X89850515Y-65653365D01*
X89865500Y-65627411D01*
X89916064Y-65579198D01*
X89984671Y-65565974D01*
X90049536Y-65591942D01*
X90087446Y-65641960D01*
X90111047Y-65698938D01*
X90111052Y-65698948D01*
X90198598Y-65829969D01*
X90198601Y-65829973D01*
X90310026Y-65941398D01*
X90310030Y-65941401D01*
X90441051Y-66028947D01*
X90441061Y-66028952D01*
X90586647Y-66089256D01*
X90586653Y-66089258D01*
X90619999Y-66095890D01*
X90620000Y-66095890D01*
X90620000Y-65544265D01*
X90635795Y-65560060D01*
X90704204Y-65599556D01*
X90780504Y-65620000D01*
X90859496Y-65620000D01*
X90935796Y-65599556D01*
X91004205Y-65560060D01*
X91020000Y-65544265D01*
X91020000Y-66095890D01*
X91053346Y-66089258D01*
X91053352Y-66089256D01*
X91198938Y-66028952D01*
X91198948Y-66028947D01*
X91329969Y-65941401D01*
X91329973Y-65941398D01*
X91441398Y-65829973D01*
X91441401Y-65829969D01*
X91528947Y-65698948D01*
X91528952Y-65698939D01*
X91589256Y-65553351D01*
X91589258Y-65553343D01*
X91619999Y-65398797D01*
X91620000Y-65398794D01*
X91620000Y-64970000D01*
X91120000Y-64970000D01*
X91120000Y-64570000D01*
X91620000Y-64570000D01*
X91620000Y-64141206D01*
X91619999Y-64141202D01*
X91589258Y-63986656D01*
X91589256Y-63986648D01*
X91528952Y-63841060D01*
X91528947Y-63841051D01*
X91441401Y-63710030D01*
X91441398Y-63710026D01*
X91329973Y-63598601D01*
X91329969Y-63598598D01*
X91198948Y-63511052D01*
X91198939Y-63511047D01*
X91053351Y-63450743D01*
X91053343Y-63450741D01*
X91020000Y-63444108D01*
X91020000Y-63995735D01*
X91004205Y-63979940D01*
X90935796Y-63940444D01*
X90859496Y-63920000D01*
X90780504Y-63920000D01*
X90704204Y-63940444D01*
X90635795Y-63979940D01*
X90620000Y-63995735D01*
X90620000Y-63444109D01*
X90619999Y-63444108D01*
X90586656Y-63450741D01*
X90586648Y-63450743D01*
X90441060Y-63511047D01*
X90441051Y-63511052D01*
X90310030Y-63598598D01*
X90310026Y-63598601D01*
X90198601Y-63710026D01*
X90198598Y-63710030D01*
X90111052Y-63841051D01*
X90111047Y-63841060D01*
X90050743Y-63986648D01*
X90050741Y-63986656D01*
X90020000Y-64141202D01*
X90020000Y-64570000D01*
X90520000Y-64570000D01*
X90520000Y-64970000D01*
X90008172Y-64970000D01*
X89972900Y-64989259D01*
X89903209Y-64984273D01*
X89857883Y-64950760D01*
X89856262Y-64952382D01*
X89743367Y-64839487D01*
X89743365Y-64839485D01*
X89645141Y-64782775D01*
X89612136Y-64763719D01*
X89533548Y-64742662D01*
X89465766Y-64724500D01*
X89314234Y-64724500D01*
X89167863Y-64763719D01*
X89036635Y-64839485D01*
X89036632Y-64839487D01*
X88929487Y-64946632D01*
X88929485Y-64946635D01*
X88853719Y-65077863D01*
X88814500Y-65224234D01*
X88407296Y-65224234D01*
X88401134Y-65212950D01*
X88398300Y-65186592D01*
X88398300Y-58035656D01*
X88417985Y-57968617D01*
X88470789Y-57922862D01*
X88474853Y-57921093D01*
X88476122Y-57920567D01*
X88476121Y-57920567D01*
X88476127Y-57920565D01*
X88582669Y-57849376D01*
X88673276Y-57758769D01*
X88744465Y-57652227D01*
X88793501Y-57533844D01*
X88818500Y-57408169D01*
X88818500Y-57280031D01*
X88818500Y-57280028D01*
X88793502Y-57154361D01*
X88793501Y-57154360D01*
X88793501Y-57154356D01*
X88744465Y-57035973D01*
X88744464Y-57035972D01*
X88744461Y-57035966D01*
X88673276Y-56929431D01*
X88673273Y-56929427D01*
X88582672Y-56838826D01*
X88582668Y-56838823D01*
X88476133Y-56767638D01*
X88476124Y-56767633D01*
X88357744Y-56718599D01*
X88357738Y-56718597D01*
X88232071Y-56693600D01*
X88232069Y-56693600D01*
X88103931Y-56693600D01*
X88103929Y-56693600D01*
X87978261Y-56718597D01*
X87978255Y-56718599D01*
X87859875Y-56767633D01*
X87859866Y-56767638D01*
X87753331Y-56838823D01*
X87753327Y-56838826D01*
X87662726Y-56929427D01*
X87662723Y-56929431D01*
X87591538Y-57035966D01*
X87591533Y-57035975D01*
X87542499Y-57154355D01*
X87542497Y-57154361D01*
X87523500Y-57249865D01*
X87523500Y-57249867D01*
X87517500Y-57280031D01*
X87517500Y-57408169D01*
X87523500Y-57438332D01*
X87523500Y-57438333D01*
X87542497Y-57533838D01*
X87542499Y-57533844D01*
X87587861Y-57643358D01*
X87597300Y-57690809D01*
X87597300Y-65186593D01*
X87577615Y-65253632D01*
X87560977Y-65274278D01*
X87550627Y-65284627D01*
X87489302Y-65318109D01*
X87419611Y-65313122D01*
X87375269Y-65284623D01*
X87311819Y-65221173D01*
X87278334Y-65159850D01*
X87275500Y-65133492D01*
X87275500Y-46667654D01*
X87295185Y-46600615D01*
X87311815Y-46579977D01*
X87430973Y-46460818D01*
X87492296Y-46427334D01*
X87518654Y-46424500D01*
X87615471Y-46424500D01*
X87700015Y-46407682D01*
X87741144Y-46399501D01*
X87859527Y-46350465D01*
X87966069Y-46279276D01*
X88056676Y-46188669D01*
X88127865Y-46082127D01*
X88176901Y-45963744D01*
X88190690Y-45894425D01*
X88201900Y-45838071D01*
X88201900Y-45709928D01*
X88176902Y-45584261D01*
X88176901Y-45584260D01*
X88176901Y-45584256D01*
X88127865Y-45465873D01*
X88127864Y-45465872D01*
X88127861Y-45465866D01*
X88056676Y-45359331D01*
X88056673Y-45359327D01*
X87966072Y-45268726D01*
X87966068Y-45268723D01*
X87859533Y-45197538D01*
X87859524Y-45197533D01*
X87741144Y-45148499D01*
X87741138Y-45148497D01*
X87615471Y-45123500D01*
X87615469Y-45123500D01*
X87487331Y-45123500D01*
X87487329Y-45123500D01*
X87361661Y-45148497D01*
X87361655Y-45148499D01*
X87243275Y-45197533D01*
X87243266Y-45197538D01*
X87136731Y-45268723D01*
X87136727Y-45268726D01*
X87046126Y-45359327D01*
X87046123Y-45359331D01*
X86974938Y-45465866D01*
X86974935Y-45465873D01*
X86925899Y-45584255D01*
X86925897Y-45584261D01*
X86900900Y-45709928D01*
X86900900Y-45806744D01*
X86881215Y-45873783D01*
X86864581Y-45894425D01*
X86554522Y-46204484D01*
X86554518Y-46204490D01*
X86501792Y-46295813D01*
X86496319Y-46316241D01*
X86496319Y-46316243D01*
X86474500Y-46397673D01*
X86474500Y-65133492D01*
X86454815Y-65200531D01*
X86438181Y-65221173D01*
X86369726Y-65289627D01*
X86369723Y-65289631D01*
X86298538Y-65396166D01*
X86298533Y-65396175D01*
X86249499Y-65514555D01*
X86249497Y-65514561D01*
X86224500Y-65640228D01*
X86224500Y-65640231D01*
X86224500Y-65768369D01*
X86224500Y-65768371D01*
X86224499Y-65768371D01*
X85284400Y-65768371D01*
X85323365Y-65745252D01*
X85354031Y-65741400D01*
X85391871Y-65741400D01*
X85476415Y-65724582D01*
X85517544Y-65716401D01*
X85635927Y-65667365D01*
X85742469Y-65596176D01*
X85767276Y-65571369D01*
X85792188Y-65546458D01*
X85833073Y-65505572D01*
X85833076Y-65505569D01*
X85904265Y-65399027D01*
X85953301Y-65280644D01*
X85971420Y-65189556D01*
X85978300Y-65154971D01*
X85978300Y-65026828D01*
X85953302Y-64901161D01*
X85953301Y-64901160D01*
X85953301Y-64901156D01*
X85904265Y-64782773D01*
X85904264Y-64782772D01*
X85904261Y-64782766D01*
X85833076Y-64676231D01*
X85833073Y-64676227D01*
X85764619Y-64607773D01*
X85731134Y-64546450D01*
X85728300Y-64520092D01*
X85728300Y-44451054D01*
X85747985Y-44384015D01*
X85764619Y-44363373D01*
X86500473Y-43627519D01*
X86561796Y-43594034D01*
X86588154Y-43591200D01*
X86684971Y-43591200D01*
X86769515Y-43574382D01*
X86810644Y-43566201D01*
X86929027Y-43517165D01*
X87035569Y-43445976D01*
X87126176Y-43355369D01*
X87197365Y-43248827D01*
X87246401Y-43130444D01*
X87264296Y-43040483D01*
X87271400Y-43004771D01*
X87271400Y-42876628D01*
X87246402Y-42750961D01*
X87246401Y-42750960D01*
X87246401Y-42750956D01*
X87197365Y-42632573D01*
X87197364Y-42632572D01*
X87197361Y-42632566D01*
X87126176Y-42526031D01*
X87126173Y-42526027D01*
X87035572Y-42435426D01*
X87035568Y-42435423D01*
X86929033Y-42364238D01*
X86929024Y-42364233D01*
X86810644Y-42315199D01*
X86810638Y-42315197D01*
X86684971Y-42290200D01*
X86684969Y-42290200D01*
X86556831Y-42290200D01*
X86556829Y-42290200D01*
X86431161Y-42315197D01*
X86431155Y-42315199D01*
X86312775Y-42364233D01*
X86312766Y-42364238D01*
X86206231Y-42435423D01*
X86206227Y-42435426D01*
X86115626Y-42526027D01*
X86115623Y-42526031D01*
X86044438Y-42632566D01*
X86044433Y-42632575D01*
X85995399Y-42750955D01*
X85995397Y-42750961D01*
X85970400Y-42876628D01*
X85970400Y-42973444D01*
X85950715Y-43040483D01*
X85934081Y-43061125D01*
X85007322Y-43987884D01*
X85007318Y-43987890D01*
X84954592Y-44079212D01*
X84954593Y-44079213D01*
X84927300Y-44181073D01*
X84927300Y-56673741D01*
X84907615Y-56740780D01*
X84854811Y-56786535D01*
X84785653Y-56796479D01*
X84734410Y-56776844D01*
X84720631Y-56767637D01*
X84720624Y-56767633D01*
X84602244Y-56718599D01*
X84602238Y-56718597D01*
X84476571Y-56693600D01*
X84476569Y-56693600D01*
X84348431Y-56693600D01*
X84348429Y-56693600D01*
X84222761Y-56718597D01*
X84222755Y-56718599D01*
X84104375Y-56767633D01*
X84104366Y-56767638D01*
X83997831Y-56838823D01*
X83997827Y-56838826D01*
X83907226Y-56929427D01*
X83907223Y-56929431D01*
X83836038Y-57035966D01*
X83836033Y-57035975D01*
X83786999Y-57154355D01*
X83786997Y-57154361D01*
X83762000Y-57280028D01*
X83762000Y-57280031D01*
X83762000Y-57408169D01*
X83762000Y-57408171D01*
X83761999Y-57408171D01*
X83786997Y-57533838D01*
X83786999Y-57533844D01*
X83836033Y-57652224D01*
X83836038Y-57652233D01*
X83907223Y-57758768D01*
X83907226Y-57758772D01*
X83997827Y-57849373D01*
X83997831Y-57849376D01*
X84104366Y-57920561D01*
X84104370Y-57920563D01*
X84104373Y-57920565D01*
X84186756Y-57954689D01*
X84241155Y-57998527D01*
X84263221Y-58064821D01*
X84263300Y-58069248D01*
X84263300Y-60916269D01*
X84243615Y-60983308D01*
X84190811Y-61029063D01*
X84121653Y-61039007D01*
X84070410Y-61019372D01*
X83993731Y-60968137D01*
X83993724Y-60968133D01*
X83875344Y-60919099D01*
X83875338Y-60919097D01*
X83778127Y-60899760D01*
X83716216Y-60867374D01*
X83714638Y-60865824D01*
X81038019Y-58189205D01*
X81004534Y-58127882D01*
X81001700Y-58101524D01*
X81001700Y-54467132D01*
X81021385Y-54400093D01*
X81022598Y-54398241D01*
X81077661Y-54315833D01*
X81077661Y-54315832D01*
X81077665Y-54315827D01*
X81126701Y-54197444D01*
X81151700Y-54071769D01*
X81151700Y-53943631D01*
X81151700Y-53943628D01*
X81126702Y-53817961D01*
X81126701Y-53817960D01*
X81126701Y-53817956D01*
X81077665Y-53699573D01*
X81077664Y-53699572D01*
X81077661Y-53699566D01*
X81006476Y-53593031D01*
X81006473Y-53593027D01*
X80915872Y-53502426D01*
X80915868Y-53502423D01*
X80809333Y-53431238D01*
X80809324Y-53431233D01*
X80690944Y-53382199D01*
X80690938Y-53382197D01*
X80565271Y-53357200D01*
X80565269Y-53357200D01*
X80437131Y-53357200D01*
X80437129Y-53357200D01*
X80311461Y-53382197D01*
X80311455Y-53382199D01*
X80193075Y-53431233D01*
X80193066Y-53431238D01*
X80086531Y-53502423D01*
X80086527Y-53502426D01*
X79995926Y-53593027D01*
X79995923Y-53593031D01*
X79924738Y-53699566D01*
X79924733Y-53699575D01*
X79875699Y-53817955D01*
X79875697Y-53817961D01*
X79850700Y-53943628D01*
X79850700Y-53943631D01*
X79850700Y-54071769D01*
X79850700Y-54071771D01*
X79850699Y-54071771D01*
X79875697Y-54197438D01*
X79875699Y-54197444D01*
X79924733Y-54315824D01*
X79924738Y-54315833D01*
X79979802Y-54398241D01*
X80000680Y-54464918D01*
X80000700Y-54467132D01*
X80000700Y-56656200D01*
X79981015Y-56723239D01*
X79928211Y-56768994D01*
X79876700Y-56780200D01*
X51908032Y-56780200D01*
X51840993Y-56760515D01*
X51839141Y-56759302D01*
X51756733Y-56704238D01*
X51756724Y-56704233D01*
X51638344Y-56655199D01*
X51638338Y-56655197D01*
X51512671Y-56630200D01*
X51512669Y-56630200D01*
X51384531Y-56630200D01*
X51384529Y-56630200D01*
X51258861Y-56655197D01*
X51258855Y-56655199D01*
X51140475Y-56704233D01*
X51140466Y-56704238D01*
X51033931Y-56775423D01*
X51033927Y-56775426D01*
X50943326Y-56866027D01*
X50943323Y-56866031D01*
X50872138Y-56972566D01*
X50872133Y-56972575D01*
X50823099Y-57090955D01*
X50823097Y-57090961D01*
X50798100Y-57216628D01*
X50798100Y-57216631D01*
X50798100Y-57344769D01*
X50798100Y-57344771D01*
X50798099Y-57344771D01*
X36141700Y-57344771D01*
X36141700Y-54409471D01*
X38234399Y-54409471D01*
X38259397Y-54535138D01*
X38259399Y-54535144D01*
X38308433Y-54653524D01*
X38308438Y-54653533D01*
X38379623Y-54760068D01*
X38379626Y-54760072D01*
X38470227Y-54850673D01*
X38470231Y-54850676D01*
X38576766Y-54921861D01*
X38576772Y-54921864D01*
X38576773Y-54921865D01*
X38695156Y-54970901D01*
X38695160Y-54970901D01*
X38695161Y-54970902D01*
X38820828Y-54995900D01*
X38820831Y-54995900D01*
X38948971Y-54995900D01*
X39033515Y-54979082D01*
X39074644Y-54970901D01*
X39193027Y-54921865D01*
X39299569Y-54850676D01*
X39390176Y-54760069D01*
X39461365Y-54653527D01*
X39510401Y-54535144D01*
X39535400Y-54409469D01*
X39535400Y-54348009D01*
X39555085Y-54280970D01*
X39571719Y-54260328D01*
X47493028Y-46339019D01*
X47554351Y-46305534D01*
X47580709Y-46302700D01*
X48926993Y-46302700D01*
X48994032Y-46322385D01*
X49014675Y-46339020D01*
X49058127Y-46382473D01*
X49058131Y-46382476D01*
X49164666Y-46453661D01*
X49164672Y-46453664D01*
X49164673Y-46453665D01*
X49283056Y-46502701D01*
X49283060Y-46502701D01*
X49283061Y-46502702D01*
X49408728Y-46527700D01*
X49408731Y-46527700D01*
X49536871Y-46527700D01*
X49621415Y-46510882D01*
X49662544Y-46502701D01*
X49780927Y-46453665D01*
X49887469Y-46382476D01*
X49978076Y-46291869D01*
X50049265Y-46185327D01*
X50098301Y-46066944D01*
X50111618Y-45999999D01*
X50123300Y-45941271D01*
X50123300Y-45813128D01*
X50098302Y-45687461D01*
X50098301Y-45687460D01*
X50098301Y-45687456D01*
X50055554Y-45584255D01*
X50049266Y-45569075D01*
X50049261Y-45569066D01*
X49978076Y-45462531D01*
X49978073Y-45462527D01*
X49887472Y-45371926D01*
X49887468Y-45371923D01*
X49780933Y-45300738D01*
X49780924Y-45300733D01*
X49662544Y-45251699D01*
X49662538Y-45251697D01*
X49536871Y-45226700D01*
X49536869Y-45226700D01*
X49408731Y-45226700D01*
X49408729Y-45226700D01*
X49283061Y-45251697D01*
X49283055Y-45251699D01*
X49164675Y-45300733D01*
X49164666Y-45300738D01*
X49058131Y-45371923D01*
X49058127Y-45371926D01*
X49014675Y-45415380D01*
X48953352Y-45448866D01*
X48926993Y-45451700D01*
X47297081Y-45451700D01*
X47244187Y-45465872D01*
X47244187Y-45465873D01*
X47188863Y-45480697D01*
X47188862Y-45480697D01*
X47188860Y-45480698D01*
X47091840Y-45536713D01*
X47091834Y-45536717D01*
X38969971Y-53658581D01*
X38908648Y-53692066D01*
X38882290Y-53694900D01*
X38820829Y-53694900D01*
X38695161Y-53719897D01*
X38695155Y-53719899D01*
X38576775Y-53768933D01*
X38576766Y-53768938D01*
X38470231Y-53840123D01*
X38470227Y-53840126D01*
X38379626Y-53930727D01*
X38379623Y-53930731D01*
X38308438Y-54037266D01*
X38308433Y-54037275D01*
X38259399Y-54155655D01*
X38259397Y-54155661D01*
X38234400Y-54281328D01*
X38234400Y-54281331D01*
X38234400Y-54409469D01*
X38234400Y-54409471D01*
X38234399Y-54409471D01*
X36141700Y-54409471D01*
X36141700Y-51241305D01*
X36129464Y-51179794D01*
X36124542Y-51155051D01*
X36124541Y-51155048D01*
X36118854Y-51126455D01*
X36114780Y-51105972D01*
X36061975Y-50978489D01*
X35985314Y-50863757D01*
X35985312Y-50863754D01*
X35985311Y-50863753D01*
X33632383Y-48510826D01*
X33605503Y-48470597D01*
X33593787Y-48442312D01*
X33593786Y-48442311D01*
X33593784Y-48442305D01*
X33576699Y-48416736D01*
X33511654Y-48319388D01*
X33511648Y-48319380D01*
X33407119Y-48214851D01*
X33407115Y-48214848D01*
X33284201Y-48132719D01*
X33284188Y-48132712D01*
X33147617Y-48076143D01*
X33147607Y-48076140D01*
X33002620Y-48047300D01*
X33002618Y-48047300D01*
X32854782Y-48047300D01*
X32854780Y-48047300D01*
X32709792Y-48076140D01*
X32709782Y-48076143D01*
X32573211Y-48132712D01*
X32573198Y-48132719D01*
X32473591Y-48199275D01*
X32406913Y-48220153D01*
X32339533Y-48201668D01*
X32292843Y-48149689D01*
X32280700Y-48096173D01*
X32280700Y-33518596D01*
X84685299Y-33518596D01*
X84712218Y-33653922D01*
X84712221Y-33653932D01*
X84765022Y-33781407D01*
X84841687Y-33896145D01*
X84841688Y-33896146D01*
X85557081Y-34611537D01*
X85590566Y-34672860D01*
X85593400Y-34699218D01*
X85593400Y-37150442D01*
X85583962Y-37197893D01*
X85572241Y-37226190D01*
X85572240Y-37226193D01*
X85543400Y-37371179D01*
X85543400Y-37371182D01*
X85543400Y-37519018D01*
X85543400Y-37519020D01*
X85543399Y-37519020D01*
X85572240Y-37664007D01*
X85572243Y-37664017D01*
X85628812Y-37800588D01*
X85628819Y-37800601D01*
X85710948Y-37923515D01*
X85710951Y-37923519D01*
X85815480Y-38028048D01*
X85815488Y-38028054D01*
X85938394Y-38110177D01*
X85938397Y-38110178D01*
X85938405Y-38110184D01*
X85938411Y-38110186D01*
X85938412Y-38110187D01*
X85966697Y-38121903D01*
X86006926Y-38148783D01*
X91857581Y-43999438D01*
X91891066Y-44060761D01*
X91893900Y-44087119D01*
X91893900Y-64620906D01*
X91893900Y-64758894D01*
X91893900Y-64758896D01*
X91893899Y-64758896D01*
X91920818Y-64894222D01*
X91920821Y-64894232D01*
X91973622Y-65021707D01*
X92050287Y-65136445D01*
X93971754Y-67057912D01*
X94086492Y-67134577D01*
X94213967Y-67187378D01*
X94213972Y-67187380D01*
X94213976Y-67187380D01*
X94213977Y-67187381D01*
X94349304Y-67214300D01*
X94349307Y-67214300D01*
X105755196Y-67214300D01*
X105846240Y-67196189D01*
X105890528Y-67187380D01*
X105954269Y-67160977D01*
X106018007Y-67134577D01*
X106018008Y-67134576D01*
X106018011Y-67134575D01*
X106132743Y-67057914D01*
X107504956Y-65685699D01*
X107566277Y-65652216D01*
X107604510Y-65651125D01*
X107604590Y-65650118D01*
X107609447Y-65650500D01*
X107609454Y-65650500D01*
X107790551Y-65650500D01*
X107877259Y-65636765D01*
X107969409Y-65622171D01*
X108141639Y-65566211D01*
X108302994Y-65483996D01*
X108449501Y-65377553D01*
X108577553Y-65249501D01*
X108683996Y-65102994D01*
X108766211Y-64941639D01*
X108822171Y-64769409D01*
X108836930Y-64676227D01*
X108850500Y-64590551D01*
X108850500Y-64409448D01*
X108834019Y-64305397D01*
X108822171Y-64230591D01*
X108766211Y-64058361D01*
X108766211Y-64058360D01*
X108726253Y-63979940D01*
X108683996Y-63897006D01*
X108642950Y-63840511D01*
X108577558Y-63750505D01*
X108577554Y-63750500D01*
X108449499Y-63622445D01*
X108449494Y-63622441D01*
X108302997Y-63516006D01*
X108302996Y-63516005D01*
X108302994Y-63516004D01*
X108226906Y-63477235D01*
X108141639Y-63433788D01*
X108141636Y-63433787D01*
X107969410Y-63377829D01*
X107790551Y-63349500D01*
X107790546Y-63349500D01*
X107609454Y-63349500D01*
X107609449Y-63349500D01*
X107430589Y-63377829D01*
X107258363Y-63433787D01*
X107258360Y-63433788D01*
X107097002Y-63516006D01*
X106950505Y-63622441D01*
X106950500Y-63622445D01*
X106822445Y-63750500D01*
X106822441Y-63750505D01*
X106716006Y-63897002D01*
X106633788Y-64058360D01*
X106633787Y-64058363D01*
X106577829Y-64230589D01*
X106552219Y-64392280D01*
X106522289Y-64455414D01*
X106462978Y-64492345D01*
X106393115Y-64491347D01*
X106334883Y-64452737D01*
X106307273Y-64392279D01*
X106281682Y-64230706D01*
X106225748Y-64058555D01*
X106225747Y-64058552D01*
X106143565Y-63897265D01*
X106102331Y-63840511D01*
X106102330Y-63840510D01*
X105628019Y-64314822D01*
X105625925Y-64307007D01*
X105560099Y-64192993D01*
X105467007Y-64099901D01*
X105352993Y-64034075D01*
X105345176Y-64031980D01*
X105819487Y-63557668D01*
X105819487Y-63557667D01*
X105762734Y-63516434D01*
X105601447Y-63434252D01*
X105601444Y-63434251D01*
X105429293Y-63378317D01*
X105250506Y-63350000D01*
X105069494Y-63350000D01*
X104890706Y-63378317D01*
X104718555Y-63434251D01*
X104718552Y-63434252D01*
X104557267Y-63516433D01*
X104541471Y-63527909D01*
X104475664Y-63551387D01*
X104407610Y-63535560D01*
X104358917Y-63485453D01*
X104345043Y-63416975D01*
X104368354Y-63356894D01*
X104368021Y-63356702D01*
X104369265Y-63354545D01*
X104370216Y-63352097D01*
X104372078Y-63349669D01*
X104372085Y-63349663D01*
X104428103Y-63252637D01*
X104457100Y-63144418D01*
X104457100Y-63032381D01*
X104457100Y-52467450D01*
X104476785Y-52400411D01*
X104529589Y-52354656D01*
X104598747Y-52344712D01*
X104662303Y-52373737D01*
X104700077Y-52432515D01*
X104700861Y-52435309D01*
X104739390Y-52579098D01*
X104743947Y-52596104D01*
X104807048Y-52748443D01*
X104836776Y-52820212D01*
X104958064Y-53030289D01*
X104958066Y-53030292D01*
X104958067Y-53030293D01*
X105105733Y-53222736D01*
X105105739Y-53222743D01*
X105277256Y-53394260D01*
X105277262Y-53394265D01*
X105469711Y-53541936D01*
X105679788Y-53663224D01*
X105903900Y-53756054D01*
X106138211Y-53818838D01*
X106318586Y-53842584D01*
X106378711Y-53850500D01*
X106378712Y-53850500D01*
X106621289Y-53850500D01*
X106669388Y-53844167D01*
X106861789Y-53818838D01*
X107096100Y-53756054D01*
X107320212Y-53663224D01*
X107530289Y-53541936D01*
X107722738Y-53394265D01*
X107894265Y-53222738D01*
X108041936Y-53030289D01*
X108163224Y-52820212D01*
X108256054Y-52596100D01*
X108318838Y-52361789D01*
X108350500Y-52121288D01*
X108350500Y-51878712D01*
X108318838Y-51638211D01*
X108256054Y-51403900D01*
X108163224Y-51179788D01*
X108041936Y-50969711D01*
X107894265Y-50777262D01*
X107894260Y-50777256D01*
X107722743Y-50605739D01*
X107722736Y-50605733D01*
X107530293Y-50458067D01*
X107530292Y-50458066D01*
X107530289Y-50458064D01*
X107320212Y-50336776D01*
X107270641Y-50316243D01*
X107096104Y-50243947D01*
X106861785Y-50181161D01*
X106621289Y-50149500D01*
X106621288Y-50149500D01*
X106378712Y-50149500D01*
X106378711Y-50149500D01*
X106138214Y-50181161D01*
X105903895Y-50243947D01*
X105679794Y-50336773D01*
X105679785Y-50336777D01*
X105469706Y-50458067D01*
X105277263Y-50605733D01*
X105277256Y-50605739D01*
X105105739Y-50777256D01*
X105105733Y-50777263D01*
X104958067Y-50969706D01*
X104836777Y-51179785D01*
X104836773Y-51179794D01*
X104743947Y-51403895D01*
X104743946Y-51403900D01*
X104709475Y-51532549D01*
X104700875Y-51564643D01*
X104664510Y-51624303D01*
X104601663Y-51654832D01*
X104532287Y-51646537D01*
X104478409Y-51602052D01*
X104457135Y-51535500D01*
X104457100Y-51532549D01*
X104457100Y-37502307D01*
X104476785Y-37435268D01*
X104493420Y-37414625D01*
X104536873Y-37371172D01*
X104536876Y-37371169D01*
X104608065Y-37264627D01*
X104657101Y-37146244D01*
X104682100Y-37020569D01*
X104682100Y-36892431D01*
X104682100Y-36892428D01*
X104657102Y-36766761D01*
X104657101Y-36766760D01*
X104657101Y-36766756D01*
X104608065Y-36648373D01*
X104608064Y-36648372D01*
X104608061Y-36648366D01*
X104536876Y-36541831D01*
X104536873Y-36541827D01*
X104446272Y-36451226D01*
X104446268Y-36451223D01*
X104339733Y-36380038D01*
X104339724Y-36380033D01*
X104221344Y-36330999D01*
X104221338Y-36330997D01*
X104095671Y-36306000D01*
X104095669Y-36306000D01*
X103967531Y-36306000D01*
X103967529Y-36306000D01*
X103841861Y-36330997D01*
X103841855Y-36330999D01*
X103723475Y-36380033D01*
X103723466Y-36380038D01*
X103616931Y-36451223D01*
X103616927Y-36451226D01*
X103526326Y-36541827D01*
X103526323Y-36541831D01*
X103455138Y-36648366D01*
X103455133Y-36648375D01*
X103406099Y-36766755D01*
X103406097Y-36766761D01*
X103381100Y-36892428D01*
X103381100Y-36892431D01*
X103381100Y-37020569D01*
X103381100Y-37020571D01*
X103381099Y-37020571D01*
X103406097Y-37146238D01*
X103406099Y-37146244D01*
X103455133Y-37264624D01*
X103455138Y-37264633D01*
X103526323Y-37371168D01*
X103526326Y-37371172D01*
X103569780Y-37414625D01*
X103603266Y-37475948D01*
X103606100Y-37502307D01*
X103606100Y-62860789D01*
X103586415Y-62927828D01*
X103569781Y-62948470D01*
X103132595Y-63385655D01*
X103071272Y-63419140D01*
X103006596Y-63415905D01*
X102982337Y-63408022D01*
X102889409Y-63377828D01*
X102710551Y-63349500D01*
X102710546Y-63349500D01*
X102529454Y-63349500D01*
X102529449Y-63349500D01*
X102350589Y-63377829D01*
X102178363Y-63433787D01*
X102178360Y-63433788D01*
X102017003Y-63516005D01*
X101959131Y-63558051D01*
X101893324Y-63581530D01*
X101825271Y-63565704D01*
X101776577Y-63515597D01*
X101762702Y-63447119D01*
X101778860Y-63395732D01*
X101784678Y-63385655D01*
X101825103Y-63315637D01*
X101854100Y-63207418D01*
X101854100Y-35505407D01*
X101873785Y-35438368D01*
X101890420Y-35417725D01*
X101933873Y-35374272D01*
X101933876Y-35374269D01*
X102005065Y-35267727D01*
X102054101Y-35149344D01*
X102079100Y-35023669D01*
X102079100Y-34895531D01*
X102079100Y-34895528D01*
X102054102Y-34769861D01*
X102054101Y-34769860D01*
X102054101Y-34769856D01*
X102005065Y-34651473D01*
X102005064Y-34651472D01*
X102005061Y-34651466D01*
X101933876Y-34544931D01*
X101933873Y-34544927D01*
X101843272Y-34454326D01*
X101843268Y-34454323D01*
X101736733Y-34383138D01*
X101736724Y-34383133D01*
X101618344Y-34334099D01*
X101618338Y-34334097D01*
X101492671Y-34309100D01*
X101492669Y-34309100D01*
X101364531Y-34309100D01*
X101364529Y-34309100D01*
X101238861Y-34334097D01*
X101238855Y-34334099D01*
X101120475Y-34383133D01*
X101120466Y-34383138D01*
X101013931Y-34454323D01*
X101013927Y-34454326D01*
X100923326Y-34544927D01*
X100923323Y-34544931D01*
X100852138Y-34651466D01*
X100852133Y-34651475D01*
X100803099Y-34769855D01*
X100803097Y-34769861D01*
X100778100Y-34895528D01*
X100778100Y-34895531D01*
X100778100Y-35023669D01*
X100778100Y-35023671D01*
X100778099Y-35023671D01*
X100803097Y-35149338D01*
X100803099Y-35149344D01*
X100852133Y-35267724D01*
X100852138Y-35267733D01*
X100923323Y-35374268D01*
X100923326Y-35374272D01*
X100966780Y-35417725D01*
X101000266Y-35479048D01*
X101003100Y-35505407D01*
X101003100Y-39019822D01*
X100983415Y-39086861D01*
X100930611Y-39132616D01*
X100861453Y-39142560D01*
X100810209Y-39122924D01*
X100765033Y-39092738D01*
X100765024Y-39092733D01*
X100646644Y-39043699D01*
X100646638Y-39043697D01*
X100520971Y-39018700D01*
X100520969Y-39018700D01*
X100392831Y-39018700D01*
X100392829Y-39018700D01*
X100267161Y-39043697D01*
X100267155Y-39043699D01*
X100148775Y-39092733D01*
X100148766Y-39092738D01*
X100042231Y-39163923D01*
X100042227Y-39163926D01*
X99951626Y-39254527D01*
X99951623Y-39254531D01*
X99880438Y-39361066D01*
X99880433Y-39361075D01*
X99831399Y-39479455D01*
X99831397Y-39479461D01*
X99806400Y-39605128D01*
X99806400Y-39605131D01*
X99806400Y-39733269D01*
X99806400Y-39733271D01*
X99806399Y-39733271D01*
X99831397Y-39858938D01*
X99831399Y-39858944D01*
X99880433Y-39977324D01*
X99880438Y-39977333D01*
X99951623Y-40083868D01*
X99951626Y-40083872D01*
X99995080Y-40127325D01*
X100028566Y-40188648D01*
X100031400Y-40215007D01*
X100031400Y-56833690D01*
X100011715Y-56900729D01*
X99995081Y-56921371D01*
X99216771Y-57699681D01*
X99155448Y-57733166D01*
X99129090Y-57736000D01*
X99067629Y-57736000D01*
X98941961Y-57760997D01*
X98941955Y-57760999D01*
X98823575Y-57810033D01*
X98823566Y-57810038D01*
X98717031Y-57881223D01*
X98717027Y-57881226D01*
X98626426Y-57971827D01*
X98626423Y-57971831D01*
X98611902Y-57993564D01*
X98558290Y-58038369D01*
X98488965Y-58047076D01*
X98425937Y-58016921D01*
X98389218Y-57957478D01*
X98384800Y-57924673D01*
X98384800Y-51862007D01*
X98404485Y-51794968D01*
X98421120Y-51774325D01*
X98464573Y-51730872D01*
X98464576Y-51730869D01*
X98535765Y-51624327D01*
X98584801Y-51505944D01*
X98602700Y-51415961D01*
X98609800Y-51380271D01*
X98609800Y-51252128D01*
X98584802Y-51126461D01*
X98584801Y-51126460D01*
X98584801Y-51126456D01*
X98535765Y-51008073D01*
X98535764Y-51008072D01*
X98535761Y-51008066D01*
X98464576Y-50901531D01*
X98464573Y-50901527D01*
X98373972Y-50810926D01*
X98373968Y-50810923D01*
X98267433Y-50739738D01*
X98267424Y-50739733D01*
X98149044Y-50690699D01*
X98149038Y-50690697D01*
X98023371Y-50665700D01*
X98023369Y-50665700D01*
X97895231Y-50665700D01*
X97895229Y-50665700D01*
X97769561Y-50690697D01*
X97769555Y-50690699D01*
X97651175Y-50739733D01*
X97651166Y-50739738D01*
X97544631Y-50810923D01*
X97544627Y-50810926D01*
X97454026Y-50901527D01*
X97454023Y-50901531D01*
X97382838Y-51008066D01*
X97382833Y-51008075D01*
X97333799Y-51126455D01*
X97333797Y-51126461D01*
X97308800Y-51252128D01*
X97308800Y-51252131D01*
X97308800Y-51380269D01*
X97308800Y-51380271D01*
X97308799Y-51380271D01*
X97333797Y-51505938D01*
X97333799Y-51505944D01*
X97382833Y-51624324D01*
X97382838Y-51624333D01*
X97454023Y-51730868D01*
X97454026Y-51730872D01*
X97497480Y-51774325D01*
X97530966Y-51835648D01*
X97533800Y-51862007D01*
X97533800Y-63230234D01*
X97514115Y-63297273D01*
X97461311Y-63343028D01*
X97429199Y-63352707D01*
X97270589Y-63377829D01*
X97098363Y-63433787D01*
X97098360Y-63433788D01*
X96937002Y-63516006D01*
X96790505Y-63622441D01*
X96790500Y-63622445D01*
X96662445Y-63750500D01*
X96662441Y-63750505D01*
X96556006Y-63897002D01*
X96473788Y-64058360D01*
X96473787Y-64058363D01*
X96417829Y-64230589D01*
X96396972Y-64362271D01*
X96367042Y-64425405D01*
X96307731Y-64462336D01*
X96237868Y-64461338D01*
X96179636Y-64422728D01*
X96151522Y-64358764D01*
X96150499Y-64342872D01*
X96150499Y-63605143D01*
X96150499Y-63605136D01*
X96149741Y-63598598D01*
X96147586Y-63580012D01*
X96147585Y-63580010D01*
X96147585Y-63580009D01*
X96102206Y-63477235D01*
X96022765Y-63397794D01*
X95978654Y-63378317D01*
X95919992Y-63352415D01*
X95894868Y-63349500D01*
X95894865Y-63349500D01*
X95549500Y-63349500D01*
X95482461Y-63329815D01*
X95436706Y-63277011D01*
X95425500Y-63225500D01*
X95425500Y-40997884D01*
X95425500Y-40997882D01*
X95396503Y-40889663D01*
X95340485Y-40792637D01*
X95261263Y-40713415D01*
X87054419Y-32506571D01*
X87020934Y-32445248D01*
X87018100Y-32418890D01*
X87018100Y-32357428D01*
X86993102Y-32231761D01*
X86993101Y-32231760D01*
X86993101Y-32231756D01*
X86944065Y-32113373D01*
X86944064Y-32113372D01*
X86944061Y-32113366D01*
X86872876Y-32006831D01*
X86872873Y-32006827D01*
X86782272Y-31916226D01*
X86782268Y-31916223D01*
X86703462Y-31863566D01*
X86658657Y-31809953D01*
X86649950Y-31740628D01*
X86680105Y-31677601D01*
X86684652Y-31672803D01*
X88618338Y-29739119D01*
X88679661Y-29705634D01*
X88706019Y-29702800D01*
X89397942Y-29702800D01*
X89445394Y-29712239D01*
X89473682Y-29723956D01*
X89473687Y-29723958D01*
X89473691Y-29723958D01*
X89473692Y-29723959D01*
X89618679Y-29752800D01*
X89618682Y-29752800D01*
X89766520Y-29752800D01*
X89864062Y-29733396D01*
X89911513Y-29723958D01*
X90048095Y-29667384D01*
X90171016Y-29585251D01*
X90275551Y-29480716D01*
X90357684Y-29357795D01*
X90414258Y-29221213D01*
X90443100Y-29076218D01*
X90443100Y-28928382D01*
X90443100Y-28928379D01*
X90414259Y-28783392D01*
X90414258Y-28783391D01*
X90414258Y-28783387D01*
X90372575Y-28682754D01*
X90357687Y-28646811D01*
X90357680Y-28646798D01*
X90275551Y-28523884D01*
X90275548Y-28523880D01*
X90171019Y-28419351D01*
X90171015Y-28419348D01*
X90048101Y-28337219D01*
X90048088Y-28337212D01*
X89911517Y-28280643D01*
X89911507Y-28280640D01*
X89766520Y-28251800D01*
X89766518Y-28251800D01*
X89618682Y-28251800D01*
X89618680Y-28251800D01*
X89473692Y-28280640D01*
X89473682Y-28280643D01*
X89445394Y-28292361D01*
X89397942Y-28301800D01*
X88295504Y-28301800D01*
X88160177Y-28328718D01*
X88160167Y-28328721D01*
X88032692Y-28381522D01*
X87917954Y-28458187D01*
X87917953Y-28458188D01*
X84841685Y-31534457D01*
X84841683Y-31534459D01*
X84828993Y-31553454D01*
X84828991Y-31553457D01*
X84765028Y-31649182D01*
X84765021Y-31649195D01*
X84712221Y-31776667D01*
X84712218Y-31776677D01*
X84685300Y-31912004D01*
X84685300Y-31912007D01*
X84685300Y-33380606D01*
X84685300Y-33518594D01*
X84685300Y-33518596D01*
X84685299Y-33518596D01*
X32280700Y-33518596D01*
X32280700Y-33511204D01*
X32253781Y-33375876D01*
X32253780Y-33375874D01*
X32253780Y-33375872D01*
X32249986Y-33366714D01*
X32242867Y-33349525D01*
X32242855Y-33349498D01*
X32200978Y-33248396D01*
X32200977Y-33248395D01*
X32200975Y-33248389D01*
X32124314Y-33133657D01*
X32124312Y-33133654D01*
X32124311Y-33133653D01*
X31293609Y-32302952D01*
X31260124Y-32241629D01*
X31258817Y-32195877D01*
X31275500Y-32090546D01*
X31275500Y-31909454D01*
X31275500Y-31909448D01*
X31254469Y-31776672D01*
X31247171Y-31730591D01*
X31191211Y-31558361D01*
X31191211Y-31558360D01*
X31162740Y-31502484D01*
X31108996Y-31397006D01*
X31075208Y-31350500D01*
X31002558Y-31250505D01*
X31002554Y-31250500D01*
X30874499Y-31122445D01*
X30874494Y-31122441D01*
X30727997Y-31016006D01*
X30727996Y-31016005D01*
X30727994Y-31016004D01*
X30676300Y-30989664D01*
X30566639Y-30933788D01*
X30566636Y-30933787D01*
X30394410Y-30877829D01*
X30215551Y-30849500D01*
X30215546Y-30849500D01*
X29784454Y-30849500D01*
X29784449Y-30849500D01*
X29605589Y-30877829D01*
X29433363Y-30933787D01*
X29433360Y-30933788D01*
X29272002Y-31016006D01*
X29125505Y-31122441D01*
X29125500Y-31122445D01*
X28997445Y-31250500D01*
X28997441Y-31250505D01*
X28891006Y-31397002D01*
X28808788Y-31558360D01*
X28808787Y-31558363D01*
X28752829Y-31730589D01*
X28724500Y-31909448D01*
X28724500Y-32090551D01*
X28752829Y-32269410D01*
X28808787Y-32441636D01*
X28808788Y-32441639D01*
X28891006Y-32602997D01*
X28997441Y-32749494D01*
X28997445Y-32749499D01*
X29125500Y-32877554D01*
X29125505Y-32877558D01*
X29252591Y-32969890D01*
X29272006Y-32983996D01*
X29377484Y-33037740D01*
X29433360Y-33066211D01*
X29433363Y-33066212D01*
X29511763Y-33091685D01*
X29605591Y-33122171D01*
X29630291Y-33126083D01*
X29639406Y-33127527D01*
X29702540Y-33157457D01*
X29739471Y-33216768D01*
X29738473Y-33286631D01*
X29699863Y-33344863D01*
X29639406Y-33372473D01*
X29605589Y-33377829D01*
X29433363Y-33433787D01*
X29433360Y-33433788D01*
X29272002Y-33516006D01*
X29125505Y-33622441D01*
X29125500Y-33622445D01*
X28997445Y-33750500D01*
X28997441Y-33750505D01*
X28891006Y-33897002D01*
X28808788Y-34058360D01*
X28808787Y-34058363D01*
X28752829Y-34230589D01*
X28724500Y-34409448D01*
X28724500Y-34590551D01*
X28752829Y-34769412D01*
X28778207Y-34847518D01*
X28780202Y-34917359D01*
X28747957Y-34973516D01*
X26883291Y-36838183D01*
X26883289Y-36838185D01*
X26836287Y-36919599D01*
X26836285Y-36919601D01*
X26810818Y-36963709D01*
X26810817Y-36963710D01*
X26801093Y-37000000D01*
X26773300Y-37103725D01*
X26773300Y-37103727D01*
X26773300Y-37535022D01*
X26753615Y-37602061D01*
X26700811Y-37647816D01*
X26631653Y-37657760D01*
X26568097Y-37628735D01*
X26531369Y-37573340D01*
X26501557Y-37481588D01*
X26405051Y-37292184D01*
X26405049Y-37292181D01*
X26405048Y-37292179D01*
X26280109Y-37120213D01*
X26129786Y-36969890D01*
X25957820Y-36844951D01*
X25768414Y-36748444D01*
X25768413Y-36748443D01*
X25768412Y-36748443D01*
X25566243Y-36682754D01*
X25566241Y-36682753D01*
X25566240Y-36682753D01*
X25404957Y-36657208D01*
X25356287Y-36649500D01*
X25143713Y-36649500D01*
X25095042Y-36657208D01*
X24933760Y-36682753D01*
X24731585Y-36748444D01*
X24542179Y-36844951D01*
X24370213Y-36969890D01*
X24219890Y-37120213D01*
X24094951Y-37292179D01*
X23998444Y-37481585D01*
X23932753Y-37683760D01*
X23902924Y-37872095D01*
X23899500Y-37893713D01*
X23600500Y-37893713D01*
X23567246Y-37683757D01*
X23501557Y-37481588D01*
X23405051Y-37292184D01*
X23405049Y-37292181D01*
X23405048Y-37292179D01*
X23280109Y-37120213D01*
X23129786Y-36969890D01*
X22957820Y-36844951D01*
X22768414Y-36748444D01*
X22768413Y-36748443D01*
X22768412Y-36748443D01*
X22566243Y-36682754D01*
X22566241Y-36682753D01*
X22566240Y-36682753D01*
X22404957Y-36657208D01*
X22356287Y-36649500D01*
X22143713Y-36649500D01*
X22095042Y-36657208D01*
X21933760Y-36682753D01*
X21731585Y-36748444D01*
X21542179Y-36844951D01*
X21370213Y-36969890D01*
X21219890Y-37120213D01*
X21094951Y-37292179D01*
X20998444Y-37481585D01*
X20932753Y-37683760D01*
X20902924Y-37872095D01*
X20899500Y-37893713D01*
X20200500Y-37893713D01*
X20200500Y-33893713D01*
X20899500Y-33893713D01*
X20899500Y-34106286D01*
X20931622Y-34309100D01*
X20932754Y-34316243D01*
X20977619Y-34454324D01*
X20998444Y-34518414D01*
X21094951Y-34707820D01*
X21219890Y-34879786D01*
X21370213Y-35030109D01*
X21542179Y-35155048D01*
X21542181Y-35155049D01*
X21542184Y-35155051D01*
X21731588Y-35251557D01*
X21933757Y-35317246D01*
X22143713Y-35350500D01*
X22143714Y-35350500D01*
X22356286Y-35350500D01*
X22356287Y-35350500D01*
X22566243Y-35317246D01*
X22768412Y-35251557D01*
X22957816Y-35155051D01*
X22979789Y-35139086D01*
X23129786Y-35030109D01*
X23129788Y-35030106D01*
X23129792Y-35030104D01*
X23280104Y-34879792D01*
X23280106Y-34879788D01*
X23280109Y-34879786D01*
X23405048Y-34707820D01*
X23405047Y-34707820D01*
X23405051Y-34707816D01*
X23501557Y-34518412D01*
X23567246Y-34316243D01*
X23600500Y-34106287D01*
X23600500Y-33893713D01*
X23899500Y-33893713D01*
X23899500Y-34106286D01*
X23931622Y-34309100D01*
X23932754Y-34316243D01*
X23977619Y-34454324D01*
X23998444Y-34518414D01*
X24094951Y-34707820D01*
X24219890Y-34879786D01*
X24370213Y-35030109D01*
X24542179Y-35155048D01*
X24542181Y-35155049D01*
X24542184Y-35155051D01*
X24731588Y-35251557D01*
X24933757Y-35317246D01*
X25143713Y-35350500D01*
X25143714Y-35350500D01*
X25356286Y-35350500D01*
X25356287Y-35350500D01*
X25566243Y-35317246D01*
X25768412Y-35251557D01*
X25957816Y-35155051D01*
X25979789Y-35139086D01*
X26129786Y-35030109D01*
X26129788Y-35030106D01*
X26129792Y-35030104D01*
X26280104Y-34879792D01*
X26280106Y-34879788D01*
X26280109Y-34879786D01*
X26405048Y-34707820D01*
X26405047Y-34707820D01*
X26405051Y-34707816D01*
X26501557Y-34518412D01*
X26567246Y-34316243D01*
X26600500Y-34106287D01*
X26600500Y-33893713D01*
X26567246Y-33683757D01*
X26501557Y-33481588D01*
X26405051Y-33292184D01*
X26405049Y-33292181D01*
X26405048Y-33292179D01*
X26280109Y-33120213D01*
X26129786Y-32969890D01*
X25957820Y-32844951D01*
X25768414Y-32748444D01*
X25768413Y-32748443D01*
X25768412Y-32748443D01*
X25566243Y-32682754D01*
X25566241Y-32682753D01*
X25566240Y-32682753D01*
X25404957Y-32657208D01*
X25356287Y-32649500D01*
X25143713Y-32649500D01*
X25095042Y-32657208D01*
X24933760Y-32682753D01*
X24731585Y-32748444D01*
X24542179Y-32844951D01*
X24370213Y-32969890D01*
X24219890Y-33120213D01*
X24094951Y-33292179D01*
X23998444Y-33481585D01*
X23932753Y-33683760D01*
X23899500Y-33893713D01*
X23600500Y-33893713D01*
X23567246Y-33683757D01*
X23501557Y-33481588D01*
X23405051Y-33292184D01*
X23405049Y-33292181D01*
X23405048Y-33292179D01*
X23280109Y-33120213D01*
X23129786Y-32969890D01*
X22957820Y-32844951D01*
X22768414Y-32748444D01*
X22768413Y-32748443D01*
X22768412Y-32748443D01*
X22566243Y-32682754D01*
X22566241Y-32682753D01*
X22566240Y-32682753D01*
X22404957Y-32657208D01*
X22356287Y-32649500D01*
X22143713Y-32649500D01*
X22095042Y-32657208D01*
X21933760Y-32682753D01*
X21731585Y-32748444D01*
X21542179Y-32844951D01*
X21370213Y-32969890D01*
X21219890Y-33120213D01*
X21094951Y-33292179D01*
X20998444Y-33481585D01*
X20932753Y-33683760D01*
X20899500Y-33893713D01*
X20200500Y-33893713D01*
X20200500Y-29893713D01*
X20899500Y-29893713D01*
X20899500Y-30106286D01*
X20932753Y-30316239D01*
X20998444Y-30518414D01*
X21094951Y-30707820D01*
X21219890Y-30879786D01*
X21370213Y-31030109D01*
X21542179Y-31155048D01*
X21542181Y-31155049D01*
X21542184Y-31155051D01*
X21731588Y-31251557D01*
X21933757Y-31317246D01*
X22143713Y-31350500D01*
X22143714Y-31350500D01*
X22356286Y-31350500D01*
X22356287Y-31350500D01*
X22566243Y-31317246D01*
X22768412Y-31251557D01*
X22957816Y-31155051D01*
X23002700Y-31122441D01*
X23129786Y-31030109D01*
X23129788Y-31030106D01*
X23129792Y-31030104D01*
X23280104Y-30879792D01*
X23280106Y-30879788D01*
X23280109Y-30879786D01*
X23405048Y-30707820D01*
X23405047Y-30707820D01*
X23405051Y-30707816D01*
X23501557Y-30518412D01*
X23567246Y-30316243D01*
X23600500Y-30106287D01*
X23600500Y-29893713D01*
X23899500Y-29893713D01*
X23899500Y-30106286D01*
X23932753Y-30316239D01*
X23998444Y-30518414D01*
X24094951Y-30707820D01*
X24219890Y-30879786D01*
X24370213Y-31030109D01*
X24542179Y-31155048D01*
X24542181Y-31155049D01*
X24542184Y-31155051D01*
X24731588Y-31251557D01*
X24933757Y-31317246D01*
X25143713Y-31350500D01*
X25143714Y-31350500D01*
X25356286Y-31350500D01*
X25356287Y-31350500D01*
X25566243Y-31317246D01*
X25768412Y-31251557D01*
X25957816Y-31155051D01*
X26002700Y-31122441D01*
X26129786Y-31030109D01*
X26129788Y-31030106D01*
X26129792Y-31030104D01*
X26280104Y-30879792D01*
X26280106Y-30879788D01*
X26280109Y-30879786D01*
X26405048Y-30707820D01*
X26405047Y-30707820D01*
X26405051Y-30707816D01*
X26501557Y-30518412D01*
X26567246Y-30316243D01*
X26600500Y-30106287D01*
X26600500Y-29893713D01*
X26567246Y-29683757D01*
X26501557Y-29481588D01*
X26405051Y-29292184D01*
X26405049Y-29292181D01*
X26405048Y-29292179D01*
X26280109Y-29120213D01*
X26129786Y-28969890D01*
X25957820Y-28844951D01*
X25768414Y-28748444D01*
X25768413Y-28748443D01*
X25768412Y-28748443D01*
X25566243Y-28682754D01*
X25566241Y-28682753D01*
X25566240Y-28682753D01*
X25404957Y-28657208D01*
X25356287Y-28649500D01*
X25143713Y-28649500D01*
X25095042Y-28657208D01*
X24933760Y-28682753D01*
X24731585Y-28748444D01*
X24542179Y-28844951D01*
X24370213Y-28969890D01*
X24219890Y-29120213D01*
X24094951Y-29292179D01*
X23998444Y-29481585D01*
X23932753Y-29683760D01*
X23899500Y-29893713D01*
X23600500Y-29893713D01*
X23567246Y-29683757D01*
X23501557Y-29481588D01*
X23405051Y-29292184D01*
X23405049Y-29292181D01*
X23405048Y-29292179D01*
X23280109Y-29120213D01*
X23129786Y-28969890D01*
X22957820Y-28844951D01*
X22768414Y-28748444D01*
X22768413Y-28748443D01*
X22768412Y-28748443D01*
X22566243Y-28682754D01*
X22566241Y-28682753D01*
X22566240Y-28682753D01*
X22404957Y-28657208D01*
X22356287Y-28649500D01*
X22143713Y-28649500D01*
X22095042Y-28657208D01*
X21933760Y-28682753D01*
X21731585Y-28748444D01*
X21542179Y-28844951D01*
X21370213Y-28969890D01*
X21219890Y-29120213D01*
X21094951Y-29292179D01*
X20998444Y-29481585D01*
X20932753Y-29683760D01*
X20899500Y-29893713D01*
X20200500Y-29893713D01*
X20200500Y-23878711D01*
X28149500Y-23878711D01*
X28149500Y-24121288D01*
X28181161Y-24361785D01*
X28243947Y-24596104D01*
X28336773Y-24820205D01*
X28336776Y-24820212D01*
X28458064Y-25030289D01*
X28458066Y-25030292D01*
X28458067Y-25030293D01*
X28605733Y-25222736D01*
X28605739Y-25222743D01*
X28777256Y-25394260D01*
X28777262Y-25394265D01*
X28969711Y-25541936D01*
X29179788Y-25663224D01*
X29403900Y-25756054D01*
X29638211Y-25818838D01*
X29818586Y-25842584D01*
X29878711Y-25850500D01*
X29878712Y-25850500D01*
X30121289Y-25850500D01*
X30169388Y-25844167D01*
X30361789Y-25818838D01*
X30596100Y-25756054D01*
X30820212Y-25663224D01*
X31030289Y-25541936D01*
X31222738Y-25394265D01*
X31394265Y-25222738D01*
X31541936Y-25030289D01*
X31663224Y-24820212D01*
X31756054Y-24596100D01*
X31818838Y-24361789D01*
X31850500Y-24121288D01*
X31850500Y-23878712D01*
X31818838Y-23638211D01*
X31756054Y-23403900D01*
X31663224Y-23179788D01*
X31541936Y-22969711D01*
X31394265Y-22777262D01*
X31394260Y-22777256D01*
X31222743Y-22605739D01*
X31222736Y-22605733D01*
X31030293Y-22458067D01*
X31030292Y-22458066D01*
X31030289Y-22458064D01*
X30820212Y-22336776D01*
X30820205Y-22336773D01*
X30596104Y-22243947D01*
X30361785Y-22181161D01*
X30121289Y-22149500D01*
X30121288Y-22149500D01*
X29878712Y-22149500D01*
X29878711Y-22149500D01*
X29638214Y-22181161D01*
X29403895Y-22243947D01*
X29179794Y-22336773D01*
X29179785Y-22336777D01*
X28969706Y-22458067D01*
X28777263Y-22605733D01*
X28777256Y-22605739D01*
X28605739Y-22777256D01*
X28605733Y-22777263D01*
X28458067Y-22969706D01*
X28336777Y-23179785D01*
X28336773Y-23179794D01*
X28243947Y-23403895D01*
X28181161Y-23638214D01*
X28149500Y-23878711D01*
X20200500Y-23878711D01*
X20200500Y-20324500D01*
X20220185Y-20257461D01*
X20272989Y-20211706D01*
X20324500Y-20200500D01*
X72876000Y-20200500D01*
X72943039Y-20220185D01*
G37*
G04 #@! TD.AperFunction*
G04 #@! TD*
M02*
