G04 #@! TF.GenerationSoftware,KiCad,Pcbnew,10.0.5*
G04 #@! TF.CreationDate,2026-09-11T11:47:56-03:00*
G04 #@! TF.ProjectId,e36-kline-onboard,6533362d-6b6c-4696-9e65-2d6f6e626f61,rev?*
G04 #@! TF.SameCoordinates,Original*
G04 #@! TF.FileFunction,Legend,Top*
G04 #@! TF.FilePolarity,Positive*
%FSLAX46Y46*%
G04 Gerber Fmt 4.6, Leading zero omitted, Abs format (unit mm)*
G04 Created by KiCad (PCBNEW 10.0.5) date 2026-09-11 11:47:56*
%MOMM*%
%LPD*%
G01*
G04 APERTURE LIST*
G04 Aperture macros list*
%AMRoundRect*
0 Rectangle with rounded corners*
0 $1 Rounding radius*
0 $2 $3 $4 $5 $6 $7 $8 $9 X,Y pos of 4 corners*
0 Add a 4 corners polygon primitive as box body*
4,1,4,$2,$3,$4,$5,$6,$7,$8,$9,$2,$3,0*
0 Add four circle primitives for the rounded corners*
1,1,$1+$1,$2,$3*
1,1,$1+$1,$4,$5*
1,1,$1+$1,$6,$7*
1,1,$1+$1,$8,$9*
0 Add four rect primitives between the rounded corners*
20,1,$1+$1,$2,$3,$4,$5,0*
20,1,$1+$1,$4,$5,$6,$7,0*
20,1,$1+$1,$6,$7,$8,$9,0*
20,1,$1+$1,$8,$9,$2,$3,0*%
G04 Aperture macros list end*
%ADD10C,0.120000*%
%ADD11C,0.150000*%
%ADD12RoundRect,0.225000X0.250000X-0.225000X0.250000X0.225000X-0.250000X0.225000X-0.250000X-0.225000X0*%
%ADD13C,0.650000*%
%ADD14RoundRect,0.150000X-0.150000X-0.575000X0.150000X-0.575000X0.150000X0.575000X-0.150000X0.575000X0*%
%ADD15RoundRect,0.075000X-0.075000X-0.650000X0.075000X-0.650000X0.075000X0.650000X-0.075000X0.650000X0*%
%ADD16O,1.000000X2.100000*%
%ADD17O,1.000000X1.600000*%
%ADD18RoundRect,0.250000X1.000000X0.650000X-1.000000X0.650000X-1.000000X-0.650000X1.000000X-0.650000X0*%
%ADD19RoundRect,0.150000X0.150000X-0.825000X0.150000X0.825000X-0.150000X0.825000X-0.150000X-0.825000X0*%
%ADD20RoundRect,0.250000X-1.100000X0.325000X-1.100000X-0.325000X1.100000X-0.325000X1.100000X0.325000X0*%
%ADD21RoundRect,0.200000X-0.200000X-0.275000X0.200000X-0.275000X0.200000X0.275000X-0.200000X0.275000X0*%
%ADD22RoundRect,0.250000X-0.525000X-0.400000X0.525000X-0.400000X0.525000X0.400000X-0.525000X0.400000X0*%
%ADD23RoundRect,0.218750X-0.218750X-0.256250X0.218750X-0.256250X0.218750X0.256250X-0.218750X0.256250X0*%
%ADD24RoundRect,0.250000X-0.475000X0.250000X-0.475000X-0.250000X0.475000X-0.250000X0.475000X0.250000X0*%
%ADD25C,3.200000*%
%ADD26RoundRect,0.250000X1.075000X-0.362500X1.075000X0.362500X-1.075000X0.362500X-1.075000X-0.362500X0*%
%ADD27RoundRect,0.200000X-0.275000X0.200000X-0.275000X-0.200000X0.275000X-0.200000X0.275000X0.200000X0*%
%ADD28C,2.100000*%
%ADD29RoundRect,0.225000X-0.250000X0.225000X-0.250000X-0.225000X0.250000X-0.225000X0.250000X0.225000X0*%
%ADD30RoundRect,0.250000X-0.900000X1.000000X-0.900000X-1.000000X0.900000X-1.000000X0.900000X1.000000X0*%
%ADD31R,1.500000X0.900000*%
%ADD32R,0.900000X1.500000*%
%ADD33C,0.600000*%
%ADD34R,3.900000X3.900000*%
%ADD35RoundRect,0.250000X-0.250000X-0.475000X0.250000X-0.475000X0.250000X0.475000X-0.250000X0.475000X0*%
%ADD36RoundRect,0.250000X-0.600000X-2.600000X0.600000X-2.600000X0.600000X2.600000X-0.600000X2.600000X0*%
%ADD37RoundRect,0.150000X-0.512500X-0.150000X0.512500X-0.150000X0.512500X0.150000X-0.512500X0.150000X0*%
%ADD38RoundRect,0.225000X-0.225000X-0.250000X0.225000X-0.250000X0.225000X0.250000X-0.225000X0.250000X0*%
%ADD39RoundRect,0.250000X-0.375000X-0.625000X0.375000X-0.625000X0.375000X0.625000X-0.375000X0.625000X0*%
%ADD40RoundRect,0.218750X0.218750X0.256250X-0.218750X0.256250X-0.218750X-0.256250X0.218750X-0.256250X0*%
%ADD41R,1.700000X1.700000*%
%ADD42C,1.700000*%
%ADD43RoundRect,0.250000X0.725000X-0.600000X0.725000X0.600000X-0.725000X0.600000X-0.725000X-0.600000X0*%
%ADD44O,1.950000X1.700000*%
%ADD45RoundRect,0.250000X0.650000X-1.000000X0.650000X1.000000X-0.650000X1.000000X-0.650000X-1.000000X0*%
G04 APERTURE END LIST*
D10*
X26450000Y-43817593D02*
X26450000Y-44317593D01*
X26450000Y-44317593D02*
X26416667Y-44417593D01*
X26416667Y-44417593D02*
X26350000Y-44484260D01*
X26350000Y-44484260D02*
X26250000Y-44517593D01*
X26250000Y-44517593D02*
X26183334Y-44517593D01*
X27083333Y-44050926D02*
X27083333Y-44517593D01*
X26916667Y-43784260D02*
X26750000Y-44284260D01*
X26750000Y-44284260D02*
X27183333Y-44284260D01*
X28350000Y-43850926D02*
X28283333Y-43817593D01*
X28283333Y-43817593D02*
X28183333Y-43817593D01*
X28183333Y-43817593D02*
X28083333Y-43850926D01*
X28083333Y-43850926D02*
X28016667Y-43917593D01*
X28016667Y-43917593D02*
X27983333Y-43984260D01*
X27983333Y-43984260D02*
X27950000Y-44117593D01*
X27950000Y-44117593D02*
X27950000Y-44217593D01*
X27950000Y-44217593D02*
X27983333Y-44350926D01*
X27983333Y-44350926D02*
X28016667Y-44417593D01*
X28016667Y-44417593D02*
X28083333Y-44484260D01*
X28083333Y-44484260D02*
X28183333Y-44517593D01*
X28183333Y-44517593D02*
X28250000Y-44517593D01*
X28250000Y-44517593D02*
X28350000Y-44484260D01*
X28350000Y-44484260D02*
X28383333Y-44450926D01*
X28383333Y-44450926D02*
X28383333Y-44217593D01*
X28383333Y-44217593D02*
X28250000Y-44217593D01*
X28683333Y-44517593D02*
X28683333Y-43817593D01*
X28683333Y-43817593D02*
X29083333Y-44517593D01*
X29083333Y-44517593D02*
X29083333Y-43817593D01*
X29416666Y-44517593D02*
X29416666Y-43817593D01*
X29416666Y-43817593D02*
X29583333Y-43817593D01*
X29583333Y-43817593D02*
X29683333Y-43850926D01*
X29683333Y-43850926D02*
X29750000Y-43917593D01*
X29750000Y-43917593D02*
X29783333Y-43984260D01*
X29783333Y-43984260D02*
X29816666Y-44117593D01*
X29816666Y-44117593D02*
X29816666Y-44217593D01*
X29816666Y-44217593D02*
X29783333Y-44350926D01*
X29783333Y-44350926D02*
X29750000Y-44417593D01*
X29750000Y-44417593D02*
X29683333Y-44484260D01*
X29683333Y-44484260D02*
X29583333Y-44517593D01*
X29583333Y-44517593D02*
X29416666Y-44517593D01*
X30649999Y-44517593D02*
X30649999Y-43817593D01*
X31049999Y-44517593D02*
X30749999Y-44117593D01*
X31049999Y-43817593D02*
X30649999Y-44217593D01*
X31883332Y-44250926D02*
X32416666Y-44250926D01*
X32149999Y-44517593D02*
X32149999Y-43984260D01*
X33116666Y-44517593D02*
X32716666Y-44517593D01*
X32916666Y-44517593D02*
X32916666Y-43817593D01*
X32916666Y-43817593D02*
X32849999Y-43917593D01*
X32849999Y-43917593D02*
X32783333Y-43984260D01*
X32783333Y-43984260D02*
X32716666Y-44017593D01*
X33383333Y-43884260D02*
X33416666Y-43850926D01*
X33416666Y-43850926D02*
X33483333Y-43817593D01*
X33483333Y-43817593D02*
X33650000Y-43817593D01*
X33650000Y-43817593D02*
X33716666Y-43850926D01*
X33716666Y-43850926D02*
X33750000Y-43884260D01*
X33750000Y-43884260D02*
X33783333Y-43950926D01*
X33783333Y-43950926D02*
X33783333Y-44017593D01*
X33783333Y-44017593D02*
X33750000Y-44117593D01*
X33750000Y-44117593D02*
X33350000Y-44517593D01*
X33350000Y-44517593D02*
X33783333Y-44517593D01*
X27590476Y-48363855D02*
X27590476Y-47563855D01*
X28047619Y-48363855D02*
X27704761Y-47906712D01*
X28047619Y-47563855D02*
X27590476Y-48020998D01*
X30590476Y-59963855D02*
X30133333Y-59963855D01*
X30361905Y-59963855D02*
X30361905Y-59163855D01*
X30361905Y-59163855D02*
X30285714Y-59278140D01*
X30285714Y-59278140D02*
X30209524Y-59354331D01*
X30209524Y-59354331D02*
X30133333Y-59392426D01*
X30895238Y-59240045D02*
X30933334Y-59201950D01*
X30933334Y-59201950D02*
X31009524Y-59163855D01*
X31009524Y-59163855D02*
X31200000Y-59163855D01*
X31200000Y-59163855D02*
X31276191Y-59201950D01*
X31276191Y-59201950D02*
X31314286Y-59240045D01*
X31314286Y-59240045D02*
X31352381Y-59316236D01*
X31352381Y-59316236D02*
X31352381Y-59392426D01*
X31352381Y-59392426D02*
X31314286Y-59506712D01*
X31314286Y-59506712D02*
X30857143Y-59963855D01*
X30857143Y-59963855D02*
X31352381Y-59963855D01*
X31580953Y-59163855D02*
X31847620Y-59963855D01*
X31847620Y-59963855D02*
X32114286Y-59163855D01*
X32990477Y-59963855D02*
X32990477Y-59163855D01*
X33371429Y-59963855D02*
X33371429Y-59163855D01*
X33371429Y-59163855D02*
X33828572Y-59963855D01*
X33828572Y-59963855D02*
X33828572Y-59163855D01*
X38914284Y-23525760D02*
X38838093Y-23563855D01*
X38838093Y-23563855D02*
X38685712Y-23563855D01*
X38685712Y-23563855D02*
X38609522Y-23525760D01*
X38609522Y-23525760D02*
X38571426Y-23449569D01*
X38571426Y-23449569D02*
X38571426Y-23144807D01*
X38571426Y-23144807D02*
X38609522Y-23068617D01*
X38609522Y-23068617D02*
X38685712Y-23030521D01*
X38685712Y-23030521D02*
X38838093Y-23030521D01*
X38838093Y-23030521D02*
X38914284Y-23068617D01*
X38914284Y-23068617D02*
X38952379Y-23144807D01*
X38952379Y-23144807D02*
X38952379Y-23220998D01*
X38952379Y-23220998D02*
X38571426Y-23297188D01*
X39219045Y-22763855D02*
X39714283Y-22763855D01*
X39714283Y-22763855D02*
X39447617Y-23068617D01*
X39447617Y-23068617D02*
X39561902Y-23068617D01*
X39561902Y-23068617D02*
X39638093Y-23106712D01*
X39638093Y-23106712D02*
X39676188Y-23144807D01*
X39676188Y-23144807D02*
X39714283Y-23220998D01*
X39714283Y-23220998D02*
X39714283Y-23411474D01*
X39714283Y-23411474D02*
X39676188Y-23487664D01*
X39676188Y-23487664D02*
X39638093Y-23525760D01*
X39638093Y-23525760D02*
X39561902Y-23563855D01*
X39561902Y-23563855D02*
X39333331Y-23563855D01*
X39333331Y-23563855D02*
X39257140Y-23525760D01*
X39257140Y-23525760D02*
X39219045Y-23487664D01*
X40399998Y-22763855D02*
X40247617Y-22763855D01*
X40247617Y-22763855D02*
X40171426Y-22801950D01*
X40171426Y-22801950D02*
X40133331Y-22840045D01*
X40133331Y-22840045D02*
X40057141Y-22954331D01*
X40057141Y-22954331D02*
X40019045Y-23106712D01*
X40019045Y-23106712D02*
X40019045Y-23411474D01*
X40019045Y-23411474D02*
X40057141Y-23487664D01*
X40057141Y-23487664D02*
X40095236Y-23525760D01*
X40095236Y-23525760D02*
X40171426Y-23563855D01*
X40171426Y-23563855D02*
X40323807Y-23563855D01*
X40323807Y-23563855D02*
X40399998Y-23525760D01*
X40399998Y-23525760D02*
X40438093Y-23487664D01*
X40438093Y-23487664D02*
X40476188Y-23411474D01*
X40476188Y-23411474D02*
X40476188Y-23220998D01*
X40476188Y-23220998D02*
X40438093Y-23144807D01*
X40438093Y-23144807D02*
X40399998Y-23106712D01*
X40399998Y-23106712D02*
X40323807Y-23068617D01*
X40323807Y-23068617D02*
X40171426Y-23068617D01*
X40171426Y-23068617D02*
X40095236Y-23106712D01*
X40095236Y-23106712D02*
X40057141Y-23144807D01*
X40057141Y-23144807D02*
X40019045Y-23220998D01*
X40933331Y-23563855D02*
X40857141Y-23525760D01*
X40857141Y-23525760D02*
X40819046Y-23487664D01*
X40819046Y-23487664D02*
X40780950Y-23411474D01*
X40780950Y-23411474D02*
X40780950Y-23182902D01*
X40780950Y-23182902D02*
X40819046Y-23106712D01*
X40819046Y-23106712D02*
X40857141Y-23068617D01*
X40857141Y-23068617D02*
X40933331Y-23030521D01*
X40933331Y-23030521D02*
X41047617Y-23030521D01*
X41047617Y-23030521D02*
X41123808Y-23068617D01*
X41123808Y-23068617D02*
X41161903Y-23106712D01*
X41161903Y-23106712D02*
X41199998Y-23182902D01*
X41199998Y-23182902D02*
X41199998Y-23411474D01*
X41199998Y-23411474D02*
X41161903Y-23487664D01*
X41161903Y-23487664D02*
X41123808Y-23525760D01*
X41123808Y-23525760D02*
X41047617Y-23563855D01*
X41047617Y-23563855D02*
X40933331Y-23563855D01*
X41542856Y-23563855D02*
X41542856Y-22763855D01*
X41542856Y-23068617D02*
X41619046Y-23030521D01*
X41619046Y-23030521D02*
X41771427Y-23030521D01*
X41771427Y-23030521D02*
X41847618Y-23068617D01*
X41847618Y-23068617D02*
X41885713Y-23106712D01*
X41885713Y-23106712D02*
X41923808Y-23182902D01*
X41923808Y-23182902D02*
X41923808Y-23411474D01*
X41923808Y-23411474D02*
X41885713Y-23487664D01*
X41885713Y-23487664D02*
X41847618Y-23525760D01*
X41847618Y-23525760D02*
X41771427Y-23563855D01*
X41771427Y-23563855D02*
X41619046Y-23563855D01*
X41619046Y-23563855D02*
X41542856Y-23525760D01*
X42609523Y-23563855D02*
X42609523Y-22763855D01*
X42609523Y-23525760D02*
X42533332Y-23563855D01*
X42533332Y-23563855D02*
X42380951Y-23563855D01*
X42380951Y-23563855D02*
X42304761Y-23525760D01*
X42304761Y-23525760D02*
X42266666Y-23487664D01*
X42266666Y-23487664D02*
X42228570Y-23411474D01*
X42228570Y-23411474D02*
X42228570Y-23182902D01*
X42228570Y-23182902D02*
X42266666Y-23106712D01*
X42266666Y-23106712D02*
X42304761Y-23068617D01*
X42304761Y-23068617D02*
X42380951Y-23030521D01*
X42380951Y-23030521D02*
X42533332Y-23030521D01*
X42533332Y-23030521D02*
X42609523Y-23068617D01*
X44171428Y-22840045D02*
X44209524Y-22801950D01*
X44209524Y-22801950D02*
X44285714Y-22763855D01*
X44285714Y-22763855D02*
X44476190Y-22763855D01*
X44476190Y-22763855D02*
X44552381Y-22801950D01*
X44552381Y-22801950D02*
X44590476Y-22840045D01*
X44590476Y-22840045D02*
X44628571Y-22916236D01*
X44628571Y-22916236D02*
X44628571Y-22992426D01*
X44628571Y-22992426D02*
X44590476Y-23106712D01*
X44590476Y-23106712D02*
X44133333Y-23563855D01*
X44133333Y-23563855D02*
X44628571Y-23563855D01*
X45123810Y-22763855D02*
X45200000Y-22763855D01*
X45200000Y-22763855D02*
X45276191Y-22801950D01*
X45276191Y-22801950D02*
X45314286Y-22840045D01*
X45314286Y-22840045D02*
X45352381Y-22916236D01*
X45352381Y-22916236D02*
X45390476Y-23068617D01*
X45390476Y-23068617D02*
X45390476Y-23259093D01*
X45390476Y-23259093D02*
X45352381Y-23411474D01*
X45352381Y-23411474D02*
X45314286Y-23487664D01*
X45314286Y-23487664D02*
X45276191Y-23525760D01*
X45276191Y-23525760D02*
X45200000Y-23563855D01*
X45200000Y-23563855D02*
X45123810Y-23563855D01*
X45123810Y-23563855D02*
X45047619Y-23525760D01*
X45047619Y-23525760D02*
X45009524Y-23487664D01*
X45009524Y-23487664D02*
X44971429Y-23411474D01*
X44971429Y-23411474D02*
X44933333Y-23259093D01*
X44933333Y-23259093D02*
X44933333Y-23068617D01*
X44933333Y-23068617D02*
X44971429Y-22916236D01*
X44971429Y-22916236D02*
X45009524Y-22840045D01*
X45009524Y-22840045D02*
X45047619Y-22801950D01*
X45047619Y-22801950D02*
X45123810Y-22763855D01*
X45695238Y-22840045D02*
X45733334Y-22801950D01*
X45733334Y-22801950D02*
X45809524Y-22763855D01*
X45809524Y-22763855D02*
X46000000Y-22763855D01*
X46000000Y-22763855D02*
X46076191Y-22801950D01*
X46076191Y-22801950D02*
X46114286Y-22840045D01*
X46114286Y-22840045D02*
X46152381Y-22916236D01*
X46152381Y-22916236D02*
X46152381Y-22992426D01*
X46152381Y-22992426D02*
X46114286Y-23106712D01*
X46114286Y-23106712D02*
X45657143Y-23563855D01*
X45657143Y-23563855D02*
X46152381Y-23563855D01*
X46838096Y-22763855D02*
X46685715Y-22763855D01*
X46685715Y-22763855D02*
X46609524Y-22801950D01*
X46609524Y-22801950D02*
X46571429Y-22840045D01*
X46571429Y-22840045D02*
X46495239Y-22954331D01*
X46495239Y-22954331D02*
X46457143Y-23106712D01*
X46457143Y-23106712D02*
X46457143Y-23411474D01*
X46457143Y-23411474D02*
X46495239Y-23487664D01*
X46495239Y-23487664D02*
X46533334Y-23525760D01*
X46533334Y-23525760D02*
X46609524Y-23563855D01*
X46609524Y-23563855D02*
X46761905Y-23563855D01*
X46761905Y-23563855D02*
X46838096Y-23525760D01*
X46838096Y-23525760D02*
X46876191Y-23487664D01*
X46876191Y-23487664D02*
X46914286Y-23411474D01*
X46914286Y-23411474D02*
X46914286Y-23220998D01*
X46914286Y-23220998D02*
X46876191Y-23144807D01*
X46876191Y-23144807D02*
X46838096Y-23106712D01*
X46838096Y-23106712D02*
X46761905Y-23068617D01*
X46761905Y-23068617D02*
X46609524Y-23068617D01*
X46609524Y-23068617D02*
X46533334Y-23106712D01*
X46533334Y-23106712D02*
X46495239Y-23144807D01*
X46495239Y-23144807D02*
X46457143Y-23220998D01*
X47257144Y-23259093D02*
X47866668Y-23259093D01*
X48400001Y-22763855D02*
X48476191Y-22763855D01*
X48476191Y-22763855D02*
X48552382Y-22801950D01*
X48552382Y-22801950D02*
X48590477Y-22840045D01*
X48590477Y-22840045D02*
X48628572Y-22916236D01*
X48628572Y-22916236D02*
X48666667Y-23068617D01*
X48666667Y-23068617D02*
X48666667Y-23259093D01*
X48666667Y-23259093D02*
X48628572Y-23411474D01*
X48628572Y-23411474D02*
X48590477Y-23487664D01*
X48590477Y-23487664D02*
X48552382Y-23525760D01*
X48552382Y-23525760D02*
X48476191Y-23563855D01*
X48476191Y-23563855D02*
X48400001Y-23563855D01*
X48400001Y-23563855D02*
X48323810Y-23525760D01*
X48323810Y-23525760D02*
X48285715Y-23487664D01*
X48285715Y-23487664D02*
X48247620Y-23411474D01*
X48247620Y-23411474D02*
X48209524Y-23259093D01*
X48209524Y-23259093D02*
X48209524Y-23068617D01*
X48209524Y-23068617D02*
X48247620Y-22916236D01*
X48247620Y-22916236D02*
X48285715Y-22840045D01*
X48285715Y-22840045D02*
X48323810Y-22801950D01*
X48323810Y-22801950D02*
X48400001Y-22763855D01*
X49047620Y-23563855D02*
X49200001Y-23563855D01*
X49200001Y-23563855D02*
X49276191Y-23525760D01*
X49276191Y-23525760D02*
X49314287Y-23487664D01*
X49314287Y-23487664D02*
X49390477Y-23373379D01*
X49390477Y-23373379D02*
X49428572Y-23220998D01*
X49428572Y-23220998D02*
X49428572Y-22916236D01*
X49428572Y-22916236D02*
X49390477Y-22840045D01*
X49390477Y-22840045D02*
X49352382Y-22801950D01*
X49352382Y-22801950D02*
X49276191Y-22763855D01*
X49276191Y-22763855D02*
X49123810Y-22763855D01*
X49123810Y-22763855D02*
X49047620Y-22801950D01*
X49047620Y-22801950D02*
X49009525Y-22840045D01*
X49009525Y-22840045D02*
X48971429Y-22916236D01*
X48971429Y-22916236D02*
X48971429Y-23106712D01*
X48971429Y-23106712D02*
X49009525Y-23182902D01*
X49009525Y-23182902D02*
X49047620Y-23220998D01*
X49047620Y-23220998D02*
X49123810Y-23259093D01*
X49123810Y-23259093D02*
X49276191Y-23259093D01*
X49276191Y-23259093D02*
X49352382Y-23220998D01*
X49352382Y-23220998D02*
X49390477Y-23182902D01*
X49390477Y-23182902D02*
X49428572Y-23106712D01*
X69509523Y-59563855D02*
X70004761Y-59563855D01*
X70004761Y-59563855D02*
X69738095Y-59868617D01*
X69738095Y-59868617D02*
X69852380Y-59868617D01*
X69852380Y-59868617D02*
X69928571Y-59906712D01*
X69928571Y-59906712D02*
X69966666Y-59944807D01*
X69966666Y-59944807D02*
X70004761Y-60020998D01*
X70004761Y-60020998D02*
X70004761Y-60211474D01*
X70004761Y-60211474D02*
X69966666Y-60287664D01*
X69966666Y-60287664D02*
X69928571Y-60325760D01*
X69928571Y-60325760D02*
X69852380Y-60363855D01*
X69852380Y-60363855D02*
X69623809Y-60363855D01*
X69623809Y-60363855D02*
X69547618Y-60325760D01*
X69547618Y-60325760D02*
X69509523Y-60287664D01*
X70233333Y-59563855D02*
X70500000Y-60363855D01*
X70500000Y-60363855D02*
X70766666Y-59563855D01*
X70957142Y-59563855D02*
X71452380Y-59563855D01*
X71452380Y-59563855D02*
X71185714Y-59868617D01*
X71185714Y-59868617D02*
X71299999Y-59868617D01*
X71299999Y-59868617D02*
X71376190Y-59906712D01*
X71376190Y-59906712D02*
X71414285Y-59944807D01*
X71414285Y-59944807D02*
X71452380Y-60020998D01*
X71452380Y-60020998D02*
X71452380Y-60211474D01*
X71452380Y-60211474D02*
X71414285Y-60287664D01*
X71414285Y-60287664D02*
X71376190Y-60325760D01*
X71376190Y-60325760D02*
X71299999Y-60363855D01*
X71299999Y-60363855D02*
X71071428Y-60363855D01*
X71071428Y-60363855D02*
X70995237Y-60325760D01*
X70995237Y-60325760D02*
X70957142Y-60287664D01*
X77961904Y-23335283D02*
X78342857Y-23335283D01*
X77885714Y-23563855D02*
X78152381Y-22763855D01*
X78152381Y-22763855D02*
X78419047Y-23563855D01*
X78685714Y-23563855D02*
X78685714Y-22763855D01*
X78685714Y-22763855D02*
X79142857Y-23563855D01*
X79142857Y-23563855D02*
X79142857Y-22763855D01*
X79409523Y-22763855D02*
X79866666Y-22763855D01*
X79638094Y-23563855D02*
X79638094Y-22763855D01*
X80133333Y-23144807D02*
X80399999Y-23144807D01*
X80514285Y-23563855D02*
X80133333Y-23563855D01*
X80133333Y-23563855D02*
X80133333Y-22763855D01*
X80133333Y-22763855D02*
X80514285Y-22763855D01*
X80857143Y-23563855D02*
X80857143Y-22763855D01*
X80857143Y-22763855D02*
X81314286Y-23563855D01*
X81314286Y-23563855D02*
X81314286Y-22763855D01*
X81657142Y-23335283D02*
X82038095Y-23335283D01*
X81580952Y-23563855D02*
X81847619Y-22763855D01*
X81847619Y-22763855D02*
X82114285Y-23563855D01*
X83566667Y-55363855D02*
X83566667Y-56011474D01*
X83566667Y-56011474D02*
X83604762Y-56087664D01*
X83604762Y-56087664D02*
X83642857Y-56125760D01*
X83642857Y-56125760D02*
X83719048Y-56163855D01*
X83719048Y-56163855D02*
X83871429Y-56163855D01*
X83871429Y-56163855D02*
X83947619Y-56125760D01*
X83947619Y-56125760D02*
X83985714Y-56087664D01*
X83985714Y-56087664D02*
X84023810Y-56011474D01*
X84023810Y-56011474D02*
X84023810Y-55363855D01*
X84366666Y-56125760D02*
X84480952Y-56163855D01*
X84480952Y-56163855D02*
X84671428Y-56163855D01*
X84671428Y-56163855D02*
X84747619Y-56125760D01*
X84747619Y-56125760D02*
X84785714Y-56087664D01*
X84785714Y-56087664D02*
X84823809Y-56011474D01*
X84823809Y-56011474D02*
X84823809Y-55935283D01*
X84823809Y-55935283D02*
X84785714Y-55859093D01*
X84785714Y-55859093D02*
X84747619Y-55820998D01*
X84747619Y-55820998D02*
X84671428Y-55782902D01*
X84671428Y-55782902D02*
X84519047Y-55744807D01*
X84519047Y-55744807D02*
X84442857Y-55706712D01*
X84442857Y-55706712D02*
X84404762Y-55668617D01*
X84404762Y-55668617D02*
X84366666Y-55592426D01*
X84366666Y-55592426D02*
X84366666Y-55516236D01*
X84366666Y-55516236D02*
X84404762Y-55440045D01*
X84404762Y-55440045D02*
X84442857Y-55401950D01*
X84442857Y-55401950D02*
X84519047Y-55363855D01*
X84519047Y-55363855D02*
X84709524Y-55363855D01*
X84709524Y-55363855D02*
X84823809Y-55401950D01*
X85433333Y-55744807D02*
X85547619Y-55782902D01*
X85547619Y-55782902D02*
X85585714Y-55820998D01*
X85585714Y-55820998D02*
X85623810Y-55897188D01*
X85623810Y-55897188D02*
X85623810Y-56011474D01*
X85623810Y-56011474D02*
X85585714Y-56087664D01*
X85585714Y-56087664D02*
X85547619Y-56125760D01*
X85547619Y-56125760D02*
X85471429Y-56163855D01*
X85471429Y-56163855D02*
X85166667Y-56163855D01*
X85166667Y-56163855D02*
X85166667Y-55363855D01*
X85166667Y-55363855D02*
X85433333Y-55363855D01*
X85433333Y-55363855D02*
X85509524Y-55401950D01*
X85509524Y-55401950D02*
X85547619Y-55440045D01*
X85547619Y-55440045D02*
X85585714Y-55516236D01*
X85585714Y-55516236D02*
X85585714Y-55592426D01*
X85585714Y-55592426D02*
X85547619Y-55668617D01*
X85547619Y-55668617D02*
X85509524Y-55706712D01*
X85509524Y-55706712D02*
X85433333Y-55744807D01*
X85433333Y-55744807D02*
X85166667Y-55744807D01*
X85966667Y-55859093D02*
X86576191Y-55859093D01*
X87414286Y-56087664D02*
X87376190Y-56125760D01*
X87376190Y-56125760D02*
X87261905Y-56163855D01*
X87261905Y-56163855D02*
X87185714Y-56163855D01*
X87185714Y-56163855D02*
X87071428Y-56125760D01*
X87071428Y-56125760D02*
X86995238Y-56049569D01*
X86995238Y-56049569D02*
X86957143Y-55973379D01*
X86957143Y-55973379D02*
X86919047Y-55820998D01*
X86919047Y-55820998D02*
X86919047Y-55706712D01*
X86919047Y-55706712D02*
X86957143Y-55554331D01*
X86957143Y-55554331D02*
X86995238Y-55478140D01*
X86995238Y-55478140D02*
X87071428Y-55401950D01*
X87071428Y-55401950D02*
X87185714Y-55363855D01*
X87185714Y-55363855D02*
X87261905Y-55363855D01*
X87261905Y-55363855D02*
X87376190Y-55401950D01*
X87376190Y-55401950D02*
X87414286Y-55440045D01*
X88747619Y-55363855D02*
X88366667Y-55363855D01*
X88366667Y-55363855D02*
X88328571Y-55744807D01*
X88328571Y-55744807D02*
X88366667Y-55706712D01*
X88366667Y-55706712D02*
X88442857Y-55668617D01*
X88442857Y-55668617D02*
X88633333Y-55668617D01*
X88633333Y-55668617D02*
X88709524Y-55706712D01*
X88709524Y-55706712D02*
X88747619Y-55744807D01*
X88747619Y-55744807D02*
X88785714Y-55820998D01*
X88785714Y-55820998D02*
X88785714Y-56011474D01*
X88785714Y-56011474D02*
X88747619Y-56087664D01*
X88747619Y-56087664D02*
X88709524Y-56125760D01*
X88709524Y-56125760D02*
X88633333Y-56163855D01*
X88633333Y-56163855D02*
X88442857Y-56163855D01*
X88442857Y-56163855D02*
X88366667Y-56125760D01*
X88366667Y-56125760D02*
X88328571Y-56087664D01*
X89014286Y-55363855D02*
X89280953Y-56163855D01*
X89280953Y-56163855D02*
X89547619Y-55363855D01*
X92890475Y-68163855D02*
X92890475Y-68735283D01*
X92890475Y-68735283D02*
X92852380Y-68849569D01*
X92852380Y-68849569D02*
X92776189Y-68925760D01*
X92776189Y-68925760D02*
X92661904Y-68963855D01*
X92661904Y-68963855D02*
X92585713Y-68963855D01*
X93233332Y-68240045D02*
X93271428Y-68201950D01*
X93271428Y-68201950D02*
X93347618Y-68163855D01*
X93347618Y-68163855D02*
X93538094Y-68163855D01*
X93538094Y-68163855D02*
X93614285Y-68201950D01*
X93614285Y-68201950D02*
X93652380Y-68240045D01*
X93652380Y-68240045D02*
X93690475Y-68316236D01*
X93690475Y-68316236D02*
X93690475Y-68392426D01*
X93690475Y-68392426D02*
X93652380Y-68506712D01*
X93652380Y-68506712D02*
X93195237Y-68963855D01*
X93195237Y-68963855D02*
X93690475Y-68963855D01*
X94033333Y-68887664D02*
X94071428Y-68925760D01*
X94071428Y-68925760D02*
X94033333Y-68963855D01*
X94033333Y-68963855D02*
X93995237Y-68925760D01*
X93995237Y-68925760D02*
X94033333Y-68887664D01*
X94033333Y-68887664D02*
X94033333Y-68963855D01*
X94033333Y-68468617D02*
X94071428Y-68506712D01*
X94071428Y-68506712D02*
X94033333Y-68544807D01*
X94033333Y-68544807D02*
X93995237Y-68506712D01*
X93995237Y-68506712D02*
X94033333Y-68468617D01*
X94033333Y-68468617D02*
X94033333Y-68544807D01*
X95023809Y-68544807D02*
X95290475Y-68544807D01*
X95404761Y-68963855D02*
X95023809Y-68963855D01*
X95023809Y-68963855D02*
X95023809Y-68163855D01*
X95023809Y-68163855D02*
X95404761Y-68163855D01*
X95747619Y-68963855D02*
X95747619Y-68163855D01*
X95747619Y-68163855D02*
X96204762Y-68963855D01*
X96204762Y-68963855D02*
X96204762Y-68163855D01*
X97195238Y-68963855D02*
X97195238Y-68163855D01*
X97728571Y-68163855D02*
X97880952Y-68163855D01*
X97880952Y-68163855D02*
X97957142Y-68201950D01*
X97957142Y-68201950D02*
X98033333Y-68278140D01*
X98033333Y-68278140D02*
X98071428Y-68430521D01*
X98071428Y-68430521D02*
X98071428Y-68697188D01*
X98071428Y-68697188D02*
X98033333Y-68849569D01*
X98033333Y-68849569D02*
X97957142Y-68925760D01*
X97957142Y-68925760D02*
X97880952Y-68963855D01*
X97880952Y-68963855D02*
X97728571Y-68963855D01*
X97728571Y-68963855D02*
X97652380Y-68925760D01*
X97652380Y-68925760D02*
X97576190Y-68849569D01*
X97576190Y-68849569D02*
X97538094Y-68697188D01*
X97538094Y-68697188D02*
X97538094Y-68430521D01*
X97538094Y-68430521D02*
X97576190Y-68278140D01*
X97576190Y-68278140D02*
X97652380Y-68201950D01*
X97652380Y-68201950D02*
X97728571Y-68163855D01*
X98566666Y-68163855D02*
X98642856Y-68163855D01*
X98642856Y-68163855D02*
X98719047Y-68201950D01*
X98719047Y-68201950D02*
X98757142Y-68240045D01*
X98757142Y-68240045D02*
X98795237Y-68316236D01*
X98795237Y-68316236D02*
X98833332Y-68468617D01*
X98833332Y-68468617D02*
X98833332Y-68659093D01*
X98833332Y-68659093D02*
X98795237Y-68811474D01*
X98795237Y-68811474D02*
X98757142Y-68887664D01*
X98757142Y-68887664D02*
X98719047Y-68925760D01*
X98719047Y-68925760D02*
X98642856Y-68963855D01*
X98642856Y-68963855D02*
X98566666Y-68963855D01*
X98566666Y-68963855D02*
X98490475Y-68925760D01*
X98490475Y-68925760D02*
X98452380Y-68887664D01*
X98452380Y-68887664D02*
X98414285Y-68811474D01*
X98414285Y-68811474D02*
X98376189Y-68659093D01*
X98376189Y-68659093D02*
X98376189Y-68468617D01*
X98376189Y-68468617D02*
X98414285Y-68316236D01*
X98414285Y-68316236D02*
X98452380Y-68240045D01*
X98452380Y-68240045D02*
X98490475Y-68201950D01*
X98490475Y-68201950D02*
X98566666Y-68163855D01*
X99671428Y-68163855D02*
X100128571Y-68163855D01*
X99899999Y-68963855D02*
X99899999Y-68163855D01*
X100319047Y-68163855D02*
X100852381Y-68963855D01*
X100852381Y-68163855D02*
X100319047Y-68963855D01*
X101309524Y-68163855D02*
X101385714Y-68163855D01*
X101385714Y-68163855D02*
X101461905Y-68201950D01*
X101461905Y-68201950D02*
X101500000Y-68240045D01*
X101500000Y-68240045D02*
X101538095Y-68316236D01*
X101538095Y-68316236D02*
X101576190Y-68468617D01*
X101576190Y-68468617D02*
X101576190Y-68659093D01*
X101576190Y-68659093D02*
X101538095Y-68811474D01*
X101538095Y-68811474D02*
X101500000Y-68887664D01*
X101500000Y-68887664D02*
X101461905Y-68925760D01*
X101461905Y-68925760D02*
X101385714Y-68963855D01*
X101385714Y-68963855D02*
X101309524Y-68963855D01*
X101309524Y-68963855D02*
X101233333Y-68925760D01*
X101233333Y-68925760D02*
X101195238Y-68887664D01*
X101195238Y-68887664D02*
X101157143Y-68811474D01*
X101157143Y-68811474D02*
X101119047Y-68659093D01*
X101119047Y-68659093D02*
X101119047Y-68468617D01*
X101119047Y-68468617D02*
X101157143Y-68316236D01*
X101157143Y-68316236D02*
X101195238Y-68240045D01*
X101195238Y-68240045D02*
X101233333Y-68201950D01*
X101233333Y-68201950D02*
X101309524Y-68163855D01*
X102985715Y-68963855D02*
X102719048Y-68582902D01*
X102528572Y-68963855D02*
X102528572Y-68163855D01*
X102528572Y-68163855D02*
X102833334Y-68163855D01*
X102833334Y-68163855D02*
X102909524Y-68201950D01*
X102909524Y-68201950D02*
X102947619Y-68240045D01*
X102947619Y-68240045D02*
X102985715Y-68316236D01*
X102985715Y-68316236D02*
X102985715Y-68430521D01*
X102985715Y-68430521D02*
X102947619Y-68506712D01*
X102947619Y-68506712D02*
X102909524Y-68544807D01*
X102909524Y-68544807D02*
X102833334Y-68582902D01*
X102833334Y-68582902D02*
X102528572Y-68582902D01*
X103252381Y-68163855D02*
X103785715Y-68963855D01*
X103785715Y-68163855D02*
X103252381Y-68963855D01*
X104242858Y-68163855D02*
X104319048Y-68163855D01*
X104319048Y-68163855D02*
X104395239Y-68201950D01*
X104395239Y-68201950D02*
X104433334Y-68240045D01*
X104433334Y-68240045D02*
X104471429Y-68316236D01*
X104471429Y-68316236D02*
X104509524Y-68468617D01*
X104509524Y-68468617D02*
X104509524Y-68659093D01*
X104509524Y-68659093D02*
X104471429Y-68811474D01*
X104471429Y-68811474D02*
X104433334Y-68887664D01*
X104433334Y-68887664D02*
X104395239Y-68925760D01*
X104395239Y-68925760D02*
X104319048Y-68963855D01*
X104319048Y-68963855D02*
X104242858Y-68963855D01*
X104242858Y-68963855D02*
X104166667Y-68925760D01*
X104166667Y-68925760D02*
X104128572Y-68887664D01*
X104128572Y-68887664D02*
X104090477Y-68811474D01*
X104090477Y-68811474D02*
X104052381Y-68659093D01*
X104052381Y-68659093D02*
X104052381Y-68468617D01*
X104052381Y-68468617D02*
X104090477Y-68316236D01*
X104090477Y-68316236D02*
X104128572Y-68240045D01*
X104128572Y-68240045D02*
X104166667Y-68201950D01*
X104166667Y-68201950D02*
X104242858Y-68163855D01*
X105880953Y-68201950D02*
X105804763Y-68163855D01*
X105804763Y-68163855D02*
X105690477Y-68163855D01*
X105690477Y-68163855D02*
X105576191Y-68201950D01*
X105576191Y-68201950D02*
X105500001Y-68278140D01*
X105500001Y-68278140D02*
X105461906Y-68354331D01*
X105461906Y-68354331D02*
X105423810Y-68506712D01*
X105423810Y-68506712D02*
X105423810Y-68620998D01*
X105423810Y-68620998D02*
X105461906Y-68773379D01*
X105461906Y-68773379D02*
X105500001Y-68849569D01*
X105500001Y-68849569D02*
X105576191Y-68925760D01*
X105576191Y-68925760D02*
X105690477Y-68963855D01*
X105690477Y-68963855D02*
X105766668Y-68963855D01*
X105766668Y-68963855D02*
X105880953Y-68925760D01*
X105880953Y-68925760D02*
X105919049Y-68887664D01*
X105919049Y-68887664D02*
X105919049Y-68620998D01*
X105919049Y-68620998D02*
X105766668Y-68620998D01*
X106261906Y-68963855D02*
X106261906Y-68163855D01*
X106261906Y-68163855D02*
X106719049Y-68963855D01*
X106719049Y-68963855D02*
X106719049Y-68163855D01*
X107100001Y-68963855D02*
X107100001Y-68163855D01*
X107100001Y-68163855D02*
X107290477Y-68163855D01*
X107290477Y-68163855D02*
X107404763Y-68201950D01*
X107404763Y-68201950D02*
X107480953Y-68278140D01*
X107480953Y-68278140D02*
X107519048Y-68354331D01*
X107519048Y-68354331D02*
X107557144Y-68506712D01*
X107557144Y-68506712D02*
X107557144Y-68620998D01*
X107557144Y-68620998D02*
X107519048Y-68773379D01*
X107519048Y-68773379D02*
X107480953Y-68849569D01*
X107480953Y-68849569D02*
X107404763Y-68925760D01*
X107404763Y-68925760D02*
X107290477Y-68963855D01*
X107290477Y-68963855D02*
X107100001Y-68963855D01*
X108433334Y-68163855D02*
X108928572Y-68163855D01*
X108928572Y-68163855D02*
X108661906Y-68468617D01*
X108661906Y-68468617D02*
X108776191Y-68468617D01*
X108776191Y-68468617D02*
X108852382Y-68506712D01*
X108852382Y-68506712D02*
X108890477Y-68544807D01*
X108890477Y-68544807D02*
X108928572Y-68620998D01*
X108928572Y-68620998D02*
X108928572Y-68811474D01*
X108928572Y-68811474D02*
X108890477Y-68887664D01*
X108890477Y-68887664D02*
X108852382Y-68925760D01*
X108852382Y-68925760D02*
X108776191Y-68963855D01*
X108776191Y-68963855D02*
X108547620Y-68963855D01*
X108547620Y-68963855D02*
X108471429Y-68925760D01*
X108471429Y-68925760D02*
X108433334Y-68887664D01*
X109157144Y-68163855D02*
X109423811Y-68963855D01*
X109423811Y-68963855D02*
X109690477Y-68163855D01*
X109880953Y-68163855D02*
X110376191Y-68163855D01*
X110376191Y-68163855D02*
X110109525Y-68468617D01*
X110109525Y-68468617D02*
X110223810Y-68468617D01*
X110223810Y-68468617D02*
X110300001Y-68506712D01*
X110300001Y-68506712D02*
X110338096Y-68544807D01*
X110338096Y-68544807D02*
X110376191Y-68620998D01*
X110376191Y-68620998D02*
X110376191Y-68811474D01*
X110376191Y-68811474D02*
X110338096Y-68887664D01*
X110338096Y-68887664D02*
X110300001Y-68925760D01*
X110300001Y-68925760D02*
X110223810Y-68963855D01*
X110223810Y-68963855D02*
X109995239Y-68963855D01*
X109995239Y-68963855D02*
X109919048Y-68925760D01*
X109919048Y-68925760D02*
X109880953Y-68887664D01*
X27666665Y-21532569D02*
X27999998Y-21532569D01*
X28142855Y-22056379D02*
X27666665Y-22056379D01*
X27666665Y-22056379D02*
X27666665Y-21056379D01*
X27666665Y-21056379D02*
X28142855Y-21056379D01*
X28476189Y-21056379D02*
X29095236Y-21056379D01*
X29095236Y-21056379D02*
X28761903Y-21437331D01*
X28761903Y-21437331D02*
X28904760Y-21437331D01*
X28904760Y-21437331D02*
X28999998Y-21484950D01*
X28999998Y-21484950D02*
X29047617Y-21532569D01*
X29047617Y-21532569D02*
X29095236Y-21627807D01*
X29095236Y-21627807D02*
X29095236Y-21865902D01*
X29095236Y-21865902D02*
X29047617Y-21961140D01*
X29047617Y-21961140D02*
X28999998Y-22008760D01*
X28999998Y-22008760D02*
X28904760Y-22056379D01*
X28904760Y-22056379D02*
X28619046Y-22056379D01*
X28619046Y-22056379D02*
X28523808Y-22008760D01*
X28523808Y-22008760D02*
X28476189Y-21961140D01*
X29952379Y-21056379D02*
X29761903Y-21056379D01*
X29761903Y-21056379D02*
X29666665Y-21103998D01*
X29666665Y-21103998D02*
X29619046Y-21151617D01*
X29619046Y-21151617D02*
X29523808Y-21294474D01*
X29523808Y-21294474D02*
X29476189Y-21484950D01*
X29476189Y-21484950D02*
X29476189Y-21865902D01*
X29476189Y-21865902D02*
X29523808Y-21961140D01*
X29523808Y-21961140D02*
X29571427Y-22008760D01*
X29571427Y-22008760D02*
X29666665Y-22056379D01*
X29666665Y-22056379D02*
X29857141Y-22056379D01*
X29857141Y-22056379D02*
X29952379Y-22008760D01*
X29952379Y-22008760D02*
X29999998Y-21961140D01*
X29999998Y-21961140D02*
X30047617Y-21865902D01*
X30047617Y-21865902D02*
X30047617Y-21627807D01*
X30047617Y-21627807D02*
X29999998Y-21532569D01*
X29999998Y-21532569D02*
X29952379Y-21484950D01*
X29952379Y-21484950D02*
X29857141Y-21437331D01*
X29857141Y-21437331D02*
X29666665Y-21437331D01*
X29666665Y-21437331D02*
X29571427Y-21484950D01*
X29571427Y-21484950D02*
X29523808Y-21532569D01*
X29523808Y-21532569D02*
X29476189Y-21627807D01*
X31238094Y-22056379D02*
X31238094Y-21056379D01*
X31809522Y-22056379D02*
X31380951Y-21484950D01*
X31809522Y-21056379D02*
X31238094Y-21627807D01*
X32238094Y-21675426D02*
X32999999Y-21675426D01*
X33952379Y-22056379D02*
X33476189Y-22056379D01*
X33476189Y-22056379D02*
X33476189Y-21056379D01*
X34285713Y-22056379D02*
X34285713Y-21056379D01*
X34761903Y-22056379D02*
X34761903Y-21056379D01*
X34761903Y-21056379D02*
X35333331Y-22056379D01*
X35333331Y-22056379D02*
X35333331Y-21056379D01*
X35809522Y-21532569D02*
X36142855Y-21532569D01*
X36285712Y-22056379D02*
X35809522Y-22056379D01*
X35809522Y-22056379D02*
X35809522Y-21056379D01*
X35809522Y-21056379D02*
X36285712Y-21056379D01*
X38238094Y-21532569D02*
X38571427Y-21532569D01*
X38714284Y-22056379D02*
X38238094Y-22056379D01*
X38238094Y-22056379D02*
X38238094Y-21056379D01*
X38238094Y-21056379D02*
X38714284Y-21056379D01*
X39095237Y-22008760D02*
X39238094Y-22056379D01*
X39238094Y-22056379D02*
X39476189Y-22056379D01*
X39476189Y-22056379D02*
X39571427Y-22008760D01*
X39571427Y-22008760D02*
X39619046Y-21961140D01*
X39619046Y-21961140D02*
X39666665Y-21865902D01*
X39666665Y-21865902D02*
X39666665Y-21770664D01*
X39666665Y-21770664D02*
X39619046Y-21675426D01*
X39619046Y-21675426D02*
X39571427Y-21627807D01*
X39571427Y-21627807D02*
X39476189Y-21580188D01*
X39476189Y-21580188D02*
X39285713Y-21532569D01*
X39285713Y-21532569D02*
X39190475Y-21484950D01*
X39190475Y-21484950D02*
X39142856Y-21437331D01*
X39142856Y-21437331D02*
X39095237Y-21342093D01*
X39095237Y-21342093D02*
X39095237Y-21246855D01*
X39095237Y-21246855D02*
X39142856Y-21151617D01*
X39142856Y-21151617D02*
X39190475Y-21103998D01*
X39190475Y-21103998D02*
X39285713Y-21056379D01*
X39285713Y-21056379D02*
X39523808Y-21056379D01*
X39523808Y-21056379D02*
X39666665Y-21103998D01*
X40095237Y-22056379D02*
X40095237Y-21056379D01*
X40095237Y-21056379D02*
X40476189Y-21056379D01*
X40476189Y-21056379D02*
X40571427Y-21103998D01*
X40571427Y-21103998D02*
X40619046Y-21151617D01*
X40619046Y-21151617D02*
X40666665Y-21246855D01*
X40666665Y-21246855D02*
X40666665Y-21389712D01*
X40666665Y-21389712D02*
X40619046Y-21484950D01*
X40619046Y-21484950D02*
X40571427Y-21532569D01*
X40571427Y-21532569D02*
X40476189Y-21580188D01*
X40476189Y-21580188D02*
X40095237Y-21580188D01*
X40999999Y-21056379D02*
X41619046Y-21056379D01*
X41619046Y-21056379D02*
X41285713Y-21437331D01*
X41285713Y-21437331D02*
X41428570Y-21437331D01*
X41428570Y-21437331D02*
X41523808Y-21484950D01*
X41523808Y-21484950D02*
X41571427Y-21532569D01*
X41571427Y-21532569D02*
X41619046Y-21627807D01*
X41619046Y-21627807D02*
X41619046Y-21865902D01*
X41619046Y-21865902D02*
X41571427Y-21961140D01*
X41571427Y-21961140D02*
X41523808Y-22008760D01*
X41523808Y-22008760D02*
X41428570Y-22056379D01*
X41428570Y-22056379D02*
X41142856Y-22056379D01*
X41142856Y-22056379D02*
X41047618Y-22008760D01*
X41047618Y-22008760D02*
X40999999Y-21961140D01*
X41999999Y-21151617D02*
X42047618Y-21103998D01*
X42047618Y-21103998D02*
X42142856Y-21056379D01*
X42142856Y-21056379D02*
X42380951Y-21056379D01*
X42380951Y-21056379D02*
X42476189Y-21103998D01*
X42476189Y-21103998D02*
X42523808Y-21151617D01*
X42523808Y-21151617D02*
X42571427Y-21246855D01*
X42571427Y-21246855D02*
X42571427Y-21342093D01*
X42571427Y-21342093D02*
X42523808Y-21484950D01*
X42523808Y-21484950D02*
X41952380Y-22056379D01*
X41952380Y-22056379D02*
X42571427Y-22056379D01*
X42999999Y-21675426D02*
X43761904Y-21675426D01*
X44190475Y-22008760D02*
X44333332Y-22056379D01*
X44333332Y-22056379D02*
X44571427Y-22056379D01*
X44571427Y-22056379D02*
X44666665Y-22008760D01*
X44666665Y-22008760D02*
X44714284Y-21961140D01*
X44714284Y-21961140D02*
X44761903Y-21865902D01*
X44761903Y-21865902D02*
X44761903Y-21770664D01*
X44761903Y-21770664D02*
X44714284Y-21675426D01*
X44714284Y-21675426D02*
X44666665Y-21627807D01*
X44666665Y-21627807D02*
X44571427Y-21580188D01*
X44571427Y-21580188D02*
X44380951Y-21532569D01*
X44380951Y-21532569D02*
X44285713Y-21484950D01*
X44285713Y-21484950D02*
X44238094Y-21437331D01*
X44238094Y-21437331D02*
X44190475Y-21342093D01*
X44190475Y-21342093D02*
X44190475Y-21246855D01*
X44190475Y-21246855D02*
X44238094Y-21151617D01*
X44238094Y-21151617D02*
X44285713Y-21103998D01*
X44285713Y-21103998D02*
X44380951Y-21056379D01*
X44380951Y-21056379D02*
X44619046Y-21056379D01*
X44619046Y-21056379D02*
X44761903Y-21103998D01*
X45095237Y-21056379D02*
X45714284Y-21056379D01*
X45714284Y-21056379D02*
X45380951Y-21437331D01*
X45380951Y-21437331D02*
X45523808Y-21437331D01*
X45523808Y-21437331D02*
X45619046Y-21484950D01*
X45619046Y-21484950D02*
X45666665Y-21532569D01*
X45666665Y-21532569D02*
X45714284Y-21627807D01*
X45714284Y-21627807D02*
X45714284Y-21865902D01*
X45714284Y-21865902D02*
X45666665Y-21961140D01*
X45666665Y-21961140D02*
X45619046Y-22008760D01*
X45619046Y-22008760D02*
X45523808Y-22056379D01*
X45523808Y-22056379D02*
X45238094Y-22056379D01*
X45238094Y-22056379D02*
X45142856Y-22008760D01*
X45142856Y-22008760D02*
X45095237Y-21961140D01*
X46904761Y-21675426D02*
X47666666Y-21675426D01*
X47285713Y-22056379D02*
X47285713Y-21294474D01*
X49380951Y-22056379D02*
X48904761Y-22056379D01*
X48904761Y-22056379D02*
X48904761Y-21056379D01*
X49761904Y-22056379D02*
X49952380Y-22056379D01*
X49952380Y-22056379D02*
X50047618Y-22008760D01*
X50047618Y-22008760D02*
X50095237Y-21961140D01*
X50095237Y-21961140D02*
X50190475Y-21818283D01*
X50190475Y-21818283D02*
X50238094Y-21627807D01*
X50238094Y-21627807D02*
X50238094Y-21246855D01*
X50238094Y-21246855D02*
X50190475Y-21151617D01*
X50190475Y-21151617D02*
X50142856Y-21103998D01*
X50142856Y-21103998D02*
X50047618Y-21056379D01*
X50047618Y-21056379D02*
X49857142Y-21056379D01*
X49857142Y-21056379D02*
X49761904Y-21103998D01*
X49761904Y-21103998D02*
X49714285Y-21151617D01*
X49714285Y-21151617D02*
X49666666Y-21246855D01*
X49666666Y-21246855D02*
X49666666Y-21484950D01*
X49666666Y-21484950D02*
X49714285Y-21580188D01*
X49714285Y-21580188D02*
X49761904Y-21627807D01*
X49761904Y-21627807D02*
X49857142Y-21675426D01*
X49857142Y-21675426D02*
X50047618Y-21675426D01*
X50047618Y-21675426D02*
X50142856Y-21627807D01*
X50142856Y-21627807D02*
X50190475Y-21580188D01*
X50190475Y-21580188D02*
X50238094Y-21484950D01*
X51095237Y-21056379D02*
X50904761Y-21056379D01*
X50904761Y-21056379D02*
X50809523Y-21103998D01*
X50809523Y-21103998D02*
X50761904Y-21151617D01*
X50761904Y-21151617D02*
X50666666Y-21294474D01*
X50666666Y-21294474D02*
X50619047Y-21484950D01*
X50619047Y-21484950D02*
X50619047Y-21865902D01*
X50619047Y-21865902D02*
X50666666Y-21961140D01*
X50666666Y-21961140D02*
X50714285Y-22008760D01*
X50714285Y-22008760D02*
X50809523Y-22056379D01*
X50809523Y-22056379D02*
X50999999Y-22056379D01*
X50999999Y-22056379D02*
X51095237Y-22008760D01*
X51095237Y-22008760D02*
X51142856Y-21961140D01*
X51142856Y-21961140D02*
X51190475Y-21865902D01*
X51190475Y-21865902D02*
X51190475Y-21627807D01*
X51190475Y-21627807D02*
X51142856Y-21532569D01*
X51142856Y-21532569D02*
X51095237Y-21484950D01*
X51095237Y-21484950D02*
X50999999Y-21437331D01*
X50999999Y-21437331D02*
X50809523Y-21437331D01*
X50809523Y-21437331D02*
X50714285Y-21484950D01*
X50714285Y-21484950D02*
X50666666Y-21532569D01*
X50666666Y-21532569D02*
X50619047Y-21627807D01*
X51523809Y-21056379D02*
X52142856Y-21056379D01*
X52142856Y-21056379D02*
X51809523Y-21437331D01*
X51809523Y-21437331D02*
X51952380Y-21437331D01*
X51952380Y-21437331D02*
X52047618Y-21484950D01*
X52047618Y-21484950D02*
X52095237Y-21532569D01*
X52095237Y-21532569D02*
X52142856Y-21627807D01*
X52142856Y-21627807D02*
X52142856Y-21865902D01*
X52142856Y-21865902D02*
X52095237Y-21961140D01*
X52095237Y-21961140D02*
X52047618Y-22008760D01*
X52047618Y-22008760D02*
X51952380Y-22056379D01*
X51952380Y-22056379D02*
X51666666Y-22056379D01*
X51666666Y-22056379D02*
X51571428Y-22008760D01*
X51571428Y-22008760D02*
X51523809Y-21961140D01*
X52476190Y-21056379D02*
X53142856Y-21056379D01*
X53142856Y-21056379D02*
X52714285Y-22056379D01*
X53523809Y-22056379D02*
X53523809Y-21056379D01*
X53523809Y-21056379D02*
X53761904Y-21056379D01*
X53761904Y-21056379D02*
X53904761Y-21103998D01*
X53904761Y-21103998D02*
X53999999Y-21199236D01*
X53999999Y-21199236D02*
X54047618Y-21294474D01*
X54047618Y-21294474D02*
X54095237Y-21484950D01*
X54095237Y-21484950D02*
X54095237Y-21627807D01*
X54095237Y-21627807D02*
X54047618Y-21818283D01*
X54047618Y-21818283D02*
X53999999Y-21913521D01*
X53999999Y-21913521D02*
X53904761Y-22008760D01*
X53904761Y-22008760D02*
X53761904Y-22056379D01*
X53761904Y-22056379D02*
X53523809Y-22056379D01*
X56809524Y-22056379D02*
X56809524Y-21389712D01*
X56809524Y-21580188D02*
X56857143Y-21484950D01*
X56857143Y-21484950D02*
X56904762Y-21437331D01*
X56904762Y-21437331D02*
X57000000Y-21389712D01*
X57000000Y-21389712D02*
X57095238Y-21389712D01*
X57809524Y-22008760D02*
X57714286Y-22056379D01*
X57714286Y-22056379D02*
X57523810Y-22056379D01*
X57523810Y-22056379D02*
X57428572Y-22008760D01*
X57428572Y-22008760D02*
X57380953Y-21913521D01*
X57380953Y-21913521D02*
X57380953Y-21532569D01*
X57380953Y-21532569D02*
X57428572Y-21437331D01*
X57428572Y-21437331D02*
X57523810Y-21389712D01*
X57523810Y-21389712D02*
X57714286Y-21389712D01*
X57714286Y-21389712D02*
X57809524Y-21437331D01*
X57809524Y-21437331D02*
X57857143Y-21532569D01*
X57857143Y-21532569D02*
X57857143Y-21627807D01*
X57857143Y-21627807D02*
X57380953Y-21723045D01*
X58190477Y-21389712D02*
X58428572Y-22056379D01*
X58428572Y-22056379D02*
X58666667Y-21389712D01*
X60142858Y-21532569D02*
X60285715Y-21580188D01*
X60285715Y-21580188D02*
X60333334Y-21627807D01*
X60333334Y-21627807D02*
X60380953Y-21723045D01*
X60380953Y-21723045D02*
X60380953Y-21865902D01*
X60380953Y-21865902D02*
X60333334Y-21961140D01*
X60333334Y-21961140D02*
X60285715Y-22008760D01*
X60285715Y-22008760D02*
X60190477Y-22056379D01*
X60190477Y-22056379D02*
X59809525Y-22056379D01*
X59809525Y-22056379D02*
X59809525Y-21056379D01*
X59809525Y-21056379D02*
X60142858Y-21056379D01*
X60142858Y-21056379D02*
X60238096Y-21103998D01*
X60238096Y-21103998D02*
X60285715Y-21151617D01*
X60285715Y-21151617D02*
X60333334Y-21246855D01*
X60333334Y-21246855D02*
X60333334Y-21342093D01*
X60333334Y-21342093D02*
X60285715Y-21437331D01*
X60285715Y-21437331D02*
X60238096Y-21484950D01*
X60238096Y-21484950D02*
X60142858Y-21532569D01*
X60142858Y-21532569D02*
X59809525Y-21532569D01*
X80357664Y-32633332D02*
X80395760Y-32671428D01*
X80395760Y-32671428D02*
X80433855Y-32785713D01*
X80433855Y-32785713D02*
X80433855Y-32861904D01*
X80433855Y-32861904D02*
X80395760Y-32976190D01*
X80395760Y-32976190D02*
X80319569Y-33052380D01*
X80319569Y-33052380D02*
X80243379Y-33090475D01*
X80243379Y-33090475D02*
X80090998Y-33128571D01*
X80090998Y-33128571D02*
X79976712Y-33128571D01*
X79976712Y-33128571D02*
X79824331Y-33090475D01*
X79824331Y-33090475D02*
X79748140Y-33052380D01*
X79748140Y-33052380D02*
X79671950Y-32976190D01*
X79671950Y-32976190D02*
X79633855Y-32861904D01*
X79633855Y-32861904D02*
X79633855Y-32785713D01*
X79633855Y-32785713D02*
X79671950Y-32671428D01*
X79671950Y-32671428D02*
X79710045Y-32633332D01*
X79633855Y-32366666D02*
X79633855Y-31833332D01*
X79633855Y-31833332D02*
X80433855Y-32176190D01*
X86233333Y-61818855D02*
X86233333Y-62390283D01*
X86233333Y-62390283D02*
X86195238Y-62504569D01*
X86195238Y-62504569D02*
X86119047Y-62580760D01*
X86119047Y-62580760D02*
X86004762Y-62618855D01*
X86004762Y-62618855D02*
X85928571Y-62618855D01*
X86538095Y-61818855D02*
X87033333Y-61818855D01*
X87033333Y-61818855D02*
X86766667Y-62123617D01*
X86766667Y-62123617D02*
X86880952Y-62123617D01*
X86880952Y-62123617D02*
X86957143Y-62161712D01*
X86957143Y-62161712D02*
X86995238Y-62199807D01*
X86995238Y-62199807D02*
X87033333Y-62275998D01*
X87033333Y-62275998D02*
X87033333Y-62466474D01*
X87033333Y-62466474D02*
X86995238Y-62542664D01*
X86995238Y-62542664D02*
X86957143Y-62580760D01*
X86957143Y-62580760D02*
X86880952Y-62618855D01*
X86880952Y-62618855D02*
X86652381Y-62618855D01*
X86652381Y-62618855D02*
X86576190Y-62580760D01*
X86576190Y-62580760D02*
X86538095Y-62542664D01*
X41109524Y-65363855D02*
X41109524Y-64563855D01*
X41109524Y-64563855D02*
X41300000Y-64563855D01*
X41300000Y-64563855D02*
X41414286Y-64601950D01*
X41414286Y-64601950D02*
X41490476Y-64678140D01*
X41490476Y-64678140D02*
X41528571Y-64754331D01*
X41528571Y-64754331D02*
X41566667Y-64906712D01*
X41566667Y-64906712D02*
X41566667Y-65020998D01*
X41566667Y-65020998D02*
X41528571Y-65173379D01*
X41528571Y-65173379D02*
X41490476Y-65249569D01*
X41490476Y-65249569D02*
X41414286Y-65325760D01*
X41414286Y-65325760D02*
X41300000Y-65363855D01*
X41300000Y-65363855D02*
X41109524Y-65363855D01*
X41871428Y-64640045D02*
X41909524Y-64601950D01*
X41909524Y-64601950D02*
X41985714Y-64563855D01*
X41985714Y-64563855D02*
X42176190Y-64563855D01*
X42176190Y-64563855D02*
X42252381Y-64601950D01*
X42252381Y-64601950D02*
X42290476Y-64640045D01*
X42290476Y-64640045D02*
X42328571Y-64716236D01*
X42328571Y-64716236D02*
X42328571Y-64792426D01*
X42328571Y-64792426D02*
X42290476Y-64906712D01*
X42290476Y-64906712D02*
X41833333Y-65363855D01*
X41833333Y-65363855D02*
X42328571Y-65363855D01*
X84857664Y-35633332D02*
X84895760Y-35671428D01*
X84895760Y-35671428D02*
X84933855Y-35785713D01*
X84933855Y-35785713D02*
X84933855Y-35861904D01*
X84933855Y-35861904D02*
X84895760Y-35976190D01*
X84895760Y-35976190D02*
X84819569Y-36052380D01*
X84819569Y-36052380D02*
X84743379Y-36090475D01*
X84743379Y-36090475D02*
X84590998Y-36128571D01*
X84590998Y-36128571D02*
X84476712Y-36128571D01*
X84476712Y-36128571D02*
X84324331Y-36090475D01*
X84324331Y-36090475D02*
X84248140Y-36052380D01*
X84248140Y-36052380D02*
X84171950Y-35976190D01*
X84171950Y-35976190D02*
X84133855Y-35861904D01*
X84133855Y-35861904D02*
X84133855Y-35785713D01*
X84133855Y-35785713D02*
X84171950Y-35671428D01*
X84171950Y-35671428D02*
X84210045Y-35633332D01*
X84133855Y-34947618D02*
X84133855Y-35099999D01*
X84133855Y-35099999D02*
X84171950Y-35176190D01*
X84171950Y-35176190D02*
X84210045Y-35214285D01*
X84210045Y-35214285D02*
X84324331Y-35290475D01*
X84324331Y-35290475D02*
X84476712Y-35328571D01*
X84476712Y-35328571D02*
X84781474Y-35328571D01*
X84781474Y-35328571D02*
X84857664Y-35290475D01*
X84857664Y-35290475D02*
X84895760Y-35252380D01*
X84895760Y-35252380D02*
X84933855Y-35176190D01*
X84933855Y-35176190D02*
X84933855Y-35023809D01*
X84933855Y-35023809D02*
X84895760Y-34947618D01*
X84895760Y-34947618D02*
X84857664Y-34909523D01*
X84857664Y-34909523D02*
X84781474Y-34871428D01*
X84781474Y-34871428D02*
X84590998Y-34871428D01*
X84590998Y-34871428D02*
X84514807Y-34909523D01*
X84514807Y-34909523D02*
X84476712Y-34947618D01*
X84476712Y-34947618D02*
X84438617Y-35023809D01*
X84438617Y-35023809D02*
X84438617Y-35176190D01*
X84438617Y-35176190D02*
X84476712Y-35252380D01*
X84476712Y-35252380D02*
X84514807Y-35290475D01*
X84514807Y-35290475D02*
X84590998Y-35328571D01*
X32663855Y-54109523D02*
X33311474Y-54109523D01*
X33311474Y-54109523D02*
X33387664Y-54071428D01*
X33387664Y-54071428D02*
X33425760Y-54033333D01*
X33425760Y-54033333D02*
X33463855Y-53957142D01*
X33463855Y-53957142D02*
X33463855Y-53804761D01*
X33463855Y-53804761D02*
X33425760Y-53728571D01*
X33425760Y-53728571D02*
X33387664Y-53690476D01*
X33387664Y-53690476D02*
X33311474Y-53652380D01*
X33311474Y-53652380D02*
X32663855Y-53652380D01*
X33463855Y-52852381D02*
X33463855Y-53309524D01*
X33463855Y-53080952D02*
X32663855Y-53080952D01*
X32663855Y-53080952D02*
X32778140Y-53157143D01*
X32778140Y-53157143D02*
X32854331Y-53233333D01*
X32854331Y-53233333D02*
X32892426Y-53309524D01*
X49887664Y-63714285D02*
X49925760Y-63752381D01*
X49925760Y-63752381D02*
X49963855Y-63866666D01*
X49963855Y-63866666D02*
X49963855Y-63942857D01*
X49963855Y-63942857D02*
X49925760Y-64057143D01*
X49925760Y-64057143D02*
X49849569Y-64133333D01*
X49849569Y-64133333D02*
X49773379Y-64171428D01*
X49773379Y-64171428D02*
X49620998Y-64209524D01*
X49620998Y-64209524D02*
X49506712Y-64209524D01*
X49506712Y-64209524D02*
X49354331Y-64171428D01*
X49354331Y-64171428D02*
X49278140Y-64133333D01*
X49278140Y-64133333D02*
X49201950Y-64057143D01*
X49201950Y-64057143D02*
X49163855Y-63942857D01*
X49163855Y-63942857D02*
X49163855Y-63866666D01*
X49163855Y-63866666D02*
X49201950Y-63752381D01*
X49201950Y-63752381D02*
X49240045Y-63714285D01*
X49963855Y-62952381D02*
X49963855Y-63409524D01*
X49963855Y-63180952D02*
X49163855Y-63180952D01*
X49163855Y-63180952D02*
X49278140Y-63257143D01*
X49278140Y-63257143D02*
X49354331Y-63333333D01*
X49354331Y-63333333D02*
X49392426Y-63409524D01*
X49163855Y-62457142D02*
X49163855Y-62380952D01*
X49163855Y-62380952D02*
X49201950Y-62304761D01*
X49201950Y-62304761D02*
X49240045Y-62266666D01*
X49240045Y-62266666D02*
X49316236Y-62228571D01*
X49316236Y-62228571D02*
X49468617Y-62190476D01*
X49468617Y-62190476D02*
X49659093Y-62190476D01*
X49659093Y-62190476D02*
X49811474Y-62228571D01*
X49811474Y-62228571D02*
X49887664Y-62266666D01*
X49887664Y-62266666D02*
X49925760Y-62304761D01*
X49925760Y-62304761D02*
X49963855Y-62380952D01*
X49963855Y-62380952D02*
X49963855Y-62457142D01*
X49963855Y-62457142D02*
X49925760Y-62533333D01*
X49925760Y-62533333D02*
X49887664Y-62571428D01*
X49887664Y-62571428D02*
X49811474Y-62609523D01*
X49811474Y-62609523D02*
X49659093Y-62647619D01*
X49659093Y-62647619D02*
X49468617Y-62647619D01*
X49468617Y-62647619D02*
X49316236Y-62609523D01*
X49316236Y-62609523D02*
X49240045Y-62571428D01*
X49240045Y-62571428D02*
X49201950Y-62533333D01*
X49201950Y-62533333D02*
X49163855Y-62457142D01*
X48985714Y-54933855D02*
X48719047Y-54552902D01*
X48528571Y-54933855D02*
X48528571Y-54133855D01*
X48528571Y-54133855D02*
X48833333Y-54133855D01*
X48833333Y-54133855D02*
X48909523Y-54171950D01*
X48909523Y-54171950D02*
X48947618Y-54210045D01*
X48947618Y-54210045D02*
X48985714Y-54286236D01*
X48985714Y-54286236D02*
X48985714Y-54400521D01*
X48985714Y-54400521D02*
X48947618Y-54476712D01*
X48947618Y-54476712D02*
X48909523Y-54514807D01*
X48909523Y-54514807D02*
X48833333Y-54552902D01*
X48833333Y-54552902D02*
X48528571Y-54552902D01*
X49747618Y-54933855D02*
X49290475Y-54933855D01*
X49519047Y-54933855D02*
X49519047Y-54133855D01*
X49519047Y-54133855D02*
X49442856Y-54248140D01*
X49442856Y-54248140D02*
X49366666Y-54324331D01*
X49366666Y-54324331D02*
X49290475Y-54362426D01*
X50242857Y-54133855D02*
X50319047Y-54133855D01*
X50319047Y-54133855D02*
X50395238Y-54171950D01*
X50395238Y-54171950D02*
X50433333Y-54210045D01*
X50433333Y-54210045D02*
X50471428Y-54286236D01*
X50471428Y-54286236D02*
X50509523Y-54438617D01*
X50509523Y-54438617D02*
X50509523Y-54629093D01*
X50509523Y-54629093D02*
X50471428Y-54781474D01*
X50471428Y-54781474D02*
X50433333Y-54857664D01*
X50433333Y-54857664D02*
X50395238Y-54895760D01*
X50395238Y-54895760D02*
X50319047Y-54933855D01*
X50319047Y-54933855D02*
X50242857Y-54933855D01*
X50242857Y-54933855D02*
X50166666Y-54895760D01*
X50166666Y-54895760D02*
X50128571Y-54857664D01*
X50128571Y-54857664D02*
X50090476Y-54781474D01*
X50090476Y-54781474D02*
X50052380Y-54629093D01*
X50052380Y-54629093D02*
X50052380Y-54438617D01*
X50052380Y-54438617D02*
X50090476Y-54286236D01*
X50090476Y-54286236D02*
X50128571Y-54210045D01*
X50128571Y-54210045D02*
X50166666Y-54171950D01*
X50166666Y-54171950D02*
X50242857Y-54133855D01*
X66433332Y-20275760D02*
X66547618Y-20313855D01*
X66547618Y-20313855D02*
X66738094Y-20313855D01*
X66738094Y-20313855D02*
X66814285Y-20275760D01*
X66814285Y-20275760D02*
X66852380Y-20237664D01*
X66852380Y-20237664D02*
X66890475Y-20161474D01*
X66890475Y-20161474D02*
X66890475Y-20085283D01*
X66890475Y-20085283D02*
X66852380Y-20009093D01*
X66852380Y-20009093D02*
X66814285Y-19970998D01*
X66814285Y-19970998D02*
X66738094Y-19932902D01*
X66738094Y-19932902D02*
X66585713Y-19894807D01*
X66585713Y-19894807D02*
X66509523Y-19856712D01*
X66509523Y-19856712D02*
X66471428Y-19818617D01*
X66471428Y-19818617D02*
X66433332Y-19742426D01*
X66433332Y-19742426D02*
X66433332Y-19666236D01*
X66433332Y-19666236D02*
X66471428Y-19590045D01*
X66471428Y-19590045D02*
X66509523Y-19551950D01*
X66509523Y-19551950D02*
X66585713Y-19513855D01*
X66585713Y-19513855D02*
X66776190Y-19513855D01*
X66776190Y-19513855D02*
X66890475Y-19551950D01*
X67157142Y-19513855D02*
X67347618Y-20313855D01*
X67347618Y-20313855D02*
X67499999Y-19742426D01*
X67499999Y-19742426D02*
X67652380Y-20313855D01*
X67652380Y-20313855D02*
X67842857Y-19513855D01*
X68566666Y-20313855D02*
X68109523Y-20313855D01*
X68338095Y-20313855D02*
X68338095Y-19513855D01*
X68338095Y-19513855D02*
X68261904Y-19628140D01*
X68261904Y-19628140D02*
X68185714Y-19704331D01*
X68185714Y-19704331D02*
X68109523Y-19742426D01*
X43104761Y-28933855D02*
X42723809Y-28933855D01*
X42723809Y-28933855D02*
X42723809Y-28133855D01*
X43371428Y-28514807D02*
X43638094Y-28514807D01*
X43752380Y-28933855D02*
X43371428Y-28933855D01*
X43371428Y-28933855D02*
X43371428Y-28133855D01*
X43371428Y-28133855D02*
X43752380Y-28133855D01*
X44095238Y-28933855D02*
X44095238Y-28133855D01*
X44095238Y-28133855D02*
X44285714Y-28133855D01*
X44285714Y-28133855D02*
X44400000Y-28171950D01*
X44400000Y-28171950D02*
X44476190Y-28248140D01*
X44476190Y-28248140D02*
X44514285Y-28324331D01*
X44514285Y-28324331D02*
X44552381Y-28476712D01*
X44552381Y-28476712D02*
X44552381Y-28590998D01*
X44552381Y-28590998D02*
X44514285Y-28743379D01*
X44514285Y-28743379D02*
X44476190Y-28819569D01*
X44476190Y-28819569D02*
X44400000Y-28895760D01*
X44400000Y-28895760D02*
X44285714Y-28933855D01*
X44285714Y-28933855D02*
X44095238Y-28933855D01*
X45314285Y-28933855D02*
X44857142Y-28933855D01*
X45085714Y-28933855D02*
X45085714Y-28133855D01*
X45085714Y-28133855D02*
X45009523Y-28248140D01*
X45009523Y-28248140D02*
X44933333Y-28324331D01*
X44933333Y-28324331D02*
X44857142Y-28362426D01*
X84366667Y-30933855D02*
X84100000Y-30552902D01*
X83909524Y-30933855D02*
X83909524Y-30133855D01*
X83909524Y-30133855D02*
X84214286Y-30133855D01*
X84214286Y-30133855D02*
X84290476Y-30171950D01*
X84290476Y-30171950D02*
X84328571Y-30210045D01*
X84328571Y-30210045D02*
X84366667Y-30286236D01*
X84366667Y-30286236D02*
X84366667Y-30400521D01*
X84366667Y-30400521D02*
X84328571Y-30476712D01*
X84328571Y-30476712D02*
X84290476Y-30514807D01*
X84290476Y-30514807D02*
X84214286Y-30552902D01*
X84214286Y-30552902D02*
X83909524Y-30552902D01*
X85052381Y-30400521D02*
X85052381Y-30933855D01*
X84861905Y-30095760D02*
X84671428Y-30667188D01*
X84671428Y-30667188D02*
X85166667Y-30667188D01*
X69467664Y-62514285D02*
X69505760Y-62552381D01*
X69505760Y-62552381D02*
X69543855Y-62666666D01*
X69543855Y-62666666D02*
X69543855Y-62742857D01*
X69543855Y-62742857D02*
X69505760Y-62857143D01*
X69505760Y-62857143D02*
X69429569Y-62933333D01*
X69429569Y-62933333D02*
X69353379Y-62971428D01*
X69353379Y-62971428D02*
X69200998Y-63009524D01*
X69200998Y-63009524D02*
X69086712Y-63009524D01*
X69086712Y-63009524D02*
X68934331Y-62971428D01*
X68934331Y-62971428D02*
X68858140Y-62933333D01*
X68858140Y-62933333D02*
X68781950Y-62857143D01*
X68781950Y-62857143D02*
X68743855Y-62742857D01*
X68743855Y-62742857D02*
X68743855Y-62666666D01*
X68743855Y-62666666D02*
X68781950Y-62552381D01*
X68781950Y-62552381D02*
X68820045Y-62514285D01*
X69543855Y-61752381D02*
X69543855Y-62209524D01*
X69543855Y-61980952D02*
X68743855Y-61980952D01*
X68743855Y-61980952D02*
X68858140Y-62057143D01*
X68858140Y-62057143D02*
X68934331Y-62133333D01*
X68934331Y-62133333D02*
X68972426Y-62209524D01*
X68743855Y-61028571D02*
X68743855Y-61409523D01*
X68743855Y-61409523D02*
X69124807Y-61447619D01*
X69124807Y-61447619D02*
X69086712Y-61409523D01*
X69086712Y-61409523D02*
X69048617Y-61333333D01*
X69048617Y-61333333D02*
X69048617Y-61142857D01*
X69048617Y-61142857D02*
X69086712Y-61066666D01*
X69086712Y-61066666D02*
X69124807Y-61028571D01*
X69124807Y-61028571D02*
X69200998Y-60990476D01*
X69200998Y-60990476D02*
X69391474Y-60990476D01*
X69391474Y-60990476D02*
X69467664Y-61028571D01*
X69467664Y-61028571D02*
X69505760Y-61066666D01*
X69505760Y-61066666D02*
X69543855Y-61142857D01*
X69543855Y-61142857D02*
X69543855Y-61333333D01*
X69543855Y-61333333D02*
X69505760Y-61409523D01*
X69505760Y-61409523D02*
X69467664Y-61447619D01*
X29390476Y-20213855D02*
X29390476Y-19413855D01*
X29390476Y-19794807D02*
X29847619Y-19794807D01*
X29847619Y-20213855D02*
X29847619Y-19413855D01*
X30647618Y-20213855D02*
X30190475Y-20213855D01*
X30419047Y-20213855D02*
X30419047Y-19413855D01*
X30419047Y-19413855D02*
X30342856Y-19528140D01*
X30342856Y-19528140D02*
X30266666Y-19604331D01*
X30266666Y-19604331D02*
X30190475Y-19642426D01*
X27083855Y-52633332D02*
X26702902Y-52899999D01*
X27083855Y-53090475D02*
X26283855Y-53090475D01*
X26283855Y-53090475D02*
X26283855Y-52785713D01*
X26283855Y-52785713D02*
X26321950Y-52709523D01*
X26321950Y-52709523D02*
X26360045Y-52671428D01*
X26360045Y-52671428D02*
X26436236Y-52633332D01*
X26436236Y-52633332D02*
X26550521Y-52633332D01*
X26550521Y-52633332D02*
X26626712Y-52671428D01*
X26626712Y-52671428D02*
X26664807Y-52709523D01*
X26664807Y-52709523D02*
X26702902Y-52785713D01*
X26702902Y-52785713D02*
X26702902Y-53090475D01*
X27083855Y-51871428D02*
X27083855Y-52328571D01*
X27083855Y-52099999D02*
X26283855Y-52099999D01*
X26283855Y-52099999D02*
X26398140Y-52176190D01*
X26398140Y-52176190D02*
X26474331Y-52252380D01*
X26474331Y-52252380D02*
X26512426Y-52328571D01*
X84793855Y-57533332D02*
X84412902Y-57799999D01*
X84793855Y-57990475D02*
X83993855Y-57990475D01*
X83993855Y-57990475D02*
X83993855Y-57685713D01*
X83993855Y-57685713D02*
X84031950Y-57609523D01*
X84031950Y-57609523D02*
X84070045Y-57571428D01*
X84070045Y-57571428D02*
X84146236Y-57533332D01*
X84146236Y-57533332D02*
X84260521Y-57533332D01*
X84260521Y-57533332D02*
X84336712Y-57571428D01*
X84336712Y-57571428D02*
X84374807Y-57609523D01*
X84374807Y-57609523D02*
X84412902Y-57685713D01*
X84412902Y-57685713D02*
X84412902Y-57990475D01*
X83993855Y-56809523D02*
X83993855Y-57190475D01*
X83993855Y-57190475D02*
X84374807Y-57228571D01*
X84374807Y-57228571D02*
X84336712Y-57190475D01*
X84336712Y-57190475D02*
X84298617Y-57114285D01*
X84298617Y-57114285D02*
X84298617Y-56923809D01*
X84298617Y-56923809D02*
X84336712Y-56847618D01*
X84336712Y-56847618D02*
X84374807Y-56809523D01*
X84374807Y-56809523D02*
X84450998Y-56771428D01*
X84450998Y-56771428D02*
X84641474Y-56771428D01*
X84641474Y-56771428D02*
X84717664Y-56809523D01*
X84717664Y-56809523D02*
X84755760Y-56847618D01*
X84755760Y-56847618D02*
X84793855Y-56923809D01*
X84793855Y-56923809D02*
X84793855Y-57114285D01*
X84793855Y-57114285D02*
X84755760Y-57190475D01*
X84755760Y-57190475D02*
X84717664Y-57228571D01*
X99366667Y-59433855D02*
X99100000Y-59052902D01*
X98909524Y-59433855D02*
X98909524Y-58633855D01*
X98909524Y-58633855D02*
X99214286Y-58633855D01*
X99214286Y-58633855D02*
X99290476Y-58671950D01*
X99290476Y-58671950D02*
X99328571Y-58710045D01*
X99328571Y-58710045D02*
X99366667Y-58786236D01*
X99366667Y-58786236D02*
X99366667Y-58900521D01*
X99366667Y-58900521D02*
X99328571Y-58976712D01*
X99328571Y-58976712D02*
X99290476Y-59014807D01*
X99290476Y-59014807D02*
X99214286Y-59052902D01*
X99214286Y-59052902D02*
X98909524Y-59052902D01*
X99823809Y-58976712D02*
X99747619Y-58938617D01*
X99747619Y-58938617D02*
X99709524Y-58900521D01*
X99709524Y-58900521D02*
X99671428Y-58824331D01*
X99671428Y-58824331D02*
X99671428Y-58786236D01*
X99671428Y-58786236D02*
X99709524Y-58710045D01*
X99709524Y-58710045D02*
X99747619Y-58671950D01*
X99747619Y-58671950D02*
X99823809Y-58633855D01*
X99823809Y-58633855D02*
X99976190Y-58633855D01*
X99976190Y-58633855D02*
X100052381Y-58671950D01*
X100052381Y-58671950D02*
X100090476Y-58710045D01*
X100090476Y-58710045D02*
X100128571Y-58786236D01*
X100128571Y-58786236D02*
X100128571Y-58824331D01*
X100128571Y-58824331D02*
X100090476Y-58900521D01*
X100090476Y-58900521D02*
X100052381Y-58938617D01*
X100052381Y-58938617D02*
X99976190Y-58976712D01*
X99976190Y-58976712D02*
X99823809Y-58976712D01*
X99823809Y-58976712D02*
X99747619Y-59014807D01*
X99747619Y-59014807D02*
X99709524Y-59052902D01*
X99709524Y-59052902D02*
X99671428Y-59129093D01*
X99671428Y-59129093D02*
X99671428Y-59281474D01*
X99671428Y-59281474D02*
X99709524Y-59357664D01*
X99709524Y-59357664D02*
X99747619Y-59395760D01*
X99747619Y-59395760D02*
X99823809Y-59433855D01*
X99823809Y-59433855D02*
X99976190Y-59433855D01*
X99976190Y-59433855D02*
X100052381Y-59395760D01*
X100052381Y-59395760D02*
X100090476Y-59357664D01*
X100090476Y-59357664D02*
X100128571Y-59281474D01*
X100128571Y-59281474D02*
X100128571Y-59129093D01*
X100128571Y-59129093D02*
X100090476Y-59052902D01*
X100090476Y-59052902D02*
X100052381Y-59014807D01*
X100052381Y-59014807D02*
X99976190Y-58976712D01*
X67467664Y-62514285D02*
X67505760Y-62552381D01*
X67505760Y-62552381D02*
X67543855Y-62666666D01*
X67543855Y-62666666D02*
X67543855Y-62742857D01*
X67543855Y-62742857D02*
X67505760Y-62857143D01*
X67505760Y-62857143D02*
X67429569Y-62933333D01*
X67429569Y-62933333D02*
X67353379Y-62971428D01*
X67353379Y-62971428D02*
X67200998Y-63009524D01*
X67200998Y-63009524D02*
X67086712Y-63009524D01*
X67086712Y-63009524D02*
X66934331Y-62971428D01*
X66934331Y-62971428D02*
X66858140Y-62933333D01*
X66858140Y-62933333D02*
X66781950Y-62857143D01*
X66781950Y-62857143D02*
X66743855Y-62742857D01*
X66743855Y-62742857D02*
X66743855Y-62666666D01*
X66743855Y-62666666D02*
X66781950Y-62552381D01*
X66781950Y-62552381D02*
X66820045Y-62514285D01*
X67543855Y-61752381D02*
X67543855Y-62209524D01*
X67543855Y-61980952D02*
X66743855Y-61980952D01*
X66743855Y-61980952D02*
X66858140Y-62057143D01*
X66858140Y-62057143D02*
X66934331Y-62133333D01*
X66934331Y-62133333D02*
X66972426Y-62209524D01*
X67010521Y-61066666D02*
X67543855Y-61066666D01*
X66705760Y-61257142D02*
X67277188Y-61447619D01*
X67277188Y-61447619D02*
X67277188Y-60952380D01*
X43866667Y-31433855D02*
X43600000Y-31052902D01*
X43409524Y-31433855D02*
X43409524Y-30633855D01*
X43409524Y-30633855D02*
X43714286Y-30633855D01*
X43714286Y-30633855D02*
X43790476Y-30671950D01*
X43790476Y-30671950D02*
X43828571Y-30710045D01*
X43828571Y-30710045D02*
X43866667Y-30786236D01*
X43866667Y-30786236D02*
X43866667Y-30900521D01*
X43866667Y-30900521D02*
X43828571Y-30976712D01*
X43828571Y-30976712D02*
X43790476Y-31014807D01*
X43790476Y-31014807D02*
X43714286Y-31052902D01*
X43714286Y-31052902D02*
X43409524Y-31052902D01*
X44133333Y-30633855D02*
X44666667Y-30633855D01*
X44666667Y-30633855D02*
X44323809Y-31433855D01*
X91793855Y-57533332D02*
X91412902Y-57799999D01*
X91793855Y-57990475D02*
X90993855Y-57990475D01*
X90993855Y-57990475D02*
X90993855Y-57685713D01*
X90993855Y-57685713D02*
X91031950Y-57609523D01*
X91031950Y-57609523D02*
X91070045Y-57571428D01*
X91070045Y-57571428D02*
X91146236Y-57533332D01*
X91146236Y-57533332D02*
X91260521Y-57533332D01*
X91260521Y-57533332D02*
X91336712Y-57571428D01*
X91336712Y-57571428D02*
X91374807Y-57609523D01*
X91374807Y-57609523D02*
X91412902Y-57685713D01*
X91412902Y-57685713D02*
X91412902Y-57990475D01*
X90993855Y-56847618D02*
X90993855Y-56999999D01*
X90993855Y-56999999D02*
X91031950Y-57076190D01*
X91031950Y-57076190D02*
X91070045Y-57114285D01*
X91070045Y-57114285D02*
X91184331Y-57190475D01*
X91184331Y-57190475D02*
X91336712Y-57228571D01*
X91336712Y-57228571D02*
X91641474Y-57228571D01*
X91641474Y-57228571D02*
X91717664Y-57190475D01*
X91717664Y-57190475D02*
X91755760Y-57152380D01*
X91755760Y-57152380D02*
X91793855Y-57076190D01*
X91793855Y-57076190D02*
X91793855Y-56923809D01*
X91793855Y-56923809D02*
X91755760Y-56847618D01*
X91755760Y-56847618D02*
X91717664Y-56809523D01*
X91717664Y-56809523D02*
X91641474Y-56771428D01*
X91641474Y-56771428D02*
X91450998Y-56771428D01*
X91450998Y-56771428D02*
X91374807Y-56809523D01*
X91374807Y-56809523D02*
X91336712Y-56847618D01*
X91336712Y-56847618D02*
X91298617Y-56923809D01*
X91298617Y-56923809D02*
X91298617Y-57076190D01*
X91298617Y-57076190D02*
X91336712Y-57152380D01*
X91336712Y-57152380D02*
X91374807Y-57190475D01*
X91374807Y-57190475D02*
X91450998Y-57228571D01*
X85866667Y-48433855D02*
X85600000Y-48052902D01*
X85409524Y-48433855D02*
X85409524Y-47633855D01*
X85409524Y-47633855D02*
X85714286Y-47633855D01*
X85714286Y-47633855D02*
X85790476Y-47671950D01*
X85790476Y-47671950D02*
X85828571Y-47710045D01*
X85828571Y-47710045D02*
X85866667Y-47786236D01*
X85866667Y-47786236D02*
X85866667Y-47900521D01*
X85866667Y-47900521D02*
X85828571Y-47976712D01*
X85828571Y-47976712D02*
X85790476Y-48014807D01*
X85790476Y-48014807D02*
X85714286Y-48052902D01*
X85714286Y-48052902D02*
X85409524Y-48052902D01*
X86247619Y-48433855D02*
X86400000Y-48433855D01*
X86400000Y-48433855D02*
X86476190Y-48395760D01*
X86476190Y-48395760D02*
X86514286Y-48357664D01*
X86514286Y-48357664D02*
X86590476Y-48243379D01*
X86590476Y-48243379D02*
X86628571Y-48090998D01*
X86628571Y-48090998D02*
X86628571Y-47786236D01*
X86628571Y-47786236D02*
X86590476Y-47710045D01*
X86590476Y-47710045D02*
X86552381Y-47671950D01*
X86552381Y-47671950D02*
X86476190Y-47633855D01*
X86476190Y-47633855D02*
X86323809Y-47633855D01*
X86323809Y-47633855D02*
X86247619Y-47671950D01*
X86247619Y-47671950D02*
X86209524Y-47710045D01*
X86209524Y-47710045D02*
X86171428Y-47786236D01*
X86171428Y-47786236D02*
X86171428Y-47976712D01*
X86171428Y-47976712D02*
X86209524Y-48052902D01*
X86209524Y-48052902D02*
X86247619Y-48090998D01*
X86247619Y-48090998D02*
X86323809Y-48129093D01*
X86323809Y-48129093D02*
X86476190Y-48129093D01*
X86476190Y-48129093D02*
X86552381Y-48090998D01*
X86552381Y-48090998D02*
X86590476Y-48052902D01*
X86590476Y-48052902D02*
X86628571Y-47976712D01*
X19733333Y-43563855D02*
X19733333Y-44135283D01*
X19733333Y-44135283D02*
X19695238Y-44249569D01*
X19695238Y-44249569D02*
X19619047Y-44325760D01*
X19619047Y-44325760D02*
X19504762Y-44363855D01*
X19504762Y-44363855D02*
X19428571Y-44363855D01*
X20533333Y-44363855D02*
X20076190Y-44363855D01*
X20304762Y-44363855D02*
X20304762Y-43563855D01*
X20304762Y-43563855D02*
X20228571Y-43678140D01*
X20228571Y-43678140D02*
X20152381Y-43754331D01*
X20152381Y-43754331D02*
X20076190Y-43792426D01*
X20878570Y-30363855D02*
X20421427Y-30363855D01*
X20649999Y-30363855D02*
X20649999Y-29563855D01*
X20649999Y-29563855D02*
X20573808Y-29678140D01*
X20573808Y-29678140D02*
X20497618Y-29754331D01*
X20497618Y-29754331D02*
X20421427Y-29792426D01*
X20421427Y-33640045D02*
X20459523Y-33601950D01*
X20459523Y-33601950D02*
X20535713Y-33563855D01*
X20535713Y-33563855D02*
X20726189Y-33563855D01*
X20726189Y-33563855D02*
X20802380Y-33601950D01*
X20802380Y-33601950D02*
X20840475Y-33640045D01*
X20840475Y-33640045D02*
X20878570Y-33716236D01*
X20878570Y-33716236D02*
X20878570Y-33792426D01*
X20878570Y-33792426D02*
X20840475Y-33906712D01*
X20840475Y-33906712D02*
X20383332Y-34363855D01*
X20383332Y-34363855D02*
X20878570Y-34363855D01*
X20383332Y-37563855D02*
X20878570Y-37563855D01*
X20878570Y-37563855D02*
X20611904Y-37868617D01*
X20611904Y-37868617D02*
X20726189Y-37868617D01*
X20726189Y-37868617D02*
X20802380Y-37906712D01*
X20802380Y-37906712D02*
X20840475Y-37944807D01*
X20840475Y-37944807D02*
X20878570Y-38020998D01*
X20878570Y-38020998D02*
X20878570Y-38211474D01*
X20878570Y-38211474D02*
X20840475Y-38287664D01*
X20840475Y-38287664D02*
X20802380Y-38325760D01*
X20802380Y-38325760D02*
X20726189Y-38363855D01*
X20726189Y-38363855D02*
X20497618Y-38363855D01*
X20497618Y-38363855D02*
X20421427Y-38325760D01*
X20421427Y-38325760D02*
X20383332Y-38287664D01*
X20802380Y-41830521D02*
X20802380Y-42363855D01*
X20611904Y-41525760D02*
X20421427Y-42097188D01*
X20421427Y-42097188D02*
X20916666Y-42097188D01*
X20840475Y-45563855D02*
X20459523Y-45563855D01*
X20459523Y-45563855D02*
X20421427Y-45944807D01*
X20421427Y-45944807D02*
X20459523Y-45906712D01*
X20459523Y-45906712D02*
X20535713Y-45868617D01*
X20535713Y-45868617D02*
X20726189Y-45868617D01*
X20726189Y-45868617D02*
X20802380Y-45906712D01*
X20802380Y-45906712D02*
X20840475Y-45944807D01*
X20840475Y-45944807D02*
X20878570Y-46020998D01*
X20878570Y-46020998D02*
X20878570Y-46211474D01*
X20878570Y-46211474D02*
X20840475Y-46287664D01*
X20840475Y-46287664D02*
X20802380Y-46325760D01*
X20802380Y-46325760D02*
X20726189Y-46363855D01*
X20726189Y-46363855D02*
X20535713Y-46363855D01*
X20535713Y-46363855D02*
X20459523Y-46325760D01*
X20459523Y-46325760D02*
X20421427Y-46287664D01*
X20802380Y-49563855D02*
X20649999Y-49563855D01*
X20649999Y-49563855D02*
X20573808Y-49601950D01*
X20573808Y-49601950D02*
X20535713Y-49640045D01*
X20535713Y-49640045D02*
X20459523Y-49754331D01*
X20459523Y-49754331D02*
X20421427Y-49906712D01*
X20421427Y-49906712D02*
X20421427Y-50211474D01*
X20421427Y-50211474D02*
X20459523Y-50287664D01*
X20459523Y-50287664D02*
X20497618Y-50325760D01*
X20497618Y-50325760D02*
X20573808Y-50363855D01*
X20573808Y-50363855D02*
X20726189Y-50363855D01*
X20726189Y-50363855D02*
X20802380Y-50325760D01*
X20802380Y-50325760D02*
X20840475Y-50287664D01*
X20840475Y-50287664D02*
X20878570Y-50211474D01*
X20878570Y-50211474D02*
X20878570Y-50020998D01*
X20878570Y-50020998D02*
X20840475Y-49944807D01*
X20840475Y-49944807D02*
X20802380Y-49906712D01*
X20802380Y-49906712D02*
X20726189Y-49868617D01*
X20726189Y-49868617D02*
X20573808Y-49868617D01*
X20573808Y-49868617D02*
X20497618Y-49906712D01*
X20497618Y-49906712D02*
X20459523Y-49944807D01*
X20459523Y-49944807D02*
X20421427Y-50020998D01*
X20383332Y-53563855D02*
X20916666Y-53563855D01*
X20916666Y-53563855D02*
X20573808Y-54363855D01*
X20573808Y-57906712D02*
X20497618Y-57868617D01*
X20497618Y-57868617D02*
X20459523Y-57830521D01*
X20459523Y-57830521D02*
X20421427Y-57754331D01*
X20421427Y-57754331D02*
X20421427Y-57716236D01*
X20421427Y-57716236D02*
X20459523Y-57640045D01*
X20459523Y-57640045D02*
X20497618Y-57601950D01*
X20497618Y-57601950D02*
X20573808Y-57563855D01*
X20573808Y-57563855D02*
X20726189Y-57563855D01*
X20726189Y-57563855D02*
X20802380Y-57601950D01*
X20802380Y-57601950D02*
X20840475Y-57640045D01*
X20840475Y-57640045D02*
X20878570Y-57716236D01*
X20878570Y-57716236D02*
X20878570Y-57754331D01*
X20878570Y-57754331D02*
X20840475Y-57830521D01*
X20840475Y-57830521D02*
X20802380Y-57868617D01*
X20802380Y-57868617D02*
X20726189Y-57906712D01*
X20726189Y-57906712D02*
X20573808Y-57906712D01*
X20573808Y-57906712D02*
X20497618Y-57944807D01*
X20497618Y-57944807D02*
X20459523Y-57982902D01*
X20459523Y-57982902D02*
X20421427Y-58059093D01*
X20421427Y-58059093D02*
X20421427Y-58211474D01*
X20421427Y-58211474D02*
X20459523Y-58287664D01*
X20459523Y-58287664D02*
X20497618Y-58325760D01*
X20497618Y-58325760D02*
X20573808Y-58363855D01*
X20573808Y-58363855D02*
X20726189Y-58363855D01*
X20726189Y-58363855D02*
X20802380Y-58325760D01*
X20802380Y-58325760D02*
X20840475Y-58287664D01*
X20840475Y-58287664D02*
X20878570Y-58211474D01*
X20878570Y-58211474D02*
X20878570Y-58059093D01*
X20878570Y-58059093D02*
X20840475Y-57982902D01*
X20840475Y-57982902D02*
X20802380Y-57944807D01*
X20802380Y-57944807D02*
X20726189Y-57906712D01*
X21928571Y-24456379D02*
X22119047Y-24456379D01*
X22119047Y-24456379D02*
X22214285Y-24503998D01*
X22214285Y-24503998D02*
X22309523Y-24599236D01*
X22309523Y-24599236D02*
X22357142Y-24789712D01*
X22357142Y-24789712D02*
X22357142Y-25123045D01*
X22357142Y-25123045D02*
X22309523Y-25313521D01*
X22309523Y-25313521D02*
X22214285Y-25408760D01*
X22214285Y-25408760D02*
X22119047Y-25456379D01*
X22119047Y-25456379D02*
X21928571Y-25456379D01*
X21928571Y-25456379D02*
X21833333Y-25408760D01*
X21833333Y-25408760D02*
X21738095Y-25313521D01*
X21738095Y-25313521D02*
X21690476Y-25123045D01*
X21690476Y-25123045D02*
X21690476Y-24789712D01*
X21690476Y-24789712D02*
X21738095Y-24599236D01*
X21738095Y-24599236D02*
X21833333Y-24503998D01*
X21833333Y-24503998D02*
X21928571Y-24456379D01*
X23119047Y-24932569D02*
X23261904Y-24980188D01*
X23261904Y-24980188D02*
X23309523Y-25027807D01*
X23309523Y-25027807D02*
X23357142Y-25123045D01*
X23357142Y-25123045D02*
X23357142Y-25265902D01*
X23357142Y-25265902D02*
X23309523Y-25361140D01*
X23309523Y-25361140D02*
X23261904Y-25408760D01*
X23261904Y-25408760D02*
X23166666Y-25456379D01*
X23166666Y-25456379D02*
X22785714Y-25456379D01*
X22785714Y-25456379D02*
X22785714Y-24456379D01*
X22785714Y-24456379D02*
X23119047Y-24456379D01*
X23119047Y-24456379D02*
X23214285Y-24503998D01*
X23214285Y-24503998D02*
X23261904Y-24551617D01*
X23261904Y-24551617D02*
X23309523Y-24646855D01*
X23309523Y-24646855D02*
X23309523Y-24742093D01*
X23309523Y-24742093D02*
X23261904Y-24837331D01*
X23261904Y-24837331D02*
X23214285Y-24884950D01*
X23214285Y-24884950D02*
X23119047Y-24932569D01*
X23119047Y-24932569D02*
X22785714Y-24932569D01*
X23785714Y-25456379D02*
X23785714Y-24456379D01*
X23785714Y-24456379D02*
X24023809Y-24456379D01*
X24023809Y-24456379D02*
X24166666Y-24503998D01*
X24166666Y-24503998D02*
X24261904Y-24599236D01*
X24261904Y-24599236D02*
X24309523Y-24694474D01*
X24309523Y-24694474D02*
X24357142Y-24884950D01*
X24357142Y-24884950D02*
X24357142Y-25027807D01*
X24357142Y-25027807D02*
X24309523Y-25218283D01*
X24309523Y-25218283D02*
X24261904Y-25313521D01*
X24261904Y-25313521D02*
X24166666Y-25408760D01*
X24166666Y-25408760D02*
X24023809Y-25456379D01*
X24023809Y-25456379D02*
X23785714Y-25456379D01*
X24738095Y-24551617D02*
X24785714Y-24503998D01*
X24785714Y-24503998D02*
X24880952Y-24456379D01*
X24880952Y-24456379D02*
X25119047Y-24456379D01*
X25119047Y-24456379D02*
X25214285Y-24503998D01*
X25214285Y-24503998D02*
X25261904Y-24551617D01*
X25261904Y-24551617D02*
X25309523Y-24646855D01*
X25309523Y-24646855D02*
X25309523Y-24742093D01*
X25309523Y-24742093D02*
X25261904Y-24884950D01*
X25261904Y-24884950D02*
X24690476Y-25456379D01*
X24690476Y-25456379D02*
X25309523Y-25456379D01*
X26697619Y-30363855D02*
X26850000Y-30363855D01*
X26850000Y-30363855D02*
X26926190Y-30325760D01*
X26926190Y-30325760D02*
X26964286Y-30287664D01*
X26964286Y-30287664D02*
X27040476Y-30173379D01*
X27040476Y-30173379D02*
X27078571Y-30020998D01*
X27078571Y-30020998D02*
X27078571Y-29716236D01*
X27078571Y-29716236D02*
X27040476Y-29640045D01*
X27040476Y-29640045D02*
X27002381Y-29601950D01*
X27002381Y-29601950D02*
X26926190Y-29563855D01*
X26926190Y-29563855D02*
X26773809Y-29563855D01*
X26773809Y-29563855D02*
X26697619Y-29601950D01*
X26697619Y-29601950D02*
X26659524Y-29640045D01*
X26659524Y-29640045D02*
X26621428Y-29716236D01*
X26621428Y-29716236D02*
X26621428Y-29906712D01*
X26621428Y-29906712D02*
X26659524Y-29982902D01*
X26659524Y-29982902D02*
X26697619Y-30020998D01*
X26697619Y-30020998D02*
X26773809Y-30059093D01*
X26773809Y-30059093D02*
X26926190Y-30059093D01*
X26926190Y-30059093D02*
X27002381Y-30020998D01*
X27002381Y-30020998D02*
X27040476Y-29982902D01*
X27040476Y-29982902D02*
X27078571Y-29906712D01*
X26697618Y-34363855D02*
X26240475Y-34363855D01*
X26469047Y-34363855D02*
X26469047Y-33563855D01*
X26469047Y-33563855D02*
X26392856Y-33678140D01*
X26392856Y-33678140D02*
X26316666Y-33754331D01*
X26316666Y-33754331D02*
X26240475Y-33792426D01*
X27192857Y-33563855D02*
X27269047Y-33563855D01*
X27269047Y-33563855D02*
X27345238Y-33601950D01*
X27345238Y-33601950D02*
X27383333Y-33640045D01*
X27383333Y-33640045D02*
X27421428Y-33716236D01*
X27421428Y-33716236D02*
X27459523Y-33868617D01*
X27459523Y-33868617D02*
X27459523Y-34059093D01*
X27459523Y-34059093D02*
X27421428Y-34211474D01*
X27421428Y-34211474D02*
X27383333Y-34287664D01*
X27383333Y-34287664D02*
X27345238Y-34325760D01*
X27345238Y-34325760D02*
X27269047Y-34363855D01*
X27269047Y-34363855D02*
X27192857Y-34363855D01*
X27192857Y-34363855D02*
X27116666Y-34325760D01*
X27116666Y-34325760D02*
X27078571Y-34287664D01*
X27078571Y-34287664D02*
X27040476Y-34211474D01*
X27040476Y-34211474D02*
X27002380Y-34059093D01*
X27002380Y-34059093D02*
X27002380Y-33868617D01*
X27002380Y-33868617D02*
X27040476Y-33716236D01*
X27040476Y-33716236D02*
X27078571Y-33640045D01*
X27078571Y-33640045D02*
X27116666Y-33601950D01*
X27116666Y-33601950D02*
X27192857Y-33563855D01*
X26697618Y-38363855D02*
X26240475Y-38363855D01*
X26469047Y-38363855D02*
X26469047Y-37563855D01*
X26469047Y-37563855D02*
X26392856Y-37678140D01*
X26392856Y-37678140D02*
X26316666Y-37754331D01*
X26316666Y-37754331D02*
X26240475Y-37792426D01*
X27459523Y-38363855D02*
X27002380Y-38363855D01*
X27230952Y-38363855D02*
X27230952Y-37563855D01*
X27230952Y-37563855D02*
X27154761Y-37678140D01*
X27154761Y-37678140D02*
X27078571Y-37754331D01*
X27078571Y-37754331D02*
X27002380Y-37792426D01*
X26697618Y-42363855D02*
X26240475Y-42363855D01*
X26469047Y-42363855D02*
X26469047Y-41563855D01*
X26469047Y-41563855D02*
X26392856Y-41678140D01*
X26392856Y-41678140D02*
X26316666Y-41754331D01*
X26316666Y-41754331D02*
X26240475Y-41792426D01*
X27002380Y-41640045D02*
X27040476Y-41601950D01*
X27040476Y-41601950D02*
X27116666Y-41563855D01*
X27116666Y-41563855D02*
X27307142Y-41563855D01*
X27307142Y-41563855D02*
X27383333Y-41601950D01*
X27383333Y-41601950D02*
X27421428Y-41640045D01*
X27421428Y-41640045D02*
X27459523Y-41716236D01*
X27459523Y-41716236D02*
X27459523Y-41792426D01*
X27459523Y-41792426D02*
X27421428Y-41906712D01*
X27421428Y-41906712D02*
X26964285Y-42363855D01*
X26964285Y-42363855D02*
X27459523Y-42363855D01*
X26697618Y-46363855D02*
X26240475Y-46363855D01*
X26469047Y-46363855D02*
X26469047Y-45563855D01*
X26469047Y-45563855D02*
X26392856Y-45678140D01*
X26392856Y-45678140D02*
X26316666Y-45754331D01*
X26316666Y-45754331D02*
X26240475Y-45792426D01*
X26964285Y-45563855D02*
X27459523Y-45563855D01*
X27459523Y-45563855D02*
X27192857Y-45868617D01*
X27192857Y-45868617D02*
X27307142Y-45868617D01*
X27307142Y-45868617D02*
X27383333Y-45906712D01*
X27383333Y-45906712D02*
X27421428Y-45944807D01*
X27421428Y-45944807D02*
X27459523Y-46020998D01*
X27459523Y-46020998D02*
X27459523Y-46211474D01*
X27459523Y-46211474D02*
X27421428Y-46287664D01*
X27421428Y-46287664D02*
X27383333Y-46325760D01*
X27383333Y-46325760D02*
X27307142Y-46363855D01*
X27307142Y-46363855D02*
X27078571Y-46363855D01*
X27078571Y-46363855D02*
X27002380Y-46325760D01*
X27002380Y-46325760D02*
X26964285Y-46287664D01*
X26697618Y-50363855D02*
X26240475Y-50363855D01*
X26469047Y-50363855D02*
X26469047Y-49563855D01*
X26469047Y-49563855D02*
X26392856Y-49678140D01*
X26392856Y-49678140D02*
X26316666Y-49754331D01*
X26316666Y-49754331D02*
X26240475Y-49792426D01*
X27383333Y-49830521D02*
X27383333Y-50363855D01*
X27192857Y-49525760D02*
X27002380Y-50097188D01*
X27002380Y-50097188D02*
X27497619Y-50097188D01*
X26697618Y-54363855D02*
X26240475Y-54363855D01*
X26469047Y-54363855D02*
X26469047Y-53563855D01*
X26469047Y-53563855D02*
X26392856Y-53678140D01*
X26392856Y-53678140D02*
X26316666Y-53754331D01*
X26316666Y-53754331D02*
X26240475Y-53792426D01*
X27421428Y-53563855D02*
X27040476Y-53563855D01*
X27040476Y-53563855D02*
X27002380Y-53944807D01*
X27002380Y-53944807D02*
X27040476Y-53906712D01*
X27040476Y-53906712D02*
X27116666Y-53868617D01*
X27116666Y-53868617D02*
X27307142Y-53868617D01*
X27307142Y-53868617D02*
X27383333Y-53906712D01*
X27383333Y-53906712D02*
X27421428Y-53944807D01*
X27421428Y-53944807D02*
X27459523Y-54020998D01*
X27459523Y-54020998D02*
X27459523Y-54211474D01*
X27459523Y-54211474D02*
X27421428Y-54287664D01*
X27421428Y-54287664D02*
X27383333Y-54325760D01*
X27383333Y-54325760D02*
X27307142Y-54363855D01*
X27307142Y-54363855D02*
X27116666Y-54363855D01*
X27116666Y-54363855D02*
X27040476Y-54325760D01*
X27040476Y-54325760D02*
X27002380Y-54287664D01*
X26697618Y-58363855D02*
X26240475Y-58363855D01*
X26469047Y-58363855D02*
X26469047Y-57563855D01*
X26469047Y-57563855D02*
X26392856Y-57678140D01*
X26392856Y-57678140D02*
X26316666Y-57754331D01*
X26316666Y-57754331D02*
X26240475Y-57792426D01*
X27383333Y-57563855D02*
X27230952Y-57563855D01*
X27230952Y-57563855D02*
X27154761Y-57601950D01*
X27154761Y-57601950D02*
X27116666Y-57640045D01*
X27116666Y-57640045D02*
X27040476Y-57754331D01*
X27040476Y-57754331D02*
X27002380Y-57906712D01*
X27002380Y-57906712D02*
X27002380Y-58211474D01*
X27002380Y-58211474D02*
X27040476Y-58287664D01*
X27040476Y-58287664D02*
X27078571Y-58325760D01*
X27078571Y-58325760D02*
X27154761Y-58363855D01*
X27154761Y-58363855D02*
X27307142Y-58363855D01*
X27307142Y-58363855D02*
X27383333Y-58325760D01*
X27383333Y-58325760D02*
X27421428Y-58287664D01*
X27421428Y-58287664D02*
X27459523Y-58211474D01*
X27459523Y-58211474D02*
X27459523Y-58020998D01*
X27459523Y-58020998D02*
X27421428Y-57944807D01*
X27421428Y-57944807D02*
X27383333Y-57906712D01*
X27383333Y-57906712D02*
X27307142Y-57868617D01*
X27307142Y-57868617D02*
X27154761Y-57868617D01*
X27154761Y-57868617D02*
X27078571Y-57906712D01*
X27078571Y-57906712D02*
X27040476Y-57944807D01*
X27040476Y-57944807D02*
X27002380Y-58020998D01*
X20214285Y-26963855D02*
X19757142Y-26963855D01*
X19985714Y-26963855D02*
X19985714Y-26163855D01*
X19985714Y-26163855D02*
X19909523Y-26278140D01*
X19909523Y-26278140D02*
X19833333Y-26354331D01*
X19833333Y-26354331D02*
X19757142Y-26392426D01*
X20900000Y-26163855D02*
X20747619Y-26163855D01*
X20747619Y-26163855D02*
X20671428Y-26201950D01*
X20671428Y-26201950D02*
X20633333Y-26240045D01*
X20633333Y-26240045D02*
X20557143Y-26354331D01*
X20557143Y-26354331D02*
X20519047Y-26506712D01*
X20519047Y-26506712D02*
X20519047Y-26811474D01*
X20519047Y-26811474D02*
X20557143Y-26887664D01*
X20557143Y-26887664D02*
X20595238Y-26925760D01*
X20595238Y-26925760D02*
X20671428Y-26963855D01*
X20671428Y-26963855D02*
X20823809Y-26963855D01*
X20823809Y-26963855D02*
X20900000Y-26925760D01*
X20900000Y-26925760D02*
X20938095Y-26887664D01*
X20938095Y-26887664D02*
X20976190Y-26811474D01*
X20976190Y-26811474D02*
X20976190Y-26620998D01*
X20976190Y-26620998D02*
X20938095Y-26544807D01*
X20938095Y-26544807D02*
X20900000Y-26506712D01*
X20900000Y-26506712D02*
X20823809Y-26468617D01*
X20823809Y-26468617D02*
X20671428Y-26468617D01*
X20671428Y-26468617D02*
X20595238Y-26506712D01*
X20595238Y-26506712D02*
X20557143Y-26544807D01*
X20557143Y-26544807D02*
X20519047Y-26620998D01*
X21319048Y-26544807D02*
X21928572Y-26544807D01*
X21928572Y-26773379D02*
X21319048Y-26773379D01*
X22309524Y-26659093D02*
X22919048Y-26659093D01*
X22614286Y-26963855D02*
X22614286Y-26354331D01*
X23719047Y-26963855D02*
X23261904Y-26963855D01*
X23490476Y-26963855D02*
X23490476Y-26163855D01*
X23490476Y-26163855D02*
X23414285Y-26278140D01*
X23414285Y-26278140D02*
X23338095Y-26354331D01*
X23338095Y-26354331D02*
X23261904Y-26392426D01*
X24023809Y-26240045D02*
X24061905Y-26201950D01*
X24061905Y-26201950D02*
X24138095Y-26163855D01*
X24138095Y-26163855D02*
X24328571Y-26163855D01*
X24328571Y-26163855D02*
X24404762Y-26201950D01*
X24404762Y-26201950D02*
X24442857Y-26240045D01*
X24442857Y-26240045D02*
X24480952Y-26316236D01*
X24480952Y-26316236D02*
X24480952Y-26392426D01*
X24480952Y-26392426D02*
X24442857Y-26506712D01*
X24442857Y-26506712D02*
X23985714Y-26963855D01*
X23985714Y-26963855D02*
X24480952Y-26963855D01*
X24709524Y-26163855D02*
X24976191Y-26963855D01*
X24976191Y-26963855D02*
X25242857Y-26163855D01*
X26042857Y-26163855D02*
X26576191Y-26163855D01*
X26576191Y-26163855D02*
X26233333Y-26963855D01*
X26880953Y-26659093D02*
X27490477Y-26659093D01*
X27185715Y-26963855D02*
X27185715Y-26354331D01*
X28290476Y-26963855D02*
X27833333Y-26963855D01*
X28061905Y-26963855D02*
X28061905Y-26163855D01*
X28061905Y-26163855D02*
X27985714Y-26278140D01*
X27985714Y-26278140D02*
X27909524Y-26354331D01*
X27909524Y-26354331D02*
X27833333Y-26392426D01*
X29014286Y-26163855D02*
X28633334Y-26163855D01*
X28633334Y-26163855D02*
X28595238Y-26544807D01*
X28595238Y-26544807D02*
X28633334Y-26506712D01*
X28633334Y-26506712D02*
X28709524Y-26468617D01*
X28709524Y-26468617D02*
X28900000Y-26468617D01*
X28900000Y-26468617D02*
X28976191Y-26506712D01*
X28976191Y-26506712D02*
X29014286Y-26544807D01*
X29014286Y-26544807D02*
X29052381Y-26620998D01*
X29052381Y-26620998D02*
X29052381Y-26811474D01*
X29052381Y-26811474D02*
X29014286Y-26887664D01*
X29014286Y-26887664D02*
X28976191Y-26925760D01*
X28976191Y-26925760D02*
X28900000Y-26963855D01*
X28900000Y-26963855D02*
X28709524Y-26963855D01*
X28709524Y-26963855D02*
X28633334Y-26925760D01*
X28633334Y-26925760D02*
X28595238Y-26887664D01*
X29395239Y-26544807D02*
X30004763Y-26544807D01*
X30004763Y-26773379D02*
X29395239Y-26773379D01*
X30385715Y-26963855D02*
X30385715Y-26163855D01*
X30842858Y-26963855D02*
X30500000Y-26506712D01*
X30842858Y-26163855D02*
X30385715Y-26620998D01*
X32138096Y-26430521D02*
X32138096Y-26963855D01*
X31947620Y-26125760D02*
X31757143Y-26697188D01*
X31757143Y-26697188D02*
X32252382Y-26697188D01*
X33128572Y-26125760D02*
X32442858Y-27154331D01*
X33776191Y-26163855D02*
X33395239Y-26163855D01*
X33395239Y-26163855D02*
X33357143Y-26544807D01*
X33357143Y-26544807D02*
X33395239Y-26506712D01*
X33395239Y-26506712D02*
X33471429Y-26468617D01*
X33471429Y-26468617D02*
X33661905Y-26468617D01*
X33661905Y-26468617D02*
X33738096Y-26506712D01*
X33738096Y-26506712D02*
X33776191Y-26544807D01*
X33776191Y-26544807D02*
X33814286Y-26620998D01*
X33814286Y-26620998D02*
X33814286Y-26811474D01*
X33814286Y-26811474D02*
X33776191Y-26887664D01*
X33776191Y-26887664D02*
X33738096Y-26925760D01*
X33738096Y-26925760D02*
X33661905Y-26963855D01*
X33661905Y-26963855D02*
X33471429Y-26963855D01*
X33471429Y-26963855D02*
X33395239Y-26925760D01*
X33395239Y-26925760D02*
X33357143Y-26887664D01*
X34157144Y-26544807D02*
X34766668Y-26544807D01*
X34766668Y-26773379D02*
X34157144Y-26773379D01*
X35566667Y-26201950D02*
X35490477Y-26163855D01*
X35490477Y-26163855D02*
X35376191Y-26163855D01*
X35376191Y-26163855D02*
X35261905Y-26201950D01*
X35261905Y-26201950D02*
X35185715Y-26278140D01*
X35185715Y-26278140D02*
X35147620Y-26354331D01*
X35147620Y-26354331D02*
X35109524Y-26506712D01*
X35109524Y-26506712D02*
X35109524Y-26620998D01*
X35109524Y-26620998D02*
X35147620Y-26773379D01*
X35147620Y-26773379D02*
X35185715Y-26849569D01*
X35185715Y-26849569D02*
X35261905Y-26925760D01*
X35261905Y-26925760D02*
X35376191Y-26963855D01*
X35376191Y-26963855D02*
X35452382Y-26963855D01*
X35452382Y-26963855D02*
X35566667Y-26925760D01*
X35566667Y-26925760D02*
X35604763Y-26887664D01*
X35604763Y-26887664D02*
X35604763Y-26620998D01*
X35604763Y-26620998D02*
X35452382Y-26620998D01*
X35947620Y-26963855D02*
X35947620Y-26163855D01*
X35947620Y-26163855D02*
X36404763Y-26963855D01*
X36404763Y-26963855D02*
X36404763Y-26163855D01*
X36785715Y-26963855D02*
X36785715Y-26163855D01*
X36785715Y-26163855D02*
X36976191Y-26163855D01*
X36976191Y-26163855D02*
X37090477Y-26201950D01*
X37090477Y-26201950D02*
X37166667Y-26278140D01*
X37166667Y-26278140D02*
X37204762Y-26354331D01*
X37204762Y-26354331D02*
X37242858Y-26506712D01*
X37242858Y-26506712D02*
X37242858Y-26620998D01*
X37242858Y-26620998D02*
X37204762Y-26773379D01*
X37204762Y-26773379D02*
X37166667Y-26849569D01*
X37166667Y-26849569D02*
X37090477Y-26925760D01*
X37090477Y-26925760D02*
X36976191Y-26963855D01*
X36976191Y-26963855D02*
X36785715Y-26963855D01*
X55317664Y-64214285D02*
X55355760Y-64252381D01*
X55355760Y-64252381D02*
X55393855Y-64366666D01*
X55393855Y-64366666D02*
X55393855Y-64442857D01*
X55393855Y-64442857D02*
X55355760Y-64557143D01*
X55355760Y-64557143D02*
X55279569Y-64633333D01*
X55279569Y-64633333D02*
X55203379Y-64671428D01*
X55203379Y-64671428D02*
X55050998Y-64709524D01*
X55050998Y-64709524D02*
X54936712Y-64709524D01*
X54936712Y-64709524D02*
X54784331Y-64671428D01*
X54784331Y-64671428D02*
X54708140Y-64633333D01*
X54708140Y-64633333D02*
X54631950Y-64557143D01*
X54631950Y-64557143D02*
X54593855Y-64442857D01*
X54593855Y-64442857D02*
X54593855Y-64366666D01*
X54593855Y-64366666D02*
X54631950Y-64252381D01*
X54631950Y-64252381D02*
X54670045Y-64214285D01*
X55393855Y-63452381D02*
X55393855Y-63909524D01*
X55393855Y-63680952D02*
X54593855Y-63680952D01*
X54593855Y-63680952D02*
X54708140Y-63757143D01*
X54708140Y-63757143D02*
X54784331Y-63833333D01*
X54784331Y-63833333D02*
X54822426Y-63909524D01*
X54670045Y-63147619D02*
X54631950Y-63109523D01*
X54631950Y-63109523D02*
X54593855Y-63033333D01*
X54593855Y-63033333D02*
X54593855Y-62842857D01*
X54593855Y-62842857D02*
X54631950Y-62766666D01*
X54631950Y-62766666D02*
X54670045Y-62728571D01*
X54670045Y-62728571D02*
X54746236Y-62690476D01*
X54746236Y-62690476D02*
X54822426Y-62690476D01*
X54822426Y-62690476D02*
X54936712Y-62728571D01*
X54936712Y-62728571D02*
X55393855Y-63185714D01*
X55393855Y-63185714D02*
X55393855Y-62690476D01*
X48985714Y-57133855D02*
X48719047Y-56752902D01*
X48528571Y-57133855D02*
X48528571Y-56333855D01*
X48528571Y-56333855D02*
X48833333Y-56333855D01*
X48833333Y-56333855D02*
X48909523Y-56371950D01*
X48909523Y-56371950D02*
X48947618Y-56410045D01*
X48947618Y-56410045D02*
X48985714Y-56486236D01*
X48985714Y-56486236D02*
X48985714Y-56600521D01*
X48985714Y-56600521D02*
X48947618Y-56676712D01*
X48947618Y-56676712D02*
X48909523Y-56714807D01*
X48909523Y-56714807D02*
X48833333Y-56752902D01*
X48833333Y-56752902D02*
X48528571Y-56752902D01*
X49747618Y-57133855D02*
X49290475Y-57133855D01*
X49519047Y-57133855D02*
X49519047Y-56333855D01*
X49519047Y-56333855D02*
X49442856Y-56448140D01*
X49442856Y-56448140D02*
X49366666Y-56524331D01*
X49366666Y-56524331D02*
X49290475Y-56562426D01*
X50052380Y-56410045D02*
X50090476Y-56371950D01*
X50090476Y-56371950D02*
X50166666Y-56333855D01*
X50166666Y-56333855D02*
X50357142Y-56333855D01*
X50357142Y-56333855D02*
X50433333Y-56371950D01*
X50433333Y-56371950D02*
X50471428Y-56410045D01*
X50471428Y-56410045D02*
X50509523Y-56486236D01*
X50509523Y-56486236D02*
X50509523Y-56562426D01*
X50509523Y-56562426D02*
X50471428Y-56676712D01*
X50471428Y-56676712D02*
X50014285Y-57133855D01*
X50014285Y-57133855D02*
X50509523Y-57133855D01*
X96433332Y-49275760D02*
X96547618Y-49313855D01*
X96547618Y-49313855D02*
X96738094Y-49313855D01*
X96738094Y-49313855D02*
X96814285Y-49275760D01*
X96814285Y-49275760D02*
X96852380Y-49237664D01*
X96852380Y-49237664D02*
X96890475Y-49161474D01*
X96890475Y-49161474D02*
X96890475Y-49085283D01*
X96890475Y-49085283D02*
X96852380Y-49009093D01*
X96852380Y-49009093D02*
X96814285Y-48970998D01*
X96814285Y-48970998D02*
X96738094Y-48932902D01*
X96738094Y-48932902D02*
X96585713Y-48894807D01*
X96585713Y-48894807D02*
X96509523Y-48856712D01*
X96509523Y-48856712D02*
X96471428Y-48818617D01*
X96471428Y-48818617D02*
X96433332Y-48742426D01*
X96433332Y-48742426D02*
X96433332Y-48666236D01*
X96433332Y-48666236D02*
X96471428Y-48590045D01*
X96471428Y-48590045D02*
X96509523Y-48551950D01*
X96509523Y-48551950D02*
X96585713Y-48513855D01*
X96585713Y-48513855D02*
X96776190Y-48513855D01*
X96776190Y-48513855D02*
X96890475Y-48551950D01*
X97157142Y-48513855D02*
X97347618Y-49313855D01*
X97347618Y-49313855D02*
X97499999Y-48742426D01*
X97499999Y-48742426D02*
X97652380Y-49313855D01*
X97652380Y-49313855D02*
X97842857Y-48513855D01*
X98109523Y-48590045D02*
X98147619Y-48551950D01*
X98147619Y-48551950D02*
X98223809Y-48513855D01*
X98223809Y-48513855D02*
X98414285Y-48513855D01*
X98414285Y-48513855D02*
X98490476Y-48551950D01*
X98490476Y-48551950D02*
X98528571Y-48590045D01*
X98528571Y-48590045D02*
X98566666Y-48666236D01*
X98566666Y-48666236D02*
X98566666Y-48742426D01*
X98566666Y-48742426D02*
X98528571Y-48856712D01*
X98528571Y-48856712D02*
X98071428Y-49313855D01*
X98071428Y-49313855D02*
X98566666Y-49313855D01*
X38863855Y-64390475D02*
X38063855Y-64390475D01*
X38063855Y-64390475D02*
X38063855Y-64199999D01*
X38063855Y-64199999D02*
X38101950Y-64085713D01*
X38101950Y-64085713D02*
X38178140Y-64009523D01*
X38178140Y-64009523D02*
X38254331Y-63971428D01*
X38254331Y-63971428D02*
X38406712Y-63933332D01*
X38406712Y-63933332D02*
X38520998Y-63933332D01*
X38520998Y-63933332D02*
X38673379Y-63971428D01*
X38673379Y-63971428D02*
X38749569Y-64009523D01*
X38749569Y-64009523D02*
X38825760Y-64085713D01*
X38825760Y-64085713D02*
X38863855Y-64199999D01*
X38863855Y-64199999D02*
X38863855Y-64390475D01*
X38863855Y-63171428D02*
X38863855Y-63628571D01*
X38863855Y-63399999D02*
X38063855Y-63399999D01*
X38063855Y-63399999D02*
X38178140Y-63476190D01*
X38178140Y-63476190D02*
X38254331Y-63552380D01*
X38254331Y-63552380D02*
X38292426Y-63628571D01*
X31866667Y-45933855D02*
X31600000Y-45552902D01*
X31409524Y-45933855D02*
X31409524Y-45133855D01*
X31409524Y-45133855D02*
X31714286Y-45133855D01*
X31714286Y-45133855D02*
X31790476Y-45171950D01*
X31790476Y-45171950D02*
X31828571Y-45210045D01*
X31828571Y-45210045D02*
X31866667Y-45286236D01*
X31866667Y-45286236D02*
X31866667Y-45400521D01*
X31866667Y-45400521D02*
X31828571Y-45476712D01*
X31828571Y-45476712D02*
X31790476Y-45514807D01*
X31790476Y-45514807D02*
X31714286Y-45552902D01*
X31714286Y-45552902D02*
X31409524Y-45552902D01*
X32171428Y-45210045D02*
X32209524Y-45171950D01*
X32209524Y-45171950D02*
X32285714Y-45133855D01*
X32285714Y-45133855D02*
X32476190Y-45133855D01*
X32476190Y-45133855D02*
X32552381Y-45171950D01*
X32552381Y-45171950D02*
X32590476Y-45210045D01*
X32590476Y-45210045D02*
X32628571Y-45286236D01*
X32628571Y-45286236D02*
X32628571Y-45362426D01*
X32628571Y-45362426D02*
X32590476Y-45476712D01*
X32590476Y-45476712D02*
X32133333Y-45933855D01*
X32133333Y-45933855D02*
X32628571Y-45933855D01*
X105890476Y-48213855D02*
X105890476Y-47413855D01*
X105890476Y-47794807D02*
X106347619Y-47794807D01*
X106347619Y-48213855D02*
X106347619Y-47413855D01*
X106652380Y-47413855D02*
X107147618Y-47413855D01*
X107147618Y-47413855D02*
X106880952Y-47718617D01*
X106880952Y-47718617D02*
X106995237Y-47718617D01*
X106995237Y-47718617D02*
X107071428Y-47756712D01*
X107071428Y-47756712D02*
X107109523Y-47794807D01*
X107109523Y-47794807D02*
X107147618Y-47870998D01*
X107147618Y-47870998D02*
X107147618Y-48061474D01*
X107147618Y-48061474D02*
X107109523Y-48137664D01*
X107109523Y-48137664D02*
X107071428Y-48175760D01*
X107071428Y-48175760D02*
X106995237Y-48213855D01*
X106995237Y-48213855D02*
X106766666Y-48213855D01*
X106766666Y-48213855D02*
X106690475Y-48175760D01*
X106690475Y-48175760D02*
X106652380Y-48137664D01*
X86063855Y-45109523D02*
X86711474Y-45109523D01*
X86711474Y-45109523D02*
X86787664Y-45071428D01*
X86787664Y-45071428D02*
X86825760Y-45033333D01*
X86825760Y-45033333D02*
X86863855Y-44957142D01*
X86863855Y-44957142D02*
X86863855Y-44804761D01*
X86863855Y-44804761D02*
X86825760Y-44728571D01*
X86825760Y-44728571D02*
X86787664Y-44690476D01*
X86787664Y-44690476D02*
X86711474Y-44652380D01*
X86711474Y-44652380D02*
X86063855Y-44652380D01*
X86063855Y-44347619D02*
X86063855Y-43852381D01*
X86063855Y-43852381D02*
X86368617Y-44119047D01*
X86368617Y-44119047D02*
X86368617Y-44004762D01*
X86368617Y-44004762D02*
X86406712Y-43928571D01*
X86406712Y-43928571D02*
X86444807Y-43890476D01*
X86444807Y-43890476D02*
X86520998Y-43852381D01*
X86520998Y-43852381D02*
X86711474Y-43852381D01*
X86711474Y-43852381D02*
X86787664Y-43890476D01*
X86787664Y-43890476D02*
X86825760Y-43928571D01*
X86825760Y-43928571D02*
X86863855Y-44004762D01*
X86863855Y-44004762D02*
X86863855Y-44233333D01*
X86863855Y-44233333D02*
X86825760Y-44309524D01*
X86825760Y-44309524D02*
X86787664Y-44347619D01*
X23890476Y-62213855D02*
X23890476Y-61413855D01*
X23890476Y-61794807D02*
X24347619Y-61794807D01*
X24347619Y-62213855D02*
X24347619Y-61413855D01*
X25071428Y-61680521D02*
X25071428Y-62213855D01*
X24880952Y-61375760D02*
X24690475Y-61947188D01*
X24690475Y-61947188D02*
X25185714Y-61947188D01*
X84866667Y-28107664D02*
X84828571Y-28145760D01*
X84828571Y-28145760D02*
X84714286Y-28183855D01*
X84714286Y-28183855D02*
X84638095Y-28183855D01*
X84638095Y-28183855D02*
X84523809Y-28145760D01*
X84523809Y-28145760D02*
X84447619Y-28069569D01*
X84447619Y-28069569D02*
X84409524Y-27993379D01*
X84409524Y-27993379D02*
X84371428Y-27840998D01*
X84371428Y-27840998D02*
X84371428Y-27726712D01*
X84371428Y-27726712D02*
X84409524Y-27574331D01*
X84409524Y-27574331D02*
X84447619Y-27498140D01*
X84447619Y-27498140D02*
X84523809Y-27421950D01*
X84523809Y-27421950D02*
X84638095Y-27383855D01*
X84638095Y-27383855D02*
X84714286Y-27383855D01*
X84714286Y-27383855D02*
X84828571Y-27421950D01*
X84828571Y-27421950D02*
X84866667Y-27460045D01*
X85590476Y-27383855D02*
X85209524Y-27383855D01*
X85209524Y-27383855D02*
X85171428Y-27764807D01*
X85171428Y-27764807D02*
X85209524Y-27726712D01*
X85209524Y-27726712D02*
X85285714Y-27688617D01*
X85285714Y-27688617D02*
X85476190Y-27688617D01*
X85476190Y-27688617D02*
X85552381Y-27726712D01*
X85552381Y-27726712D02*
X85590476Y-27764807D01*
X85590476Y-27764807D02*
X85628571Y-27840998D01*
X85628571Y-27840998D02*
X85628571Y-28031474D01*
X85628571Y-28031474D02*
X85590476Y-28107664D01*
X85590476Y-28107664D02*
X85552381Y-28145760D01*
X85552381Y-28145760D02*
X85476190Y-28183855D01*
X85476190Y-28183855D02*
X85285714Y-28183855D01*
X85285714Y-28183855D02*
X85209524Y-28145760D01*
X85209524Y-28145760D02*
X85171428Y-28107664D01*
X60166666Y-56413855D02*
X59785714Y-56413855D01*
X59785714Y-56413855D02*
X59785714Y-55613855D01*
X60852380Y-56413855D02*
X60395237Y-56413855D01*
X60623809Y-56413855D02*
X60623809Y-55613855D01*
X60623809Y-55613855D02*
X60547618Y-55728140D01*
X60547618Y-55728140D02*
X60471428Y-55804331D01*
X60471428Y-55804331D02*
X60395237Y-55842426D01*
X51985714Y-54933855D02*
X51719047Y-54552902D01*
X51528571Y-54933855D02*
X51528571Y-54133855D01*
X51528571Y-54133855D02*
X51833333Y-54133855D01*
X51833333Y-54133855D02*
X51909523Y-54171950D01*
X51909523Y-54171950D02*
X51947618Y-54210045D01*
X51947618Y-54210045D02*
X51985714Y-54286236D01*
X51985714Y-54286236D02*
X51985714Y-54400521D01*
X51985714Y-54400521D02*
X51947618Y-54476712D01*
X51947618Y-54476712D02*
X51909523Y-54514807D01*
X51909523Y-54514807D02*
X51833333Y-54552902D01*
X51833333Y-54552902D02*
X51528571Y-54552902D01*
X52747618Y-54933855D02*
X52290475Y-54933855D01*
X52519047Y-54933855D02*
X52519047Y-54133855D01*
X52519047Y-54133855D02*
X52442856Y-54248140D01*
X52442856Y-54248140D02*
X52366666Y-54324331D01*
X52366666Y-54324331D02*
X52290475Y-54362426D01*
X53509523Y-54933855D02*
X53052380Y-54933855D01*
X53280952Y-54933855D02*
X53280952Y-54133855D01*
X53280952Y-54133855D02*
X53204761Y-54248140D01*
X53204761Y-54248140D02*
X53128571Y-54324331D01*
X53128571Y-54324331D02*
X53052380Y-54362426D01*
X53790476Y-57163855D02*
X53790476Y-57811474D01*
X53790476Y-57811474D02*
X53828571Y-57887664D01*
X53828571Y-57887664D02*
X53866666Y-57925760D01*
X53866666Y-57925760D02*
X53942857Y-57963855D01*
X53942857Y-57963855D02*
X54095238Y-57963855D01*
X54095238Y-57963855D02*
X54171428Y-57925760D01*
X54171428Y-57925760D02*
X54209523Y-57887664D01*
X54209523Y-57887664D02*
X54247619Y-57811474D01*
X54247619Y-57811474D02*
X54247619Y-57163855D01*
X54590475Y-57240045D02*
X54628571Y-57201950D01*
X54628571Y-57201950D02*
X54704761Y-57163855D01*
X54704761Y-57163855D02*
X54895237Y-57163855D01*
X54895237Y-57163855D02*
X54971428Y-57201950D01*
X54971428Y-57201950D02*
X55009523Y-57240045D01*
X55009523Y-57240045D02*
X55047618Y-57316236D01*
X55047618Y-57316236D02*
X55047618Y-57392426D01*
X55047618Y-57392426D02*
X55009523Y-57506712D01*
X55009523Y-57506712D02*
X54552380Y-57963855D01*
X54552380Y-57963855D02*
X55047618Y-57963855D01*
X56885714Y-54657664D02*
X56847618Y-54695760D01*
X56847618Y-54695760D02*
X56733333Y-54733855D01*
X56733333Y-54733855D02*
X56657142Y-54733855D01*
X56657142Y-54733855D02*
X56542856Y-54695760D01*
X56542856Y-54695760D02*
X56466666Y-54619569D01*
X56466666Y-54619569D02*
X56428571Y-54543379D01*
X56428571Y-54543379D02*
X56390475Y-54390998D01*
X56390475Y-54390998D02*
X56390475Y-54276712D01*
X56390475Y-54276712D02*
X56428571Y-54124331D01*
X56428571Y-54124331D02*
X56466666Y-54048140D01*
X56466666Y-54048140D02*
X56542856Y-53971950D01*
X56542856Y-53971950D02*
X56657142Y-53933855D01*
X56657142Y-53933855D02*
X56733333Y-53933855D01*
X56733333Y-53933855D02*
X56847618Y-53971950D01*
X56847618Y-53971950D02*
X56885714Y-54010045D01*
X57647618Y-54733855D02*
X57190475Y-54733855D01*
X57419047Y-54733855D02*
X57419047Y-53933855D01*
X57419047Y-53933855D02*
X57342856Y-54048140D01*
X57342856Y-54048140D02*
X57266666Y-54124331D01*
X57266666Y-54124331D02*
X57190475Y-54162426D01*
X57914285Y-53933855D02*
X58409523Y-53933855D01*
X58409523Y-53933855D02*
X58142857Y-54238617D01*
X58142857Y-54238617D02*
X58257142Y-54238617D01*
X58257142Y-54238617D02*
X58333333Y-54276712D01*
X58333333Y-54276712D02*
X58371428Y-54314807D01*
X58371428Y-54314807D02*
X58409523Y-54390998D01*
X58409523Y-54390998D02*
X58409523Y-54581474D01*
X58409523Y-54581474D02*
X58371428Y-54657664D01*
X58371428Y-54657664D02*
X58333333Y-54695760D01*
X58333333Y-54695760D02*
X58257142Y-54733855D01*
X58257142Y-54733855D02*
X58028571Y-54733855D01*
X58028571Y-54733855D02*
X57952380Y-54695760D01*
X57952380Y-54695760D02*
X57914285Y-54657664D01*
X35366667Y-43657664D02*
X35328571Y-43695760D01*
X35328571Y-43695760D02*
X35214286Y-43733855D01*
X35214286Y-43733855D02*
X35138095Y-43733855D01*
X35138095Y-43733855D02*
X35023809Y-43695760D01*
X35023809Y-43695760D02*
X34947619Y-43619569D01*
X34947619Y-43619569D02*
X34909524Y-43543379D01*
X34909524Y-43543379D02*
X34871428Y-43390998D01*
X34871428Y-43390998D02*
X34871428Y-43276712D01*
X34871428Y-43276712D02*
X34909524Y-43124331D01*
X34909524Y-43124331D02*
X34947619Y-43048140D01*
X34947619Y-43048140D02*
X35023809Y-42971950D01*
X35023809Y-42971950D02*
X35138095Y-42933855D01*
X35138095Y-42933855D02*
X35214286Y-42933855D01*
X35214286Y-42933855D02*
X35328571Y-42971950D01*
X35328571Y-42971950D02*
X35366667Y-43010045D01*
X35633333Y-42933855D02*
X36128571Y-42933855D01*
X36128571Y-42933855D02*
X35861905Y-43238617D01*
X35861905Y-43238617D02*
X35976190Y-43238617D01*
X35976190Y-43238617D02*
X36052381Y-43276712D01*
X36052381Y-43276712D02*
X36090476Y-43314807D01*
X36090476Y-43314807D02*
X36128571Y-43390998D01*
X36128571Y-43390998D02*
X36128571Y-43581474D01*
X36128571Y-43581474D02*
X36090476Y-43657664D01*
X36090476Y-43657664D02*
X36052381Y-43695760D01*
X36052381Y-43695760D02*
X35976190Y-43733855D01*
X35976190Y-43733855D02*
X35747619Y-43733855D01*
X35747619Y-43733855D02*
X35671428Y-43695760D01*
X35671428Y-43695760D02*
X35633333Y-43657664D01*
X53187664Y-63714285D02*
X53225760Y-63752381D01*
X53225760Y-63752381D02*
X53263855Y-63866666D01*
X53263855Y-63866666D02*
X53263855Y-63942857D01*
X53263855Y-63942857D02*
X53225760Y-64057143D01*
X53225760Y-64057143D02*
X53149569Y-64133333D01*
X53149569Y-64133333D02*
X53073379Y-64171428D01*
X53073379Y-64171428D02*
X52920998Y-64209524D01*
X52920998Y-64209524D02*
X52806712Y-64209524D01*
X52806712Y-64209524D02*
X52654331Y-64171428D01*
X52654331Y-64171428D02*
X52578140Y-64133333D01*
X52578140Y-64133333D02*
X52501950Y-64057143D01*
X52501950Y-64057143D02*
X52463855Y-63942857D01*
X52463855Y-63942857D02*
X52463855Y-63866666D01*
X52463855Y-63866666D02*
X52501950Y-63752381D01*
X52501950Y-63752381D02*
X52540045Y-63714285D01*
X53263855Y-62952381D02*
X53263855Y-63409524D01*
X53263855Y-63180952D02*
X52463855Y-63180952D01*
X52463855Y-63180952D02*
X52578140Y-63257143D01*
X52578140Y-63257143D02*
X52654331Y-63333333D01*
X52654331Y-63333333D02*
X52692426Y-63409524D01*
X53263855Y-62190476D02*
X53263855Y-62647619D01*
X53263855Y-62419047D02*
X52463855Y-62419047D01*
X52463855Y-62419047D02*
X52578140Y-62495238D01*
X52578140Y-62495238D02*
X52654331Y-62571428D01*
X52654331Y-62571428D02*
X52692426Y-62647619D01*
X30333333Y-60114807D02*
X30066667Y-60114807D01*
X30066667Y-60533855D02*
X30066667Y-59733855D01*
X30066667Y-59733855D02*
X30447619Y-59733855D01*
X31171428Y-60533855D02*
X30714285Y-60533855D01*
X30942857Y-60533855D02*
X30942857Y-59733855D01*
X30942857Y-59733855D02*
X30866666Y-59848140D01*
X30866666Y-59848140D02*
X30790476Y-59924331D01*
X30790476Y-59924331D02*
X30714285Y-59962426D01*
X102104761Y-62293855D02*
X101723809Y-62293855D01*
X101723809Y-62293855D02*
X101723809Y-61493855D01*
X102371428Y-61874807D02*
X102638094Y-61874807D01*
X102752380Y-62293855D02*
X102371428Y-62293855D01*
X102371428Y-62293855D02*
X102371428Y-61493855D01*
X102371428Y-61493855D02*
X102752380Y-61493855D01*
X103095238Y-62293855D02*
X103095238Y-61493855D01*
X103095238Y-61493855D02*
X103285714Y-61493855D01*
X103285714Y-61493855D02*
X103400000Y-61531950D01*
X103400000Y-61531950D02*
X103476190Y-61608140D01*
X103476190Y-61608140D02*
X103514285Y-61684331D01*
X103514285Y-61684331D02*
X103552381Y-61836712D01*
X103552381Y-61836712D02*
X103552381Y-61950998D01*
X103552381Y-61950998D02*
X103514285Y-62103379D01*
X103514285Y-62103379D02*
X103476190Y-62179569D01*
X103476190Y-62179569D02*
X103400000Y-62255760D01*
X103400000Y-62255760D02*
X103285714Y-62293855D01*
X103285714Y-62293855D02*
X103095238Y-62293855D01*
X103857142Y-61570045D02*
X103895238Y-61531950D01*
X103895238Y-61531950D02*
X103971428Y-61493855D01*
X103971428Y-61493855D02*
X104161904Y-61493855D01*
X104161904Y-61493855D02*
X104238095Y-61531950D01*
X104238095Y-61531950D02*
X104276190Y-61570045D01*
X104276190Y-61570045D02*
X104314285Y-61646236D01*
X104314285Y-61646236D02*
X104314285Y-61722426D01*
X104314285Y-61722426D02*
X104276190Y-61836712D01*
X104276190Y-61836712D02*
X103819047Y-62293855D01*
X103819047Y-62293855D02*
X104314285Y-62293855D01*
X40317664Y-59033332D02*
X40355760Y-59071428D01*
X40355760Y-59071428D02*
X40393855Y-59185713D01*
X40393855Y-59185713D02*
X40393855Y-59261904D01*
X40393855Y-59261904D02*
X40355760Y-59376190D01*
X40355760Y-59376190D02*
X40279569Y-59452380D01*
X40279569Y-59452380D02*
X40203379Y-59490475D01*
X40203379Y-59490475D02*
X40050998Y-59528571D01*
X40050998Y-59528571D02*
X39936712Y-59528571D01*
X39936712Y-59528571D02*
X39784331Y-59490475D01*
X39784331Y-59490475D02*
X39708140Y-59452380D01*
X39708140Y-59452380D02*
X39631950Y-59376190D01*
X39631950Y-59376190D02*
X39593855Y-59261904D01*
X39593855Y-59261904D02*
X39593855Y-59185713D01*
X39593855Y-59185713D02*
X39631950Y-59071428D01*
X39631950Y-59071428D02*
X39670045Y-59033332D01*
X40393855Y-58271428D02*
X40393855Y-58728571D01*
X40393855Y-58499999D02*
X39593855Y-58499999D01*
X39593855Y-58499999D02*
X39708140Y-58576190D01*
X39708140Y-58576190D02*
X39784331Y-58652380D01*
X39784331Y-58652380D02*
X39822426Y-58728571D01*
X92183855Y-64766666D02*
X92755283Y-64766666D01*
X92755283Y-64766666D02*
X92869569Y-64804761D01*
X92869569Y-64804761D02*
X92945760Y-64880952D01*
X92945760Y-64880952D02*
X92983855Y-64995237D01*
X92983855Y-64995237D02*
X92983855Y-65071428D01*
X92260045Y-64423809D02*
X92221950Y-64385713D01*
X92221950Y-64385713D02*
X92183855Y-64309523D01*
X92183855Y-64309523D02*
X92183855Y-64119047D01*
X92183855Y-64119047D02*
X92221950Y-64042856D01*
X92221950Y-64042856D02*
X92260045Y-64004761D01*
X92260045Y-64004761D02*
X92336236Y-63966666D01*
X92336236Y-63966666D02*
X92412426Y-63966666D01*
X92412426Y-63966666D02*
X92526712Y-64004761D01*
X92526712Y-64004761D02*
X92983855Y-64461904D01*
X92983855Y-64461904D02*
X92983855Y-63966666D01*
X26013855Y-34766666D02*
X26585283Y-34766666D01*
X26585283Y-34766666D02*
X26699569Y-34804761D01*
X26699569Y-34804761D02*
X26775760Y-34880952D01*
X26775760Y-34880952D02*
X26813855Y-34995237D01*
X26813855Y-34995237D02*
X26813855Y-35071428D01*
X26280521Y-34042856D02*
X26813855Y-34042856D01*
X25975760Y-34233332D02*
X26547188Y-34423809D01*
X26547188Y-34423809D02*
X26547188Y-33928570D01*
X77863855Y-54590475D02*
X77063855Y-54590475D01*
X77063855Y-54590475D02*
X77063855Y-54399999D01*
X77063855Y-54399999D02*
X77101950Y-54285713D01*
X77101950Y-54285713D02*
X77178140Y-54209523D01*
X77178140Y-54209523D02*
X77254331Y-54171428D01*
X77254331Y-54171428D02*
X77406712Y-54133332D01*
X77406712Y-54133332D02*
X77520998Y-54133332D01*
X77520998Y-54133332D02*
X77673379Y-54171428D01*
X77673379Y-54171428D02*
X77749569Y-54209523D01*
X77749569Y-54209523D02*
X77825760Y-54285713D01*
X77825760Y-54285713D02*
X77863855Y-54399999D01*
X77863855Y-54399999D02*
X77863855Y-54590475D01*
X77063855Y-53866666D02*
X77063855Y-53371428D01*
X77063855Y-53371428D02*
X77368617Y-53638094D01*
X77368617Y-53638094D02*
X77368617Y-53523809D01*
X77368617Y-53523809D02*
X77406712Y-53447618D01*
X77406712Y-53447618D02*
X77444807Y-53409523D01*
X77444807Y-53409523D02*
X77520998Y-53371428D01*
X77520998Y-53371428D02*
X77711474Y-53371428D01*
X77711474Y-53371428D02*
X77787664Y-53409523D01*
X77787664Y-53409523D02*
X77825760Y-53447618D01*
X77825760Y-53447618D02*
X77863855Y-53523809D01*
X77863855Y-53523809D02*
X77863855Y-53752380D01*
X77863855Y-53752380D02*
X77825760Y-53828571D01*
X77825760Y-53828571D02*
X77787664Y-53866666D01*
X73890476Y-62213855D02*
X73890476Y-61413855D01*
X73890476Y-61794807D02*
X74347619Y-61794807D01*
X74347619Y-62213855D02*
X74347619Y-61413855D01*
X74690475Y-61490045D02*
X74728571Y-61451950D01*
X74728571Y-61451950D02*
X74804761Y-61413855D01*
X74804761Y-61413855D02*
X74995237Y-61413855D01*
X74995237Y-61413855D02*
X75071428Y-61451950D01*
X75071428Y-61451950D02*
X75109523Y-61490045D01*
X75109523Y-61490045D02*
X75147618Y-61566236D01*
X75147618Y-61566236D02*
X75147618Y-61642426D01*
X75147618Y-61642426D02*
X75109523Y-61756712D01*
X75109523Y-61756712D02*
X74652380Y-62213855D01*
X74652380Y-62213855D02*
X75147618Y-62213855D01*
X35366667Y-45933855D02*
X35100000Y-45552902D01*
X34909524Y-45933855D02*
X34909524Y-45133855D01*
X34909524Y-45133855D02*
X35214286Y-45133855D01*
X35214286Y-45133855D02*
X35290476Y-45171950D01*
X35290476Y-45171950D02*
X35328571Y-45210045D01*
X35328571Y-45210045D02*
X35366667Y-45286236D01*
X35366667Y-45286236D02*
X35366667Y-45400521D01*
X35366667Y-45400521D02*
X35328571Y-45476712D01*
X35328571Y-45476712D02*
X35290476Y-45514807D01*
X35290476Y-45514807D02*
X35214286Y-45552902D01*
X35214286Y-45552902D02*
X34909524Y-45552902D01*
X35633333Y-45133855D02*
X36128571Y-45133855D01*
X36128571Y-45133855D02*
X35861905Y-45438617D01*
X35861905Y-45438617D02*
X35976190Y-45438617D01*
X35976190Y-45438617D02*
X36052381Y-45476712D01*
X36052381Y-45476712D02*
X36090476Y-45514807D01*
X36090476Y-45514807D02*
X36128571Y-45590998D01*
X36128571Y-45590998D02*
X36128571Y-45781474D01*
X36128571Y-45781474D02*
X36090476Y-45857664D01*
X36090476Y-45857664D02*
X36052381Y-45895760D01*
X36052381Y-45895760D02*
X35976190Y-45933855D01*
X35976190Y-45933855D02*
X35747619Y-45933855D01*
X35747619Y-45933855D02*
X35671428Y-45895760D01*
X35671428Y-45895760D02*
X35633333Y-45857664D01*
G04 #@! TO.C,C7*
X80990000Y-32640580D02*
X80990000Y-32359420D01*
X82010000Y-32640580D02*
X82010000Y-32359420D01*
G04 #@! TO.C,J3*
X81800000Y-66000000D02*
X81800000Y-68000000D01*
X81800000Y-69900000D02*
X81800000Y-71800000D01*
X81800000Y-71800000D02*
X91200000Y-71800000D01*
X91200000Y-66000000D02*
X91200000Y-68000000D01*
X91200000Y-69900000D02*
X91200000Y-71800000D01*
G04 #@! TO.C,D2*
X45210000Y-60850000D02*
X39700000Y-60850000D01*
X45210000Y-64150000D02*
X39700000Y-64150000D01*
X45210000Y-64150000D02*
X45210000Y-60850000D01*
G04 #@! TO.C,C6*
X85490000Y-35640580D02*
X85490000Y-35359420D01*
X86510000Y-35640580D02*
X86510000Y-35359420D01*
G04 #@! TO.C,U1*
X33940000Y-51440000D02*
X34035000Y-51440000D01*
X33940000Y-55560000D02*
X33940000Y-51440000D01*
X34035000Y-55560000D02*
X33940000Y-55560000D01*
X38965000Y-51440000D02*
X39060000Y-51440000D01*
X39060000Y-51440000D02*
X39060000Y-55560000D01*
X39060000Y-55560000D02*
X38965000Y-55560000D01*
X34030000Y-56100000D02*
X33700000Y-56340000D01*
X33700000Y-55860000D01*
X34030000Y-56100000D01*
G36*
X34030000Y-56100000D02*
G01*
X33700000Y-56340000D01*
X33700000Y-55860000D01*
X34030000Y-56100000D01*
G37*
G04 #@! TO.C,C10*
X45940000Y-62488748D02*
X45940000Y-63911252D01*
X48660000Y-62488748D02*
X48660000Y-63911252D01*
G04 #@! TO.C,R10*
X49262742Y-55477500D02*
X49737258Y-55477500D01*
X49262742Y-56522500D02*
X49737258Y-56522500D01*
G04 #@! TO.C,SW1*
X64270000Y-20770000D02*
X70730000Y-20770000D01*
X64270000Y-20800000D02*
X64270000Y-20770000D01*
X64270000Y-22700000D02*
X64270000Y-25300000D01*
X64270000Y-27230000D02*
X64270000Y-27200000D01*
X64270000Y-27230000D02*
X70730000Y-27230000D01*
X70730000Y-20770000D02*
X70730000Y-20800000D01*
X70730000Y-22700000D02*
X70730000Y-25300000D01*
X70730000Y-27230000D02*
X70730000Y-27200000D01*
G04 #@! TO.C,LED1*
X42515000Y-29265000D02*
X42515000Y-30735000D01*
X42515000Y-30735000D02*
X44800000Y-30735000D01*
X44800000Y-29265000D02*
X42515000Y-29265000D01*
G04 #@! TO.C,R4*
X84262742Y-31477500D02*
X84737258Y-31477500D01*
X84262742Y-32522500D02*
X84737258Y-32522500D01*
G04 #@! TO.C,C15*
X66765000Y-61738748D02*
X66765000Y-62261252D01*
X68235000Y-61738748D02*
X68235000Y-62261252D01*
G04 #@! TO.C,R1*
X27640000Y-54027064D02*
X27640000Y-50972936D01*
X30360000Y-54027064D02*
X30360000Y-50972936D01*
G04 #@! TO.C,R5*
X82477500Y-57162742D02*
X82477500Y-57637258D01*
X83522500Y-57162742D02*
X83522500Y-57637258D01*
G04 #@! TO.C,R8*
X99262742Y-59977500D02*
X99737258Y-59977500D01*
X99262742Y-61022500D02*
X99737258Y-61022500D01*
G04 #@! TO.C,C14*
X64765000Y-61738748D02*
X64765000Y-62261252D01*
X66235000Y-61738748D02*
X66235000Y-62261252D01*
G04 #@! TO.C,R7*
X43762742Y-31977500D02*
X44237258Y-31977500D01*
X43762742Y-33022500D02*
X44237258Y-33022500D01*
G04 #@! TO.C,R6*
X89477500Y-57162742D02*
X89477500Y-57637258D01*
X90522500Y-57162742D02*
X90522500Y-57637258D01*
G04 #@! TO.C,R9*
X85762742Y-48977500D02*
X86237258Y-48977500D01*
X85762742Y-50022500D02*
X86237258Y-50022500D01*
G04 #@! TO.C,J1*
D11*
X20600000Y-27600001D02*
X26600000Y-27600001D01*
X26600000Y-60399999D01*
X20600000Y-60399999D01*
X20600000Y-27600001D01*
G04 #@! TO.C,C12*
D10*
X53090000Y-63559420D02*
X53090000Y-63840580D01*
X54110000Y-63559420D02*
X54110000Y-63840580D01*
G04 #@! TO.C,R12*
X49262742Y-57677500D02*
X49737258Y-57677500D01*
X49262742Y-58722500D02*
X49737258Y-58722500D01*
G04 #@! TO.C,SW2*
X94270000Y-49770000D02*
X100730000Y-49770000D01*
X94270000Y-49800000D02*
X94270000Y-49770000D01*
X94270000Y-51700000D02*
X94270000Y-54300000D01*
X94270000Y-56230000D02*
X94270000Y-56200000D01*
X94270000Y-56230000D02*
X100730000Y-56230000D01*
X100730000Y-49770000D02*
X100730000Y-49800000D01*
X100730000Y-51700000D02*
X100730000Y-54300000D01*
X100730000Y-56230000D02*
X100730000Y-56200000D01*
G04 #@! TO.C,D1*
X33350000Y-60140000D02*
X33350000Y-65950000D01*
X37650000Y-60140000D02*
X33350000Y-60140000D01*
X37650000Y-60140000D02*
X37650000Y-65950000D01*
G04 #@! TO.C,R2*
X31762742Y-46477500D02*
X32237258Y-46477500D01*
X31762742Y-47522500D02*
X32237258Y-47522500D01*
G04 #@! TO.C,U3*
X87800000Y-20200000D02*
X87800000Y-26400000D01*
X87800000Y-20200000D02*
X106200000Y-20200000D01*
X87800000Y-45050000D02*
X87800000Y-46050000D01*
X87800000Y-46050000D02*
X89300000Y-46050000D01*
X106200000Y-20200000D02*
X106200000Y-26400000D01*
X106200000Y-46050000D02*
X104700000Y-46050000D01*
X106200000Y-46050000D02*
X106200000Y-45050000D01*
X87800000Y-27075000D02*
X87300000Y-27075000D01*
X87800000Y-26575000D01*
X87800000Y-27075000D01*
G36*
X87800000Y-27075000D02*
G01*
X87300000Y-27075000D01*
X87800000Y-26575000D01*
X87800000Y-27075000D01*
G37*
G04 #@! TO.C,C5*
X84738748Y-28765000D02*
X85261252Y-28765000D01*
X84738748Y-30235000D02*
X85261252Y-30235000D01*
G04 #@! TO.C,L1*
X57190000Y-56890000D02*
X63410000Y-56890000D01*
X63410000Y-63110000D02*
X57190000Y-63110000D01*
G04 #@! TO.C,R11*
X52262742Y-55477500D02*
X52737258Y-55477500D01*
X52262742Y-56522500D02*
X52737258Y-56522500D01*
G04 #@! TO.C,U2*
X53490000Y-58440000D02*
X55310000Y-58440000D01*
X53490000Y-58490000D02*
X53490000Y-58440000D01*
X53490000Y-61560000D02*
X53490000Y-61510000D01*
X55310000Y-58440000D02*
X55310000Y-58490000D01*
X55310000Y-61510000D02*
X55310000Y-61560000D01*
X55310000Y-61560000D02*
X53490000Y-61560000D01*
X52950000Y-58490000D02*
X52710000Y-58160000D01*
X53190000Y-58160000D01*
X52950000Y-58490000D01*
G36*
X52950000Y-58490000D02*
G01*
X52710000Y-58160000D01*
X53190000Y-58160000D01*
X52950000Y-58490000D01*
G37*
G04 #@! TO.C,C13*
X57259420Y-55290000D02*
X57540580Y-55290000D01*
X57259420Y-56310000D02*
X57540580Y-56310000D01*
G04 #@! TO.C,C3*
X35359420Y-44290000D02*
X35640580Y-44290000D01*
X35359420Y-45310000D02*
X35640580Y-45310000D01*
G04 #@! TO.C,C11*
X49240000Y-62488748D02*
X49240000Y-63911252D01*
X51960000Y-62488748D02*
X51960000Y-63911252D01*
G04 #@! TO.C,F1*
X29997936Y-61090000D02*
X31202064Y-61090000D01*
X29997936Y-62910000D02*
X31202064Y-62910000D01*
G04 #@! TO.C,LED2*
X102200000Y-61235000D02*
X104485000Y-61235000D01*
X104485000Y-59765000D02*
X102200000Y-59765000D01*
X104485000Y-61235000D02*
X104485000Y-59765000D01*
G04 #@! TO.C,C1*
X38090000Y-58759420D02*
X38090000Y-59040580D01*
X39110000Y-58759420D02*
X39110000Y-59040580D01*
G04 #@! TO.C,J2*
X93620000Y-65880000D02*
X93620000Y-64500000D01*
X95000000Y-65880000D02*
X93620000Y-65880000D01*
X96270000Y-63120000D02*
X109080000Y-63120000D01*
X96270000Y-65880000D02*
X96270000Y-63120000D01*
X96270000Y-65880000D02*
X109080000Y-65880000D01*
X109080000Y-65880000D02*
X109080000Y-63120000D01*
G04 #@! TO.C,J4*
X27250000Y-38600000D02*
X27250000Y-39850000D01*
X27250000Y-39850000D02*
X28500000Y-39850000D01*
X29800000Y-29450000D02*
X29800000Y-30200000D01*
X29800000Y-30200000D02*
X32750000Y-30200000D01*
X29800000Y-38800000D02*
X32750000Y-38800000D01*
X29800000Y-39550000D02*
X29800000Y-38800000D01*
X32750000Y-30200000D02*
X32750000Y-34500000D01*
X32750000Y-38800000D02*
X32750000Y-34500000D01*
X27540000Y-29440000D02*
X33510000Y-29440000D01*
X33510000Y-39560000D01*
X27540000Y-39560000D01*
X27540000Y-29440000D01*
X27550000Y-29450000D02*
X28300000Y-29450000D01*
X28300000Y-31250000D01*
X27550000Y-31250000D01*
X27550000Y-29450000D01*
X27550000Y-32750000D02*
X28300000Y-32750000D01*
X28300000Y-36250000D01*
X27550000Y-36250000D01*
X27550000Y-32750000D01*
X27550000Y-37750000D02*
X28300000Y-37750000D01*
X28300000Y-39550000D01*
X27550000Y-39550000D01*
X27550000Y-37750000D01*
G04 #@! TO.C,D3*
X78350000Y-57510000D02*
X78350000Y-52000000D01*
X78350000Y-57510000D02*
X81650000Y-57510000D01*
X81650000Y-57510000D02*
X81650000Y-52000000D01*
G04 #@! TO.C,R3*
X35262742Y-46477500D02*
X35737258Y-46477500D01*
X35262742Y-47522500D02*
X35737258Y-47522500D01*
G04 #@! TD*
%LPC*%
D12*
G04 #@! TO.C,C7*
X81500000Y-33275000D03*
X81500000Y-31725000D03*
G04 #@! TD*
D13*
G04 #@! TO.C,J3*
X83610000Y-65300000D03*
X89390000Y-65300000D03*
D14*
X83250000Y-63855000D03*
X84050000Y-63855000D03*
D15*
X85250000Y-63855000D03*
X86250000Y-63855000D03*
X86750000Y-63855000D03*
D14*
X88950000Y-63855000D03*
X89750000Y-63855000D03*
D15*
X88250000Y-63855000D03*
X87250000Y-63855000D03*
X85750000Y-63855000D03*
D16*
X82180000Y-64770000D03*
D17*
X82180000Y-68950000D03*
D16*
X90820000Y-64770000D03*
D17*
X90820000Y-68950000D03*
G04 #@! TD*
D18*
G04 #@! TO.C,D2*
X43700000Y-62500000D03*
X39700000Y-62500000D03*
G04 #@! TD*
D12*
G04 #@! TO.C,C6*
X86000000Y-36275000D03*
X86000000Y-34725000D03*
G04 #@! TD*
D19*
G04 #@! TO.C,U1*
X34595000Y-55975000D03*
X35865000Y-55975000D03*
X37135000Y-55975000D03*
X38405000Y-55975000D03*
X38405000Y-51025000D03*
X37135000Y-51025000D03*
X35865000Y-51025000D03*
X34595000Y-51025000D03*
G04 #@! TD*
D20*
G04 #@! TO.C,C10*
X47300000Y-61725000D03*
X47300000Y-64675000D03*
G04 #@! TD*
D21*
G04 #@! TO.C,R10*
X48675000Y-56000000D03*
X50325000Y-56000000D03*
G04 #@! TD*
D22*
G04 #@! TO.C,SW1*
X63520000Y-21750000D03*
X71480000Y-21750000D03*
X63520000Y-26250000D03*
X71480000Y-26250000D03*
G04 #@! TD*
D23*
G04 #@! TO.C,LED1*
X43212500Y-30000000D03*
X44787500Y-30000000D03*
G04 #@! TD*
D21*
G04 #@! TO.C,R4*
X83675000Y-32000000D03*
X85325000Y-32000000D03*
G04 #@! TD*
D24*
G04 #@! TO.C,C15*
X67500000Y-61050000D03*
X67500000Y-62950000D03*
G04 #@! TD*
D25*
G04 #@! TO.C,H1*
X30000000Y-24000000D03*
G04 #@! TD*
D26*
G04 #@! TO.C,R1*
X29000000Y-54812500D03*
X29000000Y-50187500D03*
G04 #@! TD*
D27*
G04 #@! TO.C,R5*
X83000000Y-56575000D03*
X83000000Y-58225000D03*
G04 #@! TD*
D21*
G04 #@! TO.C,R8*
X98675000Y-60500000D03*
X100325000Y-60500000D03*
G04 #@! TD*
D24*
G04 #@! TO.C,C14*
X65500000Y-61050000D03*
X65500000Y-62950000D03*
G04 #@! TD*
D21*
G04 #@! TO.C,R7*
X43175000Y-32500000D03*
X44825000Y-32500000D03*
G04 #@! TD*
D27*
G04 #@! TO.C,R6*
X90000000Y-56575000D03*
X90000000Y-58225000D03*
G04 #@! TD*
D21*
G04 #@! TO.C,R9*
X85175000Y-49500000D03*
X86825000Y-49500000D03*
G04 #@! TD*
D28*
G04 #@! TO.C,J1*
X22250000Y-30000000D03*
X22250000Y-34000000D03*
X22250000Y-38000000D03*
X22250000Y-42000000D03*
X22250000Y-46000000D03*
X22250000Y-50000000D03*
X22250000Y-54000000D03*
X22250000Y-58000000D03*
X25250000Y-30000000D03*
X25250000Y-34000000D03*
X25250000Y-38000000D03*
X25250000Y-42000000D03*
X25250000Y-46000000D03*
X25250000Y-50000000D03*
X25250000Y-54000000D03*
X25250000Y-58000000D03*
G04 #@! TD*
D29*
G04 #@! TO.C,C12*
X53600000Y-62925000D03*
X53600000Y-64475000D03*
G04 #@! TD*
D21*
G04 #@! TO.C,R12*
X48675000Y-58200000D03*
X50325000Y-58200000D03*
G04 #@! TD*
D22*
G04 #@! TO.C,SW2*
X93520000Y-50750000D03*
X101480000Y-50750000D03*
X93520000Y-55250000D03*
X101480000Y-55250000D03*
G04 #@! TD*
D30*
G04 #@! TO.C,D1*
X35500000Y-61650000D03*
X35500000Y-65950000D03*
G04 #@! TD*
D21*
G04 #@! TO.C,R2*
X31175000Y-47000000D03*
X32825000Y-47000000D03*
G04 #@! TD*
D25*
G04 #@! TO.C,H3*
X106500000Y-52000000D03*
G04 #@! TD*
D31*
G04 #@! TO.C,U3*
X88250000Y-27840000D03*
X88250000Y-29110000D03*
X88250000Y-30380000D03*
X88250000Y-31650000D03*
X88250000Y-32920000D03*
X88250000Y-34190000D03*
X88250000Y-35460000D03*
X88250000Y-36730000D03*
X88250000Y-38000000D03*
X88250000Y-39270000D03*
X88250000Y-40540000D03*
X88250000Y-41810000D03*
X88250000Y-43080000D03*
X88250000Y-44350000D03*
D32*
X90015000Y-45600000D03*
X91285000Y-45600000D03*
X92555000Y-45600000D03*
X93825000Y-45600000D03*
X95095000Y-45600000D03*
X96365000Y-45600000D03*
X97635000Y-45600000D03*
X98905000Y-45600000D03*
X100175000Y-45600000D03*
X101445000Y-45600000D03*
X102715000Y-45600000D03*
X103985000Y-45600000D03*
D31*
X105750000Y-44350000D03*
X105750000Y-43080000D03*
X105750000Y-41810000D03*
X105750000Y-40540000D03*
X105750000Y-39270000D03*
X105750000Y-38000000D03*
X105750000Y-36730000D03*
X105750000Y-35460000D03*
X105750000Y-34190000D03*
X105750000Y-32920000D03*
X105750000Y-31650000D03*
X105750000Y-30380000D03*
X105750000Y-29110000D03*
X105750000Y-27840000D03*
D33*
X94100000Y-34860000D03*
X94100000Y-36260000D03*
X94800000Y-34160000D03*
X94800000Y-35560000D03*
X94800000Y-36960000D03*
X95500000Y-34860000D03*
D34*
X95500000Y-35560000D03*
D33*
X95500000Y-36260000D03*
X96200000Y-34160000D03*
X96200000Y-35560000D03*
X96200000Y-36960000D03*
X96900000Y-34860000D03*
X96900000Y-36260000D03*
G04 #@! TD*
D25*
G04 #@! TO.C,H4*
X24500000Y-66000000D03*
G04 #@! TD*
D35*
G04 #@! TO.C,C5*
X84050000Y-29500000D03*
X85950000Y-29500000D03*
G04 #@! TD*
D36*
G04 #@! TO.C,L1*
X58050000Y-60000000D03*
X62550000Y-60000000D03*
G04 #@! TD*
D21*
G04 #@! TO.C,R11*
X51675000Y-56000000D03*
X53325000Y-56000000D03*
G04 #@! TD*
D37*
G04 #@! TO.C,U2*
X53262500Y-59050000D03*
X53262500Y-60000000D03*
X53262500Y-60950000D03*
X55537500Y-60950000D03*
X55537500Y-60000000D03*
X55537500Y-59050000D03*
G04 #@! TD*
D38*
G04 #@! TO.C,C13*
X56625000Y-55800000D03*
X58175000Y-55800000D03*
G04 #@! TD*
G04 #@! TO.C,C3*
X34725000Y-44800000D03*
X36275000Y-44800000D03*
G04 #@! TD*
D20*
G04 #@! TO.C,C11*
X50600000Y-61725000D03*
X50600000Y-64675000D03*
G04 #@! TD*
D39*
G04 #@! TO.C,F1*
X29200000Y-62000000D03*
X32000000Y-62000000D03*
G04 #@! TD*
D40*
G04 #@! TO.C,LED2*
X103787500Y-60500000D03*
X102212500Y-60500000D03*
G04 #@! TD*
D29*
G04 #@! TO.C,C1*
X38600000Y-58125000D03*
X38600000Y-59675000D03*
G04 #@! TD*
D41*
G04 #@! TO.C,J2*
X95000000Y-64500000D03*
D42*
X97540000Y-64500000D03*
X100080000Y-64500000D03*
X102620000Y-64500000D03*
X105160000Y-64500000D03*
X107700000Y-64500000D03*
G04 #@! TD*
D43*
G04 #@! TO.C,J4*
X30000000Y-37000000D03*
D44*
X30000000Y-34500000D03*
X30000000Y-32000000D03*
G04 #@! TD*
D45*
G04 #@! TO.C,D3*
X80000000Y-56000000D03*
X80000000Y-52000000D03*
G04 #@! TD*
D25*
G04 #@! TO.C,H2*
X74500000Y-66000000D03*
G04 #@! TD*
D21*
G04 #@! TO.C,R3*
X34675000Y-47000000D03*
X36325000Y-47000000D03*
G04 #@! TD*
%LPD*%
M02*
