G04 #@! TF.GenerationSoftware,KiCad,Pcbnew,10.0.5*
G04 #@! TF.CreationDate,2026-09-11T11:47:56-03:00*
G04 #@! TF.ProjectId,e36-kline-onboard,6533362d-6b6c-4696-9e65-2d6f6e626f61,rev?*
G04 #@! TF.SameCoordinates,Original*
G04 #@! TF.FileFunction,Paste,Top*
G04 #@! TF.FilePolarity,Positive*
%FSLAX46Y46*%
G04 Gerber Fmt 4.6, Leading zero omitted, Abs format (unit mm)*
G04 Created by KiCad (PCBNEW 10.0.5) date 2026-09-11 11:47:56*
%MOMM*%
%LPD*%
G01*
G04 APERTURE LIST*
G04 Aperture macros list*
%AMRoundRect*
0 Rectangle with rounded corners*
0 $1 Rounding radius*
0 $2 $3 $4 $5 $6 $7 $8 $9 X,Y pos of 4 corners*
0 Add a 4 corners polygon primitive as box body*
4,1,4,$2,$3,$4,$5,$6,$7,$8,$9,$2,$3,0*
0 Add four circle primitives for the rounded corners*
1,1,$1+$1,$2,$3*
1,1,$1+$1,$4,$5*
1,1,$1+$1,$6,$7*
1,1,$1+$1,$8,$9*
0 Add four rect primitives between the rounded corners*
20,1,$1+$1,$2,$3,$4,$5,0*
20,1,$1+$1,$4,$5,$6,$7,0*
20,1,$1+$1,$6,$7,$8,$9,0*
20,1,$1+$1,$8,$9,$2,$3,0*%
G04 Aperture macros list end*
%ADD10RoundRect,0.225000X0.250000X-0.225000X0.250000X0.225000X-0.250000X0.225000X-0.250000X-0.225000X0*%
%ADD11RoundRect,0.150000X-0.150000X-0.575000X0.150000X-0.575000X0.150000X0.575000X-0.150000X0.575000X0*%
%ADD12RoundRect,0.075000X-0.075000X-0.650000X0.075000X-0.650000X0.075000X0.650000X-0.075000X0.650000X0*%
%ADD13RoundRect,0.250000X1.000000X0.650000X-1.000000X0.650000X-1.000000X-0.650000X1.000000X-0.650000X0*%
%ADD14RoundRect,0.150000X0.150000X-0.825000X0.150000X0.825000X-0.150000X0.825000X-0.150000X-0.825000X0*%
%ADD15RoundRect,0.250000X-1.100000X0.325000X-1.100000X-0.325000X1.100000X-0.325000X1.100000X0.325000X0*%
%ADD16RoundRect,0.200000X-0.200000X-0.275000X0.200000X-0.275000X0.200000X0.275000X-0.200000X0.275000X0*%
%ADD17RoundRect,0.250000X-0.525000X-0.400000X0.525000X-0.400000X0.525000X0.400000X-0.525000X0.400000X0*%
%ADD18RoundRect,0.218750X-0.218750X-0.256250X0.218750X-0.256250X0.218750X0.256250X-0.218750X0.256250X0*%
%ADD19RoundRect,0.250000X-0.475000X0.250000X-0.475000X-0.250000X0.475000X-0.250000X0.475000X0.250000X0*%
%ADD20RoundRect,0.250000X1.075000X-0.362500X1.075000X0.362500X-1.075000X0.362500X-1.075000X-0.362500X0*%
%ADD21RoundRect,0.200000X-0.275000X0.200000X-0.275000X-0.200000X0.275000X-0.200000X0.275000X0.200000X0*%
%ADD22RoundRect,0.225000X-0.250000X0.225000X-0.250000X-0.225000X0.250000X-0.225000X0.250000X0.225000X0*%
%ADD23RoundRect,0.250000X-0.900000X1.000000X-0.900000X-1.000000X0.900000X-1.000000X0.900000X1.000000X0*%
%ADD24R,0.900000X0.900000*%
%ADD25R,1.500000X0.900000*%
%ADD26R,0.900000X1.500000*%
%ADD27RoundRect,0.250000X-0.250000X-0.475000X0.250000X-0.475000X0.250000X0.475000X-0.250000X0.475000X0*%
%ADD28RoundRect,0.250000X-0.600000X-2.600000X0.600000X-2.600000X0.600000X2.600000X-0.600000X2.600000X0*%
%ADD29RoundRect,0.150000X-0.512500X-0.150000X0.512500X-0.150000X0.512500X0.150000X-0.512500X0.150000X0*%
%ADD30RoundRect,0.225000X-0.225000X-0.250000X0.225000X-0.250000X0.225000X0.250000X-0.225000X0.250000X0*%
%ADD31RoundRect,0.250000X-0.375000X-0.625000X0.375000X-0.625000X0.375000X0.625000X-0.375000X0.625000X0*%
%ADD32RoundRect,0.218750X0.218750X0.256250X-0.218750X0.256250X-0.218750X-0.256250X0.218750X-0.256250X0*%
%ADD33RoundRect,0.250000X0.650000X-1.000000X0.650000X1.000000X-0.650000X1.000000X-0.650000X-1.000000X0*%
G04 APERTURE END LIST*
D10*
G04 #@! TO.C,C7*
X81500000Y-33275000D03*
X81500000Y-31725000D03*
G04 #@! TD*
D11*
G04 #@! TO.C,J3*
X83250000Y-63855000D03*
X84050000Y-63855000D03*
D12*
X85250000Y-63855000D03*
X86250000Y-63855000D03*
X86750000Y-63855000D03*
D11*
X88950000Y-63855000D03*
X89750000Y-63855000D03*
D12*
X88250000Y-63855000D03*
X87250000Y-63855000D03*
X85750000Y-63855000D03*
G04 #@! TD*
D13*
G04 #@! TO.C,D2*
X43700000Y-62500000D03*
X39700000Y-62500000D03*
G04 #@! TD*
D10*
G04 #@! TO.C,C6*
X86000000Y-36275000D03*
X86000000Y-34725000D03*
G04 #@! TD*
D14*
G04 #@! TO.C,U1*
X34595000Y-55975000D03*
X35865000Y-55975000D03*
X37135000Y-55975000D03*
X38405000Y-55975000D03*
X38405000Y-51025000D03*
X37135000Y-51025000D03*
X35865000Y-51025000D03*
X34595000Y-51025000D03*
G04 #@! TD*
D15*
G04 #@! TO.C,C10*
X47300000Y-61725000D03*
X47300000Y-64675000D03*
G04 #@! TD*
D16*
G04 #@! TO.C,R10*
X48675000Y-56000000D03*
X50325000Y-56000000D03*
G04 #@! TD*
D17*
G04 #@! TO.C,SW1*
X63520000Y-21750000D03*
X71480000Y-21750000D03*
X63520000Y-26250000D03*
X71480000Y-26250000D03*
G04 #@! TD*
D18*
G04 #@! TO.C,LED1*
X43212500Y-30000000D03*
X44787500Y-30000000D03*
G04 #@! TD*
D16*
G04 #@! TO.C,R4*
X83675000Y-32000000D03*
X85325000Y-32000000D03*
G04 #@! TD*
D19*
G04 #@! TO.C,C15*
X67500000Y-61050000D03*
X67500000Y-62950000D03*
G04 #@! TD*
D20*
G04 #@! TO.C,R1*
X29000000Y-54812500D03*
X29000000Y-50187500D03*
G04 #@! TD*
D21*
G04 #@! TO.C,R5*
X83000000Y-56575000D03*
X83000000Y-58225000D03*
G04 #@! TD*
D16*
G04 #@! TO.C,R8*
X98675000Y-60500000D03*
X100325000Y-60500000D03*
G04 #@! TD*
D19*
G04 #@! TO.C,C14*
X65500000Y-61050000D03*
X65500000Y-62950000D03*
G04 #@! TD*
D16*
G04 #@! TO.C,R7*
X43175000Y-32500000D03*
X44825000Y-32500000D03*
G04 #@! TD*
D21*
G04 #@! TO.C,R6*
X90000000Y-56575000D03*
X90000000Y-58225000D03*
G04 #@! TD*
D16*
G04 #@! TO.C,R9*
X85175000Y-49500000D03*
X86825000Y-49500000D03*
G04 #@! TD*
D22*
G04 #@! TO.C,C12*
X53600000Y-62925000D03*
X53600000Y-64475000D03*
G04 #@! TD*
D16*
G04 #@! TO.C,R12*
X48675000Y-58200000D03*
X50325000Y-58200000D03*
G04 #@! TD*
D17*
G04 #@! TO.C,SW2*
X93520000Y-50750000D03*
X101480000Y-50750000D03*
X93520000Y-55250000D03*
X101480000Y-55250000D03*
G04 #@! TD*
D23*
G04 #@! TO.C,D1*
X35500000Y-61650000D03*
X35500000Y-65950000D03*
G04 #@! TD*
D16*
G04 #@! TO.C,R2*
X31175000Y-47000000D03*
X32825000Y-47000000D03*
G04 #@! TD*
D24*
G04 #@! TO.C,U3*
X94100000Y-34160000D03*
X94100000Y-35560000D03*
X94100000Y-36960000D03*
X95500000Y-34160000D03*
X95500000Y-35560000D03*
X95500000Y-36960000D03*
X96900000Y-34160000D03*
X96900000Y-35560000D03*
X96900000Y-36960000D03*
D25*
X88250000Y-27840000D03*
X88250000Y-29110000D03*
X88250000Y-30380000D03*
X88250000Y-31650000D03*
X88250000Y-32920000D03*
X88250000Y-34190000D03*
X88250000Y-35460000D03*
X88250000Y-36730000D03*
X88250000Y-38000000D03*
X88250000Y-39270000D03*
X88250000Y-40540000D03*
X88250000Y-41810000D03*
X88250000Y-43080000D03*
X88250000Y-44350000D03*
D26*
X90015000Y-45600000D03*
X91285000Y-45600000D03*
X92555000Y-45600000D03*
X93825000Y-45600000D03*
X95095000Y-45600000D03*
X96365000Y-45600000D03*
X97635000Y-45600000D03*
X98905000Y-45600000D03*
X100175000Y-45600000D03*
X101445000Y-45600000D03*
X102715000Y-45600000D03*
X103985000Y-45600000D03*
D25*
X105750000Y-44350000D03*
X105750000Y-43080000D03*
X105750000Y-41810000D03*
X105750000Y-40540000D03*
X105750000Y-39270000D03*
X105750000Y-38000000D03*
X105750000Y-36730000D03*
X105750000Y-35460000D03*
X105750000Y-34190000D03*
X105750000Y-32920000D03*
X105750000Y-31650000D03*
X105750000Y-30380000D03*
X105750000Y-29110000D03*
X105750000Y-27840000D03*
G04 #@! TD*
D27*
G04 #@! TO.C,C5*
X84050000Y-29500000D03*
X85950000Y-29500000D03*
G04 #@! TD*
D28*
G04 #@! TO.C,L1*
X58050000Y-60000000D03*
X62550000Y-60000000D03*
G04 #@! TD*
D16*
G04 #@! TO.C,R11*
X51675000Y-56000000D03*
X53325000Y-56000000D03*
G04 #@! TD*
D29*
G04 #@! TO.C,U2*
X53262500Y-59050000D03*
X53262500Y-60000000D03*
X53262500Y-60950000D03*
X55537500Y-60950000D03*
X55537500Y-60000000D03*
X55537500Y-59050000D03*
G04 #@! TD*
D30*
G04 #@! TO.C,C13*
X56625000Y-55800000D03*
X58175000Y-55800000D03*
G04 #@! TD*
G04 #@! TO.C,C3*
X34725000Y-44800000D03*
X36275000Y-44800000D03*
G04 #@! TD*
D15*
G04 #@! TO.C,C11*
X50600000Y-61725000D03*
X50600000Y-64675000D03*
G04 #@! TD*
D31*
G04 #@! TO.C,F1*
X29200000Y-62000000D03*
X32000000Y-62000000D03*
G04 #@! TD*
D32*
G04 #@! TO.C,LED2*
X103787500Y-60500000D03*
X102212500Y-60500000D03*
G04 #@! TD*
D22*
G04 #@! TO.C,C1*
X38600000Y-58125000D03*
X38600000Y-59675000D03*
G04 #@! TD*
D33*
G04 #@! TO.C,D3*
X80000000Y-56000000D03*
X80000000Y-52000000D03*
G04 #@! TD*
D16*
G04 #@! TO.C,R3*
X34675000Y-47000000D03*
X36325000Y-47000000D03*
G04 #@! TD*
M02*
