G04 #@! TF.GenerationSoftware,KiCad,Pcbnew,10.0.5*
G04 #@! TF.CreationDate,2026-09-11T15:45:52-03:00*
G04 #@! TF.ProjectId,e36-kline-onboard,6533362d-6b6c-4696-9e65-2d6f6e626f61,rev?*
G04 #@! TF.SameCoordinates,Original*
G04 #@! TF.FileFunction,Copper,L1,Top*
G04 #@! TF.FilePolarity,Positive*
%FSLAX46Y46*%
G04 Gerber Fmt 4.6, Leading zero omitted, Abs format (unit mm)*
G04 Created by KiCad (PCBNEW 10.0.5) date 2026-09-11 15:45:52*
%MOMM*%
%LPD*%
G01*
G04 APERTURE LIST*
G04 Aperture macros list*
%AMRoundRect*
0 Rectangle with rounded corners*
0 $1 Rounding radius*
0 $2 $3 $4 $5 $6 $7 $8 $9 X,Y pos of 4 corners*
0 Add a 4 corners polygon primitive as box body*
4,1,4,$2,$3,$4,$5,$6,$7,$8,$9,$2,$3,0*
0 Add four circle primitives for the rounded corners*
1,1,$1+$1,$2,$3*
1,1,$1+$1,$4,$5*
1,1,$1+$1,$6,$7*
1,1,$1+$1,$8,$9*
0 Add four rect primitives between the rounded corners*
20,1,$1+$1,$2,$3,$4,$5,0*
20,1,$1+$1,$4,$5,$6,$7,0*
20,1,$1+$1,$6,$7,$8,$9,0*
20,1,$1+$1,$8,$9,$2,$3,0*%
G04 Aperture macros list end*
G04 #@! TA.AperFunction,SMDPad,CuDef*
%ADD10RoundRect,0.225000X0.250000X-0.225000X0.250000X0.225000X-0.250000X0.225000X-0.250000X-0.225000X0*%
G04 #@! TD*
G04 #@! TA.AperFunction,SMDPad,CuDef*
%ADD11RoundRect,0.250000X-1.100000X0.325000X-1.100000X-0.325000X1.100000X-0.325000X1.100000X0.325000X0*%
G04 #@! TD*
G04 #@! TA.AperFunction,ComponentPad*
%ADD12RoundRect,0.250000X0.725000X-0.600000X0.725000X0.600000X-0.725000X0.600000X-0.725000X-0.600000X0*%
G04 #@! TD*
G04 #@! TA.AperFunction,ComponentPad*
%ADD13O,1.950000X1.700000*%
G04 #@! TD*
G04 #@! TA.AperFunction,ComponentPad*
%ADD14R,1.700000X1.700000*%
G04 #@! TD*
G04 #@! TA.AperFunction,ComponentPad*
%ADD15C,1.700000*%
G04 #@! TD*
G04 #@! TA.AperFunction,SMDPad,CuDef*
%ADD16RoundRect,0.218750X-0.256250X0.218750X-0.256250X-0.218750X0.256250X-0.218750X0.256250X0.218750X0*%
G04 #@! TD*
G04 #@! TA.AperFunction,SMDPad,CuDef*
%ADD17RoundRect,0.200000X-0.200000X-0.275000X0.200000X-0.275000X0.200000X0.275000X-0.200000X0.275000X0*%
G04 #@! TD*
G04 #@! TA.AperFunction,SMDPad,CuDef*
%ADD18R,1.500000X0.900000*%
G04 #@! TD*
G04 #@! TA.AperFunction,SMDPad,CuDef*
%ADD19R,0.900000X1.500000*%
G04 #@! TD*
G04 #@! TA.AperFunction,HeatsinkPad*
%ADD20C,0.600000*%
G04 #@! TD*
G04 #@! TA.AperFunction,HeatsinkPad*
%ADD21R,3.900000X3.900000*%
G04 #@! TD*
G04 #@! TA.AperFunction,SMDPad,CuDef*
%ADD22RoundRect,0.250000X-0.525000X-0.400000X0.525000X-0.400000X0.525000X0.400000X-0.525000X0.400000X0*%
G04 #@! TD*
G04 #@! TA.AperFunction,SMDPad,CuDef*
%ADD23RoundRect,0.225000X-0.250000X0.225000X-0.250000X-0.225000X0.250000X-0.225000X0.250000X0.225000X0*%
G04 #@! TD*
G04 #@! TA.AperFunction,SMDPad,CuDef*
%ADD24RoundRect,0.250000X0.650000X-1.000000X0.650000X1.000000X-0.650000X1.000000X-0.650000X-1.000000X0*%
G04 #@! TD*
G04 #@! TA.AperFunction,SMDPad,CuDef*
%ADD25RoundRect,0.250000X-0.375000X-0.625000X0.375000X-0.625000X0.375000X0.625000X-0.375000X0.625000X0*%
G04 #@! TD*
G04 #@! TA.AperFunction,SMDPad,CuDef*
%ADD26RoundRect,0.218750X-0.218750X-0.256250X0.218750X-0.256250X0.218750X0.256250X-0.218750X0.256250X0*%
G04 #@! TD*
G04 #@! TA.AperFunction,SMDPad,CuDef*
%ADD27RoundRect,0.150000X-0.512500X-0.150000X0.512500X-0.150000X0.512500X0.150000X-0.512500X0.150000X0*%
G04 #@! TD*
G04 #@! TA.AperFunction,ComponentPad*
%ADD28C,2.100000*%
G04 #@! TD*
G04 #@! TA.AperFunction,SMDPad,CuDef*
%ADD29RoundRect,0.250000X-0.475000X0.250000X-0.475000X-0.250000X0.475000X-0.250000X0.475000X0.250000X0*%
G04 #@! TD*
G04 #@! TA.AperFunction,SMDPad,CuDef*
%ADD30RoundRect,0.250000X1.075000X-0.362500X1.075000X0.362500X-1.075000X0.362500X-1.075000X-0.362500X0*%
G04 #@! TD*
G04 #@! TA.AperFunction,SMDPad,CuDef*
%ADD31RoundRect,0.200000X0.275000X-0.200000X0.275000X0.200000X-0.275000X0.200000X-0.275000X-0.200000X0*%
G04 #@! TD*
G04 #@! TA.AperFunction,SMDPad,CuDef*
%ADD32RoundRect,0.250000X1.000000X0.650000X-1.000000X0.650000X-1.000000X-0.650000X1.000000X-0.650000X0*%
G04 #@! TD*
G04 #@! TA.AperFunction,SMDPad,CuDef*
%ADD33RoundRect,0.150000X0.150000X-0.825000X0.150000X0.825000X-0.150000X0.825000X-0.150000X-0.825000X0*%
G04 #@! TD*
G04 #@! TA.AperFunction,SMDPad,CuDef*
%ADD34RoundRect,0.200000X-0.275000X0.200000X-0.275000X-0.200000X0.275000X-0.200000X0.275000X0.200000X0*%
G04 #@! TD*
G04 #@! TA.AperFunction,SMDPad,CuDef*
%ADD35RoundRect,0.225000X-0.225000X-0.250000X0.225000X-0.250000X0.225000X0.250000X-0.225000X0.250000X0*%
G04 #@! TD*
G04 #@! TA.AperFunction,SMDPad,CuDef*
%ADD36RoundRect,0.250000X-0.600000X-2.600000X0.600000X-2.600000X0.600000X2.600000X-0.600000X2.600000X0*%
G04 #@! TD*
G04 #@! TA.AperFunction,SMDPad,CuDef*
%ADD37RoundRect,0.150000X-0.150000X-0.575000X0.150000X-0.575000X0.150000X0.575000X-0.150000X0.575000X0*%
G04 #@! TD*
G04 #@! TA.AperFunction,SMDPad,CuDef*
%ADD38RoundRect,0.075000X-0.075000X-0.650000X0.075000X-0.650000X0.075000X0.650000X-0.075000X0.650000X0*%
G04 #@! TD*
G04 #@! TA.AperFunction,ComponentPad*
%ADD39O,1.000000X2.100000*%
G04 #@! TD*
G04 #@! TA.AperFunction,ComponentPad*
%ADD40O,1.000000X1.600000*%
G04 #@! TD*
G04 #@! TA.AperFunction,SMDPad,CuDef*
%ADD41RoundRect,0.250000X-0.900000X1.000000X-0.900000X-1.000000X0.900000X-1.000000X0.900000X1.000000X0*%
G04 #@! TD*
G04 #@! TA.AperFunction,SMDPad,CuDef*
%ADD42RoundRect,0.250000X-0.250000X-0.475000X0.250000X-0.475000X0.250000X0.475000X-0.250000X0.475000X0*%
G04 #@! TD*
G04 #@! TA.AperFunction,ViaPad*
%ADD43C,0.700000*%
G04 #@! TD*
G04 #@! TA.AperFunction,ViaPad*
%ADD44C,0.900000*%
G04 #@! TD*
G04 #@! TA.AperFunction,Conductor*
%ADD45C,0.250000*%
G04 #@! TD*
G04 #@! TA.AperFunction,Conductor*
%ADD46C,0.187400*%
G04 #@! TD*
G04 #@! TA.AperFunction,Conductor*
%ADD47C,0.800000*%
G04 #@! TD*
G04 #@! TA.AperFunction,Conductor*
%ADD48C,0.601000*%
G04 #@! TD*
G04 #@! TA.AperFunction,Conductor*
%ADD49C,0.500000*%
G04 #@! TD*
G04 #@! TA.AperFunction,Conductor*
%ADD50C,0.400000*%
G04 #@! TD*
G04 #@! TA.AperFunction,Conductor*
%ADD51C,0.200000*%
G04 #@! TD*
G04 APERTURE END LIST*
D10*
G04 #@! TO.P,C7,1*
G04 #@! TO.N,EN*
X81500000Y-33275000D03*
G04 #@! TO.P,C7,2*
G04 #@! TO.N,GND*
X81500000Y-31725000D03*
G04 #@! TD*
D11*
G04 #@! TO.P,C10,1*
G04 #@! TO.N,VIN*
X47300000Y-61725000D03*
G04 #@! TO.P,C10,2*
G04 #@! TO.N,GND*
X47300000Y-64675000D03*
G04 #@! TD*
D12*
G04 #@! TO.P,J4,1*
G04 #@! TO.N,GND*
X30000000Y-37000000D03*
D13*
G04 #@! TO.P,J4,2*
G04 #@! TO.N,K_LINE*
X30000000Y-34500000D03*
G04 #@! TO.P,J4,3*
G04 #@! TO.N,VBAT_RAW*
X30000000Y-32000000D03*
G04 #@! TD*
D10*
G04 #@! TO.P,C6,1*
G04 #@! TO.N,+3V3*
X86000000Y-36275000D03*
G04 #@! TO.P,C6,2*
G04 #@! TO.N,GND*
X86000000Y-34725000D03*
G04 #@! TD*
D14*
G04 #@! TO.P,J2,1*
G04 #@! TO.N,EN*
X95000000Y-64500000D03*
D15*
G04 #@! TO.P,J2,2*
G04 #@! TO.N,IO0*
X97540000Y-64500000D03*
G04 #@! TO.P,J2,3*
G04 #@! TO.N,TXD0*
X100080000Y-64500000D03*
G04 #@! TO.P,J2,4*
G04 #@! TO.N,RXD0*
X102620000Y-64500000D03*
G04 #@! TO.P,J2,5*
G04 #@! TO.N,GND*
X105160000Y-64500000D03*
G04 #@! TO.P,J2,6*
G04 #@! TO.N,+3V3*
X107700000Y-64500000D03*
G04 #@! TD*
D16*
G04 #@! TO.P,LED2,1*
G04 #@! TO.N,GND*
X106000000Y-59712500D03*
G04 #@! TO.P,LED2,2*
G04 #@! TO.N,LED2_A*
X106000000Y-61287500D03*
G04 #@! TD*
D11*
G04 #@! TO.P,C11,1*
G04 #@! TO.N,VIN*
X50600000Y-61725000D03*
G04 #@! TO.P,C11,2*
G04 #@! TO.N,GND*
X50600000Y-64675000D03*
G04 #@! TD*
D17*
G04 #@! TO.P,R3,1*
G04 #@! TO.N,V_SENSE*
X34675000Y-47000000D03*
G04 #@! TO.P,R3,2*
G04 #@! TO.N,GND*
X36325000Y-47000000D03*
G04 #@! TD*
D18*
G04 #@! TO.P,U3,1*
G04 #@! TO.N,GND*
X88250000Y-27840000D03*
G04 #@! TO.P,U3,2*
G04 #@! TO.N,+3V3*
X88250000Y-29110000D03*
G04 #@! TO.P,U3,3*
G04 #@! TO.N,EN*
X88250000Y-30380000D03*
G04 #@! TO.P,U3,4*
G04 #@! TO.N,V_SENSE*
X88250000Y-31650000D03*
G04 #@! TO.P,U3,5*
G04 #@! TO.N,N/C*
X88250000Y-32920000D03*
G04 #@! TO.P,U3,6*
X88250000Y-34190000D03*
G04 #@! TO.P,U3,7*
X88250000Y-35460000D03*
G04 #@! TO.P,U3,8*
X88250000Y-36730000D03*
G04 #@! TO.P,U3,9*
X88250000Y-38000000D03*
G04 #@! TO.P,U3,10*
G04 #@! TO.N,K_TX*
X88250000Y-39270000D03*
G04 #@! TO.P,U3,11*
G04 #@! TO.N,K_RX*
X88250000Y-40540000D03*
G04 #@! TO.P,U3,12*
G04 #@! TO.N,N/C*
X88250000Y-41810000D03*
G04 #@! TO.P,U3,13*
G04 #@! TO.N,USB_DN*
X88250000Y-43080000D03*
G04 #@! TO.P,U3,14*
G04 #@! TO.N,USB_DP*
X88250000Y-44350000D03*
D19*
G04 #@! TO.P,U3,15*
G04 #@! TO.N,N/C*
X90015000Y-45600000D03*
G04 #@! TO.P,U3,16*
X91285000Y-45600000D03*
G04 #@! TO.P,U3,17*
X92555000Y-45600000D03*
G04 #@! TO.P,U3,18*
X93825000Y-45600000D03*
G04 #@! TO.P,U3,19*
X95095000Y-45600000D03*
G04 #@! TO.P,U3,20*
X96365000Y-45600000D03*
G04 #@! TO.P,U3,21*
X97635000Y-45600000D03*
G04 #@! TO.P,U3,22*
X98905000Y-45600000D03*
G04 #@! TO.P,U3,23*
X100175000Y-45600000D03*
G04 #@! TO.P,U3,24*
X101445000Y-45600000D03*
G04 #@! TO.P,U3,25*
X102715000Y-45600000D03*
G04 #@! TO.P,U3,26*
X103985000Y-45600000D03*
D18*
G04 #@! TO.P,U3,27*
G04 #@! TO.N,IO0*
X105750000Y-44350000D03*
G04 #@! TO.P,U3,28*
G04 #@! TO.N,N/C*
X105750000Y-43080000D03*
G04 #@! TO.P,U3,29*
X105750000Y-41810000D03*
G04 #@! TO.P,U3,30*
X105750000Y-40540000D03*
G04 #@! TO.P,U3,31*
G04 #@! TO.N,IO38*
X105750000Y-39270000D03*
G04 #@! TO.P,U3,32*
G04 #@! TO.N,N/C*
X105750000Y-38000000D03*
G04 #@! TO.P,U3,33*
X105750000Y-36730000D03*
G04 #@! TO.P,U3,34*
X105750000Y-35460000D03*
G04 #@! TO.P,U3,35*
X105750000Y-34190000D03*
G04 #@! TO.P,U3,36*
G04 #@! TO.N,RXD0*
X105750000Y-32920000D03*
G04 #@! TO.P,U3,37*
G04 #@! TO.N,TXD0*
X105750000Y-31650000D03*
G04 #@! TO.P,U3,38*
G04 #@! TO.N,N/C*
X105750000Y-30380000D03*
G04 #@! TO.P,U3,39*
X105750000Y-29110000D03*
G04 #@! TO.P,U3,40*
G04 #@! TO.N,GND*
X105750000Y-27840000D03*
D20*
G04 #@! TO.P,U3,41*
X94100000Y-34860000D03*
X94100000Y-36260000D03*
X94800000Y-34160000D03*
X94800000Y-35560000D03*
X94800000Y-36960000D03*
X95500000Y-34860000D03*
D21*
X95500000Y-35560000D03*
D20*
X95500000Y-36260000D03*
X96200000Y-34160000D03*
X96200000Y-35560000D03*
X96200000Y-36960000D03*
X96900000Y-34860000D03*
X96900000Y-36260000D03*
G04 #@! TD*
D22*
G04 #@! TO.P,SW2,1*
G04 #@! TO.N,IO0*
X93520000Y-56750000D03*
X101480000Y-56750000D03*
G04 #@! TO.P,SW2,2*
G04 #@! TO.N,GND*
X93520000Y-61250000D03*
X101480000Y-61250000D03*
G04 #@! TD*
D23*
G04 #@! TO.P,C1,1*
G04 #@! TO.N,+3V3*
X38600000Y-58125000D03*
G04 #@! TO.P,C1,2*
G04 #@! TO.N,GND*
X38600000Y-59675000D03*
G04 #@! TD*
D24*
G04 #@! TO.P,D3,1*
G04 #@! TO.N,VIN*
X80000000Y-56000000D03*
G04 #@! TO.P,D3,2*
G04 #@! TO.N,VBUS*
X80000000Y-52000000D03*
G04 #@! TD*
D25*
G04 #@! TO.P,F1,1*
G04 #@! TO.N,VBAT_RAW*
X29200000Y-62000000D03*
G04 #@! TO.P,F1,2*
G04 #@! TO.N,VBAT_F*
X32000000Y-62000000D03*
G04 #@! TD*
D26*
G04 #@! TO.P,LED1,1*
G04 #@! TO.N,GND*
X43212500Y-30000000D03*
G04 #@! TO.P,LED1,2*
G04 #@! TO.N,LED1_A*
X44787500Y-30000000D03*
G04 #@! TD*
D27*
G04 #@! TO.P,U2,1*
G04 #@! TO.N,+3V3*
X53262500Y-59050000D03*
G04 #@! TO.P,U2,2*
G04 #@! TO.N,EN_BUCK*
X53262500Y-60000000D03*
G04 #@! TO.P,U2,3*
G04 #@! TO.N,VIN*
X53262500Y-60950000D03*
G04 #@! TO.P,U2,4*
G04 #@! TO.N,GND*
X55537500Y-60950000D03*
G04 #@! TO.P,U2,5*
G04 #@! TO.N,SW*
X55537500Y-60000000D03*
G04 #@! TO.P,U2,6*
G04 #@! TO.N,BST*
X55537500Y-59050000D03*
G04 #@! TD*
D17*
G04 #@! TO.P,R4,1*
G04 #@! TO.N,+3V3*
X83675000Y-32000000D03*
G04 #@! TO.P,R4,2*
G04 #@! TO.N,EN*
X85325000Y-32000000D03*
G04 #@! TD*
D28*
G04 #@! TO.P,J1,1*
G04 #@! TO.N,N/C*
X22250000Y-30000000D03*
G04 #@! TO.P,J1,2*
X22250000Y-34000000D03*
G04 #@! TO.P,J1,3*
X22250000Y-38000000D03*
G04 #@! TO.P,J1,4*
G04 #@! TO.N,GND*
X22250000Y-42000000D03*
G04 #@! TO.P,J1,5*
X22250000Y-46000000D03*
G04 #@! TO.P,J1,6*
G04 #@! TO.N,N/C*
X22250000Y-50000000D03*
G04 #@! TO.P,J1,7*
G04 #@! TO.N,K_LINE*
X22250000Y-54000000D03*
G04 #@! TO.P,J1,8*
G04 #@! TO.N,N/C*
X22250000Y-58000000D03*
G04 #@! TO.P,J1,9*
X25250000Y-30000000D03*
G04 #@! TO.P,J1,10*
X25250000Y-34000000D03*
G04 #@! TO.P,J1,11*
X25250000Y-38000000D03*
G04 #@! TO.P,J1,12*
X25250000Y-42000000D03*
G04 #@! TO.P,J1,13*
X25250000Y-46000000D03*
G04 #@! TO.P,J1,14*
X25250000Y-50000000D03*
G04 #@! TO.P,J1,15*
G04 #@! TO.N,K_LINE*
X25250000Y-54000000D03*
G04 #@! TO.P,J1,16*
G04 #@! TO.N,VBAT_RAW*
X25250000Y-58000000D03*
G04 #@! TD*
D29*
G04 #@! TO.P,C14,1*
G04 #@! TO.N,+3V3*
X65500000Y-61050000D03*
G04 #@! TO.P,C14,2*
G04 #@! TO.N,GND*
X65500000Y-62950000D03*
G04 #@! TD*
D22*
G04 #@! TO.P,SW1,1*
G04 #@! TO.N,EN*
X63520000Y-21750000D03*
X71480000Y-21750000D03*
G04 #@! TO.P,SW1,2*
G04 #@! TO.N,GND*
X63520000Y-26250000D03*
X71480000Y-26250000D03*
G04 #@! TD*
D30*
G04 #@! TO.P,R1,1*
G04 #@! TO.N,K_LINE*
X29000000Y-54812500D03*
G04 #@! TO.P,R1,2*
G04 #@! TO.N,VBAT_F*
X29000000Y-50187500D03*
G04 #@! TD*
D29*
G04 #@! TO.P,C15,1*
G04 #@! TO.N,+3V3*
X67500000Y-61050000D03*
G04 #@! TO.P,C15,2*
G04 #@! TO.N,GND*
X67500000Y-62950000D03*
G04 #@! TD*
D17*
G04 #@! TO.P,R2,1*
G04 #@! TO.N,VBAT_F*
X31175000Y-47000000D03*
G04 #@! TO.P,R2,2*
G04 #@! TO.N,V_SENSE*
X32825000Y-47000000D03*
G04 #@! TD*
G04 #@! TO.P,R10,1*
G04 #@! TO.N,VBAT_F*
X48675000Y-56000000D03*
G04 #@! TO.P,R10,2*
G04 #@! TO.N,EN_BUCK*
X50325000Y-56000000D03*
G04 #@! TD*
G04 #@! TO.P,R11,1*
G04 #@! TO.N,EN_BUCK*
X51675000Y-56000000D03*
G04 #@! TO.P,R11,2*
G04 #@! TO.N,GND*
X53325000Y-56000000D03*
G04 #@! TD*
G04 #@! TO.P,R12,1*
G04 #@! TO.N,VBUS*
X48675000Y-58200000D03*
G04 #@! TO.P,R12,2*
G04 #@! TO.N,EN_BUCK*
X50325000Y-58200000D03*
G04 #@! TD*
D31*
G04 #@! TO.P,R8,1*
G04 #@! TO.N,IO38*
X106000000Y-57825000D03*
G04 #@! TO.P,R8,2*
G04 #@! TO.N,LED2_A*
X106000000Y-56175000D03*
G04 #@! TD*
D32*
G04 #@! TO.P,D2,1*
G04 #@! TO.N,VIN*
X43700000Y-62500000D03*
G04 #@! TO.P,D2,2*
G04 #@! TO.N,VBAT_F*
X39700000Y-62500000D03*
G04 #@! TD*
D33*
G04 #@! TO.P,U1,1*
G04 #@! TO.N,K_RX*
X34595000Y-55975000D03*
G04 #@! TO.P,U1,2*
G04 #@! TO.N,N/C*
X35865000Y-55975000D03*
G04 #@! TO.P,U1,3*
G04 #@! TO.N,+3V3*
X37135000Y-55975000D03*
G04 #@! TO.P,U1,4*
G04 #@! TO.N,K_TX*
X38405000Y-55975000D03*
G04 #@! TO.P,U1,5*
G04 #@! TO.N,GND*
X38405000Y-51025000D03*
G04 #@! TO.P,U1,6*
G04 #@! TO.N,K_LINE*
X37135000Y-51025000D03*
G04 #@! TO.P,U1,7*
G04 #@! TO.N,VBAT_F*
X35865000Y-51025000D03*
G04 #@! TO.P,U1,8*
G04 #@! TO.N,N/C*
X34595000Y-51025000D03*
G04 #@! TD*
D34*
G04 #@! TO.P,R5,1*
G04 #@! TO.N,CC1*
X83000000Y-56575000D03*
G04 #@! TO.P,R5,2*
G04 #@! TO.N,GND*
X83000000Y-58225000D03*
G04 #@! TD*
D17*
G04 #@! TO.P,R7,1*
G04 #@! TO.N,+3V3*
X43175000Y-32500000D03*
G04 #@! TO.P,R7,2*
G04 #@! TO.N,LED1_A*
X44825000Y-32500000D03*
G04 #@! TD*
D34*
G04 #@! TO.P,R6,1*
G04 #@! TO.N,CC2*
X90000000Y-56575000D03*
G04 #@! TO.P,R6,2*
G04 #@! TO.N,GND*
X90000000Y-58225000D03*
G04 #@! TD*
D35*
G04 #@! TO.P,C13,1*
G04 #@! TO.N,BST*
X56625000Y-55800000D03*
G04 #@! TO.P,C13,2*
G04 #@! TO.N,SW*
X58175000Y-55800000D03*
G04 #@! TD*
D23*
G04 #@! TO.P,C12,1*
G04 #@! TO.N,VIN*
X53600000Y-62925000D03*
G04 #@! TO.P,C12,2*
G04 #@! TO.N,GND*
X53600000Y-64475000D03*
G04 #@! TD*
D17*
G04 #@! TO.P,R9,1*
G04 #@! TO.N,+3V3*
X85175000Y-49500000D03*
G04 #@! TO.P,R9,2*
G04 #@! TO.N,IO0*
X86825000Y-49500000D03*
G04 #@! TD*
D35*
G04 #@! TO.P,C3,1*
G04 #@! TO.N,V_SENSE*
X34725000Y-44800000D03*
G04 #@! TO.P,C3,2*
G04 #@! TO.N,GND*
X36275000Y-44800000D03*
G04 #@! TD*
D36*
G04 #@! TO.P,L1,1*
G04 #@! TO.N,SW*
X58050000Y-60000000D03*
G04 #@! TO.P,L1,2*
G04 #@! TO.N,+3V3*
X62550000Y-60000000D03*
G04 #@! TD*
D37*
G04 #@! TO.P,J3,A1*
G04 #@! TO.N,GND*
X83250000Y-63855000D03*
G04 #@! TO.P,J3,A4*
G04 #@! TO.N,VBUS*
X84050000Y-63855000D03*
D38*
G04 #@! TO.P,J3,A5*
G04 #@! TO.N,CC1*
X85250000Y-63855000D03*
G04 #@! TO.P,J3,A6*
G04 #@! TO.N,USB_DP*
X86250000Y-63855000D03*
G04 #@! TO.P,J3,A7*
G04 #@! TO.N,USB_DN*
X86750000Y-63855000D03*
D37*
G04 #@! TO.P,J3,A9*
G04 #@! TO.N,VBUS*
X88950000Y-63855000D03*
G04 #@! TO.P,J3,A12*
G04 #@! TO.N,GND*
X89750000Y-63855000D03*
D38*
G04 #@! TO.P,J3,B5*
G04 #@! TO.N,CC2*
X88250000Y-63855000D03*
G04 #@! TO.P,J3,B6*
G04 #@! TO.N,USB_DP*
X87250000Y-63855000D03*
G04 #@! TO.P,J3,B7*
G04 #@! TO.N,USB_DN*
X85750000Y-63855000D03*
D39*
G04 #@! TO.P,J3,SH*
G04 #@! TO.N,GND*
X82180000Y-64770000D03*
D40*
X82180000Y-68950000D03*
D39*
X90820000Y-64770000D03*
D40*
X90820000Y-68950000D03*
G04 #@! TD*
D41*
G04 #@! TO.P,D1,1*
G04 #@! TO.N,VBAT_F*
X35500000Y-61650000D03*
G04 #@! TO.P,D1,2*
G04 #@! TO.N,GND*
X35500000Y-65950000D03*
G04 #@! TD*
D42*
G04 #@! TO.P,C5,1*
G04 #@! TO.N,GND*
X84050000Y-29500000D03*
G04 #@! TO.P,C5,2*
G04 #@! TO.N,+3V3*
X85950000Y-29500000D03*
G04 #@! TD*
D43*
G04 #@! TO.N,GND*
X71000000Y-35000000D03*
X35000000Y-41000000D03*
X82863800Y-30686300D03*
X29000000Y-59000000D03*
X29000000Y-29000000D03*
X77000000Y-29000000D03*
X59000000Y-47000000D03*
X59000000Y-53000000D03*
X53000000Y-29000000D03*
X41000000Y-47000000D03*
X89000000Y-53000000D03*
X107000000Y-47000000D03*
X77000000Y-47000000D03*
X38981200Y-64675000D03*
X53000000Y-47000000D03*
X42220300Y-29775500D03*
X41000000Y-41000000D03*
X65000000Y-47000000D03*
X101000000Y-41000000D03*
X35000000Y-35000000D03*
X29000000Y-41000000D03*
X47000000Y-53000000D03*
X53000000Y-23000000D03*
X65000000Y-23000000D03*
X23000000Y-23000000D03*
X101000000Y-59000000D03*
X59000000Y-29000000D03*
X101000000Y-35000000D03*
X84936200Y-34637500D03*
X29000000Y-65000000D03*
X59000000Y-23000000D03*
X89000000Y-47000000D03*
X65000000Y-53000000D03*
X41000000Y-23000000D03*
X35000000Y-23000000D03*
X47000000Y-41000000D03*
X71000000Y-65000000D03*
X65000000Y-29000000D03*
X77000000Y-35000000D03*
X83000000Y-53000000D03*
X71000000Y-53000000D03*
X65000000Y-65000000D03*
X64559500Y-25210500D03*
X101000000Y-29000000D03*
X41000000Y-59000000D03*
X101000000Y-47000000D03*
X47000000Y-29000000D03*
X71000000Y-29000000D03*
X71000000Y-23000000D03*
X53000000Y-35000000D03*
X71000000Y-47000000D03*
X83000000Y-47000000D03*
X41000000Y-35000000D03*
X53000000Y-53000000D03*
X41000000Y-29000000D03*
X59000000Y-65000000D03*
X89000000Y-59000000D03*
X29000000Y-47000000D03*
X65000000Y-35000000D03*
X101000000Y-53000000D03*
X59000000Y-35000000D03*
X95000000Y-29000000D03*
X35000000Y-29000000D03*
X77000000Y-53000000D03*
X52531700Y-55206700D03*
X36338300Y-48472000D03*
X83000000Y-35000000D03*
X47000000Y-23000000D03*
D44*
G04 #@! TO.N,VBAT_F*
X32928700Y-48797800D03*
X39505900Y-60898100D03*
X35441200Y-58625900D03*
G04 #@! TO.N,VIN*
X64251000Y-58455600D03*
X55141400Y-61934000D03*
G04 #@! TO.N,+3V3*
X89692600Y-29002300D03*
X86293900Y-37445100D03*
D43*
G04 #@! TO.N,K_RX*
X38884900Y-54345400D03*
X49472800Y-45877200D03*
G04 #@! TO.N,EN*
X86367600Y-32421500D03*
G04 #@! TO.N,TXD0*
X103805800Y-34753900D03*
G04 #@! TO.N,RXD0*
X104031600Y-36956500D03*
G04 #@! TO.N,IO38*
X103004100Y-41653000D03*
X104469100Y-56397500D03*
G04 #@! TO.N,VBUS*
X51710600Y-57080400D03*
X64642000Y-57433100D03*
G04 #@! TO.N,USB_DP*
X87787100Y-45774000D03*
X87084300Y-65113500D03*
G04 #@! TO.N,CC1*
X84817500Y-65365300D03*
X83961200Y-57344100D03*
G04 #@! TO.N,CC2*
X88251100Y-65228300D03*
X88272700Y-57344100D03*
G04 #@! TD*
G04 #@! TO.N,GND*
D45*
X105160000Y-64500000D02*
X105160000Y-63928400D01*
X36325000Y-44850000D02*
X36325000Y-47000000D01*
X64559500Y-25210500D02*
X70440500Y-25210500D01*
X84936200Y-34637500D02*
X85912500Y-34637500D01*
X85912500Y-34637500D02*
X86000000Y-34725000D01*
X38070900Y-60204100D02*
X38600000Y-59675000D01*
X54838900Y-63236100D02*
X55921400Y-63236100D01*
X83000000Y-58225000D02*
X90000000Y-58225000D01*
X103472100Y-62240400D02*
X102481600Y-61250000D01*
X90820000Y-64770000D02*
X90410000Y-64360000D01*
X55921400Y-63236100D02*
X65213900Y-63236100D01*
X84050000Y-29500000D02*
X84050000Y-29241600D01*
X36338300Y-47013300D02*
X36325000Y-47000000D01*
X38070900Y-64675000D02*
X38981200Y-64675000D01*
X90410000Y-64360000D02*
X89905000Y-63855000D01*
X64559500Y-25210500D02*
X63520000Y-26250000D01*
X38405000Y-50538700D02*
X36338300Y-48472000D01*
X38070900Y-64675000D02*
X38070900Y-60204100D01*
X42220300Y-29775500D02*
X42988000Y-29775500D01*
X53400000Y-64675000D02*
X53600000Y-64475000D01*
X53600000Y-64475000D02*
X54838900Y-63236100D01*
X36338300Y-48472000D02*
X36338300Y-47013300D01*
D46*
X84956800Y-28334800D02*
X86709800Y-28334800D01*
D45*
X55921400Y-61333900D02*
X55537500Y-60950000D01*
X36275000Y-44800000D02*
X36325000Y-44850000D01*
X47300000Y-64675000D02*
X50600000Y-64675000D01*
X102481600Y-61250000D02*
X101480000Y-61250000D01*
X82863800Y-30686300D02*
X82538700Y-30686300D01*
X38981200Y-64675000D02*
X47300000Y-64675000D01*
X83095000Y-63855000D02*
X83250000Y-63855000D01*
X55921400Y-63236100D02*
X55921400Y-61333900D01*
X82863800Y-30686300D02*
X82863800Y-30686200D01*
X93025000Y-61250000D02*
X90000000Y-58225000D01*
X88250000Y-27840000D02*
X105750000Y-27840000D01*
X106000000Y-59712500D02*
X103472100Y-62240400D01*
X42988000Y-29775500D02*
X43212500Y-30000000D01*
X65500000Y-62950000D02*
X67500000Y-62950000D01*
X82863800Y-30686200D02*
X84050000Y-29500000D01*
X93520000Y-61250000D02*
X93025000Y-61250000D01*
X94800000Y-35560000D02*
X95500000Y-35560000D01*
X82538700Y-30686300D02*
X81500000Y-31725000D01*
X53325000Y-56000000D02*
X52531700Y-55206700D01*
X38405000Y-51025000D02*
X38405000Y-50538700D01*
D46*
X86709800Y-28334800D02*
X87204600Y-27840000D01*
D45*
X82180000Y-64770000D02*
X83095000Y-63855000D01*
X89905000Y-63855000D02*
X89750000Y-63855000D01*
X36775000Y-64675000D02*
X38070900Y-64675000D01*
X105160000Y-63928400D02*
X103472100Y-62240400D01*
X84050000Y-29241600D02*
X84956800Y-28334800D01*
X70440500Y-25210500D02*
X71480000Y-26250000D01*
X35500000Y-65950000D02*
X36775000Y-64675000D01*
X50600000Y-64675000D02*
X53400000Y-64675000D01*
X65213900Y-63236100D02*
X65500000Y-62950000D01*
X90410000Y-64360000D02*
X93520000Y-61250000D01*
D46*
X88250000Y-27840000D02*
X87204600Y-27840000D01*
G04 #@! TO.N,VBAT_RAW*
D47*
X25250000Y-58000000D02*
X29200000Y-61950000D01*
X29200000Y-61950000D02*
X29200000Y-62000000D01*
G04 #@! TO.N,VBAT_F*
D48*
X36092700Y-50797300D02*
X35894700Y-50995300D01*
D47*
X32928700Y-48797800D02*
X32928700Y-49440200D01*
X35865000Y-51025000D02*
X35894700Y-50995300D01*
X32000000Y-62000000D02*
X35150000Y-62000000D01*
X31175000Y-49440200D02*
X29747300Y-49440200D01*
X35504900Y-49440200D02*
X32928700Y-49440200D01*
X32928700Y-49440200D02*
X31175000Y-49440200D01*
X35500000Y-61650000D02*
X35441200Y-61591200D01*
X39505900Y-60898100D02*
X43776900Y-60898100D01*
X29747300Y-49440200D02*
X29000000Y-50187500D01*
X36092700Y-50028000D02*
X35504900Y-49440200D01*
X39505900Y-60898100D02*
X39700000Y-61092200D01*
X35441200Y-61591200D02*
X35441200Y-58625900D01*
X43776900Y-60898100D02*
X48675000Y-56000000D01*
X39700000Y-61092200D02*
X39700000Y-62500000D01*
X31175000Y-49440200D02*
X31175000Y-47000000D01*
X35150000Y-62000000D02*
X35500000Y-61650000D01*
D48*
X36092700Y-50028000D02*
X36092700Y-50797300D01*
G04 #@! TO.N,K_LINE*
D49*
X34764100Y-54000000D02*
X29000000Y-54000000D01*
X29000000Y-54000000D02*
X29000000Y-54812500D01*
X22250000Y-54000000D02*
X25250000Y-54000000D01*
X25250000Y-54000000D02*
X29000000Y-54000000D01*
X37135000Y-51629100D02*
X34764100Y-54000000D01*
X37135000Y-51025000D02*
X37135000Y-51629100D01*
G04 #@! TO.N,VIN*
D47*
X52487500Y-61725000D02*
X52939300Y-61273200D01*
X52939300Y-61273200D02*
X53600000Y-61934000D01*
X50600000Y-61725000D02*
X52487500Y-61725000D01*
X46525000Y-62500000D02*
X47300000Y-61725000D01*
X53600000Y-61934000D02*
X53600000Y-62925000D01*
X52939300Y-61273200D02*
X53262500Y-60950000D01*
X47300000Y-61725000D02*
X50600000Y-61725000D01*
X43700000Y-62500000D02*
X46525000Y-62500000D01*
X53600000Y-61934000D02*
X55141400Y-61934000D01*
X77544400Y-58455600D02*
X80000000Y-56000000D01*
X64251000Y-58455600D02*
X77544400Y-58455600D01*
G04 #@! TO.N,EN_BUCK*
D45*
X53262500Y-60000000D02*
X52786600Y-60000000D01*
X50583700Y-58458700D02*
X50325000Y-58200000D01*
X51245300Y-58458700D02*
X51289300Y-58458700D01*
X52786600Y-60000000D02*
X51245300Y-58458700D01*
X52387300Y-56712300D02*
X51675000Y-56000000D01*
X52387300Y-57360700D02*
X52387300Y-56712300D01*
X50325000Y-56000000D02*
X51675000Y-56000000D01*
X51289300Y-58458700D02*
X52387300Y-57360700D01*
X51245300Y-58458700D02*
X50583700Y-58458700D01*
G04 #@! TO.N,SW*
D47*
X58175000Y-59875000D02*
X58175000Y-55800000D01*
X58050000Y-60000000D02*
X58175000Y-59875000D01*
X55537500Y-60000000D02*
X58050000Y-60000000D01*
G04 #@! TO.N,BST*
D45*
X55537500Y-59050000D02*
X55537500Y-56887500D01*
X55537500Y-56887500D02*
X56625000Y-55800000D01*
G04 #@! TO.N,+3V3*
D47*
X54341500Y-54678900D02*
X54341500Y-57971000D01*
X85950000Y-29725000D02*
X83675000Y-32000000D01*
X86340000Y-29110000D02*
X88250000Y-29110000D01*
X53871200Y-54208600D02*
X54341500Y-54678900D01*
X38600000Y-58125000D02*
X42516400Y-54208600D01*
X86000000Y-37151200D02*
X86293900Y-37445100D01*
X79249500Y-66894400D02*
X105305600Y-66894400D01*
X71155300Y-49500000D02*
X85175000Y-49500000D01*
X54341500Y-54678900D02*
X58769200Y-54678900D01*
X65500000Y-61050000D02*
X67500000Y-61050000D01*
X67500000Y-61050000D02*
X73405100Y-61050000D01*
X46950000Y-36275000D02*
X43175000Y-32500000D01*
X86000000Y-36275000D02*
X86000000Y-37151200D01*
X89601700Y-29110000D02*
X89601700Y-29093200D01*
X89601700Y-29093200D02*
X89692600Y-29002300D01*
X73405100Y-61050000D02*
X79249500Y-66894400D01*
X85950000Y-29500000D02*
X85950000Y-29725000D01*
D48*
X38276600Y-57801600D02*
X38025800Y-57550800D01*
D47*
X62372800Y-58282500D02*
X62550000Y-58459700D01*
X58769200Y-54678900D02*
X62372800Y-58282500D01*
X105305600Y-66894400D02*
X107700000Y-64500000D01*
X38600000Y-58125000D02*
X38276600Y-57801600D01*
X54341500Y-57971000D02*
X53262500Y-59050000D01*
X37135000Y-55975000D02*
X37135000Y-57550800D01*
X42516400Y-54208600D02*
X53871200Y-54208600D01*
X85950000Y-29500000D02*
X86340000Y-29110000D01*
X63600000Y-61050000D02*
X65500000Y-61050000D01*
X86000000Y-36275000D02*
X46950000Y-36275000D01*
X88250000Y-29110000D02*
X89601700Y-29110000D01*
D48*
X38025800Y-57550800D02*
X37135000Y-57550800D01*
D47*
X62372800Y-58282500D02*
X71155300Y-49500000D01*
X62550000Y-60000000D02*
X63600000Y-61050000D01*
X62550000Y-58459700D02*
X62550000Y-60000000D01*
G04 #@! TO.N,K_TX*
D45*
X54831700Y-39548300D02*
X86926300Y-39548300D01*
D46*
X88250000Y-39270000D02*
X87204600Y-39270000D01*
X86926300Y-39548300D02*
X87204600Y-39270000D01*
D45*
X38405000Y-55975000D02*
X54831700Y-39548300D01*
G04 #@! TO.N,K_RX*
X34595000Y-55975000D02*
X34595000Y-55478800D01*
X34595000Y-55478800D02*
X35728400Y-54345400D01*
X88250000Y-40540000D02*
X54810000Y-40540000D01*
X35728400Y-54345400D02*
X38884900Y-54345400D01*
X54810000Y-40540000D02*
X49472800Y-45877200D01*
G04 #@! TO.N,V_SENSE*
X87173300Y-37750700D02*
X86694900Y-38229100D01*
X86694900Y-38229100D02*
X41295900Y-38229100D01*
X34725000Y-44800000D02*
X34675000Y-44850000D01*
X87173300Y-31650000D02*
X87173300Y-37750700D01*
X34675000Y-47000000D02*
X32825000Y-47000000D01*
X88250000Y-31650000D02*
X87173300Y-31650000D01*
X41295900Y-38229100D02*
X34725000Y-44800000D01*
X34675000Y-44850000D02*
X34675000Y-47000000D01*
G04 #@! TO.N,EN*
X85325000Y-32421500D02*
X86367600Y-32421500D01*
X84471500Y-33275000D02*
X81500000Y-33275000D01*
X85325000Y-32000000D02*
X85325000Y-32421500D01*
X86945000Y-30380000D02*
X85325000Y-32000000D01*
X71480000Y-21750000D02*
X63520000Y-21750000D01*
X72628000Y-22898000D02*
X71480000Y-21750000D01*
X85325000Y-32421500D02*
X84471500Y-33275000D01*
X79307200Y-33275000D02*
X72628000Y-26595800D01*
X81500000Y-33275000D02*
X79307200Y-33275000D01*
X72628000Y-26595800D02*
X72628000Y-22898000D01*
X88250000Y-30380000D02*
X86945000Y-30380000D01*
G04 #@! TO.N,IO0*
X101776700Y-49500000D02*
X95530000Y-49500000D01*
X101480000Y-56750000D02*
X97540000Y-56750000D01*
X105750000Y-44350000D02*
X105750000Y-45526700D01*
X95530000Y-56750000D02*
X95530000Y-49500000D01*
X95530000Y-56750000D02*
X93520000Y-56750000D01*
X97540000Y-56750000D02*
X97540000Y-64500000D01*
X95530000Y-49500000D02*
X86825000Y-49500000D01*
X105750000Y-45526700D02*
X101776700Y-49500000D01*
X97540000Y-56750000D02*
X95530000Y-56750000D01*
G04 #@! TO.N,TXD0*
X105750000Y-31650000D02*
X104673300Y-31650000D01*
X103805800Y-32517500D02*
X103805800Y-34753900D01*
X104673300Y-31650000D02*
X103805800Y-32517500D01*
G04 #@! TO.N,RXD0*
X104673300Y-36314800D02*
X104031600Y-36956500D01*
X104673300Y-32920000D02*
X104673300Y-36314800D01*
X105750000Y-32920000D02*
X104673300Y-32920000D01*
G04 #@! TO.N,IO38*
X104673300Y-39983800D02*
X103004100Y-41653000D01*
X105750000Y-39270000D02*
X104673300Y-39270000D01*
X105896600Y-57825000D02*
X106000000Y-57825000D01*
X104469100Y-56397500D02*
X105896600Y-57825000D01*
X104673300Y-39270000D02*
X104673300Y-39983800D01*
G04 #@! TO.N,LED2_A*
X106000000Y-56175000D02*
X106845600Y-57020600D01*
X106845600Y-57020600D02*
X106845600Y-60441900D01*
X106845600Y-60441900D02*
X106000000Y-61287500D01*
G04 #@! TO.N,LED1_A*
X44825000Y-30037500D02*
X44825000Y-32500000D01*
X44787500Y-30000000D02*
X44825000Y-30037500D01*
G04 #@! TO.N,VBUS*
D50*
X84050000Y-62368700D02*
X84050000Y-63855000D01*
X80000000Y-52000000D02*
X80000000Y-54077000D01*
X88950000Y-63129000D02*
X88189700Y-62368700D01*
X81505100Y-54863200D02*
X81505100Y-59823800D01*
X67998100Y-54077000D02*
X64642000Y-57433100D01*
X49794600Y-57080400D02*
X48675000Y-58200000D01*
X88950000Y-63855000D02*
X88950000Y-63129000D01*
X80000000Y-54077000D02*
X80718900Y-54077000D01*
X81505100Y-59823800D02*
X84050000Y-62368700D01*
X88189700Y-62368700D02*
X84050000Y-62368700D01*
X51710600Y-57080400D02*
X49794600Y-57080400D01*
X80718900Y-54077000D02*
X81505100Y-54863200D01*
X80000000Y-54077000D02*
X67998100Y-54077000D01*
G04 #@! TO.N,USB_DP*
D51*
X88250000Y-44350000D02*
X87248300Y-44350000D01*
X87084300Y-64844400D02*
X87084300Y-65113500D01*
X87248300Y-45235200D02*
X87248300Y-44350000D01*
X87250000Y-64678700D02*
X87084300Y-64844400D01*
X87787100Y-45774000D02*
X87248300Y-45235200D01*
X87250000Y-63855000D02*
X87250000Y-64678700D01*
X86500100Y-64844400D02*
X86250000Y-64594300D01*
X86250000Y-64594300D02*
X86250000Y-63855000D01*
X87084300Y-64844400D02*
X86500100Y-64844400D01*
G04 #@! TO.N,USB_DN*
X94629700Y-62674400D02*
X94629700Y-59709900D01*
X85750000Y-63855000D02*
X85848000Y-63855000D01*
X86750000Y-63167600D02*
X86460400Y-62878000D01*
X86039600Y-62878000D02*
X85848000Y-63069600D01*
X86113200Y-51193400D02*
X86113200Y-44215100D01*
X85848000Y-63855000D02*
X85848000Y-64803200D01*
X86113200Y-44215100D02*
X87248300Y-43080000D01*
X94629700Y-59709900D02*
X86113200Y-51193400D01*
X85848000Y-64803200D02*
X87228000Y-66183200D01*
X91120900Y-66183200D02*
X94629700Y-62674400D01*
X85848000Y-63069600D02*
X85848000Y-63855000D01*
X86750000Y-63855000D02*
X86750000Y-63167600D01*
X87228000Y-66183200D02*
X91120900Y-66183200D01*
X88250000Y-43080000D02*
X87248300Y-43080000D01*
X86460400Y-62878000D02*
X86039600Y-62878000D01*
G04 #@! TO.N,CC1*
X84817500Y-64287500D02*
X84817500Y-65365300D01*
X85250000Y-63855000D02*
X84817500Y-64287500D01*
X83769100Y-57344100D02*
X83000000Y-56575000D01*
X83961200Y-57344100D02*
X83769100Y-57344100D01*
G04 #@! TO.N,CC2*
X88250000Y-63855000D02*
X88251100Y-63856100D01*
X88251100Y-63856100D02*
X88251100Y-65228300D01*
X89230900Y-57344100D02*
X90000000Y-56575000D01*
X88272700Y-57344100D02*
X89230900Y-57344100D01*
G04 #@! TD*
G04 #@! TA.AperFunction,Conductor*
G04 #@! TO.N,GND*
G36*
X72943039Y-20220185D02*
G01*
X72988794Y-20272989D01*
X73000000Y-20324500D01*
X73000000Y-22368890D01*
X72980315Y-22435929D01*
X72927511Y-22481684D01*
X72858353Y-22491628D01*
X72794797Y-22462603D01*
X72788319Y-22456571D01*
X72591819Y-22260071D01*
X72558334Y-22198748D01*
X72555500Y-22172390D01*
X72555500Y-21306903D01*
X72555500Y-21306898D01*
X72544877Y-21218436D01*
X72489361Y-21077658D01*
X72489360Y-21077657D01*
X72489360Y-21077656D01*
X72397922Y-20957077D01*
X72277343Y-20865639D01*
X72136561Y-20810122D01*
X72090926Y-20804642D01*
X72048102Y-20799500D01*
X70911898Y-20799500D01*
X70872853Y-20804188D01*
X70823438Y-20810122D01*
X70682656Y-20865639D01*
X70562077Y-20957077D01*
X70470639Y-21077656D01*
X70415120Y-21218443D01*
X70413173Y-21226148D01*
X70411068Y-21225616D01*
X70387972Y-21279490D01*
X70330093Y-21318628D01*
X70292386Y-21324500D01*
X64707614Y-21324500D01*
X64640575Y-21304815D01*
X64594820Y-21252011D01*
X64587504Y-21225976D01*
X64586827Y-21226148D01*
X64584879Y-21218443D01*
X64584877Y-21218438D01*
X64584877Y-21218436D01*
X64529361Y-21077658D01*
X64529360Y-21077657D01*
X64529360Y-21077656D01*
X64437922Y-20957077D01*
X64317343Y-20865639D01*
X64176561Y-20810122D01*
X64130926Y-20804642D01*
X64088102Y-20799500D01*
X62951898Y-20799500D01*
X62912853Y-20804188D01*
X62863438Y-20810122D01*
X62722656Y-20865639D01*
X62602077Y-20957077D01*
X62510639Y-21077656D01*
X62455122Y-21218438D01*
X62451091Y-21252011D01*
X62444500Y-21306898D01*
X62444500Y-22193102D01*
X62450126Y-22239954D01*
X62455122Y-22281561D01*
X62510639Y-22422343D01*
X62602077Y-22542922D01*
X62722656Y-22634360D01*
X62722657Y-22634360D01*
X62722658Y-22634361D01*
X62863436Y-22689877D01*
X62951898Y-22700500D01*
X62951903Y-22700500D01*
X64088097Y-22700500D01*
X64088102Y-22700500D01*
X64176564Y-22689877D01*
X64317342Y-22634361D01*
X64437922Y-22542922D01*
X64529361Y-22422342D01*
X64584877Y-22281564D01*
X64584877Y-22281559D01*
X64584879Y-22281556D01*
X64586827Y-22273852D01*
X64588931Y-22274383D01*
X64612028Y-22220510D01*
X64669907Y-22181372D01*
X64707614Y-22175500D01*
X70292386Y-22175500D01*
X70359425Y-22195185D01*
X70405180Y-22247989D01*
X70412495Y-22274023D01*
X70413173Y-22273852D01*
X70415120Y-22281556D01*
X70470639Y-22422343D01*
X70562077Y-22542922D01*
X70682656Y-22634360D01*
X70682657Y-22634360D01*
X70682658Y-22634361D01*
X70823436Y-22689877D01*
X70911898Y-22700500D01*
X71777390Y-22700500D01*
X71844429Y-22720185D01*
X71865071Y-22736819D01*
X72166181Y-23037929D01*
X72199666Y-23099252D01*
X72202500Y-23125610D01*
X72202500Y-26539782D01*
X72202500Y-26651818D01*
X72231497Y-26760037D01*
X72287515Y-26857063D01*
X72287516Y-26857064D01*
X72287517Y-26857065D01*
X78962374Y-33531921D01*
X78962384Y-33531932D01*
X78966714Y-33536262D01*
X78966715Y-33536263D01*
X79045937Y-33615485D01*
X79136177Y-33667585D01*
X79142963Y-33671503D01*
X79251181Y-33700500D01*
X79251182Y-33700500D01*
X80681659Y-33700500D01*
X80748698Y-33720185D01*
X80780952Y-33754398D01*
X80782511Y-33753217D01*
X80874921Y-33875078D01*
X80990023Y-33962363D01*
X80990024Y-33962363D01*
X80990025Y-33962364D01*
X81124410Y-34015359D01*
X81208856Y-34025500D01*
X81208862Y-34025500D01*
X81791138Y-34025500D01*
X81791144Y-34025500D01*
X81875590Y-34015359D01*
X82009975Y-33962364D01*
X82125078Y-33875078D01*
X82212364Y-33759975D01*
X82212363Y-33759975D01*
X82217489Y-33753217D01*
X82219480Y-33754726D01*
X82260275Y-33714936D01*
X82318341Y-33700500D01*
X84527516Y-33700500D01*
X84527518Y-33700500D01*
X84635737Y-33671503D01*
X84732763Y-33615485D01*
X85464928Y-32883318D01*
X85526251Y-32849834D01*
X85552609Y-32847000D01*
X85821793Y-32847000D01*
X85888832Y-32866685D01*
X85909475Y-32883320D01*
X85952927Y-32926773D01*
X85952931Y-32926776D01*
X86059466Y-32997961D01*
X86059472Y-32997964D01*
X86059473Y-32997965D01*
X86177856Y-33047001D01*
X86177860Y-33047001D01*
X86177861Y-33047002D01*
X86303528Y-33072000D01*
X86303531Y-33072000D01*
X86431671Y-33072000D01*
X86516215Y-33055182D01*
X86557344Y-33047001D01*
X86576346Y-33039129D01*
X86645814Y-33031660D01*
X86708294Y-33062934D01*
X86743948Y-33123022D01*
X86747800Y-33153690D01*
X86747800Y-35518330D01*
X86728115Y-35585369D01*
X86675311Y-35631124D01*
X86606153Y-35641068D01*
X86548875Y-35617134D01*
X86509976Y-35587636D01*
X86375588Y-35534640D01*
X86332242Y-35529435D01*
X86291144Y-35524500D01*
X85708856Y-35524500D01*
X85645521Y-35532105D01*
X85624408Y-35534641D01*
X85545259Y-35565854D01*
X85499769Y-35574500D01*
X47291519Y-35574500D01*
X47224480Y-35554815D01*
X47203838Y-35538181D01*
X45124899Y-33459242D01*
X45091414Y-33397919D01*
X45096398Y-33328227D01*
X45138270Y-33272294D01*
X45169247Y-33255379D01*
X45267328Y-33218797D01*
X45267327Y-33218797D01*
X45267331Y-33218796D01*
X45382546Y-33132546D01*
X45468796Y-33017331D01*
X45519091Y-32882483D01*
X45525500Y-32822873D01*
X45525499Y-32177128D01*
X45519091Y-32117517D01*
X45509033Y-32090551D01*
X45468797Y-31982671D01*
X45468793Y-31982664D01*
X45382547Y-31867455D01*
X45300188Y-31805800D01*
X45258318Y-31749866D01*
X45250500Y-31706534D01*
X45250500Y-30784283D01*
X45270185Y-30717244D01*
X45299573Y-30685480D01*
X45376867Y-30626867D01*
X45463115Y-30513132D01*
X45515479Y-30380346D01*
X45525500Y-30296902D01*
X45525500Y-29703098D01*
X45515479Y-29619654D01*
X45463115Y-29486868D01*
X45458449Y-29480715D01*
X45376867Y-29373132D01*
X45263134Y-29286886D01*
X45263132Y-29286885D01*
X45130346Y-29234521D01*
X45130345Y-29234520D01*
X45130343Y-29234520D01*
X45046902Y-29224500D01*
X44528098Y-29224500D01*
X44444656Y-29234520D01*
X44444655Y-29234520D01*
X44311865Y-29286886D01*
X44198132Y-29373132D01*
X44111886Y-29486865D01*
X44059520Y-29619655D01*
X44059520Y-29619656D01*
X44049500Y-29703097D01*
X44049500Y-30296902D01*
X44059520Y-30380343D01*
X44059520Y-30380344D01*
X44111886Y-30513134D01*
X44198132Y-30626867D01*
X44275424Y-30685479D01*
X44311868Y-30713115D01*
X44320987Y-30716711D01*
X44376131Y-30759614D01*
X44399327Y-30825521D01*
X44399500Y-30832066D01*
X44399500Y-31706534D01*
X44379815Y-31773573D01*
X44349812Y-31805800D01*
X44267452Y-31867455D01*
X44181206Y-31982664D01*
X44181202Y-31982671D01*
X44130908Y-32117516D01*
X44124857Y-32173805D01*
X44098119Y-32238356D01*
X44040727Y-32278204D01*
X43970901Y-32280697D01*
X43913887Y-32248230D01*
X43910372Y-32244715D01*
X43876887Y-32183392D01*
X43874764Y-32170295D01*
X43869091Y-32117517D01*
X43859033Y-32090551D01*
X43818797Y-31982671D01*
X43818793Y-31982664D01*
X43732547Y-31867455D01*
X43732544Y-31867452D01*
X43617335Y-31781206D01*
X43617328Y-31781202D01*
X43482486Y-31730910D01*
X43482485Y-31730909D01*
X43482483Y-31730909D01*
X43422873Y-31724500D01*
X43422863Y-31724500D01*
X42927129Y-31724500D01*
X42927123Y-31724501D01*
X42867516Y-31730908D01*
X42732671Y-31781202D01*
X42732664Y-31781206D01*
X42617455Y-31867452D01*
X42617452Y-31867455D01*
X42531206Y-31982664D01*
X42531202Y-31982671D01*
X42480908Y-32117517D01*
X42474857Y-32173805D01*
X42474501Y-32177123D01*
X42474500Y-32177135D01*
X42474500Y-32822869D01*
X42474501Y-32822876D01*
X42480908Y-32882483D01*
X42531202Y-33017328D01*
X42531206Y-33017335D01*
X42617452Y-33132544D01*
X42617455Y-33132547D01*
X42732664Y-33218793D01*
X42732671Y-33218797D01*
X42867517Y-33269091D01*
X42867516Y-33269091D01*
X42920290Y-33274765D01*
X42984841Y-33301503D01*
X42994716Y-33310373D01*
X46503453Y-36819111D01*
X46503454Y-36819112D01*
X46618190Y-36895776D01*
X46716790Y-36936617D01*
X46745671Y-36948580D01*
X46745672Y-36948580D01*
X46745677Y-36948582D01*
X46772545Y-36953925D01*
X46772551Y-36953926D01*
X46772591Y-36953934D01*
X46852805Y-36969890D01*
X46881006Y-36975500D01*
X46881007Y-36975500D01*
X85175500Y-36975500D01*
X85242539Y-36995185D01*
X85288294Y-37047989D01*
X85299500Y-37099500D01*
X85299500Y-37220194D01*
X85299500Y-37220196D01*
X85299499Y-37220196D01*
X85326418Y-37355522D01*
X85326421Y-37355532D01*
X85379222Y-37483007D01*
X85455891Y-37597750D01*
X85458506Y-37600937D01*
X85485819Y-37665247D01*
X85474026Y-37734114D01*
X85426873Y-37785674D01*
X85362652Y-37803600D01*
X41239882Y-37803600D01*
X41131663Y-37832597D01*
X41131660Y-37832598D01*
X41034640Y-37888613D01*
X41034634Y-37888617D01*
X34935071Y-43988181D01*
X34873748Y-44021666D01*
X34847390Y-44024500D01*
X34458856Y-44024500D01*
X34420841Y-44029065D01*
X34374411Y-44034640D01*
X34240023Y-44087636D01*
X34124921Y-44174921D01*
X34037636Y-44290023D01*
X33984640Y-44424411D01*
X33981808Y-44447998D01*
X33974500Y-44508856D01*
X33974500Y-45091144D01*
X33977991Y-45120213D01*
X33984640Y-45175588D01*
X34037636Y-45309976D01*
X34098161Y-45389789D01*
X34124922Y-45425078D01*
X34200426Y-45482335D01*
X34241948Y-45538524D01*
X34249500Y-45581137D01*
X34249500Y-46206534D01*
X34229815Y-46273573D01*
X34199812Y-46305800D01*
X34117452Y-46367455D01*
X34031206Y-46482664D01*
X34031204Y-46482668D01*
X34031204Y-46482669D01*
X34027039Y-46493834D01*
X33985171Y-46549766D01*
X33919707Y-46574184D01*
X33910859Y-46574500D01*
X33589141Y-46574500D01*
X33522102Y-46554815D01*
X33476347Y-46502011D01*
X33472969Y-46493859D01*
X33468796Y-46482669D01*
X33468793Y-46482665D01*
X33468793Y-46482664D01*
X33382547Y-46367455D01*
X33382544Y-46367452D01*
X33267335Y-46281206D01*
X33267328Y-46281202D01*
X33132486Y-46230910D01*
X33132485Y-46230909D01*
X33132483Y-46230909D01*
X33072873Y-46224500D01*
X33072863Y-46224500D01*
X32577129Y-46224500D01*
X32577123Y-46224501D01*
X32517516Y-46230908D01*
X32382671Y-46281202D01*
X32382664Y-46281206D01*
X32267455Y-46367452D01*
X32267452Y-46367455D01*
X32181206Y-46482664D01*
X32181202Y-46482671D01*
X32130910Y-46617513D01*
X32130909Y-46617517D01*
X32124500Y-46677127D01*
X32124500Y-46677134D01*
X32124500Y-46677135D01*
X32124500Y-47322870D01*
X32124501Y-47322876D01*
X32130908Y-47382483D01*
X32181202Y-47517328D01*
X32181206Y-47517335D01*
X32267452Y-47632544D01*
X32267455Y-47632547D01*
X32382664Y-47718793D01*
X32382671Y-47718797D01*
X32427618Y-47735561D01*
X32517517Y-47769091D01*
X32577127Y-47775500D01*
X33072872Y-47775499D01*
X33132483Y-47769091D01*
X33267331Y-47718796D01*
X33382546Y-47632546D01*
X33468796Y-47517331D01*
X33472960Y-47506165D01*
X33514829Y-47450234D01*
X33580293Y-47425816D01*
X33589141Y-47425500D01*
X33910859Y-47425500D01*
X33977898Y-47445185D01*
X34023653Y-47497989D01*
X34027030Y-47506140D01*
X34031204Y-47517331D01*
X34031205Y-47517332D01*
X34031206Y-47517335D01*
X34117452Y-47632544D01*
X34117455Y-47632547D01*
X34232664Y-47718793D01*
X34232671Y-47718797D01*
X34277618Y-47735561D01*
X34367517Y-47769091D01*
X34427127Y-47775500D01*
X34922872Y-47775499D01*
X34982483Y-47769091D01*
X35117331Y-47718796D01*
X35232546Y-47632546D01*
X35318796Y-47517331D01*
X35369091Y-47382483D01*
X35375500Y-47322873D01*
X35375499Y-46677128D01*
X35369091Y-46617517D01*
X35366230Y-46609847D01*
X35318797Y-46482671D01*
X35318793Y-46482664D01*
X35232547Y-46367455D01*
X35150188Y-46305800D01*
X35108318Y-46249866D01*
X35100500Y-46206534D01*
X35100500Y-45639929D01*
X35120185Y-45572890D01*
X35172989Y-45527135D01*
X35178994Y-45524581D01*
X35209975Y-45512364D01*
X35325078Y-45425078D01*
X35412364Y-45309975D01*
X35465359Y-45175590D01*
X35475500Y-45091144D01*
X35475500Y-44702610D01*
X35495185Y-44635571D01*
X35511819Y-44614929D01*
X41435829Y-38690919D01*
X41497152Y-38657434D01*
X41523510Y-38654600D01*
X86750916Y-38654600D01*
X86750918Y-38654600D01*
X86859137Y-38625603D01*
X86956163Y-38569585D01*
X87014182Y-38511564D01*
X87033207Y-38501176D01*
X87049483Y-38486853D01*
X87063266Y-38484762D01*
X87075502Y-38478082D01*
X87097126Y-38479628D01*
X87118563Y-38476378D01*
X87131288Y-38482071D01*
X87145194Y-38483066D01*
X87162550Y-38496058D01*
X87182340Y-38504913D01*
X87192371Y-38518381D01*
X87201128Y-38524937D01*
X87205015Y-38535359D01*
X87215296Y-38549163D01*
X87231081Y-38584914D01*
X87240151Y-38654193D01*
X87231081Y-38685084D01*
X87202415Y-38750006D01*
X87202415Y-38750008D01*
X87199498Y-38775150D01*
X87199493Y-38775239D01*
X87199485Y-38775260D01*
X87199087Y-38778694D01*
X87198290Y-38778601D01*
X87175958Y-38841026D01*
X87120593Y-38883646D01*
X87107799Y-38887830D01*
X87052445Y-38902663D01*
X87032856Y-38913973D01*
X87005940Y-38929513D01*
X86962556Y-38954560D01*
X86962553Y-38954562D01*
X86830635Y-39086481D01*
X86769312Y-39119966D01*
X86742954Y-39122800D01*
X54775682Y-39122800D01*
X54667463Y-39151797D01*
X54667460Y-39151798D01*
X54570440Y-39207813D01*
X54570434Y-39207817D01*
X39674486Y-54103764D01*
X39613163Y-54137249D01*
X39543471Y-54132265D01*
X39487538Y-54090393D01*
X39472244Y-54063537D01*
X39470001Y-54058122D01*
X39461365Y-54037273D01*
X39461363Y-54037270D01*
X39461361Y-54037266D01*
X39390176Y-53930731D01*
X39390173Y-53930727D01*
X39299572Y-53840126D01*
X39299568Y-53840123D01*
X39193033Y-53768938D01*
X39193024Y-53768933D01*
X39074644Y-53719899D01*
X39074638Y-53719897D01*
X38948971Y-53694900D01*
X38948969Y-53694900D01*
X38820831Y-53694900D01*
X38820829Y-53694900D01*
X38695161Y-53719897D01*
X38695155Y-53719899D01*
X38576775Y-53768933D01*
X38576766Y-53768938D01*
X38470231Y-53840123D01*
X38470227Y-53840126D01*
X38426775Y-53883580D01*
X38365452Y-53917066D01*
X38339093Y-53919900D01*
X35922086Y-53919900D01*
X35855047Y-53900215D01*
X35809292Y-53847411D01*
X35799348Y-53778253D01*
X35828373Y-53714697D01*
X35834405Y-53708219D01*
X36499523Y-53043102D01*
X37205806Y-52336819D01*
X37267129Y-52303334D01*
X37293487Y-52300500D01*
X37339270Y-52300500D01*
X37369699Y-52297646D01*
X37369701Y-52297646D01*
X37433790Y-52275219D01*
X37497882Y-52252793D01*
X37607150Y-52172150D01*
X37687793Y-52062882D01*
X37710219Y-51998790D01*
X37732646Y-51934701D01*
X37732646Y-51934699D01*
X37735500Y-51904269D01*
X37735500Y-50145730D01*
X37732646Y-50115300D01*
X37732646Y-50115298D01*
X37687793Y-49987119D01*
X37687792Y-49987117D01*
X37684356Y-49982461D01*
X37607150Y-49877850D01*
X37497882Y-49797207D01*
X37497880Y-49797206D01*
X37369700Y-49752353D01*
X37339270Y-49749500D01*
X37339266Y-49749500D01*
X36930734Y-49749500D01*
X36930730Y-49749500D01*
X36900300Y-49752353D01*
X36900299Y-49752353D01*
X36868095Y-49763622D01*
X36798316Y-49767183D01*
X36737689Y-49732453D01*
X36717203Y-49701100D01*
X36716345Y-49701560D01*
X36713477Y-49696196D01*
X36713475Y-49696189D01*
X36636814Y-49581457D01*
X36636812Y-49581454D01*
X35951445Y-48896087D01*
X35836707Y-48819422D01*
X35709232Y-48766621D01*
X35709222Y-48766618D01*
X35573896Y-48739700D01*
X35573894Y-48739700D01*
X35573893Y-48739700D01*
X33784110Y-48739700D01*
X33717071Y-48720015D01*
X33671316Y-48667211D01*
X33662493Y-48639891D01*
X33650359Y-48578894D01*
X33650358Y-48578887D01*
X33650356Y-48578882D01*
X33593787Y-48442311D01*
X33593780Y-48442298D01*
X33511651Y-48319384D01*
X33511648Y-48319380D01*
X33407119Y-48214851D01*
X33407115Y-48214848D01*
X33284201Y-48132719D01*
X33284188Y-48132712D01*
X33147617Y-48076143D01*
X33147607Y-48076140D01*
X33002620Y-48047300D01*
X33002618Y-48047300D01*
X32854782Y-48047300D01*
X32854780Y-48047300D01*
X32709792Y-48076140D01*
X32709782Y-48076143D01*
X32573211Y-48132712D01*
X32573198Y-48132719D01*
X32450284Y-48214848D01*
X32450280Y-48214851D01*
X32345751Y-48319380D01*
X32345748Y-48319384D01*
X32263619Y-48442298D01*
X32263612Y-48442311D01*
X32207043Y-48578882D01*
X32207040Y-48578894D01*
X32194907Y-48639891D01*
X32162522Y-48701802D01*
X32101807Y-48736376D01*
X32073290Y-48739700D01*
X31999500Y-48739700D01*
X31932461Y-48720015D01*
X31886706Y-48667211D01*
X31875500Y-48615700D01*
X31875500Y-46923412D01*
X31875499Y-46923394D01*
X31875499Y-46677129D01*
X31875498Y-46677123D01*
X31875497Y-46677116D01*
X31869091Y-46617517D01*
X31866230Y-46609847D01*
X31818797Y-46482671D01*
X31818793Y-46482664D01*
X31732547Y-46367455D01*
X31732544Y-46367452D01*
X31617335Y-46281206D01*
X31617328Y-46281202D01*
X31482486Y-46230910D01*
X31482485Y-46230909D01*
X31482483Y-46230909D01*
X31422873Y-46224500D01*
X31422863Y-46224500D01*
X30927129Y-46224500D01*
X30927123Y-46224501D01*
X30867516Y-46230908D01*
X30732671Y-46281202D01*
X30732664Y-46281206D01*
X30617455Y-46367452D01*
X30617452Y-46367455D01*
X30531206Y-46482664D01*
X30531202Y-46482671D01*
X30480908Y-46617517D01*
X30474501Y-46677116D01*
X30474501Y-46677123D01*
X30474500Y-46677135D01*
X30474500Y-48615700D01*
X30454815Y-48682739D01*
X30402011Y-48728494D01*
X30350500Y-48739700D01*
X29678304Y-48739700D01*
X29542977Y-48766618D01*
X29542967Y-48766621D01*
X29415492Y-48819422D01*
X29300754Y-48896087D01*
X29300753Y-48896088D01*
X28958662Y-49238181D01*
X28897339Y-49271666D01*
X28870981Y-49274500D01*
X27881898Y-49274500D01*
X27842853Y-49279188D01*
X27793438Y-49285122D01*
X27652656Y-49340639D01*
X27532077Y-49432077D01*
X27440639Y-49552656D01*
X27385122Y-49693438D01*
X27379188Y-49742853D01*
X27374500Y-49781898D01*
X27374500Y-50593102D01*
X27380126Y-50639954D01*
X27385122Y-50681561D01*
X27440639Y-50822343D01*
X27532077Y-50942922D01*
X27652656Y-51034360D01*
X27652657Y-51034360D01*
X27652658Y-51034361D01*
X27793436Y-51089877D01*
X27881898Y-51100500D01*
X27881903Y-51100500D01*
X30118097Y-51100500D01*
X30118102Y-51100500D01*
X30206564Y-51089877D01*
X30347342Y-51034361D01*
X30467922Y-50942922D01*
X30559361Y-50822342D01*
X30614877Y-50681564D01*
X30625500Y-50593102D01*
X30625500Y-50264700D01*
X30645185Y-50197661D01*
X30697989Y-50151906D01*
X30749500Y-50140700D01*
X31106007Y-50140700D01*
X32859707Y-50140700D01*
X33870500Y-50140700D01*
X33937539Y-50160385D01*
X33983294Y-50213189D01*
X33994500Y-50264700D01*
X33994500Y-51904269D01*
X33997353Y-51934699D01*
X33997353Y-51934701D01*
X34042206Y-52062880D01*
X34042207Y-52062882D01*
X34122850Y-52172150D01*
X34232118Y-52252793D01*
X34274845Y-52267744D01*
X34360299Y-52297646D01*
X34390730Y-52300500D01*
X34390734Y-52300500D01*
X34799270Y-52300500D01*
X34829699Y-52297646D01*
X34829701Y-52297646D01*
X34893790Y-52275219D01*
X34957882Y-52252793D01*
X35067150Y-52172150D01*
X35130231Y-52086677D01*
X35185877Y-52044428D01*
X35255533Y-52038969D01*
X35317083Y-52072036D01*
X35329763Y-52086670D01*
X35392850Y-52172150D01*
X35502118Y-52252793D01*
X35502120Y-52252793D01*
X35504480Y-52254041D01*
X35506585Y-52256089D01*
X35509595Y-52258311D01*
X35509291Y-52258722D01*
X35554553Y-52302769D01*
X35570333Y-52370834D01*
X35546809Y-52436624D01*
X35534221Y-52451353D01*
X34572394Y-53413181D01*
X34511071Y-53446666D01*
X34484713Y-53449500D01*
X26561195Y-53449500D01*
X26494156Y-53429815D01*
X26450710Y-53381795D01*
X26442060Y-53364819D01*
X26405051Y-53292184D01*
X26354596Y-53222738D01*
X26280109Y-53120213D01*
X26129786Y-52969890D01*
X25957820Y-52844951D01*
X25768414Y-52748444D01*
X25768413Y-52748443D01*
X25768412Y-52748443D01*
X25566243Y-52682754D01*
X25566241Y-52682753D01*
X25566240Y-52682753D01*
X25404957Y-52657208D01*
X25356287Y-52649500D01*
X25143713Y-52649500D01*
X25095042Y-52657208D01*
X24933760Y-52682753D01*
X24731585Y-52748444D01*
X24542179Y-52844951D01*
X24370213Y-52969890D01*
X24219890Y-53120213D01*
X24094956Y-53292173D01*
X24094950Y-53292182D01*
X24049290Y-53381795D01*
X24001315Y-53432591D01*
X23938805Y-53449500D01*
X23561195Y-53449500D01*
X23494156Y-53429815D01*
X23450710Y-53381795D01*
X23442060Y-53364819D01*
X23405051Y-53292184D01*
X23354596Y-53222738D01*
X23280109Y-53120213D01*
X23129786Y-52969890D01*
X22957820Y-52844951D01*
X22768414Y-52748444D01*
X22768413Y-52748443D01*
X22768412Y-52748443D01*
X22566243Y-52682754D01*
X22566241Y-52682753D01*
X22566240Y-52682753D01*
X22404957Y-52657208D01*
X22356287Y-52649500D01*
X22143713Y-52649500D01*
X22095042Y-52657208D01*
X21933760Y-52682753D01*
X21731585Y-52748444D01*
X21542179Y-52844951D01*
X21370213Y-52969890D01*
X21219890Y-53120213D01*
X21094951Y-53292179D01*
X20998444Y-53481585D01*
X20932753Y-53683760D01*
X20899500Y-53893713D01*
X20899500Y-54106286D01*
X20932753Y-54316239D01*
X20998444Y-54518414D01*
X21094951Y-54707820D01*
X21219890Y-54879786D01*
X21370213Y-55030109D01*
X21542179Y-55155048D01*
X21542181Y-55155049D01*
X21542184Y-55155051D01*
X21731588Y-55251557D01*
X21933757Y-55317246D01*
X22143713Y-55350500D01*
X22143714Y-55350500D01*
X22356286Y-55350500D01*
X22356287Y-55350500D01*
X22566243Y-55317246D01*
X22768412Y-55251557D01*
X22957816Y-55155051D01*
X22979789Y-55139086D01*
X23129786Y-55030109D01*
X23129788Y-55030106D01*
X23129792Y-55030104D01*
X23280104Y-54879792D01*
X23280106Y-54879788D01*
X23280109Y-54879786D01*
X23340032Y-54797308D01*
X23405051Y-54707816D01*
X23450710Y-54618205D01*
X23498685Y-54567409D01*
X23561195Y-54550500D01*
X23938805Y-54550500D01*
X24005844Y-54570185D01*
X24049290Y-54618205D01*
X24086965Y-54692147D01*
X24094950Y-54707817D01*
X24094956Y-54707826D01*
X24219890Y-54879786D01*
X24370213Y-55030109D01*
X24542179Y-55155048D01*
X24542181Y-55155049D01*
X24542184Y-55155051D01*
X24731588Y-55251557D01*
X24933757Y-55317246D01*
X25143713Y-55350500D01*
X25143714Y-55350500D01*
X25356286Y-55350500D01*
X25356287Y-55350500D01*
X25566243Y-55317246D01*
X25768412Y-55251557D01*
X25957816Y-55155051D01*
X25979789Y-55139086D01*
X26129786Y-55030109D01*
X26129788Y-55030106D01*
X26129792Y-55030104D01*
X26280104Y-54879792D01*
X26280106Y-54879788D01*
X26280109Y-54879786D01*
X26340032Y-54797308D01*
X26405051Y-54707816D01*
X26450710Y-54618205D01*
X26498685Y-54567409D01*
X26561195Y-54550500D01*
X27250500Y-54550500D01*
X27317539Y-54570185D01*
X27363294Y-54622989D01*
X27374500Y-54674500D01*
X27374500Y-55218102D01*
X27380126Y-55264954D01*
X27385122Y-55306561D01*
X27385122Y-55306563D01*
X27385123Y-55306564D01*
X27402449Y-55350500D01*
X27440639Y-55447343D01*
X27532077Y-55567922D01*
X27652656Y-55659360D01*
X27652657Y-55659360D01*
X27652658Y-55659361D01*
X27793436Y-55714877D01*
X27881898Y-55725500D01*
X27881903Y-55725500D01*
X30118097Y-55725500D01*
X30118102Y-55725500D01*
X30206564Y-55714877D01*
X30347342Y-55659361D01*
X30467922Y-55567922D01*
X30559361Y-55447342D01*
X30614877Y-55306564D01*
X30625500Y-55218102D01*
X30625500Y-54674500D01*
X30645185Y-54607461D01*
X30697989Y-54561706D01*
X30749500Y-54550500D01*
X34121815Y-54550500D01*
X34188854Y-54570185D01*
X34234609Y-54622989D01*
X34244553Y-54692147D01*
X34215528Y-54755703D01*
X34195450Y-54774269D01*
X34122850Y-54827850D01*
X34042207Y-54937117D01*
X34042206Y-54937119D01*
X33997353Y-55065298D01*
X33997353Y-55065300D01*
X33994500Y-55095730D01*
X33994500Y-56854269D01*
X33997353Y-56884699D01*
X33997353Y-56884701D01*
X34040176Y-57007078D01*
X34042207Y-57012882D01*
X34122850Y-57122150D01*
X34232118Y-57202793D01*
X34260771Y-57212819D01*
X34360299Y-57247646D01*
X34390730Y-57250500D01*
X34390734Y-57250500D01*
X34799270Y-57250500D01*
X34829699Y-57247646D01*
X34829701Y-57247646D01*
X34893790Y-57225219D01*
X34957882Y-57202793D01*
X35067150Y-57122150D01*
X35130231Y-57036677D01*
X35185877Y-56994428D01*
X35255533Y-56988969D01*
X35317083Y-57022036D01*
X35329763Y-57036670D01*
X35392850Y-57122150D01*
X35502118Y-57202793D01*
X35530771Y-57212819D01*
X35630299Y-57247646D01*
X35660730Y-57250500D01*
X35660734Y-57250500D01*
X36069270Y-57250500D01*
X36099699Y-57247646D01*
X36099701Y-57247646D01*
X36163790Y-57225219D01*
X36227882Y-57202793D01*
X36236865Y-57196162D01*
X36302494Y-57172191D01*
X36370665Y-57187506D01*
X36419733Y-57237246D01*
X36434500Y-57295932D01*
X36434500Y-57619793D01*
X36434500Y-57619795D01*
X36434499Y-57619795D01*
X36461418Y-57755122D01*
X36461421Y-57755132D01*
X36514221Y-57882604D01*
X36514228Y-57882617D01*
X36590885Y-57997341D01*
X36590888Y-57997345D01*
X36688454Y-58094911D01*
X36688458Y-58094914D01*
X36803182Y-58171571D01*
X36803195Y-58171578D01*
X36930667Y-58224378D01*
X36930672Y-58224380D01*
X36930676Y-58224380D01*
X36930677Y-58224381D01*
X37066004Y-58251300D01*
X37066007Y-58251300D01*
X37203995Y-58251300D01*
X37295041Y-58233189D01*
X37339328Y-58224380D01*
X37466811Y-58171575D01*
X37466816Y-58171571D01*
X37472178Y-58168706D01*
X37472995Y-58170234D01*
X37531811Y-58151820D01*
X37534021Y-58151800D01*
X37601833Y-58151800D01*
X37668872Y-58171485D01*
X37704936Y-58206911D01*
X37732484Y-58248141D01*
X37732485Y-58248142D01*
X37732486Y-58248143D01*
X37788182Y-58303839D01*
X37821666Y-58365160D01*
X37824062Y-58387451D01*
X37824278Y-58387439D01*
X37824498Y-58391128D01*
X37834640Y-58475588D01*
X37887636Y-58609976D01*
X37974921Y-58725078D01*
X38090023Y-58812363D01*
X38090024Y-58812363D01*
X38090025Y-58812364D01*
X38224410Y-58865359D01*
X38308856Y-58875500D01*
X38308862Y-58875500D01*
X38891138Y-58875500D01*
X38891144Y-58875500D01*
X38975590Y-58865359D01*
X39109975Y-58812364D01*
X39225078Y-58725078D01*
X39312364Y-58609975D01*
X39365359Y-58475590D01*
X39375500Y-58391144D01*
X39375500Y-58391136D01*
X39375501Y-58391128D01*
X39375722Y-58387439D01*
X39376681Y-58387496D01*
X39395185Y-58324480D01*
X39411819Y-58303838D01*
X42770238Y-54945419D01*
X42831561Y-54911934D01*
X42857919Y-54909100D01*
X53517000Y-54909100D01*
X53584039Y-54928785D01*
X53629794Y-54981589D01*
X53641000Y-55033100D01*
X53641000Y-57629481D01*
X53621315Y-57696520D01*
X53604681Y-57717162D01*
X52908662Y-58413181D01*
X52847339Y-58446666D01*
X52820981Y-58449500D01*
X52695730Y-58449500D01*
X52665300Y-58452353D01*
X52665298Y-58452353D01*
X52537119Y-58497206D01*
X52537117Y-58497207D01*
X52427850Y-58577850D01*
X52347207Y-58687117D01*
X52347207Y-58687118D01*
X52341945Y-58702155D01*
X52301221Y-58758929D01*
X52236268Y-58784674D01*
X52167707Y-58771216D01*
X52137226Y-58748878D01*
X52051917Y-58663570D01*
X51956728Y-58568380D01*
X51923243Y-58507057D01*
X51928227Y-58437365D01*
X51956726Y-58393021D01*
X52727784Y-57621964D01*
X52729038Y-57619793D01*
X52783803Y-57524937D01*
X52812800Y-57416718D01*
X52812800Y-56656282D01*
X52796406Y-56595100D01*
X52783803Y-56548063D01*
X52763192Y-56512364D01*
X52727785Y-56451037D01*
X52648563Y-56371815D01*
X52648562Y-56371814D01*
X52644232Y-56367484D01*
X52644221Y-56367474D01*
X52411818Y-56135071D01*
X52378333Y-56073748D01*
X52375499Y-56047390D01*
X52375499Y-55677129D01*
X52375498Y-55677123D01*
X52369091Y-55617516D01*
X52318797Y-55482671D01*
X52318793Y-55482664D01*
X52232547Y-55367455D01*
X52232544Y-55367452D01*
X52117335Y-55281206D01*
X52117328Y-55281202D01*
X51982486Y-55230910D01*
X51982485Y-55230909D01*
X51982483Y-55230909D01*
X51922873Y-55224500D01*
X51922863Y-55224500D01*
X51427129Y-55224500D01*
X51427123Y-55224501D01*
X51367516Y-55230908D01*
X51232671Y-55281202D01*
X51232664Y-55281206D01*
X51117455Y-55367452D01*
X51099266Y-55391750D01*
X51043332Y-55433620D01*
X50973640Y-55438604D01*
X50912317Y-55405118D01*
X50900734Y-55391750D01*
X50891489Y-55379400D01*
X50882546Y-55367454D01*
X50882544Y-55367453D01*
X50882544Y-55367452D01*
X50767335Y-55281206D01*
X50767328Y-55281202D01*
X50632486Y-55230910D01*
X50632485Y-55230909D01*
X50632483Y-55230909D01*
X50572873Y-55224500D01*
X50572863Y-55224500D01*
X50077129Y-55224500D01*
X50077123Y-55224501D01*
X50017516Y-55230908D01*
X49882671Y-55281202D01*
X49882664Y-55281206D01*
X49767455Y-55367452D01*
X49767452Y-55367455D01*
X49681206Y-55482664D01*
X49681202Y-55482671D01*
X49630933Y-55617452D01*
X49630909Y-55617517D01*
X49624500Y-55677127D01*
X49624500Y-55677134D01*
X49624500Y-55677135D01*
X49624500Y-56322870D01*
X49624501Y-56322876D01*
X49630909Y-56382485D01*
X49660080Y-56460699D01*
X49665064Y-56530391D01*
X49631578Y-56591714D01*
X49605899Y-56611418D01*
X49569305Y-56632546D01*
X49494005Y-56676020D01*
X49426107Y-56692493D01*
X49360080Y-56669641D01*
X49316889Y-56614720D01*
X49310247Y-56545167D01*
X49315824Y-56525300D01*
X49332015Y-56481890D01*
X49369091Y-56382483D01*
X49375500Y-56322873D01*
X49375499Y-55677128D01*
X49369091Y-55617517D01*
X49367348Y-55612845D01*
X49318797Y-55482671D01*
X49318793Y-55482664D01*
X49232547Y-55367455D01*
X49232544Y-55367452D01*
X49117335Y-55281206D01*
X49117328Y-55281202D01*
X48982486Y-55230910D01*
X48982485Y-55230909D01*
X48982483Y-55230909D01*
X48922873Y-55224500D01*
X48922863Y-55224500D01*
X48427129Y-55224500D01*
X48427123Y-55224501D01*
X48367516Y-55230908D01*
X48232671Y-55281202D01*
X48232664Y-55281206D01*
X48117455Y-55367452D01*
X48117452Y-55367455D01*
X48031206Y-55482664D01*
X48031202Y-55482671D01*
X47980908Y-55617516D01*
X47975234Y-55670292D01*
X47948495Y-55734843D01*
X47939626Y-55744716D01*
X43523062Y-60161281D01*
X43461739Y-60194766D01*
X43435381Y-60197600D01*
X39800558Y-60197600D01*
X39753106Y-60188161D01*
X39724817Y-60176443D01*
X39724807Y-60176440D01*
X39579820Y-60147600D01*
X39579818Y-60147600D01*
X39431982Y-60147600D01*
X39431980Y-60147600D01*
X39286992Y-60176440D01*
X39286982Y-60176443D01*
X39150411Y-60233012D01*
X39150398Y-60233019D01*
X39027484Y-60315148D01*
X39027480Y-60315151D01*
X38922951Y-60419680D01*
X38922948Y-60419684D01*
X38840819Y-60542598D01*
X38840812Y-60542611D01*
X38784243Y-60679182D01*
X38784240Y-60679192D01*
X38755400Y-60824179D01*
X38755400Y-60824182D01*
X38755400Y-60972018D01*
X38755400Y-60972020D01*
X38755399Y-60972020D01*
X38784240Y-61117007D01*
X38784242Y-61117013D01*
X38788651Y-61127658D01*
X38788812Y-61128045D01*
X38796282Y-61197514D01*
X38765009Y-61259994D01*
X38704920Y-61295648D01*
X38674252Y-61299500D01*
X38656898Y-61299500D01*
X38617853Y-61304188D01*
X38568438Y-61310122D01*
X38427656Y-61365639D01*
X38307077Y-61457077D01*
X38215639Y-61577656D01*
X38160122Y-61718438D01*
X38156228Y-61750873D01*
X38149500Y-61806898D01*
X38149500Y-63193102D01*
X38153418Y-63225730D01*
X38160122Y-63281561D01*
X38215639Y-63422343D01*
X38307077Y-63542922D01*
X38427656Y-63634360D01*
X38427657Y-63634360D01*
X38427658Y-63634361D01*
X38568436Y-63689877D01*
X38656898Y-63700500D01*
X38656903Y-63700500D01*
X40743097Y-63700500D01*
X40743102Y-63700500D01*
X40831564Y-63689877D01*
X40972342Y-63634361D01*
X41092922Y-63542922D01*
X41184361Y-63422342D01*
X41239877Y-63281564D01*
X41250500Y-63193102D01*
X41250500Y-61806898D01*
X41242152Y-61737382D01*
X41253704Y-61668476D01*
X41300676Y-61616752D01*
X41365268Y-61598600D01*
X42034732Y-61598600D01*
X42101771Y-61618285D01*
X42147526Y-61671089D01*
X42157847Y-61737382D01*
X42149500Y-61806898D01*
X42149500Y-63193102D01*
X42153418Y-63225730D01*
X42160122Y-63281561D01*
X42215639Y-63422343D01*
X42307077Y-63542922D01*
X42427656Y-63634360D01*
X42427657Y-63634360D01*
X42427658Y-63634361D01*
X42568436Y-63689877D01*
X42656898Y-63700500D01*
X42656903Y-63700500D01*
X44743097Y-63700500D01*
X44743102Y-63700500D01*
X44831564Y-63689877D01*
X44972342Y-63634361D01*
X45092922Y-63542922D01*
X45184361Y-63422342D01*
X45213056Y-63349578D01*
X45240885Y-63279010D01*
X45283791Y-63223866D01*
X45349698Y-63200673D01*
X45356239Y-63200500D01*
X46593996Y-63200500D01*
X46685040Y-63182389D01*
X46729328Y-63173580D01*
X46815663Y-63137819D01*
X46856807Y-63120777D01*
X46856808Y-63120776D01*
X46856811Y-63120775D01*
X46971543Y-63044114D01*
X47378838Y-62636819D01*
X47440161Y-62603334D01*
X47466519Y-62600500D01*
X48443097Y-62600500D01*
X48443102Y-62600500D01*
X48531564Y-62589877D01*
X48672342Y-62534361D01*
X48782669Y-62450696D01*
X48847981Y-62425873D01*
X48857595Y-62425500D01*
X49042405Y-62425500D01*
X49109444Y-62445185D01*
X49117331Y-62450697D01*
X49227656Y-62534360D01*
X49227657Y-62534360D01*
X49227658Y-62534361D01*
X49368436Y-62589877D01*
X49456898Y-62600500D01*
X49456903Y-62600500D01*
X51743097Y-62600500D01*
X51743102Y-62600500D01*
X51831564Y-62589877D01*
X51972342Y-62534361D01*
X52082669Y-62450696D01*
X52147981Y-62425873D01*
X52157595Y-62425500D01*
X52556496Y-62425500D01*
X52697802Y-62397392D01*
X52698289Y-62399840D01*
X52757211Y-62399305D01*
X52816330Y-62436544D01*
X52845931Y-62499834D01*
X52838713Y-62564083D01*
X52834641Y-62574408D01*
X52834641Y-62574410D01*
X52824500Y-62658856D01*
X52824500Y-63191144D01*
X52828654Y-63225734D01*
X52834640Y-63275588D01*
X52887636Y-63409976D01*
X52974921Y-63525078D01*
X53090023Y-63612363D01*
X53090024Y-63612363D01*
X53090025Y-63612364D01*
X53224410Y-63665359D01*
X53308856Y-63675500D01*
X53308862Y-63675500D01*
X53891138Y-63675500D01*
X53891144Y-63675500D01*
X53975590Y-63665359D01*
X54109975Y-63612364D01*
X54225078Y-63525078D01*
X54312364Y-63409975D01*
X54365359Y-63275590D01*
X54375500Y-63191144D01*
X54375500Y-62758500D01*
X54395185Y-62691461D01*
X54447989Y-62645706D01*
X54499500Y-62634500D01*
X54846742Y-62634500D01*
X54894194Y-62643939D01*
X54922482Y-62655656D01*
X54922487Y-62655658D01*
X54922491Y-62655658D01*
X54922492Y-62655659D01*
X55067479Y-62684500D01*
X55067482Y-62684500D01*
X55215320Y-62684500D01*
X55312862Y-62665096D01*
X55360313Y-62655658D01*
X55492226Y-62601018D01*
X55496888Y-62599087D01*
X55496888Y-62599086D01*
X55496895Y-62599084D01*
X55619816Y-62516951D01*
X55724351Y-62412416D01*
X55806484Y-62289495D01*
X55863058Y-62152913D01*
X55880243Y-62066519D01*
X55891900Y-62007920D01*
X55891900Y-61860079D01*
X55863059Y-61715092D01*
X55863058Y-61715091D01*
X55863058Y-61715087D01*
X55846661Y-61675500D01*
X55806487Y-61578511D01*
X55806480Y-61578498D01*
X55724351Y-61455584D01*
X55724348Y-61455580D01*
X55619819Y-61351051D01*
X55619815Y-61351048D01*
X55496901Y-61268919D01*
X55496888Y-61268912D01*
X55360317Y-61212343D01*
X55360307Y-61212340D01*
X55215320Y-61183500D01*
X55215318Y-61183500D01*
X55067482Y-61183500D01*
X55067480Y-61183500D01*
X54922492Y-61212340D01*
X54922482Y-61212343D01*
X54894194Y-61224061D01*
X54846742Y-61233500D01*
X54349500Y-61233500D01*
X54282461Y-61213815D01*
X54236706Y-61161011D01*
X54225500Y-61109500D01*
X54225500Y-60745730D01*
X54222646Y-60715300D01*
X54222646Y-60715298D01*
X54184448Y-60606136D01*
X54177793Y-60587118D01*
X54149389Y-60548632D01*
X54125419Y-60483005D01*
X54140734Y-60414835D01*
X54149385Y-60401373D01*
X54177793Y-60362882D01*
X54213750Y-60260123D01*
X54222646Y-60234701D01*
X54222646Y-60234699D01*
X54225500Y-60204269D01*
X54225500Y-59795730D01*
X54222646Y-59765300D01*
X54222646Y-59765298D01*
X54184811Y-59657175D01*
X54177793Y-59637118D01*
X54149389Y-59598632D01*
X54125419Y-59533005D01*
X54140734Y-59464835D01*
X54149385Y-59451373D01*
X54177793Y-59412882D01*
X54200219Y-59348790D01*
X54222646Y-59284701D01*
X54222646Y-59284699D01*
X54225500Y-59254269D01*
X54225500Y-59129017D01*
X54245185Y-59061978D01*
X54261815Y-59041340D01*
X54362820Y-58940335D01*
X54424142Y-58906851D01*
X54493834Y-58911835D01*
X54549767Y-58953707D01*
X54574184Y-59019171D01*
X54574500Y-59028017D01*
X54574500Y-59254269D01*
X54577353Y-59284699D01*
X54577353Y-59284701D01*
X54622206Y-59412880D01*
X54622207Y-59412882D01*
X54648385Y-59448353D01*
X54650610Y-59451367D01*
X54674580Y-59516997D01*
X54659264Y-59585167D01*
X54650610Y-59598633D01*
X54622207Y-59637118D01*
X54622206Y-59637119D01*
X54577353Y-59765298D01*
X54577353Y-59765300D01*
X54574500Y-59795730D01*
X54574500Y-60204269D01*
X54577353Y-60234699D01*
X54577353Y-60234701D01*
X54617524Y-60349500D01*
X54622207Y-60362882D01*
X54702850Y-60472150D01*
X54812118Y-60552793D01*
X54831343Y-60559520D01*
X54940299Y-60597646D01*
X54970730Y-60600500D01*
X54970734Y-60600500D01*
X55137730Y-60600500D01*
X55199869Y-60618746D01*
X55200319Y-60617905D01*
X55204359Y-60620064D01*
X55204769Y-60620185D01*
X55205587Y-60620721D01*
X55205690Y-60620776D01*
X55333167Y-60673578D01*
X55333172Y-60673580D01*
X55333176Y-60673580D01*
X55333177Y-60673581D01*
X55468504Y-60700500D01*
X55468507Y-60700500D01*
X56775500Y-60700500D01*
X56842539Y-60720185D01*
X56888294Y-60772989D01*
X56899500Y-60824500D01*
X56899500Y-62643102D01*
X56902502Y-62668102D01*
X56910122Y-62731561D01*
X56965639Y-62872343D01*
X57057077Y-62992922D01*
X57177656Y-63084360D01*
X57177657Y-63084360D01*
X57177658Y-63084361D01*
X57318436Y-63139877D01*
X57406898Y-63150500D01*
X57406903Y-63150500D01*
X58693097Y-63150500D01*
X58693102Y-63150500D01*
X58781564Y-63139877D01*
X58922342Y-63084361D01*
X59042922Y-62992922D01*
X59134361Y-62872342D01*
X59189877Y-62731564D01*
X59200500Y-62643102D01*
X59200500Y-57356898D01*
X59189877Y-57268436D01*
X59134361Y-57127658D01*
X59134360Y-57127657D01*
X59134360Y-57127656D01*
X59042922Y-57007077D01*
X58940524Y-56929427D01*
X58924573Y-56917331D01*
X58883052Y-56861141D01*
X58875500Y-56818529D01*
X58875500Y-56300230D01*
X58884146Y-56254739D01*
X58885222Y-56252011D01*
X58915359Y-56175590D01*
X58923527Y-56107570D01*
X58951062Y-56043362D01*
X59008945Y-56004229D01*
X59078795Y-56002602D01*
X59134322Y-56034679D01*
X61363181Y-58263538D01*
X61396666Y-58324861D01*
X61399500Y-58351219D01*
X61399500Y-62643102D01*
X61402502Y-62668102D01*
X61410122Y-62731561D01*
X61465639Y-62872343D01*
X61557077Y-62992922D01*
X61677656Y-63084360D01*
X61677657Y-63084360D01*
X61677658Y-63084361D01*
X61818436Y-63139877D01*
X61906898Y-63150500D01*
X61906903Y-63150500D01*
X63193097Y-63150500D01*
X63193102Y-63150500D01*
X63281564Y-63139877D01*
X63422342Y-63084361D01*
X63542922Y-62992922D01*
X63634361Y-62872342D01*
X63689877Y-62731564D01*
X63700500Y-62643102D01*
X63700500Y-61874500D01*
X63720185Y-61807461D01*
X63772989Y-61761706D01*
X63824500Y-61750500D01*
X64666307Y-61750500D01*
X64733346Y-61770185D01*
X64741225Y-61775691D01*
X64752658Y-61784361D01*
X64893436Y-61839877D01*
X64981898Y-61850500D01*
X64981903Y-61850500D01*
X66018097Y-61850500D01*
X66018102Y-61850500D01*
X66106564Y-61839877D01*
X66247342Y-61784361D01*
X66258766Y-61775697D01*
X66324076Y-61750873D01*
X66333693Y-61750500D01*
X66666307Y-61750500D01*
X66733346Y-61770185D01*
X66741225Y-61775691D01*
X66752658Y-61784361D01*
X66893436Y-61839877D01*
X66981898Y-61850500D01*
X66981903Y-61850500D01*
X68018097Y-61850500D01*
X68018102Y-61850500D01*
X68106564Y-61839877D01*
X68247342Y-61784361D01*
X68258766Y-61775697D01*
X68324076Y-61750873D01*
X68333693Y-61750500D01*
X73063581Y-61750500D01*
X73130620Y-61770185D01*
X73151262Y-61786819D01*
X75555679Y-64191237D01*
X75589164Y-64252560D01*
X75584180Y-64322252D01*
X75542308Y-64378185D01*
X75476844Y-64402602D01*
X75408571Y-64387750D01*
X75406025Y-64386320D01*
X75320212Y-64336776D01*
X75285148Y-64322252D01*
X75096104Y-64243947D01*
X74929059Y-64199187D01*
X74861789Y-64181162D01*
X74861788Y-64181161D01*
X74861785Y-64181161D01*
X74621289Y-64149500D01*
X74621288Y-64149500D01*
X74378712Y-64149500D01*
X74378711Y-64149500D01*
X74138214Y-64181161D01*
X73903895Y-64243947D01*
X73679794Y-64336773D01*
X73679785Y-64336777D01*
X73469706Y-64458067D01*
X73277263Y-64605733D01*
X73277256Y-64605739D01*
X73105739Y-64777256D01*
X73105733Y-64777263D01*
X72958067Y-64969706D01*
X72836777Y-65179785D01*
X72836773Y-65179794D01*
X72743947Y-65403895D01*
X72681161Y-65638214D01*
X72649500Y-65878711D01*
X72649500Y-66121288D01*
X72681161Y-66361785D01*
X72743947Y-66596104D01*
X72836773Y-66820205D01*
X72836776Y-66820212D01*
X72958064Y-67030289D01*
X72958066Y-67030292D01*
X72958067Y-67030293D01*
X73105733Y-67222736D01*
X73105739Y-67222743D01*
X73277256Y-67394260D01*
X73277263Y-67394266D01*
X73390321Y-67481018D01*
X73469711Y-67541936D01*
X73679788Y-67663224D01*
X73903900Y-67756054D01*
X74138211Y-67818838D01*
X74318586Y-67842584D01*
X74378711Y-67850500D01*
X74378712Y-67850500D01*
X74621289Y-67850500D01*
X74669388Y-67844167D01*
X74861789Y-67818838D01*
X75096100Y-67756054D01*
X75320212Y-67663224D01*
X75530289Y-67541936D01*
X75722738Y-67394265D01*
X75894265Y-67222738D01*
X76041936Y-67030289D01*
X76163224Y-66820212D01*
X76256054Y-66596100D01*
X76318838Y-66361789D01*
X76350500Y-66121288D01*
X76350500Y-65878712D01*
X76349428Y-65870573D01*
X76331393Y-65733576D01*
X76318838Y-65638211D01*
X76256054Y-65403900D01*
X76163224Y-65179788D01*
X76113692Y-65093997D01*
X76097221Y-65026102D01*
X76120073Y-64960075D01*
X76174994Y-64916884D01*
X76244547Y-64910242D01*
X76306650Y-64942257D01*
X76308762Y-64944320D01*
X78802954Y-67438512D01*
X78917692Y-67515177D01*
X79045167Y-67567978D01*
X79045172Y-67567980D01*
X79045176Y-67567980D01*
X79045177Y-67567981D01*
X79180503Y-67594900D01*
X79180506Y-67594900D01*
X105374596Y-67594900D01*
X105465640Y-67576789D01*
X105509928Y-67567980D01*
X105573669Y-67541577D01*
X105637407Y-67515177D01*
X105637408Y-67515176D01*
X105637411Y-67515175D01*
X105752143Y-67438514D01*
X107504956Y-65685699D01*
X107566277Y-65652216D01*
X107604510Y-65651125D01*
X107604590Y-65650118D01*
X107609447Y-65650500D01*
X107609454Y-65650500D01*
X107790551Y-65650500D01*
X107877259Y-65636765D01*
X107969409Y-65622171D01*
X108141639Y-65566211D01*
X108302994Y-65483996D01*
X108449501Y-65377553D01*
X108577553Y-65249501D01*
X108683996Y-65102994D01*
X108766211Y-64941639D01*
X108822171Y-64769409D01*
X108839191Y-64661950D01*
X108850500Y-64590551D01*
X108850500Y-64409448D01*
X108834019Y-64305397D01*
X108822171Y-64230591D01*
X108766211Y-64058361D01*
X108766211Y-64058360D01*
X108726253Y-63979940D01*
X108683996Y-63897006D01*
X108642950Y-63840511D01*
X108577558Y-63750505D01*
X108577554Y-63750500D01*
X108449499Y-63622445D01*
X108449494Y-63622441D01*
X108302997Y-63516006D01*
X108302996Y-63516005D01*
X108302994Y-63516004D01*
X108226906Y-63477235D01*
X108141639Y-63433788D01*
X108141636Y-63433787D01*
X107969410Y-63377829D01*
X107790551Y-63349500D01*
X107790546Y-63349500D01*
X107609454Y-63349500D01*
X107609449Y-63349500D01*
X107430589Y-63377829D01*
X107258363Y-63433787D01*
X107258360Y-63433788D01*
X107097002Y-63516006D01*
X106950505Y-63622441D01*
X106950500Y-63622445D01*
X106822445Y-63750500D01*
X106822441Y-63750505D01*
X106716006Y-63897002D01*
X106633788Y-64058360D01*
X106633787Y-64058363D01*
X106577829Y-64230589D01*
X106552219Y-64392280D01*
X106522289Y-64455414D01*
X106462978Y-64492345D01*
X106393115Y-64491347D01*
X106334883Y-64452737D01*
X106307273Y-64392279D01*
X106281682Y-64230706D01*
X106225748Y-64058555D01*
X106225747Y-64058552D01*
X106143565Y-63897265D01*
X106102331Y-63840511D01*
X106102330Y-63840510D01*
X105628019Y-64314822D01*
X105625925Y-64307007D01*
X105560099Y-64192993D01*
X105467007Y-64099901D01*
X105352993Y-64034075D01*
X105345176Y-64031980D01*
X105819487Y-63557668D01*
X105819487Y-63557667D01*
X105762734Y-63516434D01*
X105601447Y-63434252D01*
X105601444Y-63434251D01*
X105429293Y-63378317D01*
X105250506Y-63350000D01*
X105069494Y-63350000D01*
X104890706Y-63378317D01*
X104718555Y-63434251D01*
X104718552Y-63434252D01*
X104557270Y-63516431D01*
X104557268Y-63516432D01*
X104500511Y-63557667D01*
X104500511Y-63557668D01*
X104974823Y-64031980D01*
X104967007Y-64034075D01*
X104852993Y-64099901D01*
X104759901Y-64192993D01*
X104694075Y-64307007D01*
X104691980Y-64314823D01*
X104217668Y-63840511D01*
X104217667Y-63840511D01*
X104176432Y-63897268D01*
X104176431Y-63897270D01*
X104094252Y-64058552D01*
X104094251Y-64058555D01*
X104038317Y-64230706D01*
X104012726Y-64392279D01*
X103982797Y-64455414D01*
X103923485Y-64492345D01*
X103853622Y-64491347D01*
X103795390Y-64452737D01*
X103767780Y-64392279D01*
X103758989Y-64336776D01*
X103742171Y-64230591D01*
X103686211Y-64058361D01*
X103686211Y-64058360D01*
X103646253Y-63979940D01*
X103603996Y-63897006D01*
X103562950Y-63840511D01*
X103497558Y-63750505D01*
X103497554Y-63750500D01*
X103369499Y-63622445D01*
X103369494Y-63622441D01*
X103222997Y-63516006D01*
X103222996Y-63516005D01*
X103222994Y-63516004D01*
X103146906Y-63477235D01*
X103061639Y-63433788D01*
X103061636Y-63433787D01*
X102889410Y-63377829D01*
X102710551Y-63349500D01*
X102710546Y-63349500D01*
X102529454Y-63349500D01*
X102529449Y-63349500D01*
X102350589Y-63377829D01*
X102178363Y-63433787D01*
X102178360Y-63433788D01*
X102017002Y-63516006D01*
X101870505Y-63622441D01*
X101870500Y-63622445D01*
X101742445Y-63750500D01*
X101742441Y-63750505D01*
X101636006Y-63897002D01*
X101553788Y-64058360D01*
X101553787Y-64058363D01*
X101497829Y-64230589D01*
X101472473Y-64390678D01*
X101442544Y-64453813D01*
X101383232Y-64490744D01*
X101313369Y-64489746D01*
X101255137Y-64451136D01*
X101227527Y-64390678D01*
X101213740Y-64303639D01*
X101202171Y-64230591D01*
X101146211Y-64058361D01*
X101146211Y-64058360D01*
X101106253Y-63979940D01*
X101063996Y-63897006D01*
X101022950Y-63840511D01*
X100957558Y-63750505D01*
X100957554Y-63750500D01*
X100829499Y-63622445D01*
X100829494Y-63622441D01*
X100682997Y-63516006D01*
X100682996Y-63516005D01*
X100682994Y-63516004D01*
X100606906Y-63477235D01*
X100521639Y-63433788D01*
X100521636Y-63433787D01*
X100349410Y-63377829D01*
X100170551Y-63349500D01*
X100170546Y-63349500D01*
X99989454Y-63349500D01*
X99989449Y-63349500D01*
X99810589Y-63377829D01*
X99638363Y-63433787D01*
X99638360Y-63433788D01*
X99477002Y-63516006D01*
X99330505Y-63622441D01*
X99330500Y-63622445D01*
X99202445Y-63750500D01*
X99202441Y-63750505D01*
X99096006Y-63897002D01*
X99013788Y-64058360D01*
X99013787Y-64058363D01*
X98957829Y-64230589D01*
X98932473Y-64390678D01*
X98902544Y-64453813D01*
X98843232Y-64490744D01*
X98773369Y-64489746D01*
X98715137Y-64451136D01*
X98687527Y-64390678D01*
X98673740Y-64303639D01*
X98662171Y-64230591D01*
X98606211Y-64058361D01*
X98606211Y-64058360D01*
X98566253Y-63979940D01*
X98523996Y-63897006D01*
X98482950Y-63840511D01*
X98417558Y-63750505D01*
X98417554Y-63750500D01*
X98289499Y-63622445D01*
X98289494Y-63622441D01*
X98142993Y-63516003D01*
X98142992Y-63516002D01*
X98033205Y-63460062D01*
X97982409Y-63412088D01*
X97965500Y-63349578D01*
X97965500Y-57299500D01*
X97985185Y-57232461D01*
X98037989Y-57186706D01*
X98089500Y-57175500D01*
X100292386Y-57175500D01*
X100359425Y-57195185D01*
X100405180Y-57247989D01*
X100412495Y-57274023D01*
X100413173Y-57273852D01*
X100415120Y-57281556D01*
X100470639Y-57422343D01*
X100562077Y-57542922D01*
X100682656Y-57634360D01*
X100682657Y-57634360D01*
X100682658Y-57634361D01*
X100823436Y-57689877D01*
X100911898Y-57700500D01*
X100911903Y-57700500D01*
X102048097Y-57700500D01*
X102048102Y-57700500D01*
X102136564Y-57689877D01*
X102277342Y-57634361D01*
X102397922Y-57542922D01*
X102489361Y-57422342D01*
X102544877Y-57281564D01*
X102555500Y-57193102D01*
X102555500Y-56461571D01*
X103818599Y-56461571D01*
X103843597Y-56587238D01*
X103843599Y-56587244D01*
X103892633Y-56705624D01*
X103892638Y-56705633D01*
X103963823Y-56812168D01*
X103963826Y-56812172D01*
X104054427Y-56902773D01*
X104054431Y-56902776D01*
X104160966Y-56973961D01*
X104160972Y-56973964D01*
X104160973Y-56973965D01*
X104279356Y-57023001D01*
X104279360Y-57023001D01*
X104279361Y-57023002D01*
X104405028Y-57048000D01*
X104405031Y-57048000D01*
X104466490Y-57048000D01*
X104533529Y-57067685D01*
X104554171Y-57084319D01*
X105188181Y-57718329D01*
X105221666Y-57779652D01*
X105224500Y-57806010D01*
X105224500Y-58072869D01*
X105224501Y-58072876D01*
X105230908Y-58132483D01*
X105281202Y-58267328D01*
X105281206Y-58267335D01*
X105367452Y-58382544D01*
X105367455Y-58382547D01*
X105482664Y-58468793D01*
X105482671Y-58468797D01*
X105514585Y-58480700D01*
X105617517Y-58519091D01*
X105677127Y-58525500D01*
X106296100Y-58525499D01*
X106363139Y-58545183D01*
X106408894Y-58597987D01*
X106420100Y-58649499D01*
X106420100Y-60214290D01*
X106400415Y-60281329D01*
X106383781Y-60301971D01*
X106172571Y-60513181D01*
X106111248Y-60546666D01*
X106084890Y-60549500D01*
X105703098Y-60549500D01*
X105619656Y-60559520D01*
X105619655Y-60559520D01*
X105486865Y-60611886D01*
X105373132Y-60698132D01*
X105286886Y-60811865D01*
X105234520Y-60944655D01*
X105234520Y-60944656D01*
X105224500Y-61028097D01*
X105224500Y-61546902D01*
X105234520Y-61630343D01*
X105234520Y-61630344D01*
X105250588Y-61671089D01*
X105267940Y-61715092D01*
X105286886Y-61763134D01*
X105373132Y-61876867D01*
X105486865Y-61963113D01*
X105486868Y-61963115D01*
X105619654Y-62015479D01*
X105703098Y-62025500D01*
X106296902Y-62025500D01*
X106380346Y-62015479D01*
X106513132Y-61963115D01*
X106626867Y-61876867D01*
X106713115Y-61763132D01*
X106765479Y-61630346D01*
X106775500Y-61546902D01*
X106775500Y-61165110D01*
X106795185Y-61098071D01*
X106811819Y-61077429D01*
X106998609Y-60890639D01*
X107186085Y-60703163D01*
X107242103Y-60606137D01*
X107271100Y-60497918D01*
X107271100Y-60385882D01*
X107271100Y-56964582D01*
X107242103Y-56856363D01*
X107186085Y-56759337D01*
X107106863Y-56680115D01*
X106811818Y-56385070D01*
X106778333Y-56323747D01*
X106775499Y-56297389D01*
X106775499Y-55927129D01*
X106775498Y-55927123D01*
X106769091Y-55867516D01*
X106718797Y-55732671D01*
X106718793Y-55732664D01*
X106632547Y-55617455D01*
X106632544Y-55617452D01*
X106517335Y-55531206D01*
X106517328Y-55531202D01*
X106382486Y-55480910D01*
X106382485Y-55480909D01*
X106382483Y-55480909D01*
X106322873Y-55474500D01*
X106322863Y-55474500D01*
X105677129Y-55474500D01*
X105677123Y-55474501D01*
X105617516Y-55480908D01*
X105482671Y-55531202D01*
X105482664Y-55531206D01*
X105367455Y-55617452D01*
X105367452Y-55617455D01*
X105281206Y-55732664D01*
X105281202Y-55732671D01*
X105237529Y-55849767D01*
X105230909Y-55867517D01*
X105224500Y-55927127D01*
X105224500Y-55927134D01*
X105224500Y-55927135D01*
X105224500Y-55948394D01*
X105204815Y-56015433D01*
X105152011Y-56061188D01*
X105082853Y-56071132D01*
X105019297Y-56042107D01*
X104997398Y-56017285D01*
X104974376Y-55982831D01*
X104974373Y-55982827D01*
X104883772Y-55892226D01*
X104883768Y-55892223D01*
X104777233Y-55821038D01*
X104777224Y-55821033D01*
X104658844Y-55771999D01*
X104658838Y-55771997D01*
X104533171Y-55747000D01*
X104533169Y-55747000D01*
X104405031Y-55747000D01*
X104405029Y-55747000D01*
X104279361Y-55771997D01*
X104279355Y-55771999D01*
X104160975Y-55821033D01*
X104160966Y-55821038D01*
X104054431Y-55892223D01*
X104054427Y-55892226D01*
X103963826Y-55982827D01*
X103963823Y-55982831D01*
X103892638Y-56089366D01*
X103892633Y-56089375D01*
X103843599Y-56207755D01*
X103843597Y-56207761D01*
X103818600Y-56333428D01*
X103818600Y-56333431D01*
X103818600Y-56461569D01*
X103818600Y-56461571D01*
X103818599Y-56461571D01*
X102555500Y-56461571D01*
X102555500Y-56306898D01*
X102544877Y-56218436D01*
X102489361Y-56077658D01*
X102489360Y-56077657D01*
X102489360Y-56077656D01*
X102397922Y-55957077D01*
X102277343Y-55865639D01*
X102136561Y-55810122D01*
X102090926Y-55804642D01*
X102048102Y-55799500D01*
X100911898Y-55799500D01*
X100872853Y-55804188D01*
X100823438Y-55810122D01*
X100682656Y-55865639D01*
X100562077Y-55957077D01*
X100470639Y-56077656D01*
X100415120Y-56218443D01*
X100413173Y-56226148D01*
X100411068Y-56225616D01*
X100387972Y-56279490D01*
X100330093Y-56318628D01*
X100292386Y-56324500D01*
X96079500Y-56324500D01*
X96012461Y-56304815D01*
X95966706Y-56252011D01*
X95955500Y-56200500D01*
X95955500Y-51878711D01*
X104649500Y-51878711D01*
X104649500Y-52121288D01*
X104681161Y-52361785D01*
X104743947Y-52596104D01*
X104779839Y-52682754D01*
X104836776Y-52820212D01*
X104958064Y-53030289D01*
X104958066Y-53030292D01*
X104958067Y-53030293D01*
X105105733Y-53222736D01*
X105105739Y-53222743D01*
X105277256Y-53394260D01*
X105277263Y-53394266D01*
X105345429Y-53446571D01*
X105469711Y-53541936D01*
X105679788Y-53663224D01*
X105903900Y-53756054D01*
X106138211Y-53818838D01*
X106318586Y-53842584D01*
X106378711Y-53850500D01*
X106378712Y-53850500D01*
X106621289Y-53850500D01*
X106669388Y-53844167D01*
X106861789Y-53818838D01*
X107096100Y-53756054D01*
X107320212Y-53663224D01*
X107530289Y-53541936D01*
X107722738Y-53394265D01*
X107894265Y-53222738D01*
X108041936Y-53030289D01*
X108163224Y-52820212D01*
X108256054Y-52596100D01*
X108318838Y-52361789D01*
X108350500Y-52121288D01*
X108350500Y-51878712D01*
X108318838Y-51638211D01*
X108256054Y-51403900D01*
X108163224Y-51179788D01*
X108041936Y-50969711D01*
X107894265Y-50777262D01*
X107894260Y-50777256D01*
X107722743Y-50605739D01*
X107722736Y-50605733D01*
X107530293Y-50458067D01*
X107530292Y-50458066D01*
X107530289Y-50458064D01*
X107320212Y-50336776D01*
X107320205Y-50336773D01*
X107096104Y-50243947D01*
X106933959Y-50200500D01*
X106861789Y-50181162D01*
X106861788Y-50181161D01*
X106861785Y-50181161D01*
X106621289Y-50149500D01*
X106621288Y-50149500D01*
X106378712Y-50149500D01*
X106378711Y-50149500D01*
X106138214Y-50181161D01*
X105903895Y-50243947D01*
X105679794Y-50336773D01*
X105679785Y-50336777D01*
X105469706Y-50458067D01*
X105277263Y-50605733D01*
X105277256Y-50605739D01*
X105105739Y-50777256D01*
X105105733Y-50777263D01*
X104958067Y-50969706D01*
X104836777Y-51179785D01*
X104836773Y-51179794D01*
X104743947Y-51403895D01*
X104681161Y-51638214D01*
X104649500Y-51878711D01*
X95955500Y-51878711D01*
X95955500Y-50049500D01*
X95975185Y-49982461D01*
X96027989Y-49936706D01*
X96079500Y-49925500D01*
X101832716Y-49925500D01*
X101832718Y-49925500D01*
X101940937Y-49896503D01*
X102037963Y-49840485D01*
X106090485Y-45787963D01*
X106146503Y-45690937D01*
X106175500Y-45582718D01*
X106175500Y-45470681D01*
X106175500Y-45224499D01*
X106195185Y-45157460D01*
X106247989Y-45111705D01*
X106299500Y-45100499D01*
X106544856Y-45100499D01*
X106544864Y-45100499D01*
X106544879Y-45100497D01*
X106544882Y-45100497D01*
X106569987Y-45097586D01*
X106569988Y-45097585D01*
X106569991Y-45097585D01*
X106672765Y-45052206D01*
X106752206Y-44972765D01*
X106797585Y-44869991D01*
X106800500Y-44844865D01*
X106800499Y-43855136D01*
X106800497Y-43855117D01*
X106797586Y-43830012D01*
X106797585Y-43830010D01*
X106797585Y-43830009D01*
X106768919Y-43765086D01*
X106759847Y-43695808D01*
X106768919Y-43664913D01*
X106797584Y-43599993D01*
X106797585Y-43599991D01*
X106800500Y-43574865D01*
X106800499Y-42585136D01*
X106799442Y-42576022D01*
X106797586Y-42560012D01*
X106797585Y-42560010D01*
X106797585Y-42560009D01*
X106768919Y-42495086D01*
X106759847Y-42425808D01*
X106768919Y-42394913D01*
X106797584Y-42329993D01*
X106797585Y-42329991D01*
X106800500Y-42304865D01*
X106800499Y-41315136D01*
X106797868Y-41292445D01*
X106797586Y-41290012D01*
X106797585Y-41290010D01*
X106797585Y-41290009D01*
X106768919Y-41225086D01*
X106759847Y-41155808D01*
X106768919Y-41124913D01*
X106770997Y-41120208D01*
X106797585Y-41059991D01*
X106800500Y-41034865D01*
X106800499Y-40045136D01*
X106800497Y-40045117D01*
X106797586Y-40020012D01*
X106797585Y-40020010D01*
X106797585Y-40020009D01*
X106768919Y-39955086D01*
X106759847Y-39885808D01*
X106768919Y-39854913D01*
X106797584Y-39789993D01*
X106797585Y-39789991D01*
X106800500Y-39764865D01*
X106800499Y-38775136D01*
X106798576Y-38758553D01*
X106797586Y-38750012D01*
X106797585Y-38750010D01*
X106797585Y-38750009D01*
X106768919Y-38685086D01*
X106759847Y-38615808D01*
X106768919Y-38584913D01*
X106797584Y-38519993D01*
X106797585Y-38519991D01*
X106800500Y-38494865D01*
X106800499Y-37505136D01*
X106800497Y-37505117D01*
X106797586Y-37480012D01*
X106797585Y-37480010D01*
X106797585Y-37480009D01*
X106768919Y-37415086D01*
X106759847Y-37345808D01*
X106768919Y-37314913D01*
X106791123Y-37264627D01*
X106797585Y-37249991D01*
X106800500Y-37224865D01*
X106800499Y-36235136D01*
X106800497Y-36235117D01*
X106797586Y-36210012D01*
X106797585Y-36210010D01*
X106797585Y-36210009D01*
X106768919Y-36145086D01*
X106759847Y-36075808D01*
X106768919Y-36044913D01*
X106797584Y-35979993D01*
X106797585Y-35979991D01*
X106800500Y-35954865D01*
X106800499Y-34965136D01*
X106798006Y-34943638D01*
X106797586Y-34940012D01*
X106797585Y-34940010D01*
X106797585Y-34940009D01*
X106768919Y-34875086D01*
X106759847Y-34805808D01*
X106768919Y-34774913D01*
X106797584Y-34709993D01*
X106797585Y-34709991D01*
X106800500Y-34684865D01*
X106800499Y-33695136D01*
X106799180Y-33683760D01*
X106797586Y-33670012D01*
X106797585Y-33670010D01*
X106797585Y-33670009D01*
X106768919Y-33605086D01*
X106759847Y-33535808D01*
X106768919Y-33504913D01*
X106779220Y-33481585D01*
X106797585Y-33439991D01*
X106800500Y-33414865D01*
X106800499Y-32425136D01*
X106800497Y-32425117D01*
X106797586Y-32400012D01*
X106797585Y-32400010D01*
X106797585Y-32400009D01*
X106768919Y-32335086D01*
X106759847Y-32265808D01*
X106768919Y-32234913D01*
X106794431Y-32177135D01*
X106797585Y-32169991D01*
X106800500Y-32144865D01*
X106800499Y-31155136D01*
X106798576Y-31138553D01*
X106797586Y-31130012D01*
X106797585Y-31130010D01*
X106797585Y-31130009D01*
X106768919Y-31065086D01*
X106759847Y-30995808D01*
X106768919Y-30964913D01*
X106782663Y-30933787D01*
X106797585Y-30899991D01*
X106800500Y-30874865D01*
X106800499Y-29885136D01*
X106800497Y-29885117D01*
X106797586Y-29860012D01*
X106797585Y-29860010D01*
X106797585Y-29860009D01*
X106768919Y-29795086D01*
X106759847Y-29725808D01*
X106768919Y-29694913D01*
X106781078Y-29667377D01*
X106797585Y-29629991D01*
X106800500Y-29604865D01*
X106800499Y-28615136D01*
X106800497Y-28615117D01*
X106797586Y-28590012D01*
X106797585Y-28590010D01*
X106797585Y-28590009D01*
X106752206Y-28487235D01*
X106672765Y-28407794D01*
X106645789Y-28395883D01*
X106569992Y-28362415D01*
X106544865Y-28359500D01*
X104955143Y-28359500D01*
X104955117Y-28359502D01*
X104930012Y-28362413D01*
X104930008Y-28362415D01*
X104827235Y-28407793D01*
X104747794Y-28487234D01*
X104702415Y-28590006D01*
X104702415Y-28590008D01*
X104699500Y-28615131D01*
X104699500Y-29604856D01*
X104699502Y-29604882D01*
X104702413Y-29629987D01*
X104702414Y-29629988D01*
X104731081Y-29694914D01*
X104740152Y-29764192D01*
X104731081Y-29795084D01*
X104702415Y-29860006D01*
X104702415Y-29860008D01*
X104699500Y-29885131D01*
X104699500Y-30874856D01*
X104699502Y-30874882D01*
X104702413Y-30899987D01*
X104702414Y-30899988D01*
X104731081Y-30964914D01*
X104740152Y-31034192D01*
X104731081Y-31065084D01*
X104702414Y-31130008D01*
X104700090Y-31138553D01*
X104663495Y-31198072D01*
X104612534Y-31225771D01*
X104520252Y-31250499D01*
X104520250Y-31250499D01*
X104509065Y-31253495D01*
X104509064Y-31253496D01*
X104412040Y-31309513D01*
X104412034Y-31309517D01*
X104332813Y-31388739D01*
X103527096Y-32194455D01*
X103527095Y-32194455D01*
X103527096Y-32194456D01*
X103465314Y-32256238D01*
X103465313Y-32256240D01*
X103409298Y-32353260D01*
X103409297Y-32353263D01*
X103380300Y-32461482D01*
X103380300Y-34208092D01*
X103360615Y-34275131D01*
X103343981Y-34295773D01*
X103300526Y-34339227D01*
X103300523Y-34339231D01*
X103229338Y-34445766D01*
X103229333Y-34445775D01*
X103180299Y-34564155D01*
X103180297Y-34564161D01*
X103155300Y-34689828D01*
X103155300Y-34689831D01*
X103155300Y-34817969D01*
X103155300Y-34817971D01*
X103155299Y-34817971D01*
X103180297Y-34943638D01*
X103180299Y-34943644D01*
X103229333Y-35062024D01*
X103229338Y-35062033D01*
X103300523Y-35168568D01*
X103300526Y-35168572D01*
X103391127Y-35259173D01*
X103391131Y-35259176D01*
X103497666Y-35330361D01*
X103497672Y-35330364D01*
X103497673Y-35330365D01*
X103616056Y-35379401D01*
X103616060Y-35379401D01*
X103616061Y-35379402D01*
X103741728Y-35404400D01*
X103741731Y-35404400D01*
X103869871Y-35404400D01*
X103954415Y-35387582D01*
X103995544Y-35379401D01*
X104076347Y-35345930D01*
X104145816Y-35338462D01*
X104208296Y-35369737D01*
X104243948Y-35429826D01*
X104247800Y-35460492D01*
X104247800Y-36087190D01*
X104228115Y-36154229D01*
X104211481Y-36174871D01*
X104116671Y-36269681D01*
X104055348Y-36303166D01*
X104028990Y-36306000D01*
X103967529Y-36306000D01*
X103841861Y-36330997D01*
X103841855Y-36330999D01*
X103723475Y-36380033D01*
X103723466Y-36380038D01*
X103616931Y-36451223D01*
X103616927Y-36451226D01*
X103526326Y-36541827D01*
X103526323Y-36541831D01*
X103455138Y-36648366D01*
X103455133Y-36648375D01*
X103406099Y-36766755D01*
X103406097Y-36766761D01*
X103381100Y-36892428D01*
X103381100Y-36892431D01*
X103381100Y-37020569D01*
X103381100Y-37020571D01*
X103381099Y-37020571D01*
X103406097Y-37146238D01*
X103406099Y-37146244D01*
X103455133Y-37264624D01*
X103455138Y-37264633D01*
X103526323Y-37371168D01*
X103526326Y-37371172D01*
X103616927Y-37461773D01*
X103616931Y-37461776D01*
X103723466Y-37532961D01*
X103723472Y-37532964D01*
X103723473Y-37532965D01*
X103841856Y-37582001D01*
X103841860Y-37582001D01*
X103841861Y-37582002D01*
X103967528Y-37607000D01*
X103967531Y-37607000D01*
X104095671Y-37607000D01*
X104180215Y-37590182D01*
X104221344Y-37582001D01*
X104339727Y-37532965D01*
X104446269Y-37461776D01*
X104487818Y-37420227D01*
X104549141Y-37386741D01*
X104618832Y-37391725D01*
X104674766Y-37433595D01*
X104699184Y-37499060D01*
X104699500Y-37507907D01*
X104699500Y-38494856D01*
X104699502Y-38494882D01*
X104702413Y-38519987D01*
X104702414Y-38519988D01*
X104731081Y-38584914D01*
X104740152Y-38654192D01*
X104731081Y-38685084D01*
X104702414Y-38750008D01*
X104700090Y-38758553D01*
X104663495Y-38818072D01*
X104612534Y-38845772D01*
X104509061Y-38873497D01*
X104509060Y-38873498D01*
X104412040Y-38929513D01*
X104412034Y-38929517D01*
X104332817Y-39008734D01*
X104332813Y-39008740D01*
X104276798Y-39105760D01*
X104276797Y-39105763D01*
X104247800Y-39213982D01*
X104247800Y-39756190D01*
X104228115Y-39823229D01*
X104211481Y-39843871D01*
X103089171Y-40966181D01*
X103027848Y-40999666D01*
X103001490Y-41002500D01*
X102940029Y-41002500D01*
X102814361Y-41027497D01*
X102814355Y-41027499D01*
X102695975Y-41076533D01*
X102695966Y-41076538D01*
X102589431Y-41147723D01*
X102589427Y-41147726D01*
X102498826Y-41238327D01*
X102498823Y-41238331D01*
X102427638Y-41344866D01*
X102427633Y-41344875D01*
X102378599Y-41463255D01*
X102378597Y-41463261D01*
X102353600Y-41588928D01*
X102353600Y-41588931D01*
X102353600Y-41717069D01*
X102353600Y-41717071D01*
X102353599Y-41717071D01*
X102378597Y-41842738D01*
X102378599Y-41842744D01*
X102427633Y-41961124D01*
X102427638Y-41961133D01*
X102498823Y-42067668D01*
X102498826Y-42067672D01*
X102589427Y-42158273D01*
X102589431Y-42158276D01*
X102695966Y-42229461D01*
X102695972Y-42229464D01*
X102695973Y-42229465D01*
X102814356Y-42278501D01*
X102814360Y-42278501D01*
X102814361Y-42278502D01*
X102940028Y-42303500D01*
X102940031Y-42303500D01*
X103068171Y-42303500D01*
X103152715Y-42286682D01*
X103193844Y-42278501D01*
X103312227Y-42229465D01*
X103418769Y-42158276D01*
X103509376Y-42067669D01*
X103580565Y-41961127D01*
X103629601Y-41842744D01*
X103637782Y-41801615D01*
X103654600Y-41717071D01*
X103654600Y-41655608D01*
X103674285Y-41588569D01*
X103690914Y-41567931D01*
X104487821Y-40771024D01*
X104549142Y-40737541D01*
X104618833Y-40742525D01*
X104674767Y-40784397D01*
X104699184Y-40849861D01*
X104699500Y-40858706D01*
X104699500Y-41034856D01*
X104699502Y-41034882D01*
X104702413Y-41059987D01*
X104702414Y-41059988D01*
X104731081Y-41124914D01*
X104740152Y-41194192D01*
X104731081Y-41225084D01*
X104702415Y-41290006D01*
X104702415Y-41290008D01*
X104699500Y-41315131D01*
X104699500Y-42304856D01*
X104699502Y-42304882D01*
X104702413Y-42329987D01*
X104702414Y-42329988D01*
X104731081Y-42394914D01*
X104740152Y-42464192D01*
X104731081Y-42495084D01*
X104702415Y-42560006D01*
X104702415Y-42560008D01*
X104699500Y-42585131D01*
X104699500Y-43574856D01*
X104699502Y-43574882D01*
X104702413Y-43599987D01*
X104702414Y-43599988D01*
X104731081Y-43664914D01*
X104740152Y-43734192D01*
X104731081Y-43765084D01*
X104702415Y-43830006D01*
X104702415Y-43830008D01*
X104699500Y-43855131D01*
X104699500Y-44447998D01*
X104679815Y-44515037D01*
X104627011Y-44560792D01*
X104557853Y-44570736D01*
X104525413Y-44561432D01*
X104504992Y-44552415D01*
X104479865Y-44549500D01*
X103490143Y-44549500D01*
X103490117Y-44549502D01*
X103465012Y-44552413D01*
X103465010Y-44552414D01*
X103400085Y-44581081D01*
X103330807Y-44590152D01*
X103299915Y-44581081D01*
X103234992Y-44552415D01*
X103209865Y-44549500D01*
X102220143Y-44549500D01*
X102220117Y-44549502D01*
X102195012Y-44552413D01*
X102195010Y-44552414D01*
X102130085Y-44581081D01*
X102060807Y-44590152D01*
X102029915Y-44581081D01*
X101964992Y-44552415D01*
X101939865Y-44549500D01*
X100950143Y-44549500D01*
X100950117Y-44549502D01*
X100925012Y-44552413D01*
X100925010Y-44552414D01*
X100860085Y-44581081D01*
X100790807Y-44590152D01*
X100759915Y-44581081D01*
X100694992Y-44552415D01*
X100669865Y-44549500D01*
X99680143Y-44549500D01*
X99680117Y-44549502D01*
X99655012Y-44552413D01*
X99655010Y-44552414D01*
X99590085Y-44581081D01*
X99520807Y-44590152D01*
X99489915Y-44581081D01*
X99424992Y-44552415D01*
X99399865Y-44549500D01*
X98410143Y-44549500D01*
X98410117Y-44549502D01*
X98385012Y-44552413D01*
X98385010Y-44552414D01*
X98320085Y-44581081D01*
X98250807Y-44590152D01*
X98219915Y-44581081D01*
X98154992Y-44552415D01*
X98129865Y-44549500D01*
X97140143Y-44549500D01*
X97140117Y-44549502D01*
X97115012Y-44552413D01*
X97115010Y-44552414D01*
X97050085Y-44581081D01*
X96980807Y-44590152D01*
X96949915Y-44581081D01*
X96884992Y-44552415D01*
X96859865Y-44549500D01*
X95870143Y-44549500D01*
X95870117Y-44549502D01*
X95845012Y-44552413D01*
X95845010Y-44552414D01*
X95780085Y-44581081D01*
X95710807Y-44590152D01*
X95679915Y-44581081D01*
X95614992Y-44552415D01*
X95589865Y-44549500D01*
X94600143Y-44549500D01*
X94600117Y-44549502D01*
X94575012Y-44552413D01*
X94575010Y-44552414D01*
X94510085Y-44581081D01*
X94440807Y-44590152D01*
X94409915Y-44581081D01*
X94344992Y-44552415D01*
X94319865Y-44549500D01*
X93330143Y-44549500D01*
X93330117Y-44549502D01*
X93305012Y-44552413D01*
X93305010Y-44552414D01*
X93240085Y-44581081D01*
X93170807Y-44590152D01*
X93139915Y-44581081D01*
X93074992Y-44552415D01*
X93049865Y-44549500D01*
X92060143Y-44549500D01*
X92060117Y-44549502D01*
X92035012Y-44552413D01*
X92035010Y-44552414D01*
X91970085Y-44581081D01*
X91900807Y-44590152D01*
X91869915Y-44581081D01*
X91804992Y-44552415D01*
X91779865Y-44549500D01*
X90790143Y-44549500D01*
X90790117Y-44549502D01*
X90765012Y-44552413D01*
X90765010Y-44552414D01*
X90700085Y-44581081D01*
X90630807Y-44590152D01*
X90599915Y-44581081D01*
X90534992Y-44552415D01*
X90509865Y-44549500D01*
X89520143Y-44549500D01*
X89520117Y-44549502D01*
X89495012Y-44552413D01*
X89476515Y-44560580D01*
X89474588Y-44561432D01*
X89474583Y-44561434D01*
X89405304Y-44570503D01*
X89342120Y-44540679D01*
X89305090Y-44481428D01*
X89300499Y-44447998D01*
X89300499Y-43855143D01*
X89300499Y-43855136D01*
X89300497Y-43855117D01*
X89297586Y-43830012D01*
X89297585Y-43830010D01*
X89297585Y-43830009D01*
X89268919Y-43765086D01*
X89259847Y-43695808D01*
X89268919Y-43664913D01*
X89297584Y-43599993D01*
X89297585Y-43599991D01*
X89300500Y-43574865D01*
X89300499Y-42585136D01*
X89299442Y-42576022D01*
X89297586Y-42560012D01*
X89297585Y-42560010D01*
X89297585Y-42560009D01*
X89268919Y-42495086D01*
X89259847Y-42425808D01*
X89268919Y-42394913D01*
X89297584Y-42329993D01*
X89297585Y-42329991D01*
X89300500Y-42304865D01*
X89300499Y-41315136D01*
X89297868Y-41292445D01*
X89297586Y-41290012D01*
X89297585Y-41290010D01*
X89297585Y-41290009D01*
X89268919Y-41225086D01*
X89259847Y-41155808D01*
X89268919Y-41124913D01*
X89270997Y-41120208D01*
X89297585Y-41059991D01*
X89300500Y-41034865D01*
X89300499Y-40045136D01*
X89300497Y-40045117D01*
X89297586Y-40020012D01*
X89297585Y-40020010D01*
X89297585Y-40020009D01*
X89268919Y-39955086D01*
X89259847Y-39885808D01*
X89268919Y-39854913D01*
X89297584Y-39789993D01*
X89297585Y-39789991D01*
X89300500Y-39764865D01*
X89300499Y-38775136D01*
X89298576Y-38758553D01*
X89297586Y-38750012D01*
X89297585Y-38750010D01*
X89297585Y-38750009D01*
X89268919Y-38685086D01*
X89259847Y-38615808D01*
X89268919Y-38584913D01*
X89297584Y-38519993D01*
X89297585Y-38519991D01*
X89300500Y-38494865D01*
X89300499Y-37505136D01*
X89300497Y-37505117D01*
X89297586Y-37480012D01*
X89297585Y-37480010D01*
X89297585Y-37480009D01*
X89268919Y-37415086D01*
X89259847Y-37345808D01*
X89268919Y-37314913D01*
X89291123Y-37264627D01*
X89297585Y-37249991D01*
X89300500Y-37224865D01*
X89300499Y-36235136D01*
X89300497Y-36235117D01*
X89297586Y-36210012D01*
X89297585Y-36210010D01*
X89297585Y-36210009D01*
X89268919Y-36145086D01*
X89259847Y-36075808D01*
X89268919Y-36044913D01*
X89297584Y-35979993D01*
X89297585Y-35979991D01*
X89300500Y-35954865D01*
X89300499Y-34965136D01*
X89298006Y-34943638D01*
X89297586Y-34940012D01*
X89297585Y-34940010D01*
X89297585Y-34940009D01*
X89268919Y-34875086D01*
X89259847Y-34805808D01*
X89268919Y-34774913D01*
X89297584Y-34709993D01*
X89297585Y-34709991D01*
X89300500Y-34684865D01*
X89300499Y-33695136D01*
X89299180Y-33683760D01*
X89297586Y-33670012D01*
X89297585Y-33670010D01*
X89297585Y-33670009D01*
X89268919Y-33605086D01*
X89259847Y-33535808D01*
X89268919Y-33504913D01*
X89279220Y-33481585D01*
X89297585Y-33439991D01*
X89300500Y-33414865D01*
X89300499Y-32425136D01*
X89300497Y-32425117D01*
X89297586Y-32400012D01*
X89297585Y-32400010D01*
X89297585Y-32400009D01*
X89268919Y-32335086D01*
X89259847Y-32265808D01*
X89268919Y-32234913D01*
X89294431Y-32177135D01*
X89297585Y-32169991D01*
X89300500Y-32144865D01*
X89300499Y-31155136D01*
X89298576Y-31138553D01*
X89297586Y-31130012D01*
X89297585Y-31130010D01*
X89297585Y-31130009D01*
X89268919Y-31065086D01*
X89259847Y-30995808D01*
X89268919Y-30964913D01*
X89282663Y-30933787D01*
X89297585Y-30899991D01*
X89300500Y-30874865D01*
X89300499Y-29934499D01*
X89320183Y-29867461D01*
X89372987Y-29821706D01*
X89424499Y-29810500D01*
X89670695Y-29810500D01*
X89761741Y-29792389D01*
X89806028Y-29783580D01*
X89933511Y-29730775D01*
X89986077Y-29695651D01*
X90007509Y-29684194D01*
X90048095Y-29667384D01*
X90171016Y-29585251D01*
X90275551Y-29480716D01*
X90357684Y-29357795D01*
X90414258Y-29221213D01*
X90443100Y-29076218D01*
X90443100Y-28928382D01*
X90443100Y-28928379D01*
X90414259Y-28783392D01*
X90414258Y-28783391D01*
X90414258Y-28783387D01*
X90372575Y-28682754D01*
X90357687Y-28646811D01*
X90357680Y-28646798D01*
X90275551Y-28523884D01*
X90275548Y-28523880D01*
X90171019Y-28419351D01*
X90171015Y-28419348D01*
X90048101Y-28337219D01*
X90048088Y-28337212D01*
X89911517Y-28280643D01*
X89911507Y-28280640D01*
X89766520Y-28251800D01*
X89766518Y-28251800D01*
X89618682Y-28251800D01*
X89618680Y-28251800D01*
X89473692Y-28280640D01*
X89473682Y-28280643D01*
X89337106Y-28337214D01*
X89337104Y-28337215D01*
X89264764Y-28385551D01*
X89198087Y-28406428D01*
X89145789Y-28395883D01*
X89122389Y-28385551D01*
X89069991Y-28362415D01*
X89044865Y-28359500D01*
X87455143Y-28359500D01*
X87455117Y-28359502D01*
X87430012Y-28362413D01*
X87430008Y-28362414D01*
X87347301Y-28398934D01*
X87297215Y-28409500D01*
X86271003Y-28409500D01*
X86162590Y-28431065D01*
X86162589Y-28431065D01*
X86149131Y-28433742D01*
X86135673Y-28436419D01*
X86098330Y-28451887D01*
X86066525Y-28465061D01*
X86019072Y-28474500D01*
X85656898Y-28474500D01*
X85617853Y-28479188D01*
X85568438Y-28485122D01*
X85427656Y-28540639D01*
X85307077Y-28632077D01*
X85215639Y-28752656D01*
X85160122Y-28893438D01*
X85155927Y-28928379D01*
X85149500Y-28981898D01*
X85149500Y-28981903D01*
X85149500Y-29483480D01*
X85129815Y-29550519D01*
X85113181Y-29571161D01*
X83494713Y-31189628D01*
X83433390Y-31223113D01*
X83420289Y-31225236D01*
X83409305Y-31226416D01*
X83367516Y-31230908D01*
X83232671Y-31281202D01*
X83232664Y-31281206D01*
X83117455Y-31367452D01*
X83117452Y-31367455D01*
X83031206Y-31482664D01*
X83031202Y-31482671D01*
X82980908Y-31617517D01*
X82974501Y-31677116D01*
X82974500Y-31677135D01*
X82974500Y-32322869D01*
X82974501Y-32322876D01*
X82980908Y-32382483D01*
X83031202Y-32517328D01*
X83031206Y-32517335D01*
X83117452Y-32632544D01*
X83122727Y-32637819D01*
X83156212Y-32699142D01*
X83151228Y-32768834D01*
X83109356Y-32824767D01*
X83043892Y-32849184D01*
X83035046Y-32849500D01*
X82318341Y-32849500D01*
X82251302Y-32829815D01*
X82219047Y-32795601D01*
X82217489Y-32796783D01*
X82125078Y-32674921D01*
X82009976Y-32587636D01*
X81875588Y-32534640D01*
X81832242Y-32529435D01*
X81791144Y-32524500D01*
X81208856Y-32524500D01*
X81170841Y-32529065D01*
X81124411Y-32534640D01*
X80990023Y-32587636D01*
X80874921Y-32674921D01*
X80782511Y-32796783D01*
X80780519Y-32795273D01*
X80739725Y-32835064D01*
X80681659Y-32849500D01*
X79534809Y-32849500D01*
X79467770Y-32829815D01*
X79447128Y-32813181D01*
X73345629Y-26711681D01*
X73312144Y-26650358D01*
X73317128Y-26580666D01*
X73359000Y-26524733D01*
X73424464Y-26500316D01*
X73433310Y-26500000D01*
X109675500Y-26500000D01*
X109742539Y-26519685D01*
X109788294Y-26572489D01*
X109799500Y-26624000D01*
X109799500Y-69675500D01*
X109779815Y-69742539D01*
X109727011Y-69788294D01*
X109675500Y-69799500D01*
X91643883Y-69799500D01*
X91576844Y-69779815D01*
X91531089Y-69727011D01*
X91521145Y-69657853D01*
X91529322Y-69628047D01*
X91589256Y-69483351D01*
X91589258Y-69483343D01*
X91619999Y-69328797D01*
X91620000Y-69328794D01*
X91620000Y-69150000D01*
X91120000Y-69150000D01*
X91120000Y-68750000D01*
X91620000Y-68750000D01*
X91620000Y-68571206D01*
X91619999Y-68571202D01*
X91589258Y-68416656D01*
X91589256Y-68416648D01*
X91528952Y-68271060D01*
X91528947Y-68271051D01*
X91441401Y-68140030D01*
X91441398Y-68140026D01*
X91329973Y-68028601D01*
X91329969Y-68028598D01*
X91198948Y-67941052D01*
X91198939Y-67941047D01*
X91053351Y-67880743D01*
X91053343Y-67880741D01*
X91020000Y-67874108D01*
X91020000Y-68425735D01*
X91004205Y-68409940D01*
X90935796Y-68370444D01*
X90859496Y-68350000D01*
X90780504Y-68350000D01*
X90704204Y-68370444D01*
X90635795Y-68409940D01*
X90620000Y-68425735D01*
X90620000Y-67874109D01*
X90619999Y-67874108D01*
X90586656Y-67880741D01*
X90586648Y-67880743D01*
X90441060Y-67941047D01*
X90441051Y-67941052D01*
X90310030Y-68028598D01*
X90310026Y-68028601D01*
X90198601Y-68140026D01*
X90198598Y-68140030D01*
X90111052Y-68271051D01*
X90111047Y-68271060D01*
X90050743Y-68416648D01*
X90050741Y-68416656D01*
X90020000Y-68571202D01*
X90020000Y-68750000D01*
X90520000Y-68750000D01*
X90520000Y-69150000D01*
X90020000Y-69150000D01*
X90020000Y-69328797D01*
X90050741Y-69483343D01*
X90050743Y-69483351D01*
X90110678Y-69628047D01*
X90118147Y-69697517D01*
X90086872Y-69759996D01*
X90026783Y-69795648D01*
X89996117Y-69799500D01*
X83003883Y-69799500D01*
X82936844Y-69779815D01*
X82891089Y-69727011D01*
X82881145Y-69657853D01*
X82889322Y-69628047D01*
X82949256Y-69483351D01*
X82949258Y-69483343D01*
X82979999Y-69328797D01*
X82980000Y-69328794D01*
X82980000Y-69150000D01*
X82480000Y-69150000D01*
X82480000Y-68750000D01*
X82980000Y-68750000D01*
X82980000Y-68571206D01*
X82979999Y-68571202D01*
X82949258Y-68416656D01*
X82949256Y-68416648D01*
X82888952Y-68271060D01*
X82888947Y-68271051D01*
X82801401Y-68140030D01*
X82801398Y-68140026D01*
X82689973Y-68028601D01*
X82689969Y-68028598D01*
X82558948Y-67941052D01*
X82558939Y-67941047D01*
X82413351Y-67880743D01*
X82413343Y-67880741D01*
X82380000Y-67874108D01*
X82380000Y-68425735D01*
X82364205Y-68409940D01*
X82295796Y-68370444D01*
X82219496Y-68350000D01*
X82140504Y-68350000D01*
X82064204Y-68370444D01*
X81995795Y-68409940D01*
X81980000Y-68425735D01*
X81980000Y-67874109D01*
X81979999Y-67874108D01*
X81946656Y-67880741D01*
X81946648Y-67880743D01*
X81801060Y-67941047D01*
X81801051Y-67941052D01*
X81670030Y-68028598D01*
X81670026Y-68028601D01*
X81558601Y-68140026D01*
X81558598Y-68140030D01*
X81471052Y-68271051D01*
X81471047Y-68271060D01*
X81410743Y-68416648D01*
X81410741Y-68416656D01*
X81380000Y-68571202D01*
X81380000Y-68750000D01*
X81880000Y-68750000D01*
X81880000Y-69150000D01*
X81380000Y-69150000D01*
X81380000Y-69328797D01*
X81410741Y-69483343D01*
X81410743Y-69483351D01*
X81470678Y-69628047D01*
X81478147Y-69697517D01*
X81446872Y-69759996D01*
X81386783Y-69795648D01*
X81356117Y-69799500D01*
X20324500Y-69799500D01*
X20257461Y-69779815D01*
X20211706Y-69727011D01*
X20200500Y-69675500D01*
X20200500Y-65878711D01*
X22649500Y-65878711D01*
X22649500Y-66121288D01*
X22681161Y-66361785D01*
X22743947Y-66596104D01*
X22836773Y-66820205D01*
X22836776Y-66820212D01*
X22958064Y-67030289D01*
X22958066Y-67030292D01*
X22958067Y-67030293D01*
X23105733Y-67222736D01*
X23105739Y-67222743D01*
X23277256Y-67394260D01*
X23277263Y-67394266D01*
X23390321Y-67481018D01*
X23469711Y-67541936D01*
X23679788Y-67663224D01*
X23903900Y-67756054D01*
X24138211Y-67818838D01*
X24318586Y-67842584D01*
X24378711Y-67850500D01*
X24378712Y-67850500D01*
X24621289Y-67850500D01*
X24669388Y-67844167D01*
X24861789Y-67818838D01*
X25096100Y-67756054D01*
X25320212Y-67663224D01*
X25530289Y-67541936D01*
X25722738Y-67394265D01*
X25894265Y-67222738D01*
X26041936Y-67030289D01*
X26163224Y-66820212D01*
X26256054Y-66596100D01*
X26318838Y-66361789D01*
X26350500Y-66121288D01*
X26350500Y-65878712D01*
X26349428Y-65870573D01*
X26331393Y-65733576D01*
X26318838Y-65638211D01*
X26256054Y-65403900D01*
X26163224Y-65179788D01*
X26041936Y-64969711D01*
X25894265Y-64777262D01*
X25894260Y-64777256D01*
X25722743Y-64605739D01*
X25722736Y-64605733D01*
X25530293Y-64458067D01*
X25530292Y-64458066D01*
X25530289Y-64458064D01*
X25320212Y-64336776D01*
X25285148Y-64322252D01*
X25096104Y-64243947D01*
X24929059Y-64199187D01*
X24861789Y-64181162D01*
X24861788Y-64181161D01*
X24861785Y-64181161D01*
X24621289Y-64149500D01*
X24621288Y-64149500D01*
X24378712Y-64149500D01*
X24378711Y-64149500D01*
X24138214Y-64181161D01*
X23903895Y-64243947D01*
X23679794Y-64336773D01*
X23679785Y-64336777D01*
X23469706Y-64458067D01*
X23277263Y-64605733D01*
X23277256Y-64605739D01*
X23105739Y-64777256D01*
X23105733Y-64777263D01*
X22958067Y-64969706D01*
X22836777Y-65179785D01*
X22836773Y-65179794D01*
X22743947Y-65403895D01*
X22681161Y-65638214D01*
X22649500Y-65878711D01*
X20200500Y-65878711D01*
X20200500Y-57893713D01*
X20899500Y-57893713D01*
X20899500Y-58106286D01*
X20930626Y-58302811D01*
X20932754Y-58316243D01*
X20984529Y-58475590D01*
X20998444Y-58518414D01*
X21094951Y-58707820D01*
X21219890Y-58879786D01*
X21370213Y-59030109D01*
X21542179Y-59155048D01*
X21542181Y-59155049D01*
X21542184Y-59155051D01*
X21731588Y-59251557D01*
X21933757Y-59317246D01*
X22143713Y-59350500D01*
X22143714Y-59350500D01*
X22356286Y-59350500D01*
X22356287Y-59350500D01*
X22566243Y-59317246D01*
X22768412Y-59251557D01*
X22957816Y-59155051D01*
X23005114Y-59120687D01*
X23129786Y-59030109D01*
X23129788Y-59030106D01*
X23129792Y-59030104D01*
X23280104Y-58879792D01*
X23280106Y-58879788D01*
X23280109Y-58879786D01*
X23389086Y-58729789D01*
X23405051Y-58707816D01*
X23501557Y-58518412D01*
X23567246Y-58316243D01*
X23600500Y-58106287D01*
X23600500Y-57893713D01*
X23899500Y-57893713D01*
X23899500Y-58106286D01*
X23930626Y-58302811D01*
X23932754Y-58316243D01*
X23984529Y-58475590D01*
X23998444Y-58518414D01*
X24094951Y-58707820D01*
X24219890Y-58879786D01*
X24370213Y-59030109D01*
X24542179Y-59155048D01*
X24542181Y-59155049D01*
X24542184Y-59155051D01*
X24731588Y-59251557D01*
X24933757Y-59317246D01*
X25143713Y-59350500D01*
X25143714Y-59350500D01*
X25356286Y-59350500D01*
X25356287Y-59350500D01*
X25512771Y-59325715D01*
X25582064Y-59334670D01*
X25619850Y-59360507D01*
X28238181Y-61978838D01*
X28271666Y-62040161D01*
X28274500Y-62066519D01*
X28274500Y-62668102D01*
X28280126Y-62714954D01*
X28285122Y-62756561D01*
X28285122Y-62756563D01*
X28285123Y-62756564D01*
X28291600Y-62772989D01*
X28340639Y-62897343D01*
X28432077Y-63017922D01*
X28552656Y-63109360D01*
X28552657Y-63109360D01*
X28552658Y-63109361D01*
X28693436Y-63164877D01*
X28781898Y-63175500D01*
X28781903Y-63175500D01*
X29618097Y-63175500D01*
X29618102Y-63175500D01*
X29706564Y-63164877D01*
X29847342Y-63109361D01*
X29967922Y-63017922D01*
X30059361Y-62897342D01*
X30114877Y-62756564D01*
X30125500Y-62668102D01*
X30125500Y-61331898D01*
X31074500Y-61331898D01*
X31074500Y-62668102D01*
X31080126Y-62714954D01*
X31085122Y-62756561D01*
X31085122Y-62756563D01*
X31085123Y-62756564D01*
X31091600Y-62772989D01*
X31140639Y-62897343D01*
X31232077Y-63017922D01*
X31352656Y-63109360D01*
X31352657Y-63109360D01*
X31352658Y-63109361D01*
X31493436Y-63164877D01*
X31581898Y-63175500D01*
X31581903Y-63175500D01*
X32418097Y-63175500D01*
X32418102Y-63175500D01*
X32506564Y-63164877D01*
X32647342Y-63109361D01*
X32767922Y-63017922D01*
X32859361Y-62897342D01*
X32889196Y-62821686D01*
X32906026Y-62779010D01*
X32948931Y-62723866D01*
X33014839Y-62700673D01*
X33021380Y-62700500D01*
X33943761Y-62700500D01*
X34010800Y-62720185D01*
X34056555Y-62772989D01*
X34059115Y-62779010D01*
X34115637Y-62922339D01*
X34115638Y-62922341D01*
X34207077Y-63042922D01*
X34327656Y-63134360D01*
X34327657Y-63134360D01*
X34327658Y-63134361D01*
X34468436Y-63189877D01*
X34556898Y-63200500D01*
X34556903Y-63200500D01*
X36443097Y-63200500D01*
X36443102Y-63200500D01*
X36531564Y-63189877D01*
X36672342Y-63134361D01*
X36792922Y-63042922D01*
X36884361Y-62922342D01*
X36939877Y-62781564D01*
X36950500Y-62693102D01*
X36950500Y-60606898D01*
X36939877Y-60518436D01*
X36884361Y-60377658D01*
X36884360Y-60377657D01*
X36884360Y-60377656D01*
X36792922Y-60257077D01*
X36672343Y-60165639D01*
X36531561Y-60110122D01*
X36485926Y-60104642D01*
X36443102Y-60099500D01*
X36443097Y-60099500D01*
X36265700Y-60099500D01*
X36198661Y-60079815D01*
X36152906Y-60027011D01*
X36141700Y-59975500D01*
X36141700Y-58920558D01*
X36151139Y-58873106D01*
X36156868Y-58859272D01*
X36162858Y-58844813D01*
X36179942Y-58758929D01*
X36191700Y-58699820D01*
X36191700Y-58551979D01*
X36162859Y-58406992D01*
X36162858Y-58406991D01*
X36162858Y-58406987D01*
X36152734Y-58382546D01*
X36106287Y-58270411D01*
X36106280Y-58270398D01*
X36024151Y-58147484D01*
X36024148Y-58147480D01*
X35919619Y-58042951D01*
X35919615Y-58042948D01*
X35796701Y-57960819D01*
X35796688Y-57960812D01*
X35660117Y-57904243D01*
X35660107Y-57904240D01*
X35515120Y-57875400D01*
X35515118Y-57875400D01*
X35367282Y-57875400D01*
X35367280Y-57875400D01*
X35222292Y-57904240D01*
X35222282Y-57904243D01*
X35085711Y-57960812D01*
X35085698Y-57960819D01*
X34962784Y-58042948D01*
X34962780Y-58042951D01*
X34858251Y-58147480D01*
X34858248Y-58147484D01*
X34776119Y-58270398D01*
X34776112Y-58270411D01*
X34719543Y-58406982D01*
X34719540Y-58406992D01*
X34690700Y-58551979D01*
X34690700Y-58551982D01*
X34690700Y-58699818D01*
X34690700Y-58699820D01*
X34690699Y-58699820D01*
X34719540Y-58844807D01*
X34719543Y-58844817D01*
X34731261Y-58873106D01*
X34740700Y-58920558D01*
X34740700Y-59975500D01*
X34721015Y-60042539D01*
X34668211Y-60088294D01*
X34616700Y-60099500D01*
X34556898Y-60099500D01*
X34517853Y-60104188D01*
X34468438Y-60110122D01*
X34327656Y-60165639D01*
X34207077Y-60257077D01*
X34115639Y-60377656D01*
X34060122Y-60518438D01*
X34055997Y-60552792D01*
X34049500Y-60606898D01*
X34049500Y-60606903D01*
X34049500Y-61175500D01*
X34029815Y-61242539D01*
X33977011Y-61288294D01*
X33925500Y-61299500D01*
X33021380Y-61299500D01*
X32954341Y-61279815D01*
X32908586Y-61227011D01*
X32906026Y-61220990D01*
X32859362Y-61102660D01*
X32859361Y-61102658D01*
X32767922Y-60982077D01*
X32647343Y-60890639D01*
X32506561Y-60835122D01*
X32460926Y-60829642D01*
X32418102Y-60824500D01*
X31581898Y-60824500D01*
X31542853Y-60829188D01*
X31493438Y-60835122D01*
X31352656Y-60890639D01*
X31232077Y-60982077D01*
X31140639Y-61102656D01*
X31085122Y-61243438D01*
X31080754Y-61279815D01*
X31074500Y-61331898D01*
X30125500Y-61331898D01*
X30114877Y-61243436D01*
X30059361Y-61102658D01*
X30059360Y-61102657D01*
X30059360Y-61102656D01*
X29967922Y-60982077D01*
X29847343Y-60890639D01*
X29706561Y-60835122D01*
X29660926Y-60829642D01*
X29618102Y-60824500D01*
X29618097Y-60824500D01*
X29116519Y-60824500D01*
X29049480Y-60804815D01*
X29028838Y-60788181D01*
X26610507Y-58369850D01*
X26577022Y-58308527D01*
X26575715Y-58262771D01*
X26577924Y-58248828D01*
X26600500Y-58106287D01*
X26600500Y-57893713D01*
X26567246Y-57683757D01*
X26501557Y-57481588D01*
X26405051Y-57292184D01*
X26405049Y-57292181D01*
X26405048Y-57292179D01*
X26280109Y-57120213D01*
X26129786Y-56969890D01*
X25957820Y-56844951D01*
X25768414Y-56748444D01*
X25768413Y-56748443D01*
X25768412Y-56748443D01*
X25566243Y-56682754D01*
X25566241Y-56682753D01*
X25566240Y-56682753D01*
X25399113Y-56656283D01*
X25356287Y-56649500D01*
X25143713Y-56649500D01*
X25100887Y-56656283D01*
X24933760Y-56682753D01*
X24731585Y-56748444D01*
X24542179Y-56844951D01*
X24370213Y-56969890D01*
X24219890Y-57120213D01*
X24094951Y-57292179D01*
X23998444Y-57481585D01*
X23932753Y-57683760D01*
X23899500Y-57893713D01*
X23600500Y-57893713D01*
X23567246Y-57683757D01*
X23501557Y-57481588D01*
X23405051Y-57292184D01*
X23405049Y-57292181D01*
X23405048Y-57292179D01*
X23280109Y-57120213D01*
X23129786Y-56969890D01*
X22957820Y-56844951D01*
X22768414Y-56748444D01*
X22768413Y-56748443D01*
X22768412Y-56748443D01*
X22566243Y-56682754D01*
X22566241Y-56682753D01*
X22566240Y-56682753D01*
X22399113Y-56656283D01*
X22356287Y-56649500D01*
X22143713Y-56649500D01*
X22100887Y-56656283D01*
X21933760Y-56682753D01*
X21731585Y-56748444D01*
X21542179Y-56844951D01*
X21370213Y-56969890D01*
X21219890Y-57120213D01*
X21094951Y-57292179D01*
X20998444Y-57481585D01*
X20932753Y-57683760D01*
X20899500Y-57893713D01*
X20200500Y-57893713D01*
X20200500Y-49893713D01*
X20899500Y-49893713D01*
X20899500Y-50106286D01*
X20928075Y-50286705D01*
X20932754Y-50316243D01*
X20979503Y-50460122D01*
X20998444Y-50518414D01*
X21094951Y-50707820D01*
X21219890Y-50879786D01*
X21370213Y-51030109D01*
X21542179Y-51155048D01*
X21542181Y-51155049D01*
X21542184Y-51155051D01*
X21731588Y-51251557D01*
X21933757Y-51317246D01*
X22143713Y-51350500D01*
X22143714Y-51350500D01*
X22356286Y-51350500D01*
X22356287Y-51350500D01*
X22566243Y-51317246D01*
X22768412Y-51251557D01*
X22957816Y-51155051D01*
X23047521Y-51089877D01*
X23129786Y-51030109D01*
X23129788Y-51030106D01*
X23129792Y-51030104D01*
X23280104Y-50879792D01*
X23280106Y-50879788D01*
X23280109Y-50879786D01*
X23405048Y-50707820D01*
X23405047Y-50707820D01*
X23405051Y-50707816D01*
X23501557Y-50518412D01*
X23567246Y-50316243D01*
X23600500Y-50106287D01*
X23600500Y-49893713D01*
X23899500Y-49893713D01*
X23899500Y-50106286D01*
X23928075Y-50286705D01*
X23932754Y-50316243D01*
X23979503Y-50460122D01*
X23998444Y-50518414D01*
X24094951Y-50707820D01*
X24219890Y-50879786D01*
X24370213Y-51030109D01*
X24542179Y-51155048D01*
X24542181Y-51155049D01*
X24542184Y-51155051D01*
X24731588Y-51251557D01*
X24933757Y-51317246D01*
X25143713Y-51350500D01*
X25143714Y-51350500D01*
X25356286Y-51350500D01*
X25356287Y-51350500D01*
X25566243Y-51317246D01*
X25768412Y-51251557D01*
X25957816Y-51155051D01*
X26047521Y-51089877D01*
X26129786Y-51030109D01*
X26129788Y-51030106D01*
X26129792Y-51030104D01*
X26280104Y-50879792D01*
X26280106Y-50879788D01*
X26280109Y-50879786D01*
X26405048Y-50707820D01*
X26405047Y-50707820D01*
X26405051Y-50707816D01*
X26501557Y-50518412D01*
X26567246Y-50316243D01*
X26600500Y-50106287D01*
X26600500Y-49893713D01*
X26567246Y-49683757D01*
X26501557Y-49481588D01*
X26405051Y-49292184D01*
X26405049Y-49292181D01*
X26405048Y-49292179D01*
X26280109Y-49120213D01*
X26129786Y-48969890D01*
X25957820Y-48844951D01*
X25768414Y-48748444D01*
X25768413Y-48748443D01*
X25768412Y-48748443D01*
X25566243Y-48682754D01*
X25566241Y-48682753D01*
X25566240Y-48682753D01*
X25404957Y-48657208D01*
X25356287Y-48649500D01*
X25143713Y-48649500D01*
X25095042Y-48657208D01*
X24933760Y-48682753D01*
X24731585Y-48748444D01*
X24542179Y-48844951D01*
X24370213Y-48969890D01*
X24219890Y-49120213D01*
X24094951Y-49292179D01*
X23998444Y-49481585D01*
X23998443Y-49481587D01*
X23998443Y-49481588D01*
X23975351Y-49552658D01*
X23932753Y-49683760D01*
X23899500Y-49893713D01*
X23600500Y-49893713D01*
X23567246Y-49683757D01*
X23501557Y-49481588D01*
X23405051Y-49292184D01*
X23405049Y-49292181D01*
X23405048Y-49292179D01*
X23280109Y-49120213D01*
X23129786Y-48969890D01*
X22957820Y-48844951D01*
X22768414Y-48748444D01*
X22768413Y-48748443D01*
X22768412Y-48748443D01*
X22566243Y-48682754D01*
X22566241Y-48682753D01*
X22566240Y-48682753D01*
X22404957Y-48657208D01*
X22356287Y-48649500D01*
X22143713Y-48649500D01*
X22095042Y-48657208D01*
X21933760Y-48682753D01*
X21731585Y-48748444D01*
X21542179Y-48844951D01*
X21370213Y-48969890D01*
X21219890Y-49120213D01*
X21094951Y-49292179D01*
X20998444Y-49481585D01*
X20998443Y-49481587D01*
X20998443Y-49481588D01*
X20975351Y-49552658D01*
X20932753Y-49683760D01*
X20899500Y-49893713D01*
X20200500Y-49893713D01*
X20200500Y-45893753D01*
X20900000Y-45893753D01*
X20900000Y-46106246D01*
X20933242Y-46316127D01*
X20933242Y-46316130D01*
X20998904Y-46518217D01*
X21095375Y-46707550D01*
X21164484Y-46802672D01*
X21669669Y-46297487D01*
X21673978Y-46307890D01*
X21745112Y-46414351D01*
X21835649Y-46504888D01*
X21942110Y-46576022D01*
X21952510Y-46580330D01*
X21447326Y-47085513D01*
X21447326Y-47085515D01*
X21542442Y-47154620D01*
X21731782Y-47251095D01*
X21933870Y-47316757D01*
X22143754Y-47350000D01*
X22356246Y-47350000D01*
X22566127Y-47316757D01*
X22566130Y-47316757D01*
X22768217Y-47251095D01*
X22957554Y-47154622D01*
X23052672Y-47085514D01*
X23052673Y-47085514D01*
X22547488Y-46580330D01*
X22557890Y-46576022D01*
X22664351Y-46504888D01*
X22754888Y-46414351D01*
X22826022Y-46307890D01*
X22830330Y-46297488D01*
X23335514Y-46802673D01*
X23335514Y-46802672D01*
X23404622Y-46707554D01*
X23501095Y-46518217D01*
X23566757Y-46316130D01*
X23566757Y-46316127D01*
X23600000Y-46106246D01*
X23600000Y-45893753D01*
X23599994Y-45893713D01*
X23899500Y-45893713D01*
X23899500Y-46106286D01*
X23932735Y-46316127D01*
X23932754Y-46316243D01*
X23993338Y-46502702D01*
X23998444Y-46518414D01*
X24094951Y-46707820D01*
X24219890Y-46879786D01*
X24370213Y-47030109D01*
X24542179Y-47155048D01*
X24542181Y-47155049D01*
X24542184Y-47155051D01*
X24731588Y-47251557D01*
X24933757Y-47317246D01*
X25143713Y-47350500D01*
X25143714Y-47350500D01*
X25356286Y-47350500D01*
X25356287Y-47350500D01*
X25566243Y-47317246D01*
X25768412Y-47251557D01*
X25957816Y-47155051D01*
X26053525Y-47085515D01*
X26129786Y-47030109D01*
X26129788Y-47030106D01*
X26129792Y-47030104D01*
X26280104Y-46879792D01*
X26280106Y-46879788D01*
X26280109Y-46879786D01*
X26405048Y-46707820D01*
X26405047Y-46707820D01*
X26405051Y-46707816D01*
X26501557Y-46518412D01*
X26567246Y-46316243D01*
X26600500Y-46106287D01*
X26600500Y-45893713D01*
X26567246Y-45683757D01*
X26501557Y-45481588D01*
X26405051Y-45292184D01*
X26405049Y-45292181D01*
X26405048Y-45292179D01*
X26280109Y-45120213D01*
X26129786Y-44969890D01*
X25957820Y-44844951D01*
X25768414Y-44748444D01*
X25768413Y-44748443D01*
X25768412Y-44748443D01*
X25566243Y-44682754D01*
X25566241Y-44682753D01*
X25566240Y-44682753D01*
X25367323Y-44651248D01*
X25356287Y-44649500D01*
X25143713Y-44649500D01*
X25132677Y-44651248D01*
X24933760Y-44682753D01*
X24731585Y-44748444D01*
X24542179Y-44844951D01*
X24370213Y-44969890D01*
X24219890Y-45120213D01*
X24094951Y-45292179D01*
X23998444Y-45481585D01*
X23932753Y-45683760D01*
X23899500Y-45893713D01*
X23599994Y-45893713D01*
X23566757Y-45683872D01*
X23566757Y-45683869D01*
X23501095Y-45481782D01*
X23404620Y-45292442D01*
X23335515Y-45197326D01*
X23335513Y-45197326D01*
X22830330Y-45702510D01*
X22826022Y-45692110D01*
X22754888Y-45585649D01*
X22664351Y-45495112D01*
X22557890Y-45423978D01*
X22547488Y-45419669D01*
X23052672Y-44914484D01*
X22957550Y-44845375D01*
X22768217Y-44748904D01*
X22566129Y-44683242D01*
X22356246Y-44650000D01*
X22143754Y-44650000D01*
X21933872Y-44683242D01*
X21933869Y-44683242D01*
X21731782Y-44748904D01*
X21542447Y-44845376D01*
X21542445Y-44845377D01*
X21447326Y-44914483D01*
X21447326Y-44914484D01*
X21952511Y-45419669D01*
X21942110Y-45423978D01*
X21835649Y-45495112D01*
X21745112Y-45585649D01*
X21673978Y-45692110D01*
X21669669Y-45702511D01*
X21164484Y-45197326D01*
X21164483Y-45197326D01*
X21095377Y-45292445D01*
X21095376Y-45292447D01*
X20998904Y-45481782D01*
X20933242Y-45683869D01*
X20933242Y-45683872D01*
X20900000Y-45893753D01*
X20200500Y-45893753D01*
X20200500Y-41893753D01*
X20900000Y-41893753D01*
X20900000Y-42106246D01*
X20933242Y-42316127D01*
X20933242Y-42316130D01*
X20998904Y-42518217D01*
X21095375Y-42707550D01*
X21164484Y-42802672D01*
X21669669Y-42297487D01*
X21673978Y-42307890D01*
X21745112Y-42414351D01*
X21835649Y-42504888D01*
X21942110Y-42576022D01*
X21952510Y-42580330D01*
X21447326Y-43085513D01*
X21447326Y-43085515D01*
X21542442Y-43154620D01*
X21731782Y-43251095D01*
X21933870Y-43316757D01*
X22143754Y-43350000D01*
X22356246Y-43350000D01*
X22566127Y-43316757D01*
X22566130Y-43316757D01*
X22768217Y-43251095D01*
X22957554Y-43154622D01*
X23052672Y-43085514D01*
X23052673Y-43085514D01*
X22547488Y-42580330D01*
X22557890Y-42576022D01*
X22664351Y-42504888D01*
X22754888Y-42414351D01*
X22826022Y-42307890D01*
X22830330Y-42297488D01*
X23335514Y-42802673D01*
X23335514Y-42802672D01*
X23404622Y-42707554D01*
X23501095Y-42518217D01*
X23566757Y-42316130D01*
X23566757Y-42316127D01*
X23600000Y-42106246D01*
X23600000Y-41893753D01*
X23599994Y-41893713D01*
X23899500Y-41893713D01*
X23899500Y-42106286D01*
X23932735Y-42316127D01*
X23932754Y-42316243D01*
X23990863Y-42495084D01*
X23998444Y-42518414D01*
X24094951Y-42707820D01*
X24219890Y-42879786D01*
X24370213Y-43030109D01*
X24542179Y-43155048D01*
X24542181Y-43155049D01*
X24542184Y-43155051D01*
X24731588Y-43251557D01*
X24933757Y-43317246D01*
X25143713Y-43350500D01*
X25143714Y-43350500D01*
X25356286Y-43350500D01*
X25356287Y-43350500D01*
X25566243Y-43317246D01*
X25768412Y-43251557D01*
X25957816Y-43155051D01*
X26053525Y-43085515D01*
X26129786Y-43030109D01*
X26129788Y-43030106D01*
X26129792Y-43030104D01*
X26280104Y-42879792D01*
X26280106Y-42879788D01*
X26280109Y-42879786D01*
X26405048Y-42707820D01*
X26405047Y-42707820D01*
X26405051Y-42707816D01*
X26501557Y-42518412D01*
X26567246Y-42316243D01*
X26600500Y-42106287D01*
X26600500Y-41893713D01*
X26567246Y-41683757D01*
X26501557Y-41481588D01*
X26405051Y-41292184D01*
X26405049Y-41292181D01*
X26405048Y-41292179D01*
X26280109Y-41120213D01*
X26129786Y-40969890D01*
X25957820Y-40844951D01*
X25768414Y-40748444D01*
X25768413Y-40748443D01*
X25768412Y-40748443D01*
X25566243Y-40682754D01*
X25566241Y-40682753D01*
X25566240Y-40682753D01*
X25404957Y-40657208D01*
X25356287Y-40649500D01*
X25143713Y-40649500D01*
X25095042Y-40657208D01*
X24933760Y-40682753D01*
X24731585Y-40748444D01*
X24542179Y-40844951D01*
X24370213Y-40969890D01*
X24219890Y-41120213D01*
X24094951Y-41292179D01*
X23998444Y-41481585D01*
X23932753Y-41683760D01*
X23899500Y-41893713D01*
X23599994Y-41893713D01*
X23566757Y-41683872D01*
X23566757Y-41683869D01*
X23501095Y-41481782D01*
X23404620Y-41292442D01*
X23335515Y-41197326D01*
X23335513Y-41197326D01*
X22830330Y-41702510D01*
X22826022Y-41692110D01*
X22754888Y-41585649D01*
X22664351Y-41495112D01*
X22557890Y-41423978D01*
X22547488Y-41419669D01*
X23052672Y-40914484D01*
X22957550Y-40845375D01*
X22768217Y-40748904D01*
X22566129Y-40683242D01*
X22356246Y-40650000D01*
X22143754Y-40650000D01*
X21933872Y-40683242D01*
X21933869Y-40683242D01*
X21731782Y-40748904D01*
X21542447Y-40845376D01*
X21542445Y-40845377D01*
X21447326Y-40914483D01*
X21447326Y-40914484D01*
X21952511Y-41419669D01*
X21942110Y-41423978D01*
X21835649Y-41495112D01*
X21745112Y-41585649D01*
X21673978Y-41692110D01*
X21669669Y-41702511D01*
X21164484Y-41197326D01*
X21164483Y-41197326D01*
X21095377Y-41292445D01*
X21095376Y-41292447D01*
X20998904Y-41481782D01*
X20933242Y-41683869D01*
X20933242Y-41683872D01*
X20900000Y-41893753D01*
X20200500Y-41893753D01*
X20200500Y-37893713D01*
X20899500Y-37893713D01*
X20899500Y-38106287D01*
X20932754Y-38316243D01*
X20987509Y-38484762D01*
X20998444Y-38518414D01*
X21094951Y-38707820D01*
X21219890Y-38879786D01*
X21370213Y-39030109D01*
X21542179Y-39155048D01*
X21542181Y-39155049D01*
X21542184Y-39155051D01*
X21731588Y-39251557D01*
X21933757Y-39317246D01*
X22143713Y-39350500D01*
X22143714Y-39350500D01*
X22356286Y-39350500D01*
X22356287Y-39350500D01*
X22566243Y-39317246D01*
X22768412Y-39251557D01*
X22957816Y-39155051D01*
X23025660Y-39105760D01*
X23129786Y-39030109D01*
X23129788Y-39030106D01*
X23129792Y-39030104D01*
X23280104Y-38879792D01*
X23280106Y-38879788D01*
X23280109Y-38879786D01*
X23405048Y-38707820D01*
X23405047Y-38707820D01*
X23405051Y-38707816D01*
X23501557Y-38518412D01*
X23567246Y-38316243D01*
X23600500Y-38106287D01*
X23600500Y-37893713D01*
X23899500Y-37893713D01*
X23899500Y-38106287D01*
X23932754Y-38316243D01*
X23987509Y-38484762D01*
X23998444Y-38518414D01*
X24094951Y-38707820D01*
X24219890Y-38879786D01*
X24370213Y-39030109D01*
X24542179Y-39155048D01*
X24542181Y-39155049D01*
X24542184Y-39155051D01*
X24731588Y-39251557D01*
X24933757Y-39317246D01*
X25143713Y-39350500D01*
X25143714Y-39350500D01*
X25356286Y-39350500D01*
X25356287Y-39350500D01*
X25566243Y-39317246D01*
X25768412Y-39251557D01*
X25957816Y-39155051D01*
X26025660Y-39105760D01*
X26129786Y-39030109D01*
X26129788Y-39030106D01*
X26129792Y-39030104D01*
X26280104Y-38879792D01*
X26280106Y-38879788D01*
X26280109Y-38879786D01*
X26405048Y-38707820D01*
X26405047Y-38707820D01*
X26405051Y-38707816D01*
X26501557Y-38518412D01*
X26567246Y-38316243D01*
X26600500Y-38106287D01*
X26600500Y-37893713D01*
X26567246Y-37683757D01*
X26501557Y-37481588D01*
X26405051Y-37292184D01*
X26405049Y-37292181D01*
X26405048Y-37292179D01*
X26353714Y-37221523D01*
X26280109Y-37120213D01*
X26129786Y-36969890D01*
X25957820Y-36844951D01*
X25768414Y-36748444D01*
X25768413Y-36748443D01*
X25768412Y-36748443D01*
X25566243Y-36682754D01*
X25566241Y-36682753D01*
X25566240Y-36682753D01*
X25404957Y-36657208D01*
X25356287Y-36649500D01*
X25143713Y-36649500D01*
X25095042Y-36657208D01*
X24933760Y-36682753D01*
X24731585Y-36748444D01*
X24542179Y-36844951D01*
X24370213Y-36969890D01*
X24219890Y-37120213D01*
X24094951Y-37292179D01*
X23998444Y-37481585D01*
X23932753Y-37683760D01*
X23909180Y-37832597D01*
X23899500Y-37893713D01*
X23600500Y-37893713D01*
X23567246Y-37683757D01*
X23501557Y-37481588D01*
X23405051Y-37292184D01*
X23405049Y-37292181D01*
X23405048Y-37292179D01*
X23280109Y-37120213D01*
X23129786Y-36969890D01*
X22957820Y-36844951D01*
X22768414Y-36748444D01*
X22768413Y-36748443D01*
X22768412Y-36748443D01*
X22566243Y-36682754D01*
X22566241Y-36682753D01*
X22566240Y-36682753D01*
X22404957Y-36657208D01*
X22356287Y-36649500D01*
X22143713Y-36649500D01*
X22095042Y-36657208D01*
X21933760Y-36682753D01*
X21731585Y-36748444D01*
X21542179Y-36844951D01*
X21370213Y-36969890D01*
X21219890Y-37120213D01*
X21094951Y-37292179D01*
X20998444Y-37481585D01*
X20932753Y-37683760D01*
X20909180Y-37832597D01*
X20899500Y-37893713D01*
X20200500Y-37893713D01*
X20200500Y-33893713D01*
X20899500Y-33893713D01*
X20899500Y-34106286D01*
X20923759Y-34259455D01*
X20932754Y-34316243D01*
X20963040Y-34409454D01*
X20998444Y-34518414D01*
X21094951Y-34707820D01*
X21219890Y-34879786D01*
X21370213Y-35030109D01*
X21542179Y-35155048D01*
X21542181Y-35155049D01*
X21542184Y-35155051D01*
X21731588Y-35251557D01*
X21933757Y-35317246D01*
X22143713Y-35350500D01*
X22143714Y-35350500D01*
X22356286Y-35350500D01*
X22356287Y-35350500D01*
X22566243Y-35317246D01*
X22768412Y-35251557D01*
X22957816Y-35155051D01*
X23029467Y-35102994D01*
X23129786Y-35030109D01*
X23129788Y-35030106D01*
X23129792Y-35030104D01*
X23280104Y-34879792D01*
X23280106Y-34879788D01*
X23280109Y-34879786D01*
X23405048Y-34707820D01*
X23405047Y-34707820D01*
X23405051Y-34707816D01*
X23501557Y-34518412D01*
X23567246Y-34316243D01*
X23600500Y-34106287D01*
X23600500Y-33893713D01*
X23899500Y-33893713D01*
X23899500Y-34106286D01*
X23923759Y-34259455D01*
X23932754Y-34316243D01*
X23963040Y-34409454D01*
X23998444Y-34518414D01*
X24094951Y-34707820D01*
X24219890Y-34879786D01*
X24370213Y-35030109D01*
X24542179Y-35155048D01*
X24542181Y-35155049D01*
X24542184Y-35155051D01*
X24731588Y-35251557D01*
X24933757Y-35317246D01*
X25143713Y-35350500D01*
X25143714Y-35350500D01*
X25356286Y-35350500D01*
X25356287Y-35350500D01*
X25566243Y-35317246D01*
X25768412Y-35251557D01*
X25957816Y-35155051D01*
X26029467Y-35102994D01*
X26129786Y-35030109D01*
X26129788Y-35030106D01*
X26129792Y-35030104D01*
X26280104Y-34879792D01*
X26280106Y-34879788D01*
X26280109Y-34879786D01*
X26405048Y-34707820D01*
X26405047Y-34707820D01*
X26405051Y-34707816D01*
X26501557Y-34518412D01*
X26567246Y-34316243D01*
X26600500Y-34106287D01*
X26600500Y-33893713D01*
X26567246Y-33683757D01*
X26501557Y-33481588D01*
X26405051Y-33292184D01*
X26405049Y-33292181D01*
X26405048Y-33292179D01*
X26280109Y-33120213D01*
X26129786Y-32969890D01*
X25957820Y-32844951D01*
X25768414Y-32748444D01*
X25768413Y-32748443D01*
X25768412Y-32748443D01*
X25566243Y-32682754D01*
X25566241Y-32682753D01*
X25566240Y-32682753D01*
X25404957Y-32657208D01*
X25356287Y-32649500D01*
X25143713Y-32649500D01*
X25095042Y-32657208D01*
X24933760Y-32682753D01*
X24731585Y-32748444D01*
X24542179Y-32844951D01*
X24370213Y-32969890D01*
X24219890Y-33120213D01*
X24094951Y-33292179D01*
X23998444Y-33481585D01*
X23932753Y-33683760D01*
X23899500Y-33893713D01*
X23600500Y-33893713D01*
X23567246Y-33683757D01*
X23501557Y-33481588D01*
X23405051Y-33292184D01*
X23405049Y-33292181D01*
X23405048Y-33292179D01*
X23280109Y-33120213D01*
X23129786Y-32969890D01*
X22957820Y-32844951D01*
X22768414Y-32748444D01*
X22768413Y-32748443D01*
X22768412Y-32748443D01*
X22566243Y-32682754D01*
X22566241Y-32682753D01*
X22566240Y-32682753D01*
X22404957Y-32657208D01*
X22356287Y-32649500D01*
X22143713Y-32649500D01*
X22095042Y-32657208D01*
X21933760Y-32682753D01*
X21731585Y-32748444D01*
X21542179Y-32844951D01*
X21370213Y-32969890D01*
X21219890Y-33120213D01*
X21094951Y-33292179D01*
X20998444Y-33481585D01*
X20932753Y-33683760D01*
X20899500Y-33893713D01*
X20200500Y-33893713D01*
X20200500Y-31909448D01*
X28724500Y-31909448D01*
X28724500Y-32090551D01*
X28752829Y-32269410D01*
X28808787Y-32441636D01*
X28808788Y-32441639D01*
X28891006Y-32602997D01*
X28997441Y-32749494D01*
X28997445Y-32749499D01*
X29125500Y-32877554D01*
X29125505Y-32877558D01*
X29252591Y-32969890D01*
X29272006Y-32983996D01*
X29365551Y-33031660D01*
X29433360Y-33066211D01*
X29433363Y-33066212D01*
X29519476Y-33094191D01*
X29605591Y-33122171D01*
X29630291Y-33126083D01*
X29639406Y-33127527D01*
X29702540Y-33157457D01*
X29739471Y-33216768D01*
X29738473Y-33286631D01*
X29699863Y-33344863D01*
X29639406Y-33372473D01*
X29605589Y-33377829D01*
X29433363Y-33433787D01*
X29433360Y-33433788D01*
X29272002Y-33516006D01*
X29125505Y-33622441D01*
X29125500Y-33622445D01*
X28997445Y-33750500D01*
X28997441Y-33750505D01*
X28891006Y-33897002D01*
X28808788Y-34058360D01*
X28808787Y-34058363D01*
X28752829Y-34230589D01*
X28724500Y-34409448D01*
X28724500Y-34590551D01*
X28752829Y-34769410D01*
X28808787Y-34941636D01*
X28808788Y-34941639D01*
X28891006Y-35102997D01*
X28997441Y-35249494D01*
X28997445Y-35249499D01*
X29125500Y-35377554D01*
X29125505Y-35377558D01*
X29197447Y-35429826D01*
X29272006Y-35483996D01*
X29371400Y-35534640D01*
X29433360Y-35566211D01*
X29433366Y-35566213D01*
X29562187Y-35608069D01*
X29619863Y-35647506D01*
X29647062Y-35711864D01*
X29635148Y-35780711D01*
X29587904Y-35832187D01*
X29523870Y-35850000D01*
X29231946Y-35850000D01*
X29143556Y-35860613D01*
X29002904Y-35916079D01*
X28882435Y-36007435D01*
X28791079Y-36127904D01*
X28735613Y-36268556D01*
X28725000Y-36356946D01*
X28725000Y-36800000D01*
X29566987Y-36800000D01*
X29557370Y-36816657D01*
X29525000Y-36937465D01*
X29525000Y-37062535D01*
X29557370Y-37183343D01*
X29566987Y-37200000D01*
X28725000Y-37200000D01*
X28725000Y-37643053D01*
X28735613Y-37731443D01*
X28791079Y-37872095D01*
X28882435Y-37992564D01*
X29002904Y-38083920D01*
X29143556Y-38139386D01*
X29231946Y-38150000D01*
X29800000Y-38150000D01*
X29800000Y-37433013D01*
X29816657Y-37442630D01*
X29937465Y-37475000D01*
X30062535Y-37475000D01*
X30183343Y-37442630D01*
X30200000Y-37433013D01*
X30200000Y-38150000D01*
X30768054Y-38150000D01*
X30856443Y-38139386D01*
X30997095Y-38083920D01*
X31117564Y-37992564D01*
X31208920Y-37872095D01*
X31264386Y-37731443D01*
X31275000Y-37643053D01*
X31275000Y-37200000D01*
X30433013Y-37200000D01*
X30442630Y-37183343D01*
X30475000Y-37062535D01*
X30475000Y-36937465D01*
X30442630Y-36816657D01*
X30433013Y-36800000D01*
X31275000Y-36800000D01*
X31275000Y-36356946D01*
X31264386Y-36268556D01*
X31208920Y-36127904D01*
X31117564Y-36007435D01*
X30997095Y-35916079D01*
X30856443Y-35860613D01*
X30768054Y-35850000D01*
X30476130Y-35850000D01*
X30409091Y-35830315D01*
X30363336Y-35777511D01*
X30353392Y-35708353D01*
X30382417Y-35644797D01*
X30437813Y-35608069D01*
X30566633Y-35566213D01*
X30566639Y-35566211D01*
X30567340Y-35565854D01*
X30727994Y-35483996D01*
X30874501Y-35377553D01*
X31002553Y-35249501D01*
X31108996Y-35102994D01*
X31191211Y-34941639D01*
X31247171Y-34769409D01*
X31261765Y-34677259D01*
X31275500Y-34590551D01*
X31275500Y-34409448D01*
X31254225Y-34275131D01*
X31247171Y-34230591D01*
X31191211Y-34058361D01*
X31191211Y-34058360D01*
X31162740Y-34002484D01*
X31108996Y-33897006D01*
X31009438Y-33759975D01*
X31002558Y-33750505D01*
X31002554Y-33750500D01*
X30874499Y-33622445D01*
X30874494Y-33622441D01*
X30727997Y-33516006D01*
X30727996Y-33516005D01*
X30727994Y-33516004D01*
X30676300Y-33489664D01*
X30566639Y-33433788D01*
X30566636Y-33433787D01*
X30394410Y-33377829D01*
X30360594Y-33372473D01*
X30297459Y-33342544D01*
X30260528Y-33283232D01*
X30261526Y-33213370D01*
X30300136Y-33155137D01*
X30360594Y-33127527D01*
X30368388Y-33126292D01*
X30394409Y-33122171D01*
X30566639Y-33066211D01*
X30727994Y-32983996D01*
X30874501Y-32877553D01*
X31002553Y-32749501D01*
X31108996Y-32602994D01*
X31191211Y-32441639D01*
X31247171Y-32269409D01*
X31262313Y-32173805D01*
X31275500Y-32090551D01*
X31275500Y-31909448D01*
X31259019Y-31805397D01*
X31247171Y-31730591D01*
X31191211Y-31558361D01*
X31191211Y-31558360D01*
X31152641Y-31482664D01*
X31108996Y-31397006D01*
X31075208Y-31350500D01*
X31002558Y-31250505D01*
X31002553Y-31250499D01*
X30874499Y-31122445D01*
X30874494Y-31122441D01*
X30727997Y-31016006D01*
X30727996Y-31016005D01*
X30727994Y-31016004D01*
X30676300Y-30989664D01*
X30566639Y-30933788D01*
X30566636Y-30933787D01*
X30394410Y-30877829D01*
X30215551Y-30849500D01*
X30215546Y-30849500D01*
X29784454Y-30849500D01*
X29784449Y-30849500D01*
X29605589Y-30877829D01*
X29433363Y-30933787D01*
X29433360Y-30933788D01*
X29272002Y-31016006D01*
X29125505Y-31122441D01*
X29125500Y-31122445D01*
X28997447Y-31250499D01*
X28997441Y-31250505D01*
X28891006Y-31397002D01*
X28808788Y-31558360D01*
X28808787Y-31558363D01*
X28752829Y-31730589D01*
X28724500Y-31909448D01*
X20200500Y-31909448D01*
X20200500Y-29893713D01*
X20899500Y-29893713D01*
X20899500Y-30106286D01*
X20929690Y-30296902D01*
X20932754Y-30316243D01*
X20996727Y-30513132D01*
X20998444Y-30518414D01*
X21094951Y-30707820D01*
X21219890Y-30879786D01*
X21370213Y-31030109D01*
X21542179Y-31155048D01*
X21542181Y-31155049D01*
X21542184Y-31155051D01*
X21731588Y-31251557D01*
X21933757Y-31317246D01*
X22143713Y-31350500D01*
X22143714Y-31350500D01*
X22356286Y-31350500D01*
X22356287Y-31350500D01*
X22566243Y-31317246D01*
X22768412Y-31251557D01*
X22957816Y-31155051D01*
X22980524Y-31138553D01*
X23129786Y-31030109D01*
X23129788Y-31030106D01*
X23129792Y-31030104D01*
X23280104Y-30879792D01*
X23280106Y-30879788D01*
X23280109Y-30879786D01*
X23401202Y-30713114D01*
X23405051Y-30707816D01*
X23501557Y-30518412D01*
X23567246Y-30316243D01*
X23600500Y-30106287D01*
X23600500Y-29893713D01*
X23899500Y-29893713D01*
X23899500Y-30106286D01*
X23929690Y-30296902D01*
X23932754Y-30316243D01*
X23996727Y-30513132D01*
X23998444Y-30518414D01*
X24094951Y-30707820D01*
X24219890Y-30879786D01*
X24370213Y-31030109D01*
X24542179Y-31155048D01*
X24542181Y-31155049D01*
X24542184Y-31155051D01*
X24731588Y-31251557D01*
X24933757Y-31317246D01*
X25143713Y-31350500D01*
X25143714Y-31350500D01*
X25356286Y-31350500D01*
X25356287Y-31350500D01*
X25566243Y-31317246D01*
X25768412Y-31251557D01*
X25957816Y-31155051D01*
X25980524Y-31138553D01*
X26129786Y-31030109D01*
X26129788Y-31030106D01*
X26129792Y-31030104D01*
X26280104Y-30879792D01*
X26280106Y-30879788D01*
X26280109Y-30879786D01*
X26401202Y-30713114D01*
X26405051Y-30707816D01*
X26501557Y-30518412D01*
X26567246Y-30316243D01*
X26600500Y-30106287D01*
X26600500Y-29893713D01*
X26567246Y-29683757D01*
X26501557Y-29481588D01*
X26405051Y-29292184D01*
X26405049Y-29292181D01*
X26405048Y-29292179D01*
X26280109Y-29120213D01*
X26129786Y-28969890D01*
X25957820Y-28844951D01*
X25768414Y-28748444D01*
X25768413Y-28748443D01*
X25768412Y-28748443D01*
X25566243Y-28682754D01*
X25566241Y-28682753D01*
X25566240Y-28682753D01*
X25404957Y-28657208D01*
X25356287Y-28649500D01*
X25143713Y-28649500D01*
X25095042Y-28657208D01*
X24933760Y-28682753D01*
X24731585Y-28748444D01*
X24542179Y-28844951D01*
X24370213Y-28969890D01*
X24219890Y-29120213D01*
X24094951Y-29292179D01*
X23998444Y-29481585D01*
X23932753Y-29683760D01*
X23899500Y-29893713D01*
X23600500Y-29893713D01*
X23567246Y-29683757D01*
X23501557Y-29481588D01*
X23405051Y-29292184D01*
X23405049Y-29292181D01*
X23405048Y-29292179D01*
X23280109Y-29120213D01*
X23129786Y-28969890D01*
X22957820Y-28844951D01*
X22768414Y-28748444D01*
X22768413Y-28748443D01*
X22768412Y-28748443D01*
X22566243Y-28682754D01*
X22566241Y-28682753D01*
X22566240Y-28682753D01*
X22404957Y-28657208D01*
X22356287Y-28649500D01*
X22143713Y-28649500D01*
X22095042Y-28657208D01*
X21933760Y-28682753D01*
X21731585Y-28748444D01*
X21542179Y-28844951D01*
X21370213Y-28969890D01*
X21219890Y-29120213D01*
X21094951Y-29292179D01*
X20998444Y-29481585D01*
X20932753Y-29683760D01*
X20899500Y-29893713D01*
X20200500Y-29893713D01*
X20200500Y-23878711D01*
X28149500Y-23878711D01*
X28149500Y-24121288D01*
X28181161Y-24361785D01*
X28243947Y-24596104D01*
X28336773Y-24820205D01*
X28336776Y-24820212D01*
X28458064Y-25030289D01*
X28458066Y-25030292D01*
X28458067Y-25030293D01*
X28605733Y-25222736D01*
X28605739Y-25222743D01*
X28777256Y-25394260D01*
X28777262Y-25394265D01*
X28969711Y-25541936D01*
X29179788Y-25663224D01*
X29403900Y-25756054D01*
X29638211Y-25818838D01*
X29818586Y-25842584D01*
X29878711Y-25850500D01*
X29878712Y-25850500D01*
X30121289Y-25850500D01*
X30169388Y-25844167D01*
X30361789Y-25818838D01*
X30596100Y-25756054D01*
X30820212Y-25663224D01*
X31030289Y-25541936D01*
X31222738Y-25394265D01*
X31394265Y-25222738D01*
X31541936Y-25030289D01*
X31663224Y-24820212D01*
X31756054Y-24596100D01*
X31818838Y-24361789D01*
X31850500Y-24121288D01*
X31850500Y-23878712D01*
X31818838Y-23638211D01*
X31756054Y-23403900D01*
X31663224Y-23179788D01*
X31541936Y-22969711D01*
X31394265Y-22777262D01*
X31394260Y-22777256D01*
X31222743Y-22605739D01*
X31222736Y-22605733D01*
X31030293Y-22458067D01*
X31030292Y-22458066D01*
X31030289Y-22458064D01*
X30820212Y-22336776D01*
X30820205Y-22336773D01*
X30596104Y-22243947D01*
X30406327Y-22193096D01*
X30361789Y-22181162D01*
X30361788Y-22181161D01*
X30361785Y-22181161D01*
X30121289Y-22149500D01*
X30121288Y-22149500D01*
X29878712Y-22149500D01*
X29878711Y-22149500D01*
X29638214Y-22181161D01*
X29403895Y-22243947D01*
X29179794Y-22336773D01*
X29179785Y-22336777D01*
X28969706Y-22458067D01*
X28777263Y-22605733D01*
X28777256Y-22605739D01*
X28605739Y-22777256D01*
X28605733Y-22777263D01*
X28458067Y-22969706D01*
X28336777Y-23179785D01*
X28336773Y-23179794D01*
X28243947Y-23403895D01*
X28181161Y-23638214D01*
X28149500Y-23878711D01*
X20200500Y-23878711D01*
X20200500Y-20324500D01*
X20220185Y-20257461D01*
X20272989Y-20211706D01*
X20324500Y-20200500D01*
X72876000Y-20200500D01*
X72943039Y-20220185D01*
G37*
G04 #@! TD.AperFunction*
G04 #@! TA.AperFunction,Conductor*
G36*
X80966632Y-57544815D02*
G01*
X81001254Y-57605504D01*
X81004600Y-57634115D01*
X81004600Y-59889691D01*
X81038708Y-60016987D01*
X81053461Y-60042539D01*
X81104600Y-60131114D01*
X81104602Y-60131116D01*
X83513181Y-62539695D01*
X83546666Y-62601018D01*
X83549500Y-62627376D01*
X83549500Y-62955460D01*
X83529815Y-63022499D01*
X83525270Y-63029093D01*
X83497209Y-63067113D01*
X83497206Y-63067119D01*
X83452353Y-63195298D01*
X83452353Y-63195300D01*
X83449500Y-63225730D01*
X83449500Y-64484269D01*
X83452353Y-64514698D01*
X83482353Y-64600434D01*
X83485914Y-64670213D01*
X83451185Y-64730840D01*
X83397407Y-64761162D01*
X83387865Y-64763718D01*
X83256635Y-64839485D01*
X83256632Y-64839487D01*
X83143738Y-64952382D01*
X83142067Y-64950711D01*
X83095380Y-64984789D01*
X83025634Y-64988931D01*
X82991457Y-64970000D01*
X82480000Y-64970000D01*
X82480000Y-64570000D01*
X82980000Y-64570000D01*
X82980000Y-64141206D01*
X82979999Y-64141202D01*
X82949258Y-63986656D01*
X82949256Y-63986648D01*
X82888952Y-63841060D01*
X82888947Y-63841051D01*
X82801401Y-63710030D01*
X82801398Y-63710026D01*
X82689973Y-63598601D01*
X82689969Y-63598598D01*
X82558948Y-63511052D01*
X82558939Y-63511047D01*
X82413351Y-63450743D01*
X82413343Y-63450741D01*
X82380000Y-63444108D01*
X82380000Y-63995735D01*
X82364205Y-63979940D01*
X82295796Y-63940444D01*
X82219496Y-63920000D01*
X82140504Y-63920000D01*
X82064204Y-63940444D01*
X81995795Y-63979940D01*
X81980000Y-63995735D01*
X81980000Y-63444109D01*
X81979999Y-63444108D01*
X81946656Y-63450741D01*
X81946648Y-63450743D01*
X81801060Y-63511047D01*
X81801051Y-63511052D01*
X81670030Y-63598598D01*
X81670026Y-63598601D01*
X81558601Y-63710026D01*
X81558598Y-63710030D01*
X81471052Y-63841051D01*
X81471047Y-63841060D01*
X81410743Y-63986648D01*
X81410741Y-63986656D01*
X81380000Y-64141202D01*
X81380000Y-64570000D01*
X81880000Y-64570000D01*
X81880000Y-64970000D01*
X81380000Y-64970000D01*
X81380000Y-65398797D01*
X81410741Y-65553343D01*
X81410743Y-65553351D01*
X81471047Y-65698939D01*
X81471052Y-65698948D01*
X81558598Y-65829969D01*
X81558601Y-65829973D01*
X81670026Y-65941398D01*
X81670034Y-65941404D01*
X81708038Y-65966798D01*
X81752844Y-66020410D01*
X81761551Y-66089735D01*
X81731397Y-66152762D01*
X81671954Y-66189482D01*
X81639148Y-66193900D01*
X79591019Y-66193900D01*
X79523980Y-66174215D01*
X79503338Y-66157581D01*
X77568553Y-64222796D01*
X73851646Y-60505888D01*
X73851645Y-60505887D01*
X73736907Y-60429222D01*
X73609432Y-60376421D01*
X73609422Y-60376418D01*
X73474096Y-60349500D01*
X73474094Y-60349500D01*
X73474093Y-60349500D01*
X68333693Y-60349500D01*
X68266654Y-60329815D01*
X68258774Y-60324308D01*
X68247342Y-60315639D01*
X68106564Y-60260123D01*
X68106563Y-60260122D01*
X68106561Y-60260122D01*
X68060926Y-60254642D01*
X68018102Y-60249500D01*
X66981898Y-60249500D01*
X66942853Y-60254188D01*
X66893438Y-60260122D01*
X66787317Y-60301971D01*
X66752658Y-60315639D01*
X66741233Y-60324302D01*
X66675924Y-60349127D01*
X66666307Y-60349500D01*
X66333693Y-60349500D01*
X66266654Y-60329815D01*
X66258774Y-60324308D01*
X66247342Y-60315639D01*
X66106564Y-60260123D01*
X66106563Y-60260122D01*
X66106561Y-60260122D01*
X66060926Y-60254642D01*
X66018102Y-60249500D01*
X64981898Y-60249500D01*
X64942853Y-60254188D01*
X64893438Y-60260122D01*
X64787317Y-60301971D01*
X64752658Y-60315639D01*
X64741233Y-60324302D01*
X64675924Y-60349127D01*
X64666307Y-60349500D01*
X63941519Y-60349500D01*
X63874480Y-60329815D01*
X63853838Y-60313181D01*
X63736819Y-60196162D01*
X63703334Y-60134839D01*
X63700500Y-60108481D01*
X63700500Y-59222374D01*
X63720185Y-59155335D01*
X63772989Y-59109580D01*
X63842147Y-59099636D01*
X63890035Y-59117986D01*
X63890130Y-59117811D01*
X63891531Y-59118560D01*
X63893392Y-59119273D01*
X63895497Y-59120679D01*
X63895500Y-59120681D01*
X63895505Y-59120684D01*
X63895507Y-59120685D01*
X63895511Y-59120687D01*
X64027843Y-59175500D01*
X64032087Y-59177258D01*
X64032091Y-59177258D01*
X64032092Y-59177259D01*
X64177079Y-59206100D01*
X64177082Y-59206100D01*
X64324920Y-59206100D01*
X64422462Y-59186696D01*
X64469913Y-59177258D01*
X64484372Y-59171268D01*
X64498206Y-59165539D01*
X64545658Y-59156100D01*
X77613396Y-59156100D01*
X77704440Y-59137989D01*
X77748728Y-59129180D01*
X77820054Y-59099636D01*
X77876207Y-59076377D01*
X77876208Y-59076376D01*
X77876211Y-59076375D01*
X77990943Y-58999714D01*
X79403838Y-57586819D01*
X79465161Y-57553334D01*
X79491519Y-57550500D01*
X80693097Y-57550500D01*
X80693102Y-57550500D01*
X80781564Y-57539877D01*
X80835110Y-57518760D01*
X80904696Y-57512479D01*
X80966632Y-57544815D01*
G37*
G04 #@! TD.AperFunction*
G04 #@! TA.AperFunction,Conductor*
G36*
X93768833Y-64204171D02*
G01*
X93824767Y-64246043D01*
X93849184Y-64311507D01*
X93849500Y-64320353D01*
X93849500Y-65394856D01*
X93849502Y-65394882D01*
X93852413Y-65419987D01*
X93852415Y-65419991D01*
X93897793Y-65522764D01*
X93897794Y-65522765D01*
X93977235Y-65602206D01*
X94080009Y-65647585D01*
X94105135Y-65650500D01*
X95894864Y-65650499D01*
X95894879Y-65650497D01*
X95894882Y-65650497D01*
X95919987Y-65647586D01*
X95919988Y-65647585D01*
X95919991Y-65647585D01*
X96022765Y-65602206D01*
X96102206Y-65522765D01*
X96147585Y-65419991D01*
X96150500Y-65394865D01*
X96150499Y-64657125D01*
X96170183Y-64590089D01*
X96222987Y-64544334D01*
X96292146Y-64534390D01*
X96355702Y-64563415D01*
X96393476Y-64622193D01*
X96396972Y-64637729D01*
X96417829Y-64769410D01*
X96473787Y-64941636D01*
X96473788Y-64941639D01*
X96516825Y-65026102D01*
X96551422Y-65094002D01*
X96556006Y-65102997D01*
X96662441Y-65249494D01*
X96662445Y-65249499D01*
X96790500Y-65377554D01*
X96790505Y-65377558D01*
X96893991Y-65452744D01*
X96937006Y-65483996D01*
X97013094Y-65522765D01*
X97098360Y-65566211D01*
X97098363Y-65566212D01*
X97149325Y-65582770D01*
X97270591Y-65622171D01*
X97353429Y-65635291D01*
X97449449Y-65650500D01*
X97449454Y-65650500D01*
X97630551Y-65650500D01*
X97717259Y-65636765D01*
X97809409Y-65622171D01*
X97981639Y-65566211D01*
X98142994Y-65483996D01*
X98289501Y-65377553D01*
X98417553Y-65249501D01*
X98523996Y-65102994D01*
X98606211Y-64941639D01*
X98662171Y-64769409D01*
X98679191Y-64661950D01*
X98687527Y-64609321D01*
X98717456Y-64546186D01*
X98776768Y-64509255D01*
X98846630Y-64510253D01*
X98904863Y-64548863D01*
X98932473Y-64609321D01*
X98957829Y-64769410D01*
X99013787Y-64941636D01*
X99013788Y-64941639D01*
X99056825Y-65026102D01*
X99091422Y-65094002D01*
X99096006Y-65102997D01*
X99202441Y-65249494D01*
X99202445Y-65249499D01*
X99330500Y-65377554D01*
X99330505Y-65377558D01*
X99433991Y-65452744D01*
X99477006Y-65483996D01*
X99553094Y-65522765D01*
X99638360Y-65566211D01*
X99638363Y-65566212D01*
X99689325Y-65582770D01*
X99810591Y-65622171D01*
X99893429Y-65635291D01*
X99989449Y-65650500D01*
X99989454Y-65650500D01*
X100170551Y-65650500D01*
X100257259Y-65636765D01*
X100349409Y-65622171D01*
X100521639Y-65566211D01*
X100682994Y-65483996D01*
X100829501Y-65377553D01*
X100957553Y-65249501D01*
X101063996Y-65102994D01*
X101146211Y-64941639D01*
X101202171Y-64769409D01*
X101219191Y-64661950D01*
X101227527Y-64609321D01*
X101257456Y-64546186D01*
X101316768Y-64509255D01*
X101386630Y-64510253D01*
X101444863Y-64548863D01*
X101472473Y-64609321D01*
X101497829Y-64769410D01*
X101553787Y-64941636D01*
X101553788Y-64941639D01*
X101596825Y-65026102D01*
X101631422Y-65094002D01*
X101636006Y-65102997D01*
X101742441Y-65249494D01*
X101742445Y-65249499D01*
X101870500Y-65377554D01*
X101870505Y-65377558D01*
X101973991Y-65452744D01*
X102017006Y-65483996D01*
X102093094Y-65522765D01*
X102178360Y-65566211D01*
X102178363Y-65566212D01*
X102229325Y-65582770D01*
X102350591Y-65622171D01*
X102433429Y-65635291D01*
X102529449Y-65650500D01*
X102529454Y-65650500D01*
X102710551Y-65650500D01*
X102797259Y-65636765D01*
X102889409Y-65622171D01*
X103061639Y-65566211D01*
X103222994Y-65483996D01*
X103369501Y-65377553D01*
X103497553Y-65249501D01*
X103603996Y-65102994D01*
X103686211Y-64941639D01*
X103742171Y-64769409D01*
X103767780Y-64607720D01*
X103797709Y-64544585D01*
X103857021Y-64507654D01*
X103926883Y-64508652D01*
X103985116Y-64547262D01*
X104012726Y-64607720D01*
X104038317Y-64769293D01*
X104094251Y-64941444D01*
X104094252Y-64941447D01*
X104176434Y-65102734D01*
X104217667Y-65159487D01*
X104217668Y-65159487D01*
X104691980Y-64685176D01*
X104694075Y-64692993D01*
X104759901Y-64807007D01*
X104852993Y-64900099D01*
X104967007Y-64965925D01*
X104974822Y-64968019D01*
X104500510Y-65442330D01*
X104500511Y-65442331D01*
X104557265Y-65483565D01*
X104718552Y-65565747D01*
X104718555Y-65565748D01*
X104890706Y-65621682D01*
X105069494Y-65650000D01*
X105250493Y-65650000D01*
X105250620Y-65649990D01*
X105250668Y-65650000D01*
X105255379Y-65650000D01*
X105255379Y-65650988D01*
X105319000Y-65664341D01*
X105368767Y-65713383D01*
X105384119Y-65781545D01*
X105360182Y-65847187D01*
X105348055Y-65861287D01*
X105267945Y-65941398D01*
X105051760Y-66157582D01*
X104990440Y-66191066D01*
X104964081Y-66193900D01*
X91975955Y-66193900D01*
X91908916Y-66174215D01*
X91863161Y-66121411D01*
X91853217Y-66052253D01*
X91882242Y-65988697D01*
X91888274Y-65982219D01*
X92317150Y-65553343D01*
X93637821Y-64232670D01*
X93699142Y-64199187D01*
X93768833Y-64204171D01*
G37*
G04 #@! TD.AperFunction*
G04 #@! TA.AperFunction,Conductor*
G36*
X84726942Y-50215669D02*
G01*
X84732669Y-50218796D01*
X84867517Y-50269091D01*
X84927127Y-50275500D01*
X85422872Y-50275499D01*
X85482483Y-50269091D01*
X85494256Y-50264700D01*
X85545367Y-50245637D01*
X85615059Y-50240653D01*
X85676382Y-50274138D01*
X85709866Y-50335461D01*
X85712700Y-50361819D01*
X85712700Y-51140673D01*
X85712700Y-51246127D01*
X85714155Y-51251557D01*
X85739993Y-51347989D01*
X85741443Y-51350500D01*
X85792720Y-51439313D01*
X85792722Y-51439315D01*
X90016226Y-55662819D01*
X90049711Y-55724142D01*
X90044727Y-55793834D01*
X90002855Y-55849767D01*
X89937391Y-55874184D01*
X89928545Y-55874500D01*
X89677130Y-55874500D01*
X89677123Y-55874501D01*
X89617516Y-55880908D01*
X89482671Y-55931202D01*
X89482664Y-55931206D01*
X89367455Y-56017452D01*
X89367452Y-56017455D01*
X89281206Y-56132664D01*
X89281202Y-56132671D01*
X89230908Y-56267517D01*
X89224957Y-56322872D01*
X89224501Y-56327123D01*
X89224500Y-56327135D01*
X89224500Y-56732743D01*
X89204815Y-56799782D01*
X89188182Y-56820424D01*
X89101326Y-56907281D01*
X89040003Y-56940766D01*
X89013644Y-56943600D01*
X88843507Y-56943600D01*
X88776468Y-56923915D01*
X88755830Y-56907285D01*
X88687369Y-56838824D01*
X88687368Y-56838823D01*
X88687367Y-56838822D01*
X88580833Y-56767638D01*
X88580824Y-56767633D01*
X88462444Y-56718599D01*
X88462438Y-56718597D01*
X88336771Y-56693600D01*
X88336769Y-56693600D01*
X88208631Y-56693600D01*
X88208629Y-56693600D01*
X88082961Y-56718597D01*
X88082955Y-56718599D01*
X87964575Y-56767633D01*
X87964566Y-56767638D01*
X87858031Y-56838823D01*
X87858027Y-56838826D01*
X87767426Y-56929427D01*
X87767423Y-56929431D01*
X87696238Y-57035966D01*
X87696233Y-57035975D01*
X87647199Y-57154355D01*
X87647197Y-57154361D01*
X87622200Y-57280028D01*
X87622200Y-57280031D01*
X87622200Y-57408169D01*
X87622200Y-57408171D01*
X87622199Y-57408171D01*
X87647197Y-57533838D01*
X87647199Y-57533844D01*
X87696233Y-57652224D01*
X87696238Y-57652233D01*
X87767423Y-57758768D01*
X87767426Y-57758772D01*
X87858027Y-57849373D01*
X87858031Y-57849376D01*
X87964566Y-57920561D01*
X87964572Y-57920564D01*
X87964573Y-57920565D01*
X88082956Y-57969601D01*
X88082960Y-57969601D01*
X88082961Y-57969602D01*
X88208628Y-57994600D01*
X88208631Y-57994600D01*
X88336771Y-57994600D01*
X88421315Y-57977782D01*
X88462444Y-57969601D01*
X88580827Y-57920565D01*
X88687369Y-57849376D01*
X88755827Y-57780917D01*
X88817148Y-57747434D01*
X88843507Y-57744600D01*
X89283625Y-57744600D01*
X89283627Y-57744600D01*
X89385488Y-57717307D01*
X89476813Y-57664580D01*
X89829574Y-57311816D01*
X89890895Y-57278333D01*
X89917254Y-57275499D01*
X90322871Y-57275499D01*
X90322872Y-57275499D01*
X90382483Y-57269091D01*
X90517331Y-57218796D01*
X90632546Y-57132546D01*
X90718796Y-57017331D01*
X90769091Y-56882483D01*
X90775500Y-56822873D01*
X90775499Y-56721452D01*
X90795183Y-56654416D01*
X90847986Y-56608660D01*
X90917145Y-56598716D01*
X90980701Y-56627740D01*
X90987180Y-56633773D01*
X94192881Y-59839474D01*
X94226366Y-59900797D01*
X94229200Y-59927155D01*
X94229200Y-62457145D01*
X94209515Y-62524184D01*
X94192881Y-62544826D01*
X91781534Y-64956172D01*
X91720211Y-64989657D01*
X91650519Y-64984673D01*
X91627688Y-64970000D01*
X91120000Y-64970000D01*
X91120000Y-64570000D01*
X91620000Y-64570000D01*
X91620000Y-64141206D01*
X91619999Y-64141202D01*
X91589258Y-63986656D01*
X91589256Y-63986648D01*
X91528952Y-63841060D01*
X91528947Y-63841051D01*
X91441401Y-63710030D01*
X91441398Y-63710026D01*
X91329973Y-63598601D01*
X91329969Y-63598598D01*
X91198948Y-63511052D01*
X91198939Y-63511047D01*
X91053351Y-63450743D01*
X91053343Y-63450741D01*
X91020000Y-63444108D01*
X91020000Y-63995735D01*
X91004205Y-63979940D01*
X90935796Y-63940444D01*
X90859496Y-63920000D01*
X90780504Y-63920000D01*
X90704204Y-63940444D01*
X90635795Y-63979940D01*
X90620000Y-63995735D01*
X90620000Y-63444109D01*
X90619999Y-63444108D01*
X90586656Y-63450741D01*
X90586648Y-63450743D01*
X90441060Y-63511047D01*
X90441051Y-63511052D01*
X90310030Y-63598598D01*
X90310026Y-63598601D01*
X90198601Y-63710026D01*
X90198598Y-63710030D01*
X90111052Y-63841051D01*
X90111047Y-63841060D01*
X90050743Y-63986648D01*
X90050741Y-63986656D01*
X90020000Y-64141202D01*
X90020000Y-64570000D01*
X90520000Y-64570000D01*
X90520000Y-64970000D01*
X90008172Y-64970000D01*
X89972900Y-64989259D01*
X89903209Y-64984273D01*
X89857883Y-64950760D01*
X89856262Y-64952382D01*
X89743367Y-64839487D01*
X89743365Y-64839485D01*
X89612135Y-64763719D01*
X89602592Y-64761162D01*
X89542934Y-64724797D01*
X89512405Y-64661950D01*
X89517647Y-64600433D01*
X89547645Y-64514701D01*
X89547646Y-64514699D01*
X89550500Y-64484269D01*
X89550500Y-63225730D01*
X89547646Y-63195300D01*
X89547646Y-63195298D01*
X89513030Y-63096375D01*
X89502793Y-63067118D01*
X89502792Y-63067116D01*
X89436312Y-62977038D01*
X89419980Y-62943125D01*
X89419502Y-62943323D01*
X89416393Y-62935818D01*
X89416392Y-62935814D01*
X89350500Y-62821686D01*
X89257314Y-62728500D01*
X88497014Y-61968200D01*
X88439950Y-61935254D01*
X88382887Y-61902308D01*
X88279104Y-61874500D01*
X88255592Y-61868200D01*
X88255591Y-61868200D01*
X84308676Y-61868200D01*
X84241637Y-61848515D01*
X84220995Y-61831881D01*
X82041919Y-59652805D01*
X82008434Y-59591482D01*
X82005600Y-59565124D01*
X82005600Y-56965693D01*
X82025285Y-56898654D01*
X82078089Y-56852899D01*
X82147247Y-56842955D01*
X82210803Y-56871980D01*
X82245782Y-56922360D01*
X82281202Y-57017328D01*
X82281206Y-57017335D01*
X82367452Y-57132544D01*
X82367455Y-57132547D01*
X82482664Y-57218793D01*
X82482671Y-57218797D01*
X82484012Y-57219297D01*
X82617517Y-57269091D01*
X82677127Y-57275500D01*
X83082744Y-57275499D01*
X83149783Y-57295183D01*
X83170420Y-57311813D01*
X83295009Y-57436401D01*
X83328493Y-57497722D01*
X83328944Y-57499889D01*
X83335697Y-57533838D01*
X83335698Y-57533842D01*
X83384733Y-57652224D01*
X83384738Y-57652233D01*
X83455923Y-57758768D01*
X83455926Y-57758772D01*
X83546527Y-57849373D01*
X83546531Y-57849376D01*
X83653066Y-57920561D01*
X83653072Y-57920564D01*
X83653073Y-57920565D01*
X83771456Y-57969601D01*
X83771460Y-57969601D01*
X83771461Y-57969602D01*
X83897128Y-57994600D01*
X83897131Y-57994600D01*
X84025271Y-57994600D01*
X84109815Y-57977782D01*
X84150944Y-57969601D01*
X84269327Y-57920565D01*
X84375869Y-57849376D01*
X84466476Y-57758769D01*
X84537665Y-57652227D01*
X84586701Y-57533844D01*
X84607177Y-57430909D01*
X84611700Y-57408171D01*
X84611700Y-57280028D01*
X84586702Y-57154361D01*
X84586701Y-57154360D01*
X84586701Y-57154356D01*
X84542647Y-57048000D01*
X84537666Y-57035975D01*
X84537661Y-57035966D01*
X84466476Y-56929431D01*
X84466473Y-56929427D01*
X84375872Y-56838826D01*
X84375868Y-56838823D01*
X84269333Y-56767638D01*
X84269324Y-56767633D01*
X84150944Y-56718599D01*
X84150938Y-56718597D01*
X84025271Y-56693600D01*
X84025269Y-56693600D01*
X83899499Y-56693600D01*
X83832460Y-56673915D01*
X83786705Y-56621111D01*
X83775499Y-56569600D01*
X83775499Y-56327129D01*
X83775498Y-56327123D01*
X83775497Y-56327116D01*
X83769091Y-56267517D01*
X83760220Y-56243733D01*
X83718797Y-56132671D01*
X83718793Y-56132664D01*
X83632547Y-56017455D01*
X83632544Y-56017452D01*
X83517335Y-55931206D01*
X83517328Y-55931202D01*
X83382486Y-55880910D01*
X83382485Y-55880909D01*
X83382483Y-55880909D01*
X83322873Y-55874500D01*
X83322863Y-55874500D01*
X82677129Y-55874500D01*
X82677123Y-55874501D01*
X82617516Y-55880908D01*
X82482671Y-55931202D01*
X82482664Y-55931206D01*
X82367455Y-56017452D01*
X82367452Y-56017455D01*
X82281206Y-56132664D01*
X82281202Y-56132671D01*
X82245782Y-56227639D01*
X82203911Y-56283573D01*
X82138447Y-56307990D01*
X82070174Y-56293138D01*
X82020768Y-56243733D01*
X82005600Y-56184306D01*
X82005600Y-54797310D01*
X82005600Y-54797308D01*
X81971492Y-54670014D01*
X81905600Y-54555886D01*
X81812414Y-54462700D01*
X81026214Y-53676500D01*
X81026211Y-53676498D01*
X81026207Y-53676495D01*
X80985099Y-53652761D01*
X80936884Y-53602194D01*
X80923662Y-53533586D01*
X80949630Y-53468722D01*
X80972175Y-53446571D01*
X80990611Y-53432591D01*
X81042922Y-53392922D01*
X81134361Y-53272342D01*
X81189877Y-53131564D01*
X81200500Y-53043102D01*
X81200500Y-50956898D01*
X81189877Y-50868436D01*
X81134361Y-50727658D01*
X81134360Y-50727657D01*
X81134360Y-50727656D01*
X81042922Y-50607077D01*
X80922343Y-50515639D01*
X80781561Y-50460122D01*
X80735926Y-50454642D01*
X80693102Y-50449500D01*
X79306898Y-50449500D01*
X79267853Y-50454188D01*
X79218438Y-50460122D01*
X79077656Y-50515639D01*
X78957077Y-50607077D01*
X78865639Y-50727656D01*
X78810122Y-50868438D01*
X78808759Y-50879792D01*
X78799500Y-50956898D01*
X78799500Y-53043102D01*
X78805126Y-53089954D01*
X78810122Y-53131561D01*
X78865639Y-53272343D01*
X78945439Y-53377575D01*
X78970262Y-53442887D01*
X78955834Y-53511250D01*
X78906736Y-53560961D01*
X78846635Y-53576500D01*
X68368819Y-53576500D01*
X68301780Y-53556815D01*
X68256025Y-53504011D01*
X68246081Y-53434853D01*
X68275106Y-53371297D01*
X68281138Y-53364819D01*
X71409138Y-50236819D01*
X71470461Y-50203334D01*
X71496819Y-50200500D01*
X84667513Y-50200500D01*
X84726942Y-50215669D01*
G37*
G04 #@! TD.AperFunction*
G04 #@! TA.AperFunction,Conductor*
G36*
X87148975Y-40985185D02*
G01*
X87194730Y-41037989D01*
X87201586Y-41056945D01*
X87202414Y-41059988D01*
X87231081Y-41124914D01*
X87240152Y-41194192D01*
X87231081Y-41225084D01*
X87202415Y-41290006D01*
X87202415Y-41290008D01*
X87199500Y-41315131D01*
X87199500Y-42304856D01*
X87199502Y-42304882D01*
X87202413Y-42329987D01*
X87202414Y-42329988D01*
X87231081Y-42394914D01*
X87240152Y-42464192D01*
X87231081Y-42495084D01*
X87202415Y-42560006D01*
X87202415Y-42560008D01*
X87199500Y-42585131D01*
X87199294Y-42588704D01*
X87199087Y-42588692D01*
X87199087Y-42588694D01*
X87199053Y-42588690D01*
X87197935Y-42588625D01*
X87179815Y-42650338D01*
X87127011Y-42696093D01*
X87107596Y-42703072D01*
X87102354Y-42704477D01*
X87093710Y-42706793D01*
X87002387Y-42759520D01*
X87002384Y-42759522D01*
X85792722Y-43969184D01*
X85792720Y-43969187D01*
X85739993Y-44060510D01*
X85712700Y-44162373D01*
X85712700Y-48638180D01*
X85693015Y-48705219D01*
X85640211Y-48750974D01*
X85571053Y-48760918D01*
X85545368Y-48754362D01*
X85482488Y-48730910D01*
X85482484Y-48730909D01*
X85482483Y-48730909D01*
X85422873Y-48724500D01*
X85422863Y-48724500D01*
X84927129Y-48724500D01*
X84927123Y-48724501D01*
X84867516Y-48730908D01*
X84732669Y-48781203D01*
X84726942Y-48784331D01*
X84667513Y-48799500D01*
X71086304Y-48799500D01*
X70950977Y-48826418D01*
X70950967Y-48826421D01*
X70823492Y-48879222D01*
X70708754Y-48955887D01*
X70708753Y-48955888D01*
X62851462Y-56813181D01*
X62790139Y-56846666D01*
X62763781Y-56849500D01*
X61981819Y-56849500D01*
X61914780Y-56829815D01*
X61894138Y-56813181D01*
X59215746Y-54134788D01*
X59215745Y-54134787D01*
X59101007Y-54058122D01*
X58973532Y-54005321D01*
X58973522Y-54005318D01*
X58838196Y-53978400D01*
X58838194Y-53978400D01*
X58838193Y-53978400D01*
X54683019Y-53978400D01*
X54615980Y-53958715D01*
X54595338Y-53942081D01*
X54317746Y-53664488D01*
X54317745Y-53664487D01*
X54203007Y-53587822D01*
X54075532Y-53535021D01*
X54075522Y-53535018D01*
X53940196Y-53508100D01*
X53940194Y-53508100D01*
X53940193Y-53508100D01*
X42585394Y-53508100D01*
X42447406Y-53508100D01*
X42447404Y-53508100D01*
X42312077Y-53535018D01*
X42312067Y-53535021D01*
X42184592Y-53587822D01*
X42069854Y-53664487D01*
X42069853Y-53664488D01*
X39217181Y-56517161D01*
X39155858Y-56550646D01*
X39086166Y-56545662D01*
X39030233Y-56503790D01*
X39005816Y-56438326D01*
X39005500Y-56429480D01*
X39005500Y-56027609D01*
X39025185Y-55960570D01*
X39041814Y-55939933D01*
X48749476Y-46232270D01*
X48810797Y-46198787D01*
X48880489Y-46203771D01*
X48936422Y-46245643D01*
X48940257Y-46251062D01*
X48967523Y-46291868D01*
X48967526Y-46291872D01*
X49058127Y-46382473D01*
X49058131Y-46382476D01*
X49164666Y-46453661D01*
X49164672Y-46453664D01*
X49164673Y-46453665D01*
X49283056Y-46502701D01*
X49283060Y-46502701D01*
X49283061Y-46502702D01*
X49408728Y-46527700D01*
X49408731Y-46527700D01*
X49536871Y-46527700D01*
X49621415Y-46510882D01*
X49662544Y-46502701D01*
X49780927Y-46453665D01*
X49887469Y-46382476D01*
X49978076Y-46291869D01*
X50049265Y-46185327D01*
X50098301Y-46066944D01*
X50111618Y-45999999D01*
X50123300Y-45941271D01*
X50123300Y-45879810D01*
X50142985Y-45812771D01*
X50159619Y-45792129D01*
X54949929Y-41001819D01*
X55011252Y-40968334D01*
X55037610Y-40965500D01*
X87081936Y-40965500D01*
X87148975Y-40985185D01*
G37*
G04 #@! TD.AperFunction*
G04 #@! TA.AperFunction,Conductor*
G36*
X95047539Y-49945185D02*
G01*
X95093294Y-49997989D01*
X95104500Y-50049500D01*
X95104500Y-56200500D01*
X95084815Y-56267539D01*
X95032011Y-56313294D01*
X94980500Y-56324500D01*
X94707614Y-56324500D01*
X94640575Y-56304815D01*
X94594820Y-56252011D01*
X94587504Y-56225976D01*
X94586827Y-56226148D01*
X94584879Y-56218443D01*
X94584877Y-56218438D01*
X94584877Y-56218436D01*
X94529361Y-56077658D01*
X94529360Y-56077657D01*
X94529360Y-56077656D01*
X94437922Y-55957077D01*
X94317343Y-55865639D01*
X94176561Y-55810122D01*
X94130926Y-55804642D01*
X94088102Y-55799500D01*
X92951898Y-55799500D01*
X92912853Y-55804188D01*
X92863438Y-55810122D01*
X92722656Y-55865639D01*
X92602077Y-55957077D01*
X92510639Y-56077656D01*
X92455122Y-56218438D01*
X92449229Y-56267516D01*
X92444500Y-56306898D01*
X92444500Y-56306903D01*
X92444500Y-56658945D01*
X92424815Y-56725984D01*
X92372011Y-56771739D01*
X92302853Y-56781683D01*
X92239297Y-56752658D01*
X92232819Y-56746626D01*
X86550019Y-51063826D01*
X86516534Y-51002503D01*
X86513700Y-50976145D01*
X86513700Y-50399499D01*
X86533385Y-50332460D01*
X86586189Y-50286705D01*
X86637695Y-50275499D01*
X87072872Y-50275499D01*
X87132483Y-50269091D01*
X87267331Y-50218796D01*
X87382546Y-50132546D01*
X87468796Y-50017331D01*
X87472960Y-50006165D01*
X87514829Y-49950234D01*
X87580293Y-49925816D01*
X87589141Y-49925500D01*
X94980500Y-49925500D01*
X95047539Y-49945185D01*
G37*
G04 #@! TD.AperFunction*
G04 #@! TA.AperFunction,Conductor*
G36*
X86767134Y-44230072D02*
G01*
X86823067Y-44271944D01*
X86847484Y-44337408D01*
X86847800Y-44346254D01*
X86847800Y-45182473D01*
X86847800Y-45287927D01*
X86861446Y-45338857D01*
X86875093Y-45389789D01*
X86894833Y-45423978D01*
X86927820Y-45481113D01*
X86927822Y-45481115D01*
X87100281Y-45653574D01*
X87133766Y-45714897D01*
X87136600Y-45741255D01*
X87136600Y-45838069D01*
X87136600Y-45838071D01*
X87136599Y-45838071D01*
X87161597Y-45963738D01*
X87161599Y-45963744D01*
X87210633Y-46082124D01*
X87210638Y-46082133D01*
X87281823Y-46188668D01*
X87281826Y-46188672D01*
X87372427Y-46279273D01*
X87372431Y-46279276D01*
X87478966Y-46350461D01*
X87478972Y-46350464D01*
X87478973Y-46350465D01*
X87597356Y-46399501D01*
X87597360Y-46399501D01*
X87597361Y-46399502D01*
X87723028Y-46424500D01*
X87723031Y-46424500D01*
X87851171Y-46424500D01*
X87935715Y-46407682D01*
X87976844Y-46399501D01*
X88095227Y-46350465D01*
X88201769Y-46279276D01*
X88292376Y-46188669D01*
X88363565Y-46082127D01*
X88412601Y-45963744D01*
X88420782Y-45922615D01*
X88437600Y-45838071D01*
X88437600Y-45709928D01*
X88412602Y-45584261D01*
X88412601Y-45584260D01*
X88412601Y-45584256D01*
X88370073Y-45481585D01*
X88363566Y-45465875D01*
X88363561Y-45465866D01*
X88292376Y-45359331D01*
X88292373Y-45359327D01*
X88245226Y-45312180D01*
X88211741Y-45250857D01*
X88216725Y-45181165D01*
X88258597Y-45125232D01*
X88324061Y-45100815D01*
X88332907Y-45100499D01*
X89044856Y-45100499D01*
X89044864Y-45100499D01*
X89044879Y-45100497D01*
X89044882Y-45100497D01*
X89069987Y-45097586D01*
X89069991Y-45097585D01*
X89069996Y-45097583D01*
X89090412Y-45088567D01*
X89159690Y-45079495D01*
X89222875Y-45109317D01*
X89259907Y-45168566D01*
X89264500Y-45202001D01*
X89264500Y-46394856D01*
X89264502Y-46394882D01*
X89267413Y-46419987D01*
X89267415Y-46419991D01*
X89312793Y-46522764D01*
X89312794Y-46522765D01*
X89392235Y-46602206D01*
X89495009Y-46647585D01*
X89520135Y-46650500D01*
X90509864Y-46650499D01*
X90509879Y-46650497D01*
X90509882Y-46650497D01*
X90534987Y-46647586D01*
X90534987Y-46647585D01*
X90534991Y-46647585D01*
X90599914Y-46618918D01*
X90669190Y-46609847D01*
X90700085Y-46618919D01*
X90765004Y-46647583D01*
X90765009Y-46647585D01*
X90790135Y-46650500D01*
X91779864Y-46650499D01*
X91779879Y-46650497D01*
X91779882Y-46650497D01*
X91804987Y-46647586D01*
X91804987Y-46647585D01*
X91804991Y-46647585D01*
X91869914Y-46618918D01*
X91939190Y-46609847D01*
X91970085Y-46618919D01*
X92035004Y-46647583D01*
X92035009Y-46647585D01*
X92060135Y-46650500D01*
X93049864Y-46650499D01*
X93049879Y-46650497D01*
X93049882Y-46650497D01*
X93074987Y-46647586D01*
X93074987Y-46647585D01*
X93074991Y-46647585D01*
X93139914Y-46618918D01*
X93209190Y-46609847D01*
X93240085Y-46618919D01*
X93305004Y-46647583D01*
X93305009Y-46647585D01*
X93330135Y-46650500D01*
X94319864Y-46650499D01*
X94319879Y-46650497D01*
X94319882Y-46650497D01*
X94344987Y-46647586D01*
X94344987Y-46647585D01*
X94344991Y-46647585D01*
X94409914Y-46618918D01*
X94479190Y-46609847D01*
X94510085Y-46618919D01*
X94575004Y-46647583D01*
X94575009Y-46647585D01*
X94600135Y-46650500D01*
X95589864Y-46650499D01*
X95589879Y-46650497D01*
X95589882Y-46650497D01*
X95614987Y-46647586D01*
X95614987Y-46647585D01*
X95614991Y-46647585D01*
X95679914Y-46618918D01*
X95749190Y-46609847D01*
X95780085Y-46618919D01*
X95845004Y-46647583D01*
X95845009Y-46647585D01*
X95870135Y-46650500D01*
X96859864Y-46650499D01*
X96859879Y-46650497D01*
X96859882Y-46650497D01*
X96884987Y-46647586D01*
X96884987Y-46647585D01*
X96884991Y-46647585D01*
X96949914Y-46618918D01*
X97019190Y-46609847D01*
X97050085Y-46618919D01*
X97115004Y-46647583D01*
X97115009Y-46647585D01*
X97140135Y-46650500D01*
X98129864Y-46650499D01*
X98129879Y-46650497D01*
X98129882Y-46650497D01*
X98154987Y-46647586D01*
X98154987Y-46647585D01*
X98154991Y-46647585D01*
X98219914Y-46618918D01*
X98289190Y-46609847D01*
X98320085Y-46618919D01*
X98385004Y-46647583D01*
X98385009Y-46647585D01*
X98410135Y-46650500D01*
X99399864Y-46650499D01*
X99399879Y-46650497D01*
X99399882Y-46650497D01*
X99424987Y-46647586D01*
X99424987Y-46647585D01*
X99424991Y-46647585D01*
X99489914Y-46618918D01*
X99559190Y-46609847D01*
X99590085Y-46618919D01*
X99655004Y-46647583D01*
X99655009Y-46647585D01*
X99680135Y-46650500D01*
X100669864Y-46650499D01*
X100669879Y-46650497D01*
X100669882Y-46650497D01*
X100694987Y-46647586D01*
X100694987Y-46647585D01*
X100694991Y-46647585D01*
X100759914Y-46618918D01*
X100829190Y-46609847D01*
X100860085Y-46618919D01*
X100925004Y-46647583D01*
X100925009Y-46647585D01*
X100950135Y-46650500D01*
X101939864Y-46650499D01*
X101939879Y-46650497D01*
X101939882Y-46650497D01*
X101964987Y-46647586D01*
X101964987Y-46647585D01*
X101964991Y-46647585D01*
X102029914Y-46618918D01*
X102099190Y-46609847D01*
X102130085Y-46618919D01*
X102195004Y-46647583D01*
X102195009Y-46647585D01*
X102220135Y-46650500D01*
X103209864Y-46650499D01*
X103209879Y-46650497D01*
X103209882Y-46650497D01*
X103234987Y-46647586D01*
X103234987Y-46647585D01*
X103234991Y-46647585D01*
X103299914Y-46618918D01*
X103369190Y-46609847D01*
X103400085Y-46618919D01*
X103465004Y-46647583D01*
X103465009Y-46647585D01*
X103490135Y-46650500D01*
X103725089Y-46650499D01*
X103792128Y-46670183D01*
X103837883Y-46722987D01*
X103847827Y-46792146D01*
X103818802Y-46855701D01*
X103812770Y-46862180D01*
X101636771Y-49038181D01*
X101575448Y-49071666D01*
X101549090Y-49074500D01*
X87589141Y-49074500D01*
X87522102Y-49054815D01*
X87476347Y-49002011D01*
X87472969Y-48993859D01*
X87468796Y-48982669D01*
X87468793Y-48982665D01*
X87468793Y-48982664D01*
X87382547Y-48867455D01*
X87382544Y-48867452D01*
X87267335Y-48781206D01*
X87267328Y-48781202D01*
X87132486Y-48730910D01*
X87132485Y-48730909D01*
X87132483Y-48730909D01*
X87072873Y-48724500D01*
X87072864Y-48724500D01*
X86637700Y-48724500D01*
X86570661Y-48704815D01*
X86524906Y-48652011D01*
X86513700Y-48600500D01*
X86513700Y-44432354D01*
X86533385Y-44365315D01*
X86550015Y-44344677D01*
X86636120Y-44258572D01*
X86697442Y-44225088D01*
X86767134Y-44230072D01*
G37*
G04 #@! TD.AperFunction*
G04 #@! TD*
M02*
