M48
; DRILL file KiCad 10.0.5 date 2026-09-11T16:07:09
; FORMAT={-:-/ absolute / metric / decimal}
; #@! TF.CreationDate,2026-09-11T16:07:09-03:00
; #@! TF.GenerationSoftware,Kicad,Pcbnew,10.0.5
; #@! TF.FileFunction,MixedPlating,1,2
FMAT,2
METRIC
; #@! TA.AperFunction,Plated,PTH,ComponentDrill
T1C0.300
; #@! TA.AperFunction,Plated,PTH,ViaDrill
T2C0.350
; #@! TA.AperFunction,Plated,PTH,ViaDrill
T3C0.450
; #@! TA.AperFunction,Plated,PTH,ComponentDrill
T4C0.600
; #@! TA.AperFunction,Plated,PTH,ComponentDrill
T5C0.950
; #@! TA.AperFunction,Plated,PTH,ComponentDrill
T6C1.000
; #@! TA.AperFunction,Plated,PTH,ComponentDrill
T7C1.300
; #@! TA.AperFunction,NonPlated,NPTH,ComponentDrill
T8C0.650
; #@! TA.AperFunction,NonPlated,NPTH,ComponentDrill
T9C3.200
%
G90
G05
T1
X94.1Y-34.86
X94.1Y-36.26
X94.8Y-34.16
X94.8Y-35.56
X94.8Y-36.96
X95.5Y-34.86
X95.5Y-36.26
X96.2Y-34.16
X96.2Y-35.56
X96.2Y-36.96
X96.9Y-34.86
X96.9Y-36.26
T2
X23.0Y-23.0
X29.0Y-29.0
X29.0Y-41.0
X29.0Y-47.0
X29.0Y-59.0
X29.0Y-65.0
X35.0Y-23.0
X35.0Y-29.0
X35.0Y-35.0
X35.0Y-41.0
X36.338Y-48.472
X38.885Y-54.345
X38.981Y-64.675
X41.0Y-23.0
X41.0Y-29.0
X41.0Y-35.0
X41.0Y-41.0
X41.0Y-47.0
X41.0Y-59.0
X42.22Y-29.775
X47.0Y-23.0
X47.0Y-29.0
X47.0Y-41.0
X47.0Y-53.0
X49.473Y-45.877
X51.711Y-57.08
X52.532Y-55.207
X53.0Y-23.0
X53.0Y-29.0
X53.0Y-35.0
X53.0Y-47.0
X53.0Y-53.0
X59.0Y-23.0
X59.0Y-29.0
X59.0Y-35.0
X59.0Y-47.0
X59.0Y-53.0
X59.0Y-65.0
X64.559Y-25.21
X64.642Y-57.433
X65.0Y-23.0
X65.0Y-29.0
X65.0Y-35.0
X65.0Y-47.0
X65.0Y-53.0
X65.0Y-65.0
X71.0Y-23.0
X71.0Y-29.0
X71.0Y-35.0
X71.0Y-47.0
X71.0Y-53.0
X71.0Y-65.0
X77.0Y-29.0
X77.0Y-35.0
X77.0Y-47.0
X77.0Y-53.0
X82.864Y-30.686
X83.0Y-35.0
X83.0Y-47.0
X83.0Y-53.0
X83.961Y-57.344
X84.817Y-65.365
X84.936Y-34.637
X86.368Y-32.422
X87.084Y-65.114
X87.787Y-45.774
X88.251Y-65.228
X88.273Y-57.344
X89.0Y-47.0
X89.0Y-53.0
X89.0Y-59.0
X95.0Y-29.0
X101.0Y-29.0
X101.0Y-35.0
X101.0Y-41.0
X101.0Y-47.0
X101.0Y-53.0
X101.0Y-59.0
X103.004Y-41.653
X103.806Y-34.754
X104.032Y-36.956
X104.469Y-56.398
X107.0Y-47.0
T3
X32.929Y-48.798
X35.441Y-58.626
X39.506Y-60.898
X55.141Y-61.934
X64.251Y-58.456
X86.294Y-37.445
X89.693Y-29.002
T5
X30.0Y-32.0
X30.0Y-34.5
X30.0Y-37.0
T6
X95.0Y-64.5
X97.54Y-64.5
X100.08Y-64.5
X102.62Y-64.5
X105.16Y-64.5
X107.7Y-64.5
T7
X22.25Y-30.0
X22.25Y-34.0
X22.25Y-38.0
X22.25Y-42.0
X22.25Y-46.0
X22.25Y-50.0
X22.25Y-54.0
X22.25Y-58.0
X25.25Y-30.0
X25.25Y-34.0
X25.25Y-38.0
X25.25Y-42.0
X25.25Y-46.0
X25.25Y-50.0
X25.25Y-54.0
X25.25Y-58.0
T8
X83.61Y-65.3
X89.39Y-65.3
T9
X24.5Y-66.0
X30.0Y-24.0
X74.5Y-66.0
X106.5Y-52.0
T4
X82.18Y-64.22G85X82.18Y-65.32
G05
X82.18Y-68.65G85X82.18Y-69.25
G05
X90.82Y-64.22G85X90.82Y-65.32
G05
X90.82Y-68.65G85X90.82Y-69.25
G05
M30
