%TF.GenerationSoftware,KiCad,Pcbnew,10.0.5*%
%TF.CreationDate,2026-09-11T15:45:53-03:00*%
%TF.ProjectId,e36-kline-onboard,6533362d-6b6c-4696-9e65-2d6f6e626f61,rev?*%
%TF.SameCoordinates,Original*%
%TF.FileFunction,Drillmap*%
%TF.FilePolarity,Positive*%
%FSLAX45Y45*%
G04 Gerber Fmt 4.5, Leading zero omitted, Abs format (unit mm)*
G04 Created by KiCad (PCBNEW 10.0.5) date 2026-09-11 15:45:53*
%MOMM*%
%LPD*%
G01*
G04 APERTURE LIST*
%ADD10C,0.100000*%
%ADD11C,0.200000*%
%ADD12C,0.130000*%
%ADD13C,0.320000*%
G04 APERTURE END LIST*
D10*
X2000000Y-2000000D02*
X11000000Y-2000000D01*
X2000000Y-7000000D02*
X2000000Y-2000000D01*
X11000000Y-2000000D02*
X11000000Y-7000000D01*
X11000000Y-7000000D02*
X2000000Y-7000000D01*
D11*
D10*
X9395000Y-3471000D02*
X9425000Y-3501000D01*
X9425000Y-3471000D02*
X9395000Y-3501000D01*
X9395000Y-3611000D02*
X9425000Y-3641000D01*
X9425000Y-3611000D02*
X9395000Y-3641000D01*
X9465000Y-3401000D02*
X9495000Y-3431000D01*
X9495000Y-3401000D02*
X9465000Y-3431000D01*
X9465000Y-3541000D02*
X9495000Y-3571000D01*
X9495000Y-3541000D02*
X9465000Y-3571000D01*
X9465000Y-3681000D02*
X9495000Y-3711000D01*
X9495000Y-3681000D02*
X9465000Y-3711000D01*
X9535000Y-3471000D02*
X9565000Y-3501000D01*
X9565000Y-3471000D02*
X9535000Y-3501000D01*
X9535000Y-3611000D02*
X9565000Y-3641000D01*
X9565000Y-3611000D02*
X9535000Y-3641000D01*
X9605000Y-3401000D02*
X9635000Y-3431000D01*
X9635000Y-3401000D02*
X9605000Y-3431000D01*
X9605000Y-3541000D02*
X9635000Y-3571000D01*
X9635000Y-3541000D02*
X9605000Y-3571000D01*
X9605000Y-3681000D02*
X9635000Y-3711000D01*
X9635000Y-3681000D02*
X9605000Y-3711000D01*
X9675000Y-3471000D02*
X9705000Y-3501000D01*
X9705000Y-3471000D02*
X9675000Y-3501000D01*
X9675000Y-3611000D02*
X9705000Y-3641000D01*
X9705000Y-3611000D02*
X9675000Y-3641000D01*
X2317500Y-2300000D02*
G75*
G02*
X2282500Y-2300000I-17500J0D01*
G01*
X2282500Y-2300000D02*
G75*
G02*
X2317500Y-2300000I17500J0D01*
G01*
X2917500Y-2900000D02*
G75*
G02*
X2882500Y-2900000I-17500J0D01*
G01*
X2882500Y-2900000D02*
G75*
G02*
X2917500Y-2900000I17500J0D01*
G01*
X2917500Y-4100000D02*
G75*
G02*
X2882500Y-4100000I-17500J0D01*
G01*
X2882500Y-4100000D02*
G75*
G02*
X2917500Y-4100000I17500J0D01*
G01*
X2917500Y-4700000D02*
G75*
G02*
X2882500Y-4700000I-17500J0D01*
G01*
X2882500Y-4700000D02*
G75*
G02*
X2917500Y-4700000I17500J0D01*
G01*
X2917500Y-5900000D02*
G75*
G02*
X2882500Y-5900000I-17500J0D01*
G01*
X2882500Y-5900000D02*
G75*
G02*
X2917500Y-5900000I17500J0D01*
G01*
X2917500Y-6500000D02*
G75*
G02*
X2882500Y-6500000I-17500J0D01*
G01*
X2882500Y-6500000D02*
G75*
G02*
X2917500Y-6500000I17500J0D01*
G01*
X3517500Y-2300000D02*
G75*
G02*
X3482500Y-2300000I-17500J0D01*
G01*
X3482500Y-2300000D02*
G75*
G02*
X3517500Y-2300000I17500J0D01*
G01*
X3517500Y-2900000D02*
G75*
G02*
X3482500Y-2900000I-17500J0D01*
G01*
X3482500Y-2900000D02*
G75*
G02*
X3517500Y-2900000I17500J0D01*
G01*
X3517500Y-3500000D02*
G75*
G02*
X3482500Y-3500000I-17500J0D01*
G01*
X3482500Y-3500000D02*
G75*
G02*
X3517500Y-3500000I17500J0D01*
G01*
X3517500Y-4100000D02*
G75*
G02*
X3482500Y-4100000I-17500J0D01*
G01*
X3482500Y-4100000D02*
G75*
G02*
X3517500Y-4100000I17500J0D01*
G01*
X3651330Y-4847200D02*
G75*
G02*
X3616330Y-4847200I-17500J0D01*
G01*
X3616330Y-4847200D02*
G75*
G02*
X3651330Y-4847200I17500J0D01*
G01*
X3905990Y-5434540D02*
G75*
G02*
X3870990Y-5434540I-17500J0D01*
G01*
X3870990Y-5434540D02*
G75*
G02*
X3905990Y-5434540I17500J0D01*
G01*
X3915620Y-6467500D02*
G75*
G02*
X3880620Y-6467500I-17500J0D01*
G01*
X3880620Y-6467500D02*
G75*
G02*
X3915620Y-6467500I17500J0D01*
G01*
X4117500Y-2300000D02*
G75*
G02*
X4082500Y-2300000I-17500J0D01*
G01*
X4082500Y-2300000D02*
G75*
G02*
X4117500Y-2300000I17500J0D01*
G01*
X4117500Y-2900000D02*
G75*
G02*
X4082500Y-2900000I-17500J0D01*
G01*
X4082500Y-2900000D02*
G75*
G02*
X4117500Y-2900000I17500J0D01*
G01*
X4117500Y-3500000D02*
G75*
G02*
X4082500Y-3500000I-17500J0D01*
G01*
X4082500Y-3500000D02*
G75*
G02*
X4117500Y-3500000I17500J0D01*
G01*
X4117500Y-4100000D02*
G75*
G02*
X4082500Y-4100000I-17500J0D01*
G01*
X4082500Y-4100000D02*
G75*
G02*
X4117500Y-4100000I17500J0D01*
G01*
X4117500Y-4700000D02*
G75*
G02*
X4082500Y-4700000I-17500J0D01*
G01*
X4082500Y-4700000D02*
G75*
G02*
X4117500Y-4700000I17500J0D01*
G01*
X4117500Y-5900000D02*
G75*
G02*
X4082500Y-5900000I-17500J0D01*
G01*
X4082500Y-5900000D02*
G75*
G02*
X4117500Y-5900000I17500J0D01*
G01*
X4239530Y-2977550D02*
G75*
G02*
X4204530Y-2977550I-17500J0D01*
G01*
X4204530Y-2977550D02*
G75*
G02*
X4239530Y-2977550I17500J0D01*
G01*
X4717500Y-2300000D02*
G75*
G02*
X4682500Y-2300000I-17500J0D01*
G01*
X4682500Y-2300000D02*
G75*
G02*
X4717500Y-2300000I17500J0D01*
G01*
X4717500Y-2900000D02*
G75*
G02*
X4682500Y-2900000I-17500J0D01*
G01*
X4682500Y-2900000D02*
G75*
G02*
X4717500Y-2900000I17500J0D01*
G01*
X4717500Y-4100000D02*
G75*
G02*
X4682500Y-4100000I-17500J0D01*
G01*
X4682500Y-4100000D02*
G75*
G02*
X4717500Y-4100000I17500J0D01*
G01*
X4717500Y-5300000D02*
G75*
G02*
X4682500Y-5300000I-17500J0D01*
G01*
X4682500Y-5300000D02*
G75*
G02*
X4717500Y-5300000I17500J0D01*
G01*
X4964780Y-4587720D02*
G75*
G02*
X4929780Y-4587720I-17500J0D01*
G01*
X4929780Y-4587720D02*
G75*
G02*
X4964780Y-4587720I17500J0D01*
G01*
X5188560Y-5708040D02*
G75*
G02*
X5153560Y-5708040I-17500J0D01*
G01*
X5153560Y-5708040D02*
G75*
G02*
X5188560Y-5708040I17500J0D01*
G01*
X5270670Y-5520670D02*
G75*
G02*
X5235670Y-5520670I-17500J0D01*
G01*
X5235670Y-5520670D02*
G75*
G02*
X5270670Y-5520670I17500J0D01*
G01*
X5317500Y-2300000D02*
G75*
G02*
X5282500Y-2300000I-17500J0D01*
G01*
X5282500Y-2300000D02*
G75*
G02*
X5317500Y-2300000I17500J0D01*
G01*
X5317500Y-2900000D02*
G75*
G02*
X5282500Y-2900000I-17500J0D01*
G01*
X5282500Y-2900000D02*
G75*
G02*
X5317500Y-2900000I17500J0D01*
G01*
X5317500Y-3500000D02*
G75*
G02*
X5282500Y-3500000I-17500J0D01*
G01*
X5282500Y-3500000D02*
G75*
G02*
X5317500Y-3500000I17500J0D01*
G01*
X5317500Y-4700000D02*
G75*
G02*
X5282500Y-4700000I-17500J0D01*
G01*
X5282500Y-4700000D02*
G75*
G02*
X5317500Y-4700000I17500J0D01*
G01*
X5317500Y-5300000D02*
G75*
G02*
X5282500Y-5300000I-17500J0D01*
G01*
X5282500Y-5300000D02*
G75*
G02*
X5317500Y-5300000I17500J0D01*
G01*
X5917500Y-2300000D02*
G75*
G02*
X5882500Y-2300000I-17500J0D01*
G01*
X5882500Y-2300000D02*
G75*
G02*
X5917500Y-2300000I17500J0D01*
G01*
X5917500Y-2900000D02*
G75*
G02*
X5882500Y-2900000I-17500J0D01*
G01*
X5882500Y-2900000D02*
G75*
G02*
X5917500Y-2900000I17500J0D01*
G01*
X5917500Y-3500000D02*
G75*
G02*
X5882500Y-3500000I-17500J0D01*
G01*
X5882500Y-3500000D02*
G75*
G02*
X5917500Y-3500000I17500J0D01*
G01*
X5917500Y-4700000D02*
G75*
G02*
X5882500Y-4700000I-17500J0D01*
G01*
X5882500Y-4700000D02*
G75*
G02*
X5917500Y-4700000I17500J0D01*
G01*
X5917500Y-5300000D02*
G75*
G02*
X5882500Y-5300000I-17500J0D01*
G01*
X5882500Y-5300000D02*
G75*
G02*
X5917500Y-5300000I17500J0D01*
G01*
X5917500Y-6500000D02*
G75*
G02*
X5882500Y-6500000I-17500J0D01*
G01*
X5882500Y-6500000D02*
G75*
G02*
X5917500Y-6500000I17500J0D01*
G01*
X6473450Y-2521050D02*
G75*
G02*
X6438450Y-2521050I-17500J0D01*
G01*
X6438450Y-2521050D02*
G75*
G02*
X6473450Y-2521050I17500J0D01*
G01*
X6481700Y-5743310D02*
G75*
G02*
X6446700Y-5743310I-17500J0D01*
G01*
X6446700Y-5743310D02*
G75*
G02*
X6481700Y-5743310I17500J0D01*
G01*
X6517500Y-2300000D02*
G75*
G02*
X6482500Y-2300000I-17500J0D01*
G01*
X6482500Y-2300000D02*
G75*
G02*
X6517500Y-2300000I17500J0D01*
G01*
X6517500Y-2900000D02*
G75*
G02*
X6482500Y-2900000I-17500J0D01*
G01*
X6482500Y-2900000D02*
G75*
G02*
X6517500Y-2900000I17500J0D01*
G01*
X6517500Y-3500000D02*
G75*
G02*
X6482500Y-3500000I-17500J0D01*
G01*
X6482500Y-3500000D02*
G75*
G02*
X6517500Y-3500000I17500J0D01*
G01*
X6517500Y-4700000D02*
G75*
G02*
X6482500Y-4700000I-17500J0D01*
G01*
X6482500Y-4700000D02*
G75*
G02*
X6517500Y-4700000I17500J0D01*
G01*
X6517500Y-5300000D02*
G75*
G02*
X6482500Y-5300000I-17500J0D01*
G01*
X6482500Y-5300000D02*
G75*
G02*
X6517500Y-5300000I17500J0D01*
G01*
X6517500Y-6500000D02*
G75*
G02*
X6482500Y-6500000I-17500J0D01*
G01*
X6482500Y-6500000D02*
G75*
G02*
X6517500Y-6500000I17500J0D01*
G01*
X7117500Y-2300000D02*
G75*
G02*
X7082500Y-2300000I-17500J0D01*
G01*
X7082500Y-2300000D02*
G75*
G02*
X7117500Y-2300000I17500J0D01*
G01*
X7117500Y-2900000D02*
G75*
G02*
X7082500Y-2900000I-17500J0D01*
G01*
X7082500Y-2900000D02*
G75*
G02*
X7117500Y-2900000I17500J0D01*
G01*
X7117500Y-3500000D02*
G75*
G02*
X7082500Y-3500000I-17500J0D01*
G01*
X7082500Y-3500000D02*
G75*
G02*
X7117500Y-3500000I17500J0D01*
G01*
X7117500Y-4700000D02*
G75*
G02*
X7082500Y-4700000I-17500J0D01*
G01*
X7082500Y-4700000D02*
G75*
G02*
X7117500Y-4700000I17500J0D01*
G01*
X7117500Y-5300000D02*
G75*
G02*
X7082500Y-5300000I-17500J0D01*
G01*
X7082500Y-5300000D02*
G75*
G02*
X7117500Y-5300000I17500J0D01*
G01*
X7117500Y-6500000D02*
G75*
G02*
X7082500Y-6500000I-17500J0D01*
G01*
X7082500Y-6500000D02*
G75*
G02*
X7117500Y-6500000I17500J0D01*
G01*
X7717500Y-2900000D02*
G75*
G02*
X7682500Y-2900000I-17500J0D01*
G01*
X7682500Y-2900000D02*
G75*
G02*
X7717500Y-2900000I17500J0D01*
G01*
X7717500Y-3500000D02*
G75*
G02*
X7682500Y-3500000I-17500J0D01*
G01*
X7682500Y-3500000D02*
G75*
G02*
X7717500Y-3500000I17500J0D01*
G01*
X7717500Y-4700000D02*
G75*
G02*
X7682500Y-4700000I-17500J0D01*
G01*
X7682500Y-4700000D02*
G75*
G02*
X7717500Y-4700000I17500J0D01*
G01*
X7717500Y-5300000D02*
G75*
G02*
X7682500Y-5300000I-17500J0D01*
G01*
X7682500Y-5300000D02*
G75*
G02*
X7717500Y-5300000I17500J0D01*
G01*
X8303880Y-3068630D02*
G75*
G02*
X8268880Y-3068630I-17500J0D01*
G01*
X8268880Y-3068630D02*
G75*
G02*
X8303880Y-3068630I17500J0D01*
G01*
X8317500Y-3500000D02*
G75*
G02*
X8282500Y-3500000I-17500J0D01*
G01*
X8282500Y-3500000D02*
G75*
G02*
X8317500Y-3500000I17500J0D01*
G01*
X8317500Y-4700000D02*
G75*
G02*
X8282500Y-4700000I-17500J0D01*
G01*
X8282500Y-4700000D02*
G75*
G02*
X8317500Y-4700000I17500J0D01*
G01*
X8317500Y-5300000D02*
G75*
G02*
X8282500Y-5300000I-17500J0D01*
G01*
X8282500Y-5300000D02*
G75*
G02*
X8317500Y-5300000I17500J0D01*
G01*
X8413620Y-5734410D02*
G75*
G02*
X8378620Y-5734410I-17500J0D01*
G01*
X8378620Y-5734410D02*
G75*
G02*
X8413620Y-5734410I17500J0D01*
G01*
X8499250Y-6536530D02*
G75*
G02*
X8464250Y-6536530I-17500J0D01*
G01*
X8464250Y-6536530D02*
G75*
G02*
X8499250Y-6536530I17500J0D01*
G01*
X8511120Y-3463750D02*
G75*
G02*
X8476120Y-3463750I-17500J0D01*
G01*
X8476120Y-3463750D02*
G75*
G02*
X8511120Y-3463750I17500J0D01*
G01*
X8654260Y-3242150D02*
G75*
G02*
X8619260Y-3242150I-17500J0D01*
G01*
X8619260Y-3242150D02*
G75*
G02*
X8654260Y-3242150I17500J0D01*
G01*
X8725930Y-6511350D02*
G75*
G02*
X8690930Y-6511350I-17500J0D01*
G01*
X8690930Y-6511350D02*
G75*
G02*
X8725930Y-6511350I17500J0D01*
G01*
X8796210Y-4577400D02*
G75*
G02*
X8761210Y-4577400I-17500J0D01*
G01*
X8761210Y-4577400D02*
G75*
G02*
X8796210Y-4577400I17500J0D01*
G01*
X8842610Y-6522830D02*
G75*
G02*
X8807610Y-6522830I-17500J0D01*
G01*
X8807610Y-6522830D02*
G75*
G02*
X8842610Y-6522830I17500J0D01*
G01*
X8844770Y-5734410D02*
G75*
G02*
X8809770Y-5734410I-17500J0D01*
G01*
X8809770Y-5734410D02*
G75*
G02*
X8844770Y-5734410I17500J0D01*
G01*
X8917500Y-4700000D02*
G75*
G02*
X8882500Y-4700000I-17500J0D01*
G01*
X8882500Y-4700000D02*
G75*
G02*
X8917500Y-4700000I17500J0D01*
G01*
X8917500Y-5300000D02*
G75*
G02*
X8882500Y-5300000I-17500J0D01*
G01*
X8882500Y-5300000D02*
G75*
G02*
X8917500Y-5300000I17500J0D01*
G01*
X8917500Y-5900000D02*
G75*
G02*
X8882500Y-5900000I-17500J0D01*
G01*
X8882500Y-5900000D02*
G75*
G02*
X8917500Y-5900000I17500J0D01*
G01*
X9517500Y-2900000D02*
G75*
G02*
X9482500Y-2900000I-17500J0D01*
G01*
X9482500Y-2900000D02*
G75*
G02*
X9517500Y-2900000I17500J0D01*
G01*
X10117500Y-2900000D02*
G75*
G02*
X10082500Y-2900000I-17500J0D01*
G01*
X10082500Y-2900000D02*
G75*
G02*
X10117500Y-2900000I17500J0D01*
G01*
X10117500Y-3500000D02*
G75*
G02*
X10082500Y-3500000I-17500J0D01*
G01*
X10082500Y-3500000D02*
G75*
G02*
X10117500Y-3500000I17500J0D01*
G01*
X10117500Y-4100000D02*
G75*
G02*
X10082500Y-4100000I-17500J0D01*
G01*
X10082500Y-4100000D02*
G75*
G02*
X10117500Y-4100000I17500J0D01*
G01*
X10117500Y-4700000D02*
G75*
G02*
X10082500Y-4700000I-17500J0D01*
G01*
X10082500Y-4700000D02*
G75*
G02*
X10117500Y-4700000I17500J0D01*
G01*
X10117500Y-5300000D02*
G75*
G02*
X10082500Y-5300000I-17500J0D01*
G01*
X10082500Y-5300000D02*
G75*
G02*
X10117500Y-5300000I17500J0D01*
G01*
X10117500Y-5900000D02*
G75*
G02*
X10082500Y-5900000I-17500J0D01*
G01*
X10082500Y-5900000D02*
G75*
G02*
X10117500Y-5900000I17500J0D01*
G01*
X10317910Y-4165300D02*
G75*
G02*
X10282910Y-4165300I-17500J0D01*
G01*
X10282910Y-4165300D02*
G75*
G02*
X10317910Y-4165300I17500J0D01*
G01*
X10398080Y-3475390D02*
G75*
G02*
X10363080Y-3475390I-17500J0D01*
G01*
X10363080Y-3475390D02*
G75*
G02*
X10398080Y-3475390I17500J0D01*
G01*
X10420660Y-3695650D02*
G75*
G02*
X10385660Y-3695650I-17500J0D01*
G01*
X10385660Y-3695650D02*
G75*
G02*
X10420660Y-3695650I17500J0D01*
G01*
X10464410Y-5639750D02*
G75*
G02*
X10429410Y-5639750I-17500J0D01*
G01*
X10429410Y-5639750D02*
G75*
G02*
X10464410Y-5639750I17500J0D01*
G01*
X10717500Y-4700000D02*
G75*
G02*
X10682500Y-4700000I-17500J0D01*
G01*
X10682500Y-4700000D02*
G75*
G02*
X10717500Y-4700000I17500J0D01*
G01*
X3292870Y-4857280D02*
X3292870Y-4902280D01*
X3270370Y-4879780D02*
X3315370Y-4879780D01*
X3544120Y-5840090D02*
X3544120Y-5885090D01*
X3521620Y-5862590D02*
X3566620Y-5862590D01*
X3950590Y-6067310D02*
X3950590Y-6112310D01*
X3928090Y-6089810D02*
X3973090Y-6089810D01*
X5514140Y-6170900D02*
X5514140Y-6215900D01*
X5491640Y-6193400D02*
X5536640Y-6193400D01*
X6425100Y-5823060D02*
X6425100Y-5868060D01*
X6402600Y-5845560D02*
X6447600Y-5845560D01*
X8629390Y-3722010D02*
X8629390Y-3767010D01*
X8606890Y-3744510D02*
X8651890Y-3744510D01*
X8969260Y-2877730D02*
X8969260Y-2922730D01*
X8946760Y-2900230D02*
X8991760Y-2900230D01*
X8239213Y-6498213D02*
X8239213Y-6455787D01*
X8196787Y-6455787D01*
X8196787Y-6498213D01*
X8239213Y-6498213D01*
X8188000Y-6422000D02*
X8188000Y-6532000D01*
X8248000Y-6532000D02*
G75*
G02*
X8188000Y-6532000I-30000J0D01*
G01*
X8248000Y-6532000D02*
X8248000Y-6422000D01*
X8248000Y-6422000D02*
G75*
G03*
X8188000Y-6422000I-30000J0D01*
G01*
X8239213Y-6916213D02*
X8239213Y-6873787D01*
X8196787Y-6873787D01*
X8196787Y-6916213D01*
X8239213Y-6916213D01*
X8188000Y-6865000D02*
X8188000Y-6925000D01*
X8248000Y-6925000D02*
G75*
G02*
X8188000Y-6925000I-30000J0D01*
G01*
X8248000Y-6925000D02*
X8248000Y-6865000D01*
X8248000Y-6865000D02*
G75*
G03*
X8188000Y-6865000I-30000J0D01*
G01*
X9103213Y-6498213D02*
X9103213Y-6455787D01*
X9060787Y-6455787D01*
X9060787Y-6498213D01*
X9103213Y-6498213D01*
X9052000Y-6422000D02*
X9052000Y-6532000D01*
X9112000Y-6532000D02*
G75*
G02*
X9052000Y-6532000I-30000J0D01*
G01*
X9112000Y-6532000D02*
X9112000Y-6422000D01*
X9112000Y-6422000D02*
G75*
G03*
X9052000Y-6422000I-30000J0D01*
G01*
X9103213Y-6916213D02*
X9103213Y-6873787D01*
X9060787Y-6873787D01*
X9060787Y-6916213D01*
X9103213Y-6916213D01*
X9052000Y-6865000D02*
X9052000Y-6925000D01*
X9112000Y-6925000D02*
G75*
G02*
X9052000Y-6925000I-30000J0D01*
G01*
X9112000Y-6925000D02*
X9112000Y-6865000D01*
X9112000Y-6865000D02*
G75*
G03*
X9052000Y-6865000I-30000J0D01*
G01*
X3000000Y-3247500D02*
X3047500Y-3200000D01*
X3000000Y-3152500D01*
X2952500Y-3200000D01*
X3000000Y-3247500D01*
X3000000Y-3497500D02*
X3047500Y-3450000D01*
X3000000Y-3402500D01*
X2952500Y-3450000D01*
X3000000Y-3497500D01*
X3000000Y-3747500D02*
X3047500Y-3700000D01*
X3000000Y-3652500D01*
X2952500Y-3700000D01*
X3000000Y-3747500D01*
X9450000Y-6400000D02*
X9550000Y-6500000D01*
X9550000Y-6400000D02*
X9450000Y-6500000D01*
X9550000Y-6450000D02*
G75*
G02*
X9450000Y-6450000I-50000J0D01*
G01*
X9450000Y-6450000D02*
G75*
G02*
X9550000Y-6450000I50000J0D01*
G01*
X9704000Y-6400000D02*
X9804000Y-6500000D01*
X9804000Y-6400000D02*
X9704000Y-6500000D01*
X9804000Y-6450000D02*
G75*
G02*
X9704000Y-6450000I-50000J0D01*
G01*
X9704000Y-6450000D02*
G75*
G02*
X9804000Y-6450000I50000J0D01*
G01*
X9958000Y-6400000D02*
X10058000Y-6500000D01*
X10058000Y-6400000D02*
X9958000Y-6500000D01*
X10058000Y-6450000D02*
G75*
G02*
X9958000Y-6450000I-50000J0D01*
G01*
X9958000Y-6450000D02*
G75*
G02*
X10058000Y-6450000I50000J0D01*
G01*
X10212000Y-6400000D02*
X10312000Y-6500000D01*
X10312000Y-6400000D02*
X10212000Y-6500000D01*
X10312000Y-6450000D02*
G75*
G02*
X10212000Y-6450000I-50000J0D01*
G01*
X10212000Y-6450000D02*
G75*
G02*
X10312000Y-6450000I50000J0D01*
G01*
X10466000Y-6400000D02*
X10566000Y-6500000D01*
X10566000Y-6400000D02*
X10466000Y-6500000D01*
X10566000Y-6450000D02*
G75*
G02*
X10466000Y-6450000I-50000J0D01*
G01*
X10466000Y-6450000D02*
G75*
G02*
X10566000Y-6450000I50000J0D01*
G01*
X10720000Y-6400000D02*
X10820000Y-6500000D01*
X10820000Y-6400000D02*
X10720000Y-6500000D01*
X10820000Y-6450000D02*
G75*
G02*
X10720000Y-6450000I-50000J0D01*
G01*
X10720000Y-6450000D02*
G75*
G02*
X10820000Y-6450000I50000J0D01*
G01*
D12*
X2160000Y-2935000D02*
X2290000Y-3065000D01*
X2290000Y-2935000D02*
X2160000Y-3065000D01*
X2225000Y-2935000D02*
X2225000Y-3065000D01*
X2160000Y-3000000D02*
X2290000Y-3000000D01*
X2160000Y-3335000D02*
X2290000Y-3465000D01*
X2290000Y-3335000D02*
X2160000Y-3465000D01*
X2225000Y-3335000D02*
X2225000Y-3465000D01*
X2160000Y-3400000D02*
X2290000Y-3400000D01*
X2160000Y-3735000D02*
X2290000Y-3865000D01*
X2290000Y-3735000D02*
X2160000Y-3865000D01*
X2225000Y-3735000D02*
X2225000Y-3865000D01*
X2160000Y-3800000D02*
X2290000Y-3800000D01*
X2160000Y-4135000D02*
X2290000Y-4265000D01*
X2290000Y-4135000D02*
X2160000Y-4265000D01*
X2225000Y-4135000D02*
X2225000Y-4265000D01*
X2160000Y-4200000D02*
X2290000Y-4200000D01*
X2160000Y-4535000D02*
X2290000Y-4665000D01*
X2290000Y-4535000D02*
X2160000Y-4665000D01*
X2225000Y-4535000D02*
X2225000Y-4665000D01*
X2160000Y-4600000D02*
X2290000Y-4600000D01*
X2160000Y-4935000D02*
X2290000Y-5065000D01*
X2290000Y-4935000D02*
X2160000Y-5065000D01*
X2225000Y-4935000D02*
X2225000Y-5065000D01*
X2160000Y-5000000D02*
X2290000Y-5000000D01*
X2160000Y-5335000D02*
X2290000Y-5465000D01*
X2290000Y-5335000D02*
X2160000Y-5465000D01*
X2225000Y-5335000D02*
X2225000Y-5465000D01*
X2160000Y-5400000D02*
X2290000Y-5400000D01*
X2160000Y-5735000D02*
X2290000Y-5865000D01*
X2290000Y-5735000D02*
X2160000Y-5865000D01*
X2225000Y-5735000D02*
X2225000Y-5865000D01*
X2160000Y-5800000D02*
X2290000Y-5800000D01*
X2460000Y-2935000D02*
X2590000Y-3065000D01*
X2590000Y-2935000D02*
X2460000Y-3065000D01*
X2525000Y-2935000D02*
X2525000Y-3065000D01*
X2460000Y-3000000D02*
X2590000Y-3000000D01*
X2460000Y-3335000D02*
X2590000Y-3465000D01*
X2590000Y-3335000D02*
X2460000Y-3465000D01*
X2525000Y-3335000D02*
X2525000Y-3465000D01*
X2460000Y-3400000D02*
X2590000Y-3400000D01*
X2460000Y-3735000D02*
X2590000Y-3865000D01*
X2590000Y-3735000D02*
X2460000Y-3865000D01*
X2525000Y-3735000D02*
X2525000Y-3865000D01*
X2460000Y-3800000D02*
X2590000Y-3800000D01*
X2460000Y-4135000D02*
X2590000Y-4265000D01*
X2590000Y-4135000D02*
X2460000Y-4265000D01*
X2525000Y-4135000D02*
X2525000Y-4265000D01*
X2460000Y-4200000D02*
X2590000Y-4200000D01*
X2460000Y-4535000D02*
X2590000Y-4665000D01*
X2590000Y-4535000D02*
X2460000Y-4665000D01*
X2525000Y-4535000D02*
X2525000Y-4665000D01*
X2460000Y-4600000D02*
X2590000Y-4600000D01*
X2460000Y-4935000D02*
X2590000Y-5065000D01*
X2590000Y-4935000D02*
X2460000Y-5065000D01*
X2525000Y-4935000D02*
X2525000Y-5065000D01*
X2460000Y-5000000D02*
X2590000Y-5000000D01*
X2460000Y-5335000D02*
X2590000Y-5465000D01*
X2590000Y-5335000D02*
X2460000Y-5465000D01*
X2525000Y-5335000D02*
X2525000Y-5465000D01*
X2460000Y-5400000D02*
X2590000Y-5400000D01*
X2460000Y-5735000D02*
X2590000Y-5865000D01*
X2590000Y-5735000D02*
X2460000Y-5865000D01*
X2525000Y-5735000D02*
X2525000Y-5865000D01*
X2460000Y-5800000D02*
X2590000Y-5800000D01*
D10*
X8328500Y-6497500D02*
X8393500Y-6562500D01*
X8393500Y-6497500D02*
X8328500Y-6562500D01*
X8383981Y-6552981D02*
X8383981Y-6507019D01*
X8338019Y-6507019D01*
X8338019Y-6552981D01*
X8383981Y-6552981D01*
X8906500Y-6497500D02*
X8971500Y-6562500D01*
X8971500Y-6497500D02*
X8906500Y-6562500D01*
X8961981Y-6552981D02*
X8961981Y-6507019D01*
X8916019Y-6507019D01*
X8916019Y-6552981D01*
X8961981Y-6552981D01*
D13*
X2290000Y-6440000D02*
X2610000Y-6760000D01*
X2610000Y-6440000D02*
X2290000Y-6760000D01*
X2450000Y-6760000D02*
X2610000Y-6600000D01*
X2450000Y-6440000D01*
X2290000Y-6600000D01*
X2450000Y-6760000D01*
X2840000Y-2240000D02*
X3160000Y-2560000D01*
X3160000Y-2240000D02*
X2840000Y-2560000D01*
X3000000Y-2560000D02*
X3160000Y-2400000D01*
X3000000Y-2240000D01*
X2840000Y-2400000D01*
X3000000Y-2560000D01*
X7290000Y-6440000D02*
X7610000Y-6760000D01*
X7610000Y-6440000D02*
X7290000Y-6760000D01*
X7450000Y-6760000D02*
X7610000Y-6600000D01*
X7450000Y-6440000D01*
X7290000Y-6600000D01*
X7450000Y-6760000D01*
X10490000Y-5040000D02*
X10810000Y-5360000D01*
X10810000Y-5040000D02*
X10490000Y-5360000D01*
X10650000Y-5360000D02*
X10810000Y-5200000D01*
X10650000Y-5040000D01*
X10490000Y-5200000D01*
X10650000Y-5360000D01*
D11*
X2255777Y-7316484D02*
X2255777Y-7116484D01*
X2255777Y-7116484D02*
X2303396Y-7116484D01*
X2303396Y-7116484D02*
X2331967Y-7126008D01*
X2331967Y-7126008D02*
X2351015Y-7145055D01*
X2351015Y-7145055D02*
X2360539Y-7164103D01*
X2360539Y-7164103D02*
X2370063Y-7202198D01*
X2370063Y-7202198D02*
X2370063Y-7230769D01*
X2370063Y-7230769D02*
X2360539Y-7268865D01*
X2360539Y-7268865D02*
X2351015Y-7287912D01*
X2351015Y-7287912D02*
X2331967Y-7306960D01*
X2331967Y-7306960D02*
X2303396Y-7316484D01*
X2303396Y-7316484D02*
X2255777Y-7316484D01*
X2455777Y-7316484D02*
X2455777Y-7183150D01*
X2455777Y-7221246D02*
X2465301Y-7202198D01*
X2465301Y-7202198D02*
X2474824Y-7192674D01*
X2474824Y-7192674D02*
X2493872Y-7183150D01*
X2493872Y-7183150D02*
X2512920Y-7183150D01*
X2579586Y-7316484D02*
X2579586Y-7183150D01*
X2579586Y-7116484D02*
X2570063Y-7126008D01*
X2570063Y-7126008D02*
X2579586Y-7135531D01*
X2579586Y-7135531D02*
X2589110Y-7126008D01*
X2589110Y-7126008D02*
X2579586Y-7116484D01*
X2579586Y-7116484D02*
X2579586Y-7135531D01*
X2703396Y-7316484D02*
X2684348Y-7306960D01*
X2684348Y-7306960D02*
X2674824Y-7287912D01*
X2674824Y-7287912D02*
X2674824Y-7116484D01*
X2808158Y-7316484D02*
X2789110Y-7306960D01*
X2789110Y-7306960D02*
X2779586Y-7287912D01*
X2779586Y-7287912D02*
X2779586Y-7116484D01*
X3036729Y-7316484D02*
X3036729Y-7116484D01*
X3036729Y-7116484D02*
X3103396Y-7259341D01*
X3103396Y-7259341D02*
X3170062Y-7116484D01*
X3170062Y-7116484D02*
X3170062Y-7316484D01*
X3351015Y-7316484D02*
X3351015Y-7211722D01*
X3351015Y-7211722D02*
X3341491Y-7192674D01*
X3341491Y-7192674D02*
X3322443Y-7183150D01*
X3322443Y-7183150D02*
X3284348Y-7183150D01*
X3284348Y-7183150D02*
X3265301Y-7192674D01*
X3351015Y-7306960D02*
X3331967Y-7316484D01*
X3331967Y-7316484D02*
X3284348Y-7316484D01*
X3284348Y-7316484D02*
X3265301Y-7306960D01*
X3265301Y-7306960D02*
X3255777Y-7287912D01*
X3255777Y-7287912D02*
X3255777Y-7268865D01*
X3255777Y-7268865D02*
X3265301Y-7249817D01*
X3265301Y-7249817D02*
X3284348Y-7240293D01*
X3284348Y-7240293D02*
X3331967Y-7240293D01*
X3331967Y-7240293D02*
X3351015Y-7230769D01*
X3446253Y-7183150D02*
X3446253Y-7383150D01*
X3446253Y-7192674D02*
X3465301Y-7183150D01*
X3465301Y-7183150D02*
X3503396Y-7183150D01*
X3503396Y-7183150D02*
X3522443Y-7192674D01*
X3522443Y-7192674D02*
X3531967Y-7202198D01*
X3531967Y-7202198D02*
X3541491Y-7221246D01*
X3541491Y-7221246D02*
X3541491Y-7278388D01*
X3541491Y-7278388D02*
X3531967Y-7297436D01*
X3531967Y-7297436D02*
X3522443Y-7306960D01*
X3522443Y-7306960D02*
X3503396Y-7316484D01*
X3503396Y-7316484D02*
X3465301Y-7316484D01*
X3465301Y-7316484D02*
X3446253Y-7306960D01*
X3627205Y-7297436D02*
X3636729Y-7306960D01*
X3636729Y-7306960D02*
X3627205Y-7316484D01*
X3627205Y-7316484D02*
X3617682Y-7306960D01*
X3617682Y-7306960D02*
X3627205Y-7297436D01*
X3627205Y-7297436D02*
X3627205Y-7316484D01*
X3627205Y-7192674D02*
X3636729Y-7202198D01*
X3636729Y-7202198D02*
X3627205Y-7211722D01*
X3627205Y-7211722D02*
X3617682Y-7202198D01*
X3617682Y-7202198D02*
X3627205Y-7192674D01*
X3627205Y-7192674D02*
X3627205Y-7211722D01*
D10*
X1965000Y-7630000D02*
X1995000Y-7660000D01*
X1995000Y-7630000D02*
X1965000Y-7660000D01*
D11*
X2293872Y-7536484D02*
X2312920Y-7536484D01*
X2312920Y-7536484D02*
X2331967Y-7546008D01*
X2331967Y-7546008D02*
X2341491Y-7555531D01*
X2341491Y-7555531D02*
X2351015Y-7574579D01*
X2351015Y-7574579D02*
X2360539Y-7612674D01*
X2360539Y-7612674D02*
X2360539Y-7660293D01*
X2360539Y-7660293D02*
X2351015Y-7698388D01*
X2351015Y-7698388D02*
X2341491Y-7717436D01*
X2341491Y-7717436D02*
X2331967Y-7726960D01*
X2331967Y-7726960D02*
X2312920Y-7736484D01*
X2312920Y-7736484D02*
X2293872Y-7736484D01*
X2293872Y-7736484D02*
X2274824Y-7726960D01*
X2274824Y-7726960D02*
X2265301Y-7717436D01*
X2265301Y-7717436D02*
X2255777Y-7698388D01*
X2255777Y-7698388D02*
X2246253Y-7660293D01*
X2246253Y-7660293D02*
X2246253Y-7612674D01*
X2246253Y-7612674D02*
X2255777Y-7574579D01*
X2255777Y-7574579D02*
X2265301Y-7555531D01*
X2265301Y-7555531D02*
X2274824Y-7546008D01*
X2274824Y-7546008D02*
X2293872Y-7536484D01*
X2446253Y-7717436D02*
X2455777Y-7726960D01*
X2455777Y-7726960D02*
X2446253Y-7736484D01*
X2446253Y-7736484D02*
X2436729Y-7726960D01*
X2436729Y-7726960D02*
X2446253Y-7717436D01*
X2446253Y-7717436D02*
X2446253Y-7736484D01*
X2522444Y-7536484D02*
X2646253Y-7536484D01*
X2646253Y-7536484D02*
X2579586Y-7612674D01*
X2579586Y-7612674D02*
X2608158Y-7612674D01*
X2608158Y-7612674D02*
X2627205Y-7622198D01*
X2627205Y-7622198D02*
X2636729Y-7631722D01*
X2636729Y-7631722D02*
X2646253Y-7650769D01*
X2646253Y-7650769D02*
X2646253Y-7698388D01*
X2646253Y-7698388D02*
X2636729Y-7717436D01*
X2636729Y-7717436D02*
X2627205Y-7726960D01*
X2627205Y-7726960D02*
X2608158Y-7736484D01*
X2608158Y-7736484D02*
X2551015Y-7736484D01*
X2551015Y-7736484D02*
X2531967Y-7726960D01*
X2531967Y-7726960D02*
X2522444Y-7717436D01*
X2770063Y-7536484D02*
X2789110Y-7536484D01*
X2789110Y-7536484D02*
X2808158Y-7546008D01*
X2808158Y-7546008D02*
X2817682Y-7555531D01*
X2817682Y-7555531D02*
X2827205Y-7574579D01*
X2827205Y-7574579D02*
X2836729Y-7612674D01*
X2836729Y-7612674D02*
X2836729Y-7660293D01*
X2836729Y-7660293D02*
X2827205Y-7698388D01*
X2827205Y-7698388D02*
X2817682Y-7717436D01*
X2817682Y-7717436D02*
X2808158Y-7726960D01*
X2808158Y-7726960D02*
X2789110Y-7736484D01*
X2789110Y-7736484D02*
X2770063Y-7736484D01*
X2770063Y-7736484D02*
X2751015Y-7726960D01*
X2751015Y-7726960D02*
X2741491Y-7717436D01*
X2741491Y-7717436D02*
X2731967Y-7698388D01*
X2731967Y-7698388D02*
X2722444Y-7660293D01*
X2722444Y-7660293D02*
X2722444Y-7612674D01*
X2722444Y-7612674D02*
X2731967Y-7574579D01*
X2731967Y-7574579D02*
X2741491Y-7555531D01*
X2741491Y-7555531D02*
X2751015Y-7546008D01*
X2751015Y-7546008D02*
X2770063Y-7536484D01*
X2960539Y-7536484D02*
X2979586Y-7536484D01*
X2979586Y-7536484D02*
X2998634Y-7546008D01*
X2998634Y-7546008D02*
X3008158Y-7555531D01*
X3008158Y-7555531D02*
X3017682Y-7574579D01*
X3017682Y-7574579D02*
X3027205Y-7612674D01*
X3027205Y-7612674D02*
X3027205Y-7660293D01*
X3027205Y-7660293D02*
X3017682Y-7698388D01*
X3017682Y-7698388D02*
X3008158Y-7717436D01*
X3008158Y-7717436D02*
X2998634Y-7726960D01*
X2998634Y-7726960D02*
X2979586Y-7736484D01*
X2979586Y-7736484D02*
X2960539Y-7736484D01*
X2960539Y-7736484D02*
X2941491Y-7726960D01*
X2941491Y-7726960D02*
X2931967Y-7717436D01*
X2931967Y-7717436D02*
X2922443Y-7698388D01*
X2922443Y-7698388D02*
X2912920Y-7660293D01*
X2912920Y-7660293D02*
X2912920Y-7612674D01*
X2912920Y-7612674D02*
X2922443Y-7574579D01*
X2922443Y-7574579D02*
X2931967Y-7555531D01*
X2931967Y-7555531D02*
X2941491Y-7546008D01*
X2941491Y-7546008D02*
X2960539Y-7536484D01*
X3112920Y-7736484D02*
X3112920Y-7603150D01*
X3112920Y-7622198D02*
X3122443Y-7612674D01*
X3122443Y-7612674D02*
X3141491Y-7603150D01*
X3141491Y-7603150D02*
X3170063Y-7603150D01*
X3170063Y-7603150D02*
X3189110Y-7612674D01*
X3189110Y-7612674D02*
X3198634Y-7631722D01*
X3198634Y-7631722D02*
X3198634Y-7736484D01*
X3198634Y-7631722D02*
X3208158Y-7612674D01*
X3208158Y-7612674D02*
X3227205Y-7603150D01*
X3227205Y-7603150D02*
X3255777Y-7603150D01*
X3255777Y-7603150D02*
X3274824Y-7612674D01*
X3274824Y-7612674D02*
X3284348Y-7631722D01*
X3284348Y-7631722D02*
X3284348Y-7736484D01*
X3379586Y-7736484D02*
X3379586Y-7603150D01*
X3379586Y-7622198D02*
X3389110Y-7612674D01*
X3389110Y-7612674D02*
X3408158Y-7603150D01*
X3408158Y-7603150D02*
X3436729Y-7603150D01*
X3436729Y-7603150D02*
X3455777Y-7612674D01*
X3455777Y-7612674D02*
X3465301Y-7631722D01*
X3465301Y-7631722D02*
X3465301Y-7736484D01*
X3465301Y-7631722D02*
X3474824Y-7612674D01*
X3474824Y-7612674D02*
X3493872Y-7603150D01*
X3493872Y-7603150D02*
X3522443Y-7603150D01*
X3522443Y-7603150D02*
X3541491Y-7612674D01*
X3541491Y-7612674D02*
X3551015Y-7631722D01*
X3551015Y-7631722D02*
X3551015Y-7736484D01*
X3941491Y-7526960D02*
X3770063Y-7784103D01*
X4198634Y-7536484D02*
X4217682Y-7536484D01*
X4217682Y-7536484D02*
X4236729Y-7546008D01*
X4236729Y-7546008D02*
X4246253Y-7555531D01*
X4246253Y-7555531D02*
X4255777Y-7574579D01*
X4255777Y-7574579D02*
X4265301Y-7612674D01*
X4265301Y-7612674D02*
X4265301Y-7660293D01*
X4265301Y-7660293D02*
X4255777Y-7698388D01*
X4255777Y-7698388D02*
X4246253Y-7717436D01*
X4246253Y-7717436D02*
X4236729Y-7726960D01*
X4236729Y-7726960D02*
X4217682Y-7736484D01*
X4217682Y-7736484D02*
X4198634Y-7736484D01*
X4198634Y-7736484D02*
X4179586Y-7726960D01*
X4179586Y-7726960D02*
X4170063Y-7717436D01*
X4170063Y-7717436D02*
X4160539Y-7698388D01*
X4160539Y-7698388D02*
X4151015Y-7660293D01*
X4151015Y-7660293D02*
X4151015Y-7612674D01*
X4151015Y-7612674D02*
X4160539Y-7574579D01*
X4160539Y-7574579D02*
X4170063Y-7555531D01*
X4170063Y-7555531D02*
X4179586Y-7546008D01*
X4179586Y-7546008D02*
X4198634Y-7536484D01*
X4351015Y-7717436D02*
X4360539Y-7726960D01*
X4360539Y-7726960D02*
X4351015Y-7736484D01*
X4351015Y-7736484D02*
X4341491Y-7726960D01*
X4341491Y-7726960D02*
X4351015Y-7717436D01*
X4351015Y-7717436D02*
X4351015Y-7736484D01*
X4484348Y-7536484D02*
X4503396Y-7536484D01*
X4503396Y-7536484D02*
X4522444Y-7546008D01*
X4522444Y-7546008D02*
X4531968Y-7555531D01*
X4531968Y-7555531D02*
X4541491Y-7574579D01*
X4541491Y-7574579D02*
X4551015Y-7612674D01*
X4551015Y-7612674D02*
X4551015Y-7660293D01*
X4551015Y-7660293D02*
X4541491Y-7698388D01*
X4541491Y-7698388D02*
X4531968Y-7717436D01*
X4531968Y-7717436D02*
X4522444Y-7726960D01*
X4522444Y-7726960D02*
X4503396Y-7736484D01*
X4503396Y-7736484D02*
X4484348Y-7736484D01*
X4484348Y-7736484D02*
X4465301Y-7726960D01*
X4465301Y-7726960D02*
X4455777Y-7717436D01*
X4455777Y-7717436D02*
X4446253Y-7698388D01*
X4446253Y-7698388D02*
X4436729Y-7660293D01*
X4436729Y-7660293D02*
X4436729Y-7612674D01*
X4436729Y-7612674D02*
X4446253Y-7574579D01*
X4446253Y-7574579D02*
X4455777Y-7555531D01*
X4455777Y-7555531D02*
X4465301Y-7546008D01*
X4465301Y-7546008D02*
X4484348Y-7536484D01*
X4741491Y-7736484D02*
X4627206Y-7736484D01*
X4684348Y-7736484D02*
X4684348Y-7536484D01*
X4684348Y-7536484D02*
X4665301Y-7565055D01*
X4665301Y-7565055D02*
X4646253Y-7584103D01*
X4646253Y-7584103D02*
X4627206Y-7593627D01*
X4931968Y-7736484D02*
X4817682Y-7736484D01*
X4874825Y-7736484D02*
X4874825Y-7536484D01*
X4874825Y-7536484D02*
X4855777Y-7565055D01*
X4855777Y-7565055D02*
X4836729Y-7584103D01*
X4836729Y-7584103D02*
X4817682Y-7593627D01*
X5046253Y-7622198D02*
X5027206Y-7612674D01*
X5027206Y-7612674D02*
X5017682Y-7603150D01*
X5017682Y-7603150D02*
X5008158Y-7584103D01*
X5008158Y-7584103D02*
X5008158Y-7574579D01*
X5008158Y-7574579D02*
X5017682Y-7555531D01*
X5017682Y-7555531D02*
X5027206Y-7546008D01*
X5027206Y-7546008D02*
X5046253Y-7536484D01*
X5046253Y-7536484D02*
X5084349Y-7536484D01*
X5084349Y-7536484D02*
X5103396Y-7546008D01*
X5103396Y-7546008D02*
X5112920Y-7555531D01*
X5112920Y-7555531D02*
X5122444Y-7574579D01*
X5122444Y-7574579D02*
X5122444Y-7584103D01*
X5122444Y-7584103D02*
X5112920Y-7603150D01*
X5112920Y-7603150D02*
X5103396Y-7612674D01*
X5103396Y-7612674D02*
X5084349Y-7622198D01*
X5084349Y-7622198D02*
X5046253Y-7622198D01*
X5046253Y-7622198D02*
X5027206Y-7631722D01*
X5027206Y-7631722D02*
X5017682Y-7641246D01*
X5017682Y-7641246D02*
X5008158Y-7660293D01*
X5008158Y-7660293D02*
X5008158Y-7698388D01*
X5008158Y-7698388D02*
X5017682Y-7717436D01*
X5017682Y-7717436D02*
X5027206Y-7726960D01*
X5027206Y-7726960D02*
X5046253Y-7736484D01*
X5046253Y-7736484D02*
X5084349Y-7736484D01*
X5084349Y-7736484D02*
X5103396Y-7726960D01*
X5103396Y-7726960D02*
X5112920Y-7717436D01*
X5112920Y-7717436D02*
X5122444Y-7698388D01*
X5122444Y-7698388D02*
X5122444Y-7660293D01*
X5122444Y-7660293D02*
X5112920Y-7641246D01*
X5112920Y-7641246D02*
X5103396Y-7631722D01*
X5103396Y-7631722D02*
X5084349Y-7622198D01*
X5198634Y-7536484D02*
X5198634Y-7574579D01*
X5274825Y-7536484D02*
X5274825Y-7574579D01*
X5570063Y-7812674D02*
X5560539Y-7803150D01*
X5560539Y-7803150D02*
X5541491Y-7774579D01*
X5541491Y-7774579D02*
X5531968Y-7755531D01*
X5531968Y-7755531D02*
X5522444Y-7726960D01*
X5522444Y-7726960D02*
X5512920Y-7679341D01*
X5512920Y-7679341D02*
X5512920Y-7641246D01*
X5512920Y-7641246D02*
X5522444Y-7593627D01*
X5522444Y-7593627D02*
X5531968Y-7565055D01*
X5531968Y-7565055D02*
X5541491Y-7546008D01*
X5541491Y-7546008D02*
X5560539Y-7517436D01*
X5560539Y-7517436D02*
X5570063Y-7507912D01*
X5751015Y-7736484D02*
X5636729Y-7736484D01*
X5693872Y-7736484D02*
X5693872Y-7536484D01*
X5693872Y-7536484D02*
X5674825Y-7565055D01*
X5674825Y-7565055D02*
X5655777Y-7584103D01*
X5655777Y-7584103D02*
X5636729Y-7593627D01*
X5827206Y-7555531D02*
X5836729Y-7546008D01*
X5836729Y-7546008D02*
X5855777Y-7536484D01*
X5855777Y-7536484D02*
X5903396Y-7536484D01*
X5903396Y-7536484D02*
X5922444Y-7546008D01*
X5922444Y-7546008D02*
X5931968Y-7555531D01*
X5931968Y-7555531D02*
X5941491Y-7574579D01*
X5941491Y-7574579D02*
X5941491Y-7593627D01*
X5941491Y-7593627D02*
X5931968Y-7622198D01*
X5931968Y-7622198D02*
X5817682Y-7736484D01*
X5817682Y-7736484D02*
X5941491Y-7736484D01*
X6179587Y-7736484D02*
X6179587Y-7536484D01*
X6265301Y-7736484D02*
X6265301Y-7631722D01*
X6265301Y-7631722D02*
X6255777Y-7612674D01*
X6255777Y-7612674D02*
X6236730Y-7603150D01*
X6236730Y-7603150D02*
X6208158Y-7603150D01*
X6208158Y-7603150D02*
X6189110Y-7612674D01*
X6189110Y-7612674D02*
X6179587Y-7622198D01*
X6389110Y-7736484D02*
X6370063Y-7726960D01*
X6370063Y-7726960D02*
X6360539Y-7717436D01*
X6360539Y-7717436D02*
X6351015Y-7698388D01*
X6351015Y-7698388D02*
X6351015Y-7641246D01*
X6351015Y-7641246D02*
X6360539Y-7622198D01*
X6360539Y-7622198D02*
X6370063Y-7612674D01*
X6370063Y-7612674D02*
X6389110Y-7603150D01*
X6389110Y-7603150D02*
X6417682Y-7603150D01*
X6417682Y-7603150D02*
X6436730Y-7612674D01*
X6436730Y-7612674D02*
X6446253Y-7622198D01*
X6446253Y-7622198D02*
X6455777Y-7641246D01*
X6455777Y-7641246D02*
X6455777Y-7698388D01*
X6455777Y-7698388D02*
X6446253Y-7717436D01*
X6446253Y-7717436D02*
X6436730Y-7726960D01*
X6436730Y-7726960D02*
X6417682Y-7736484D01*
X6417682Y-7736484D02*
X6389110Y-7736484D01*
X6570063Y-7736484D02*
X6551015Y-7726960D01*
X6551015Y-7726960D02*
X6541491Y-7707912D01*
X6541491Y-7707912D02*
X6541491Y-7536484D01*
X6722444Y-7726960D02*
X6703396Y-7736484D01*
X6703396Y-7736484D02*
X6665301Y-7736484D01*
X6665301Y-7736484D02*
X6646253Y-7726960D01*
X6646253Y-7726960D02*
X6636730Y-7707912D01*
X6636730Y-7707912D02*
X6636730Y-7631722D01*
X6636730Y-7631722D02*
X6646253Y-7612674D01*
X6646253Y-7612674D02*
X6665301Y-7603150D01*
X6665301Y-7603150D02*
X6703396Y-7603150D01*
X6703396Y-7603150D02*
X6722444Y-7612674D01*
X6722444Y-7612674D02*
X6731968Y-7631722D01*
X6731968Y-7631722D02*
X6731968Y-7650769D01*
X6731968Y-7650769D02*
X6636730Y-7669817D01*
X6808158Y-7726960D02*
X6827206Y-7736484D01*
X6827206Y-7736484D02*
X6865301Y-7736484D01*
X6865301Y-7736484D02*
X6884349Y-7726960D01*
X6884349Y-7726960D02*
X6893872Y-7707912D01*
X6893872Y-7707912D02*
X6893872Y-7698388D01*
X6893872Y-7698388D02*
X6884349Y-7679341D01*
X6884349Y-7679341D02*
X6865301Y-7669817D01*
X6865301Y-7669817D02*
X6836730Y-7669817D01*
X6836730Y-7669817D02*
X6817682Y-7660293D01*
X6817682Y-7660293D02*
X6808158Y-7641246D01*
X6808158Y-7641246D02*
X6808158Y-7631722D01*
X6808158Y-7631722D02*
X6817682Y-7612674D01*
X6817682Y-7612674D02*
X6836730Y-7603150D01*
X6836730Y-7603150D02*
X6865301Y-7603150D01*
X6865301Y-7603150D02*
X6884349Y-7612674D01*
X6960539Y-7812674D02*
X6970063Y-7803150D01*
X6970063Y-7803150D02*
X6989111Y-7774579D01*
X6989111Y-7774579D02*
X6998634Y-7755531D01*
X6998634Y-7755531D02*
X7008158Y-7726960D01*
X7008158Y-7726960D02*
X7017682Y-7679341D01*
X7017682Y-7679341D02*
X7017682Y-7641246D01*
X7017682Y-7641246D02*
X7008158Y-7593627D01*
X7008158Y-7593627D02*
X6998634Y-7565055D01*
X6998634Y-7565055D02*
X6989111Y-7546008D01*
X6989111Y-7546008D02*
X6970063Y-7517436D01*
X6970063Y-7517436D02*
X6960539Y-7507912D01*
D10*
X1995000Y-7909000D02*
G75*
G02*
X1960000Y-7909000I-17500J0D01*
G01*
X1960000Y-7909000D02*
G75*
G02*
X1995000Y-7909000I17500J0D01*
G01*
D11*
X2293872Y-7800484D02*
X2312920Y-7800484D01*
X2312920Y-7800484D02*
X2331967Y-7810008D01*
X2331967Y-7810008D02*
X2341491Y-7819531D01*
X2341491Y-7819531D02*
X2351015Y-7838579D01*
X2351015Y-7838579D02*
X2360539Y-7876674D01*
X2360539Y-7876674D02*
X2360539Y-7924293D01*
X2360539Y-7924293D02*
X2351015Y-7962388D01*
X2351015Y-7962388D02*
X2341491Y-7981436D01*
X2341491Y-7981436D02*
X2331967Y-7990960D01*
X2331967Y-7990960D02*
X2312920Y-8000484D01*
X2312920Y-8000484D02*
X2293872Y-8000484D01*
X2293872Y-8000484D02*
X2274824Y-7990960D01*
X2274824Y-7990960D02*
X2265301Y-7981436D01*
X2265301Y-7981436D02*
X2255777Y-7962388D01*
X2255777Y-7962388D02*
X2246253Y-7924293D01*
X2246253Y-7924293D02*
X2246253Y-7876674D01*
X2246253Y-7876674D02*
X2255777Y-7838579D01*
X2255777Y-7838579D02*
X2265301Y-7819531D01*
X2265301Y-7819531D02*
X2274824Y-7810008D01*
X2274824Y-7810008D02*
X2293872Y-7800484D01*
X2446253Y-7981436D02*
X2455777Y-7990960D01*
X2455777Y-7990960D02*
X2446253Y-8000484D01*
X2446253Y-8000484D02*
X2436729Y-7990960D01*
X2436729Y-7990960D02*
X2446253Y-7981436D01*
X2446253Y-7981436D02*
X2446253Y-8000484D01*
X2522444Y-7800484D02*
X2646253Y-7800484D01*
X2646253Y-7800484D02*
X2579586Y-7876674D01*
X2579586Y-7876674D02*
X2608158Y-7876674D01*
X2608158Y-7876674D02*
X2627205Y-7886198D01*
X2627205Y-7886198D02*
X2636729Y-7895722D01*
X2636729Y-7895722D02*
X2646253Y-7914769D01*
X2646253Y-7914769D02*
X2646253Y-7962388D01*
X2646253Y-7962388D02*
X2636729Y-7981436D01*
X2636729Y-7981436D02*
X2627205Y-7990960D01*
X2627205Y-7990960D02*
X2608158Y-8000484D01*
X2608158Y-8000484D02*
X2551015Y-8000484D01*
X2551015Y-8000484D02*
X2531967Y-7990960D01*
X2531967Y-7990960D02*
X2522444Y-7981436D01*
X2827205Y-7800484D02*
X2731967Y-7800484D01*
X2731967Y-7800484D02*
X2722444Y-7895722D01*
X2722444Y-7895722D02*
X2731967Y-7886198D01*
X2731967Y-7886198D02*
X2751015Y-7876674D01*
X2751015Y-7876674D02*
X2798634Y-7876674D01*
X2798634Y-7876674D02*
X2817682Y-7886198D01*
X2817682Y-7886198D02*
X2827205Y-7895722D01*
X2827205Y-7895722D02*
X2836729Y-7914769D01*
X2836729Y-7914769D02*
X2836729Y-7962388D01*
X2836729Y-7962388D02*
X2827205Y-7981436D01*
X2827205Y-7981436D02*
X2817682Y-7990960D01*
X2817682Y-7990960D02*
X2798634Y-8000484D01*
X2798634Y-8000484D02*
X2751015Y-8000484D01*
X2751015Y-8000484D02*
X2731967Y-7990960D01*
X2731967Y-7990960D02*
X2722444Y-7981436D01*
X2960539Y-7800484D02*
X2979586Y-7800484D01*
X2979586Y-7800484D02*
X2998634Y-7810008D01*
X2998634Y-7810008D02*
X3008158Y-7819531D01*
X3008158Y-7819531D02*
X3017682Y-7838579D01*
X3017682Y-7838579D02*
X3027205Y-7876674D01*
X3027205Y-7876674D02*
X3027205Y-7924293D01*
X3027205Y-7924293D02*
X3017682Y-7962388D01*
X3017682Y-7962388D02*
X3008158Y-7981436D01*
X3008158Y-7981436D02*
X2998634Y-7990960D01*
X2998634Y-7990960D02*
X2979586Y-8000484D01*
X2979586Y-8000484D02*
X2960539Y-8000484D01*
X2960539Y-8000484D02*
X2941491Y-7990960D01*
X2941491Y-7990960D02*
X2931967Y-7981436D01*
X2931967Y-7981436D02*
X2922443Y-7962388D01*
X2922443Y-7962388D02*
X2912920Y-7924293D01*
X2912920Y-7924293D02*
X2912920Y-7876674D01*
X2912920Y-7876674D02*
X2922443Y-7838579D01*
X2922443Y-7838579D02*
X2931967Y-7819531D01*
X2931967Y-7819531D02*
X2941491Y-7810008D01*
X2941491Y-7810008D02*
X2960539Y-7800484D01*
X3112920Y-8000484D02*
X3112920Y-7867150D01*
X3112920Y-7886198D02*
X3122443Y-7876674D01*
X3122443Y-7876674D02*
X3141491Y-7867150D01*
X3141491Y-7867150D02*
X3170063Y-7867150D01*
X3170063Y-7867150D02*
X3189110Y-7876674D01*
X3189110Y-7876674D02*
X3198634Y-7895722D01*
X3198634Y-7895722D02*
X3198634Y-8000484D01*
X3198634Y-7895722D02*
X3208158Y-7876674D01*
X3208158Y-7876674D02*
X3227205Y-7867150D01*
X3227205Y-7867150D02*
X3255777Y-7867150D01*
X3255777Y-7867150D02*
X3274824Y-7876674D01*
X3274824Y-7876674D02*
X3284348Y-7895722D01*
X3284348Y-7895722D02*
X3284348Y-8000484D01*
X3379586Y-8000484D02*
X3379586Y-7867150D01*
X3379586Y-7886198D02*
X3389110Y-7876674D01*
X3389110Y-7876674D02*
X3408158Y-7867150D01*
X3408158Y-7867150D02*
X3436729Y-7867150D01*
X3436729Y-7867150D02*
X3455777Y-7876674D01*
X3455777Y-7876674D02*
X3465301Y-7895722D01*
X3465301Y-7895722D02*
X3465301Y-8000484D01*
X3465301Y-7895722D02*
X3474824Y-7876674D01*
X3474824Y-7876674D02*
X3493872Y-7867150D01*
X3493872Y-7867150D02*
X3522443Y-7867150D01*
X3522443Y-7867150D02*
X3541491Y-7876674D01*
X3541491Y-7876674D02*
X3551015Y-7895722D01*
X3551015Y-7895722D02*
X3551015Y-8000484D01*
X3941491Y-7790960D02*
X3770063Y-8048103D01*
X4198634Y-7800484D02*
X4217682Y-7800484D01*
X4217682Y-7800484D02*
X4236729Y-7810008D01*
X4236729Y-7810008D02*
X4246253Y-7819531D01*
X4246253Y-7819531D02*
X4255777Y-7838579D01*
X4255777Y-7838579D02*
X4265301Y-7876674D01*
X4265301Y-7876674D02*
X4265301Y-7924293D01*
X4265301Y-7924293D02*
X4255777Y-7962388D01*
X4255777Y-7962388D02*
X4246253Y-7981436D01*
X4246253Y-7981436D02*
X4236729Y-7990960D01*
X4236729Y-7990960D02*
X4217682Y-8000484D01*
X4217682Y-8000484D02*
X4198634Y-8000484D01*
X4198634Y-8000484D02*
X4179586Y-7990960D01*
X4179586Y-7990960D02*
X4170063Y-7981436D01*
X4170063Y-7981436D02*
X4160539Y-7962388D01*
X4160539Y-7962388D02*
X4151015Y-7924293D01*
X4151015Y-7924293D02*
X4151015Y-7876674D01*
X4151015Y-7876674D02*
X4160539Y-7838579D01*
X4160539Y-7838579D02*
X4170063Y-7819531D01*
X4170063Y-7819531D02*
X4179586Y-7810008D01*
X4179586Y-7810008D02*
X4198634Y-7800484D01*
X4351015Y-7981436D02*
X4360539Y-7990960D01*
X4360539Y-7990960D02*
X4351015Y-8000484D01*
X4351015Y-8000484D02*
X4341491Y-7990960D01*
X4341491Y-7990960D02*
X4351015Y-7981436D01*
X4351015Y-7981436D02*
X4351015Y-8000484D01*
X4484348Y-7800484D02*
X4503396Y-7800484D01*
X4503396Y-7800484D02*
X4522444Y-7810008D01*
X4522444Y-7810008D02*
X4531968Y-7819531D01*
X4531968Y-7819531D02*
X4541491Y-7838579D01*
X4541491Y-7838579D02*
X4551015Y-7876674D01*
X4551015Y-7876674D02*
X4551015Y-7924293D01*
X4551015Y-7924293D02*
X4541491Y-7962388D01*
X4541491Y-7962388D02*
X4531968Y-7981436D01*
X4531968Y-7981436D02*
X4522444Y-7990960D01*
X4522444Y-7990960D02*
X4503396Y-8000484D01*
X4503396Y-8000484D02*
X4484348Y-8000484D01*
X4484348Y-8000484D02*
X4465301Y-7990960D01*
X4465301Y-7990960D02*
X4455777Y-7981436D01*
X4455777Y-7981436D02*
X4446253Y-7962388D01*
X4446253Y-7962388D02*
X4436729Y-7924293D01*
X4436729Y-7924293D02*
X4436729Y-7876674D01*
X4436729Y-7876674D02*
X4446253Y-7838579D01*
X4446253Y-7838579D02*
X4455777Y-7819531D01*
X4455777Y-7819531D02*
X4465301Y-7810008D01*
X4465301Y-7810008D02*
X4484348Y-7800484D01*
X4741491Y-8000484D02*
X4627206Y-8000484D01*
X4684348Y-8000484D02*
X4684348Y-7800484D01*
X4684348Y-7800484D02*
X4665301Y-7829055D01*
X4665301Y-7829055D02*
X4646253Y-7848103D01*
X4646253Y-7848103D02*
X4627206Y-7857627D01*
X4808158Y-7800484D02*
X4931968Y-7800484D01*
X4931968Y-7800484D02*
X4865301Y-7876674D01*
X4865301Y-7876674D02*
X4893872Y-7876674D01*
X4893872Y-7876674D02*
X4912920Y-7886198D01*
X4912920Y-7886198D02*
X4922444Y-7895722D01*
X4922444Y-7895722D02*
X4931968Y-7914769D01*
X4931968Y-7914769D02*
X4931968Y-7962388D01*
X4931968Y-7962388D02*
X4922444Y-7981436D01*
X4922444Y-7981436D02*
X4912920Y-7990960D01*
X4912920Y-7990960D02*
X4893872Y-8000484D01*
X4893872Y-8000484D02*
X4836729Y-8000484D01*
X4836729Y-8000484D02*
X4817682Y-7990960D01*
X4817682Y-7990960D02*
X4808158Y-7981436D01*
X5046253Y-7886198D02*
X5027206Y-7876674D01*
X5027206Y-7876674D02*
X5017682Y-7867150D01*
X5017682Y-7867150D02*
X5008158Y-7848103D01*
X5008158Y-7848103D02*
X5008158Y-7838579D01*
X5008158Y-7838579D02*
X5017682Y-7819531D01*
X5017682Y-7819531D02*
X5027206Y-7810008D01*
X5027206Y-7810008D02*
X5046253Y-7800484D01*
X5046253Y-7800484D02*
X5084349Y-7800484D01*
X5084349Y-7800484D02*
X5103396Y-7810008D01*
X5103396Y-7810008D02*
X5112920Y-7819531D01*
X5112920Y-7819531D02*
X5122444Y-7838579D01*
X5122444Y-7838579D02*
X5122444Y-7848103D01*
X5122444Y-7848103D02*
X5112920Y-7867150D01*
X5112920Y-7867150D02*
X5103396Y-7876674D01*
X5103396Y-7876674D02*
X5084349Y-7886198D01*
X5084349Y-7886198D02*
X5046253Y-7886198D01*
X5046253Y-7886198D02*
X5027206Y-7895722D01*
X5027206Y-7895722D02*
X5017682Y-7905246D01*
X5017682Y-7905246D02*
X5008158Y-7924293D01*
X5008158Y-7924293D02*
X5008158Y-7962388D01*
X5008158Y-7962388D02*
X5017682Y-7981436D01*
X5017682Y-7981436D02*
X5027206Y-7990960D01*
X5027206Y-7990960D02*
X5046253Y-8000484D01*
X5046253Y-8000484D02*
X5084349Y-8000484D01*
X5084349Y-8000484D02*
X5103396Y-7990960D01*
X5103396Y-7990960D02*
X5112920Y-7981436D01*
X5112920Y-7981436D02*
X5122444Y-7962388D01*
X5122444Y-7962388D02*
X5122444Y-7924293D01*
X5122444Y-7924293D02*
X5112920Y-7905246D01*
X5112920Y-7905246D02*
X5103396Y-7895722D01*
X5103396Y-7895722D02*
X5084349Y-7886198D01*
X5198634Y-7800484D02*
X5198634Y-7838579D01*
X5274825Y-7800484D02*
X5274825Y-7838579D01*
X5570063Y-8076674D02*
X5560539Y-8067150D01*
X5560539Y-8067150D02*
X5541491Y-8038579D01*
X5541491Y-8038579D02*
X5531968Y-8019531D01*
X5531968Y-8019531D02*
X5522444Y-7990960D01*
X5522444Y-7990960D02*
X5512920Y-7943341D01*
X5512920Y-7943341D02*
X5512920Y-7905246D01*
X5512920Y-7905246D02*
X5522444Y-7857627D01*
X5522444Y-7857627D02*
X5531968Y-7829055D01*
X5531968Y-7829055D02*
X5541491Y-7810008D01*
X5541491Y-7810008D02*
X5560539Y-7781436D01*
X5560539Y-7781436D02*
X5570063Y-7771912D01*
X5674825Y-7886198D02*
X5655777Y-7876674D01*
X5655777Y-7876674D02*
X5646253Y-7867150D01*
X5646253Y-7867150D02*
X5636729Y-7848103D01*
X5636729Y-7848103D02*
X5636729Y-7838579D01*
X5636729Y-7838579D02*
X5646253Y-7819531D01*
X5646253Y-7819531D02*
X5655777Y-7810008D01*
X5655777Y-7810008D02*
X5674825Y-7800484D01*
X5674825Y-7800484D02*
X5712920Y-7800484D01*
X5712920Y-7800484D02*
X5731968Y-7810008D01*
X5731968Y-7810008D02*
X5741491Y-7819531D01*
X5741491Y-7819531D02*
X5751015Y-7838579D01*
X5751015Y-7838579D02*
X5751015Y-7848103D01*
X5751015Y-7848103D02*
X5741491Y-7867150D01*
X5741491Y-7867150D02*
X5731968Y-7876674D01*
X5731968Y-7876674D02*
X5712920Y-7886198D01*
X5712920Y-7886198D02*
X5674825Y-7886198D01*
X5674825Y-7886198D02*
X5655777Y-7895722D01*
X5655777Y-7895722D02*
X5646253Y-7905246D01*
X5646253Y-7905246D02*
X5636729Y-7924293D01*
X5636729Y-7924293D02*
X5636729Y-7962388D01*
X5636729Y-7962388D02*
X5646253Y-7981436D01*
X5646253Y-7981436D02*
X5655777Y-7990960D01*
X5655777Y-7990960D02*
X5674825Y-8000484D01*
X5674825Y-8000484D02*
X5712920Y-8000484D01*
X5712920Y-8000484D02*
X5731968Y-7990960D01*
X5731968Y-7990960D02*
X5741491Y-7981436D01*
X5741491Y-7981436D02*
X5751015Y-7962388D01*
X5751015Y-7962388D02*
X5751015Y-7924293D01*
X5751015Y-7924293D02*
X5741491Y-7905246D01*
X5741491Y-7905246D02*
X5731968Y-7895722D01*
X5731968Y-7895722D02*
X5712920Y-7886198D01*
X5817682Y-7800484D02*
X5941491Y-7800484D01*
X5941491Y-7800484D02*
X5874825Y-7876674D01*
X5874825Y-7876674D02*
X5903396Y-7876674D01*
X5903396Y-7876674D02*
X5922444Y-7886198D01*
X5922444Y-7886198D02*
X5931968Y-7895722D01*
X5931968Y-7895722D02*
X5941491Y-7914769D01*
X5941491Y-7914769D02*
X5941491Y-7962388D01*
X5941491Y-7962388D02*
X5931968Y-7981436D01*
X5931968Y-7981436D02*
X5922444Y-7990960D01*
X5922444Y-7990960D02*
X5903396Y-8000484D01*
X5903396Y-8000484D02*
X5846253Y-8000484D01*
X5846253Y-8000484D02*
X5827206Y-7990960D01*
X5827206Y-7990960D02*
X5817682Y-7981436D01*
X6179587Y-8000484D02*
X6179587Y-7800484D01*
X6265301Y-8000484D02*
X6265301Y-7895722D01*
X6265301Y-7895722D02*
X6255777Y-7876674D01*
X6255777Y-7876674D02*
X6236730Y-7867150D01*
X6236730Y-7867150D02*
X6208158Y-7867150D01*
X6208158Y-7867150D02*
X6189110Y-7876674D01*
X6189110Y-7876674D02*
X6179587Y-7886198D01*
X6389110Y-8000484D02*
X6370063Y-7990960D01*
X6370063Y-7990960D02*
X6360539Y-7981436D01*
X6360539Y-7981436D02*
X6351015Y-7962388D01*
X6351015Y-7962388D02*
X6351015Y-7905246D01*
X6351015Y-7905246D02*
X6360539Y-7886198D01*
X6360539Y-7886198D02*
X6370063Y-7876674D01*
X6370063Y-7876674D02*
X6389110Y-7867150D01*
X6389110Y-7867150D02*
X6417682Y-7867150D01*
X6417682Y-7867150D02*
X6436730Y-7876674D01*
X6436730Y-7876674D02*
X6446253Y-7886198D01*
X6446253Y-7886198D02*
X6455777Y-7905246D01*
X6455777Y-7905246D02*
X6455777Y-7962388D01*
X6455777Y-7962388D02*
X6446253Y-7981436D01*
X6446253Y-7981436D02*
X6436730Y-7990960D01*
X6436730Y-7990960D02*
X6417682Y-8000484D01*
X6417682Y-8000484D02*
X6389110Y-8000484D01*
X6570063Y-8000484D02*
X6551015Y-7990960D01*
X6551015Y-7990960D02*
X6541491Y-7971912D01*
X6541491Y-7971912D02*
X6541491Y-7800484D01*
X6722444Y-7990960D02*
X6703396Y-8000484D01*
X6703396Y-8000484D02*
X6665301Y-8000484D01*
X6665301Y-8000484D02*
X6646253Y-7990960D01*
X6646253Y-7990960D02*
X6636730Y-7971912D01*
X6636730Y-7971912D02*
X6636730Y-7895722D01*
X6636730Y-7895722D02*
X6646253Y-7876674D01*
X6646253Y-7876674D02*
X6665301Y-7867150D01*
X6665301Y-7867150D02*
X6703396Y-7867150D01*
X6703396Y-7867150D02*
X6722444Y-7876674D01*
X6722444Y-7876674D02*
X6731968Y-7895722D01*
X6731968Y-7895722D02*
X6731968Y-7914769D01*
X6731968Y-7914769D02*
X6636730Y-7933817D01*
X6808158Y-7990960D02*
X6827206Y-8000484D01*
X6827206Y-8000484D02*
X6865301Y-8000484D01*
X6865301Y-8000484D02*
X6884349Y-7990960D01*
X6884349Y-7990960D02*
X6893872Y-7971912D01*
X6893872Y-7971912D02*
X6893872Y-7962388D01*
X6893872Y-7962388D02*
X6884349Y-7943341D01*
X6884349Y-7943341D02*
X6865301Y-7933817D01*
X6865301Y-7933817D02*
X6836730Y-7933817D01*
X6836730Y-7933817D02*
X6817682Y-7924293D01*
X6817682Y-7924293D02*
X6808158Y-7905246D01*
X6808158Y-7905246D02*
X6808158Y-7895722D01*
X6808158Y-7895722D02*
X6817682Y-7876674D01*
X6817682Y-7876674D02*
X6836730Y-7867150D01*
X6836730Y-7867150D02*
X6865301Y-7867150D01*
X6865301Y-7867150D02*
X6884349Y-7876674D01*
X6960539Y-8076674D02*
X6970063Y-8067150D01*
X6970063Y-8067150D02*
X6989111Y-8038579D01*
X6989111Y-8038579D02*
X6998634Y-8019531D01*
X6998634Y-8019531D02*
X7008158Y-7990960D01*
X7008158Y-7990960D02*
X7017682Y-7943341D01*
X7017682Y-7943341D02*
X7017682Y-7905246D01*
X7017682Y-7905246D02*
X7008158Y-7857627D01*
X7008158Y-7857627D02*
X6998634Y-7829055D01*
X6998634Y-7829055D02*
X6989111Y-7810008D01*
X6989111Y-7810008D02*
X6970063Y-7781436D01*
X6970063Y-7781436D02*
X6960539Y-7771912D01*
D10*
X1972500Y-8150500D02*
X1972500Y-8195500D01*
X1950000Y-8173000D02*
X1995000Y-8173000D01*
D11*
X2293872Y-8064484D02*
X2312920Y-8064484D01*
X2312920Y-8064484D02*
X2331967Y-8074008D01*
X2331967Y-8074008D02*
X2341491Y-8083531D01*
X2341491Y-8083531D02*
X2351015Y-8102579D01*
X2351015Y-8102579D02*
X2360539Y-8140674D01*
X2360539Y-8140674D02*
X2360539Y-8188293D01*
X2360539Y-8188293D02*
X2351015Y-8226388D01*
X2351015Y-8226388D02*
X2341491Y-8245436D01*
X2341491Y-8245436D02*
X2331967Y-8254960D01*
X2331967Y-8254960D02*
X2312920Y-8264484D01*
X2312920Y-8264484D02*
X2293872Y-8264484D01*
X2293872Y-8264484D02*
X2274824Y-8254960D01*
X2274824Y-8254960D02*
X2265301Y-8245436D01*
X2265301Y-8245436D02*
X2255777Y-8226388D01*
X2255777Y-8226388D02*
X2246253Y-8188293D01*
X2246253Y-8188293D02*
X2246253Y-8140674D01*
X2246253Y-8140674D02*
X2255777Y-8102579D01*
X2255777Y-8102579D02*
X2265301Y-8083531D01*
X2265301Y-8083531D02*
X2274824Y-8074008D01*
X2274824Y-8074008D02*
X2293872Y-8064484D01*
X2446253Y-8245436D02*
X2455777Y-8254960D01*
X2455777Y-8254960D02*
X2446253Y-8264484D01*
X2446253Y-8264484D02*
X2436729Y-8254960D01*
X2436729Y-8254960D02*
X2446253Y-8245436D01*
X2446253Y-8245436D02*
X2446253Y-8264484D01*
X2627205Y-8131150D02*
X2627205Y-8264484D01*
X2579586Y-8054960D02*
X2531967Y-8197817D01*
X2531967Y-8197817D02*
X2655777Y-8197817D01*
X2827205Y-8064484D02*
X2731967Y-8064484D01*
X2731967Y-8064484D02*
X2722444Y-8159722D01*
X2722444Y-8159722D02*
X2731967Y-8150198D01*
X2731967Y-8150198D02*
X2751015Y-8140674D01*
X2751015Y-8140674D02*
X2798634Y-8140674D01*
X2798634Y-8140674D02*
X2817682Y-8150198D01*
X2817682Y-8150198D02*
X2827205Y-8159722D01*
X2827205Y-8159722D02*
X2836729Y-8178769D01*
X2836729Y-8178769D02*
X2836729Y-8226388D01*
X2836729Y-8226388D02*
X2827205Y-8245436D01*
X2827205Y-8245436D02*
X2817682Y-8254960D01*
X2817682Y-8254960D02*
X2798634Y-8264484D01*
X2798634Y-8264484D02*
X2751015Y-8264484D01*
X2751015Y-8264484D02*
X2731967Y-8254960D01*
X2731967Y-8254960D02*
X2722444Y-8245436D01*
X2960539Y-8064484D02*
X2979586Y-8064484D01*
X2979586Y-8064484D02*
X2998634Y-8074008D01*
X2998634Y-8074008D02*
X3008158Y-8083531D01*
X3008158Y-8083531D02*
X3017682Y-8102579D01*
X3017682Y-8102579D02*
X3027205Y-8140674D01*
X3027205Y-8140674D02*
X3027205Y-8188293D01*
X3027205Y-8188293D02*
X3017682Y-8226388D01*
X3017682Y-8226388D02*
X3008158Y-8245436D01*
X3008158Y-8245436D02*
X2998634Y-8254960D01*
X2998634Y-8254960D02*
X2979586Y-8264484D01*
X2979586Y-8264484D02*
X2960539Y-8264484D01*
X2960539Y-8264484D02*
X2941491Y-8254960D01*
X2941491Y-8254960D02*
X2931967Y-8245436D01*
X2931967Y-8245436D02*
X2922443Y-8226388D01*
X2922443Y-8226388D02*
X2912920Y-8188293D01*
X2912920Y-8188293D02*
X2912920Y-8140674D01*
X2912920Y-8140674D02*
X2922443Y-8102579D01*
X2922443Y-8102579D02*
X2931967Y-8083531D01*
X2931967Y-8083531D02*
X2941491Y-8074008D01*
X2941491Y-8074008D02*
X2960539Y-8064484D01*
X3112920Y-8264484D02*
X3112920Y-8131150D01*
X3112920Y-8150198D02*
X3122443Y-8140674D01*
X3122443Y-8140674D02*
X3141491Y-8131150D01*
X3141491Y-8131150D02*
X3170063Y-8131150D01*
X3170063Y-8131150D02*
X3189110Y-8140674D01*
X3189110Y-8140674D02*
X3198634Y-8159722D01*
X3198634Y-8159722D02*
X3198634Y-8264484D01*
X3198634Y-8159722D02*
X3208158Y-8140674D01*
X3208158Y-8140674D02*
X3227205Y-8131150D01*
X3227205Y-8131150D02*
X3255777Y-8131150D01*
X3255777Y-8131150D02*
X3274824Y-8140674D01*
X3274824Y-8140674D02*
X3284348Y-8159722D01*
X3284348Y-8159722D02*
X3284348Y-8264484D01*
X3379586Y-8264484D02*
X3379586Y-8131150D01*
X3379586Y-8150198D02*
X3389110Y-8140674D01*
X3389110Y-8140674D02*
X3408158Y-8131150D01*
X3408158Y-8131150D02*
X3436729Y-8131150D01*
X3436729Y-8131150D02*
X3455777Y-8140674D01*
X3455777Y-8140674D02*
X3465301Y-8159722D01*
X3465301Y-8159722D02*
X3465301Y-8264484D01*
X3465301Y-8159722D02*
X3474824Y-8140674D01*
X3474824Y-8140674D02*
X3493872Y-8131150D01*
X3493872Y-8131150D02*
X3522443Y-8131150D01*
X3522443Y-8131150D02*
X3541491Y-8140674D01*
X3541491Y-8140674D02*
X3551015Y-8159722D01*
X3551015Y-8159722D02*
X3551015Y-8264484D01*
X3941491Y-8054960D02*
X3770063Y-8312103D01*
X4198634Y-8064484D02*
X4217682Y-8064484D01*
X4217682Y-8064484D02*
X4236729Y-8074008D01*
X4236729Y-8074008D02*
X4246253Y-8083531D01*
X4246253Y-8083531D02*
X4255777Y-8102579D01*
X4255777Y-8102579D02*
X4265301Y-8140674D01*
X4265301Y-8140674D02*
X4265301Y-8188293D01*
X4265301Y-8188293D02*
X4255777Y-8226388D01*
X4255777Y-8226388D02*
X4246253Y-8245436D01*
X4246253Y-8245436D02*
X4236729Y-8254960D01*
X4236729Y-8254960D02*
X4217682Y-8264484D01*
X4217682Y-8264484D02*
X4198634Y-8264484D01*
X4198634Y-8264484D02*
X4179586Y-8254960D01*
X4179586Y-8254960D02*
X4170063Y-8245436D01*
X4170063Y-8245436D02*
X4160539Y-8226388D01*
X4160539Y-8226388D02*
X4151015Y-8188293D01*
X4151015Y-8188293D02*
X4151015Y-8140674D01*
X4151015Y-8140674D02*
X4160539Y-8102579D01*
X4160539Y-8102579D02*
X4170063Y-8083531D01*
X4170063Y-8083531D02*
X4179586Y-8074008D01*
X4179586Y-8074008D02*
X4198634Y-8064484D01*
X4351015Y-8245436D02*
X4360539Y-8254960D01*
X4360539Y-8254960D02*
X4351015Y-8264484D01*
X4351015Y-8264484D02*
X4341491Y-8254960D01*
X4341491Y-8254960D02*
X4351015Y-8245436D01*
X4351015Y-8245436D02*
X4351015Y-8264484D01*
X4484348Y-8064484D02*
X4503396Y-8064484D01*
X4503396Y-8064484D02*
X4522444Y-8074008D01*
X4522444Y-8074008D02*
X4531968Y-8083531D01*
X4531968Y-8083531D02*
X4541491Y-8102579D01*
X4541491Y-8102579D02*
X4551015Y-8140674D01*
X4551015Y-8140674D02*
X4551015Y-8188293D01*
X4551015Y-8188293D02*
X4541491Y-8226388D01*
X4541491Y-8226388D02*
X4531968Y-8245436D01*
X4531968Y-8245436D02*
X4522444Y-8254960D01*
X4522444Y-8254960D02*
X4503396Y-8264484D01*
X4503396Y-8264484D02*
X4484348Y-8264484D01*
X4484348Y-8264484D02*
X4465301Y-8254960D01*
X4465301Y-8254960D02*
X4455777Y-8245436D01*
X4455777Y-8245436D02*
X4446253Y-8226388D01*
X4446253Y-8226388D02*
X4436729Y-8188293D01*
X4436729Y-8188293D02*
X4436729Y-8140674D01*
X4436729Y-8140674D02*
X4446253Y-8102579D01*
X4446253Y-8102579D02*
X4455777Y-8083531D01*
X4455777Y-8083531D02*
X4465301Y-8074008D01*
X4465301Y-8074008D02*
X4484348Y-8064484D01*
X4741491Y-8264484D02*
X4627206Y-8264484D01*
X4684348Y-8264484D02*
X4684348Y-8064484D01*
X4684348Y-8064484D02*
X4665301Y-8093055D01*
X4665301Y-8093055D02*
X4646253Y-8112103D01*
X4646253Y-8112103D02*
X4627206Y-8121627D01*
X4808158Y-8064484D02*
X4941491Y-8064484D01*
X4941491Y-8064484D02*
X4855777Y-8264484D01*
X4998634Y-8064484D02*
X5131968Y-8064484D01*
X5131968Y-8064484D02*
X5046253Y-8264484D01*
X5198634Y-8064484D02*
X5198634Y-8102579D01*
X5274825Y-8064484D02*
X5274825Y-8102579D01*
X5570063Y-8340674D02*
X5560539Y-8331150D01*
X5560539Y-8331150D02*
X5541491Y-8302579D01*
X5541491Y-8302579D02*
X5531968Y-8283531D01*
X5531968Y-8283531D02*
X5522444Y-8254960D01*
X5522444Y-8254960D02*
X5512920Y-8207341D01*
X5512920Y-8207341D02*
X5512920Y-8169246D01*
X5512920Y-8169246D02*
X5522444Y-8121627D01*
X5522444Y-8121627D02*
X5531968Y-8093055D01*
X5531968Y-8093055D02*
X5541491Y-8074008D01*
X5541491Y-8074008D02*
X5560539Y-8045436D01*
X5560539Y-8045436D02*
X5570063Y-8035912D01*
X5627206Y-8064484D02*
X5760539Y-8064484D01*
X5760539Y-8064484D02*
X5674825Y-8264484D01*
X5989110Y-8264484D02*
X5989110Y-8064484D01*
X6074825Y-8264484D02*
X6074825Y-8159722D01*
X6074825Y-8159722D02*
X6065301Y-8140674D01*
X6065301Y-8140674D02*
X6046253Y-8131150D01*
X6046253Y-8131150D02*
X6017682Y-8131150D01*
X6017682Y-8131150D02*
X5998634Y-8140674D01*
X5998634Y-8140674D02*
X5989110Y-8150198D01*
X6198634Y-8264484D02*
X6179587Y-8254960D01*
X6179587Y-8254960D02*
X6170063Y-8245436D01*
X6170063Y-8245436D02*
X6160539Y-8226388D01*
X6160539Y-8226388D02*
X6160539Y-8169246D01*
X6160539Y-8169246D02*
X6170063Y-8150198D01*
X6170063Y-8150198D02*
X6179587Y-8140674D01*
X6179587Y-8140674D02*
X6198634Y-8131150D01*
X6198634Y-8131150D02*
X6227206Y-8131150D01*
X6227206Y-8131150D02*
X6246253Y-8140674D01*
X6246253Y-8140674D02*
X6255777Y-8150198D01*
X6255777Y-8150198D02*
X6265301Y-8169246D01*
X6265301Y-8169246D02*
X6265301Y-8226388D01*
X6265301Y-8226388D02*
X6255777Y-8245436D01*
X6255777Y-8245436D02*
X6246253Y-8254960D01*
X6246253Y-8254960D02*
X6227206Y-8264484D01*
X6227206Y-8264484D02*
X6198634Y-8264484D01*
X6379587Y-8264484D02*
X6360539Y-8254960D01*
X6360539Y-8254960D02*
X6351015Y-8235912D01*
X6351015Y-8235912D02*
X6351015Y-8064484D01*
X6531968Y-8254960D02*
X6512920Y-8264484D01*
X6512920Y-8264484D02*
X6474825Y-8264484D01*
X6474825Y-8264484D02*
X6455777Y-8254960D01*
X6455777Y-8254960D02*
X6446253Y-8235912D01*
X6446253Y-8235912D02*
X6446253Y-8159722D01*
X6446253Y-8159722D02*
X6455777Y-8140674D01*
X6455777Y-8140674D02*
X6474825Y-8131150D01*
X6474825Y-8131150D02*
X6512920Y-8131150D01*
X6512920Y-8131150D02*
X6531968Y-8140674D01*
X6531968Y-8140674D02*
X6541491Y-8159722D01*
X6541491Y-8159722D02*
X6541491Y-8178769D01*
X6541491Y-8178769D02*
X6446253Y-8197817D01*
X6617682Y-8254960D02*
X6636730Y-8264484D01*
X6636730Y-8264484D02*
X6674825Y-8264484D01*
X6674825Y-8264484D02*
X6693872Y-8254960D01*
X6693872Y-8254960D02*
X6703396Y-8235912D01*
X6703396Y-8235912D02*
X6703396Y-8226388D01*
X6703396Y-8226388D02*
X6693872Y-8207341D01*
X6693872Y-8207341D02*
X6674825Y-8197817D01*
X6674825Y-8197817D02*
X6646253Y-8197817D01*
X6646253Y-8197817D02*
X6627206Y-8188293D01*
X6627206Y-8188293D02*
X6617682Y-8169246D01*
X6617682Y-8169246D02*
X6617682Y-8159722D01*
X6617682Y-8159722D02*
X6627206Y-8140674D01*
X6627206Y-8140674D02*
X6646253Y-8131150D01*
X6646253Y-8131150D02*
X6674825Y-8131150D01*
X6674825Y-8131150D02*
X6693872Y-8140674D01*
X6770063Y-8340674D02*
X6779587Y-8331150D01*
X6779587Y-8331150D02*
X6798634Y-8302579D01*
X6798634Y-8302579D02*
X6808158Y-8283531D01*
X6808158Y-8283531D02*
X6817682Y-8254960D01*
X6817682Y-8254960D02*
X6827206Y-8207341D01*
X6827206Y-8207341D02*
X6827206Y-8169246D01*
X6827206Y-8169246D02*
X6817682Y-8121627D01*
X6817682Y-8121627D02*
X6808158Y-8093055D01*
X6808158Y-8093055D02*
X6798634Y-8074008D01*
X6798634Y-8074008D02*
X6779587Y-8045436D01*
X6779587Y-8045436D02*
X6770063Y-8035912D01*
D10*
X1986213Y-8458213D02*
X1986213Y-8415787D01*
X1943787Y-8415787D01*
X1943787Y-8458213D01*
X1986213Y-8458213D01*
D11*
X2293872Y-8328484D02*
X2312920Y-8328484D01*
X2312920Y-8328484D02*
X2331967Y-8338008D01*
X2331967Y-8338008D02*
X2341491Y-8347531D01*
X2341491Y-8347531D02*
X2351015Y-8366579D01*
X2351015Y-8366579D02*
X2360539Y-8404674D01*
X2360539Y-8404674D02*
X2360539Y-8452293D01*
X2360539Y-8452293D02*
X2351015Y-8490389D01*
X2351015Y-8490389D02*
X2341491Y-8509436D01*
X2341491Y-8509436D02*
X2331967Y-8518960D01*
X2331967Y-8518960D02*
X2312920Y-8528484D01*
X2312920Y-8528484D02*
X2293872Y-8528484D01*
X2293872Y-8528484D02*
X2274824Y-8518960D01*
X2274824Y-8518960D02*
X2265301Y-8509436D01*
X2265301Y-8509436D02*
X2255777Y-8490389D01*
X2255777Y-8490389D02*
X2246253Y-8452293D01*
X2246253Y-8452293D02*
X2246253Y-8404674D01*
X2246253Y-8404674D02*
X2255777Y-8366579D01*
X2255777Y-8366579D02*
X2265301Y-8347531D01*
X2265301Y-8347531D02*
X2274824Y-8338008D01*
X2274824Y-8338008D02*
X2293872Y-8328484D01*
X2446253Y-8509436D02*
X2455777Y-8518960D01*
X2455777Y-8518960D02*
X2446253Y-8528484D01*
X2446253Y-8528484D02*
X2436729Y-8518960D01*
X2436729Y-8518960D02*
X2446253Y-8509436D01*
X2446253Y-8509436D02*
X2446253Y-8528484D01*
X2627205Y-8328484D02*
X2589110Y-8328484D01*
X2589110Y-8328484D02*
X2570063Y-8338008D01*
X2570063Y-8338008D02*
X2560539Y-8347531D01*
X2560539Y-8347531D02*
X2541491Y-8376103D01*
X2541491Y-8376103D02*
X2531967Y-8414198D01*
X2531967Y-8414198D02*
X2531967Y-8490389D01*
X2531967Y-8490389D02*
X2541491Y-8509436D01*
X2541491Y-8509436D02*
X2551015Y-8518960D01*
X2551015Y-8518960D02*
X2570063Y-8528484D01*
X2570063Y-8528484D02*
X2608158Y-8528484D01*
X2608158Y-8528484D02*
X2627205Y-8518960D01*
X2627205Y-8518960D02*
X2636729Y-8509436D01*
X2636729Y-8509436D02*
X2646253Y-8490389D01*
X2646253Y-8490389D02*
X2646253Y-8442770D01*
X2646253Y-8442770D02*
X2636729Y-8423722D01*
X2636729Y-8423722D02*
X2627205Y-8414198D01*
X2627205Y-8414198D02*
X2608158Y-8404674D01*
X2608158Y-8404674D02*
X2570063Y-8404674D01*
X2570063Y-8404674D02*
X2551015Y-8414198D01*
X2551015Y-8414198D02*
X2541491Y-8423722D01*
X2541491Y-8423722D02*
X2531967Y-8442770D01*
X2770063Y-8328484D02*
X2789110Y-8328484D01*
X2789110Y-8328484D02*
X2808158Y-8338008D01*
X2808158Y-8338008D02*
X2817682Y-8347531D01*
X2817682Y-8347531D02*
X2827205Y-8366579D01*
X2827205Y-8366579D02*
X2836729Y-8404674D01*
X2836729Y-8404674D02*
X2836729Y-8452293D01*
X2836729Y-8452293D02*
X2827205Y-8490389D01*
X2827205Y-8490389D02*
X2817682Y-8509436D01*
X2817682Y-8509436D02*
X2808158Y-8518960D01*
X2808158Y-8518960D02*
X2789110Y-8528484D01*
X2789110Y-8528484D02*
X2770063Y-8528484D01*
X2770063Y-8528484D02*
X2751015Y-8518960D01*
X2751015Y-8518960D02*
X2741491Y-8509436D01*
X2741491Y-8509436D02*
X2731967Y-8490389D01*
X2731967Y-8490389D02*
X2722444Y-8452293D01*
X2722444Y-8452293D02*
X2722444Y-8404674D01*
X2722444Y-8404674D02*
X2731967Y-8366579D01*
X2731967Y-8366579D02*
X2741491Y-8347531D01*
X2741491Y-8347531D02*
X2751015Y-8338008D01*
X2751015Y-8338008D02*
X2770063Y-8328484D01*
X2960539Y-8328484D02*
X2979586Y-8328484D01*
X2979586Y-8328484D02*
X2998634Y-8338008D01*
X2998634Y-8338008D02*
X3008158Y-8347531D01*
X3008158Y-8347531D02*
X3017682Y-8366579D01*
X3017682Y-8366579D02*
X3027205Y-8404674D01*
X3027205Y-8404674D02*
X3027205Y-8452293D01*
X3027205Y-8452293D02*
X3017682Y-8490389D01*
X3017682Y-8490389D02*
X3008158Y-8509436D01*
X3008158Y-8509436D02*
X2998634Y-8518960D01*
X2998634Y-8518960D02*
X2979586Y-8528484D01*
X2979586Y-8528484D02*
X2960539Y-8528484D01*
X2960539Y-8528484D02*
X2941491Y-8518960D01*
X2941491Y-8518960D02*
X2931967Y-8509436D01*
X2931967Y-8509436D02*
X2922443Y-8490389D01*
X2922443Y-8490389D02*
X2912920Y-8452293D01*
X2912920Y-8452293D02*
X2912920Y-8404674D01*
X2912920Y-8404674D02*
X2922443Y-8366579D01*
X2922443Y-8366579D02*
X2931967Y-8347531D01*
X2931967Y-8347531D02*
X2941491Y-8338008D01*
X2941491Y-8338008D02*
X2960539Y-8328484D01*
X3112920Y-8528484D02*
X3112920Y-8395150D01*
X3112920Y-8414198D02*
X3122443Y-8404674D01*
X3122443Y-8404674D02*
X3141491Y-8395150D01*
X3141491Y-8395150D02*
X3170063Y-8395150D01*
X3170063Y-8395150D02*
X3189110Y-8404674D01*
X3189110Y-8404674D02*
X3198634Y-8423722D01*
X3198634Y-8423722D02*
X3198634Y-8528484D01*
X3198634Y-8423722D02*
X3208158Y-8404674D01*
X3208158Y-8404674D02*
X3227205Y-8395150D01*
X3227205Y-8395150D02*
X3255777Y-8395150D01*
X3255777Y-8395150D02*
X3274824Y-8404674D01*
X3274824Y-8404674D02*
X3284348Y-8423722D01*
X3284348Y-8423722D02*
X3284348Y-8528484D01*
X3379586Y-8528484D02*
X3379586Y-8395150D01*
X3379586Y-8414198D02*
X3389110Y-8404674D01*
X3389110Y-8404674D02*
X3408158Y-8395150D01*
X3408158Y-8395150D02*
X3436729Y-8395150D01*
X3436729Y-8395150D02*
X3455777Y-8404674D01*
X3455777Y-8404674D02*
X3465301Y-8423722D01*
X3465301Y-8423722D02*
X3465301Y-8528484D01*
X3465301Y-8423722D02*
X3474824Y-8404674D01*
X3474824Y-8404674D02*
X3493872Y-8395150D01*
X3493872Y-8395150D02*
X3522443Y-8395150D01*
X3522443Y-8395150D02*
X3541491Y-8404674D01*
X3541491Y-8404674D02*
X3551015Y-8423722D01*
X3551015Y-8423722D02*
X3551015Y-8528484D01*
X3941491Y-8318960D02*
X3770063Y-8576103D01*
X4198634Y-8328484D02*
X4217682Y-8328484D01*
X4217682Y-8328484D02*
X4236729Y-8338008D01*
X4236729Y-8338008D02*
X4246253Y-8347531D01*
X4246253Y-8347531D02*
X4255777Y-8366579D01*
X4255777Y-8366579D02*
X4265301Y-8404674D01*
X4265301Y-8404674D02*
X4265301Y-8452293D01*
X4265301Y-8452293D02*
X4255777Y-8490389D01*
X4255777Y-8490389D02*
X4246253Y-8509436D01*
X4246253Y-8509436D02*
X4236729Y-8518960D01*
X4236729Y-8518960D02*
X4217682Y-8528484D01*
X4217682Y-8528484D02*
X4198634Y-8528484D01*
X4198634Y-8528484D02*
X4179586Y-8518960D01*
X4179586Y-8518960D02*
X4170063Y-8509436D01*
X4170063Y-8509436D02*
X4160539Y-8490389D01*
X4160539Y-8490389D02*
X4151015Y-8452293D01*
X4151015Y-8452293D02*
X4151015Y-8404674D01*
X4151015Y-8404674D02*
X4160539Y-8366579D01*
X4160539Y-8366579D02*
X4170063Y-8347531D01*
X4170063Y-8347531D02*
X4179586Y-8338008D01*
X4179586Y-8338008D02*
X4198634Y-8328484D01*
X4351015Y-8509436D02*
X4360539Y-8518960D01*
X4360539Y-8518960D02*
X4351015Y-8528484D01*
X4351015Y-8528484D02*
X4341491Y-8518960D01*
X4341491Y-8518960D02*
X4351015Y-8509436D01*
X4351015Y-8509436D02*
X4351015Y-8528484D01*
X4484348Y-8328484D02*
X4503396Y-8328484D01*
X4503396Y-8328484D02*
X4522444Y-8338008D01*
X4522444Y-8338008D02*
X4531968Y-8347531D01*
X4531968Y-8347531D02*
X4541491Y-8366579D01*
X4541491Y-8366579D02*
X4551015Y-8404674D01*
X4551015Y-8404674D02*
X4551015Y-8452293D01*
X4551015Y-8452293D02*
X4541491Y-8490389D01*
X4541491Y-8490389D02*
X4531968Y-8509436D01*
X4531968Y-8509436D02*
X4522444Y-8518960D01*
X4522444Y-8518960D02*
X4503396Y-8528484D01*
X4503396Y-8528484D02*
X4484348Y-8528484D01*
X4484348Y-8528484D02*
X4465301Y-8518960D01*
X4465301Y-8518960D02*
X4455777Y-8509436D01*
X4455777Y-8509436D02*
X4446253Y-8490389D01*
X4446253Y-8490389D02*
X4436729Y-8452293D01*
X4436729Y-8452293D02*
X4436729Y-8404674D01*
X4436729Y-8404674D02*
X4446253Y-8366579D01*
X4446253Y-8366579D02*
X4455777Y-8347531D01*
X4455777Y-8347531D02*
X4465301Y-8338008D01*
X4465301Y-8338008D02*
X4484348Y-8328484D01*
X4627206Y-8347531D02*
X4636729Y-8338008D01*
X4636729Y-8338008D02*
X4655777Y-8328484D01*
X4655777Y-8328484D02*
X4703396Y-8328484D01*
X4703396Y-8328484D02*
X4722444Y-8338008D01*
X4722444Y-8338008D02*
X4731968Y-8347531D01*
X4731968Y-8347531D02*
X4741491Y-8366579D01*
X4741491Y-8366579D02*
X4741491Y-8385627D01*
X4741491Y-8385627D02*
X4731968Y-8414198D01*
X4731968Y-8414198D02*
X4617682Y-8528484D01*
X4617682Y-8528484D02*
X4741491Y-8528484D01*
X4808158Y-8328484D02*
X4931968Y-8328484D01*
X4931968Y-8328484D02*
X4865301Y-8404674D01*
X4865301Y-8404674D02*
X4893872Y-8404674D01*
X4893872Y-8404674D02*
X4912920Y-8414198D01*
X4912920Y-8414198D02*
X4922444Y-8423722D01*
X4922444Y-8423722D02*
X4931968Y-8442770D01*
X4931968Y-8442770D02*
X4931968Y-8490389D01*
X4931968Y-8490389D02*
X4922444Y-8509436D01*
X4922444Y-8509436D02*
X4912920Y-8518960D01*
X4912920Y-8518960D02*
X4893872Y-8528484D01*
X4893872Y-8528484D02*
X4836729Y-8528484D01*
X4836729Y-8528484D02*
X4817682Y-8518960D01*
X4817682Y-8518960D02*
X4808158Y-8509436D01*
X5103396Y-8328484D02*
X5065301Y-8328484D01*
X5065301Y-8328484D02*
X5046253Y-8338008D01*
X5046253Y-8338008D02*
X5036729Y-8347531D01*
X5036729Y-8347531D02*
X5017682Y-8376103D01*
X5017682Y-8376103D02*
X5008158Y-8414198D01*
X5008158Y-8414198D02*
X5008158Y-8490389D01*
X5008158Y-8490389D02*
X5017682Y-8509436D01*
X5017682Y-8509436D02*
X5027206Y-8518960D01*
X5027206Y-8518960D02*
X5046253Y-8528484D01*
X5046253Y-8528484D02*
X5084349Y-8528484D01*
X5084349Y-8528484D02*
X5103396Y-8518960D01*
X5103396Y-8518960D02*
X5112920Y-8509436D01*
X5112920Y-8509436D02*
X5122444Y-8490389D01*
X5122444Y-8490389D02*
X5122444Y-8442770D01*
X5122444Y-8442770D02*
X5112920Y-8423722D01*
X5112920Y-8423722D02*
X5103396Y-8414198D01*
X5103396Y-8414198D02*
X5084349Y-8404674D01*
X5084349Y-8404674D02*
X5046253Y-8404674D01*
X5046253Y-8404674D02*
X5027206Y-8414198D01*
X5027206Y-8414198D02*
X5017682Y-8423722D01*
X5017682Y-8423722D02*
X5008158Y-8442770D01*
X5198634Y-8328484D02*
X5198634Y-8366579D01*
X5274825Y-8328484D02*
X5274825Y-8366579D01*
X5570063Y-8604674D02*
X5560539Y-8595150D01*
X5560539Y-8595150D02*
X5541491Y-8566579D01*
X5541491Y-8566579D02*
X5531968Y-8547531D01*
X5531968Y-8547531D02*
X5522444Y-8518960D01*
X5522444Y-8518960D02*
X5512920Y-8471341D01*
X5512920Y-8471341D02*
X5512920Y-8433246D01*
X5512920Y-8433246D02*
X5522444Y-8385627D01*
X5522444Y-8385627D02*
X5531968Y-8357055D01*
X5531968Y-8357055D02*
X5541491Y-8338008D01*
X5541491Y-8338008D02*
X5560539Y-8309436D01*
X5560539Y-8309436D02*
X5570063Y-8299912D01*
X5684348Y-8328484D02*
X5703396Y-8328484D01*
X5703396Y-8328484D02*
X5722444Y-8338008D01*
X5722444Y-8338008D02*
X5731968Y-8347531D01*
X5731968Y-8347531D02*
X5741491Y-8366579D01*
X5741491Y-8366579D02*
X5751015Y-8404674D01*
X5751015Y-8404674D02*
X5751015Y-8452293D01*
X5751015Y-8452293D02*
X5741491Y-8490389D01*
X5741491Y-8490389D02*
X5731968Y-8509436D01*
X5731968Y-8509436D02*
X5722444Y-8518960D01*
X5722444Y-8518960D02*
X5703396Y-8528484D01*
X5703396Y-8528484D02*
X5684348Y-8528484D01*
X5684348Y-8528484D02*
X5665301Y-8518960D01*
X5665301Y-8518960D02*
X5655777Y-8509436D01*
X5655777Y-8509436D02*
X5646253Y-8490389D01*
X5646253Y-8490389D02*
X5636729Y-8452293D01*
X5636729Y-8452293D02*
X5636729Y-8404674D01*
X5636729Y-8404674D02*
X5646253Y-8366579D01*
X5646253Y-8366579D02*
X5655777Y-8347531D01*
X5655777Y-8347531D02*
X5665301Y-8338008D01*
X5665301Y-8338008D02*
X5684348Y-8328484D01*
X5989110Y-8528484D02*
X5989110Y-8328484D01*
X6074825Y-8528484D02*
X6074825Y-8423722D01*
X6074825Y-8423722D02*
X6065301Y-8404674D01*
X6065301Y-8404674D02*
X6046253Y-8395150D01*
X6046253Y-8395150D02*
X6017682Y-8395150D01*
X6017682Y-8395150D02*
X5998634Y-8404674D01*
X5998634Y-8404674D02*
X5989110Y-8414198D01*
X6198634Y-8528484D02*
X6179587Y-8518960D01*
X6179587Y-8518960D02*
X6170063Y-8509436D01*
X6170063Y-8509436D02*
X6160539Y-8490389D01*
X6160539Y-8490389D02*
X6160539Y-8433246D01*
X6160539Y-8433246D02*
X6170063Y-8414198D01*
X6170063Y-8414198D02*
X6179587Y-8404674D01*
X6179587Y-8404674D02*
X6198634Y-8395150D01*
X6198634Y-8395150D02*
X6227206Y-8395150D01*
X6227206Y-8395150D02*
X6246253Y-8404674D01*
X6246253Y-8404674D02*
X6255777Y-8414198D01*
X6255777Y-8414198D02*
X6265301Y-8433246D01*
X6265301Y-8433246D02*
X6265301Y-8490389D01*
X6265301Y-8490389D02*
X6255777Y-8509436D01*
X6255777Y-8509436D02*
X6246253Y-8518960D01*
X6246253Y-8518960D02*
X6227206Y-8528484D01*
X6227206Y-8528484D02*
X6198634Y-8528484D01*
X6379587Y-8528484D02*
X6360539Y-8518960D01*
X6360539Y-8518960D02*
X6351015Y-8499912D01*
X6351015Y-8499912D02*
X6351015Y-8328484D01*
X6531968Y-8518960D02*
X6512920Y-8528484D01*
X6512920Y-8528484D02*
X6474825Y-8528484D01*
X6474825Y-8528484D02*
X6455777Y-8518960D01*
X6455777Y-8518960D02*
X6446253Y-8499912D01*
X6446253Y-8499912D02*
X6446253Y-8423722D01*
X6446253Y-8423722D02*
X6455777Y-8404674D01*
X6455777Y-8404674D02*
X6474825Y-8395150D01*
X6474825Y-8395150D02*
X6512920Y-8395150D01*
X6512920Y-8395150D02*
X6531968Y-8404674D01*
X6531968Y-8404674D02*
X6541491Y-8423722D01*
X6541491Y-8423722D02*
X6541491Y-8442770D01*
X6541491Y-8442770D02*
X6446253Y-8461817D01*
X6617682Y-8518960D02*
X6636730Y-8528484D01*
X6636730Y-8528484D02*
X6674825Y-8528484D01*
X6674825Y-8528484D02*
X6693872Y-8518960D01*
X6693872Y-8518960D02*
X6703396Y-8499912D01*
X6703396Y-8499912D02*
X6703396Y-8490389D01*
X6703396Y-8490389D02*
X6693872Y-8471341D01*
X6693872Y-8471341D02*
X6674825Y-8461817D01*
X6674825Y-8461817D02*
X6646253Y-8461817D01*
X6646253Y-8461817D02*
X6627206Y-8452293D01*
X6627206Y-8452293D02*
X6617682Y-8433246D01*
X6617682Y-8433246D02*
X6617682Y-8423722D01*
X6617682Y-8423722D02*
X6627206Y-8404674D01*
X6627206Y-8404674D02*
X6646253Y-8395150D01*
X6646253Y-8395150D02*
X6674825Y-8395150D01*
X6674825Y-8395150D02*
X6693872Y-8404674D01*
X6941492Y-8452293D02*
X7093873Y-8452293D01*
X7017682Y-8528484D02*
X7017682Y-8376103D01*
X7427206Y-8395150D02*
X7427206Y-8528484D01*
X7379587Y-8318960D02*
X7331968Y-8461817D01*
X7331968Y-8461817D02*
X7455777Y-8461817D01*
X7674825Y-8518960D02*
X7693873Y-8528484D01*
X7693873Y-8528484D02*
X7731968Y-8528484D01*
X7731968Y-8528484D02*
X7751015Y-8518960D01*
X7751015Y-8518960D02*
X7760539Y-8499912D01*
X7760539Y-8499912D02*
X7760539Y-8490389D01*
X7760539Y-8490389D02*
X7751015Y-8471341D01*
X7751015Y-8471341D02*
X7731968Y-8461817D01*
X7731968Y-8461817D02*
X7703396Y-8461817D01*
X7703396Y-8461817D02*
X7684349Y-8452293D01*
X7684349Y-8452293D02*
X7674825Y-8433246D01*
X7674825Y-8433246D02*
X7674825Y-8423722D01*
X7674825Y-8423722D02*
X7684349Y-8404674D01*
X7684349Y-8404674D02*
X7703396Y-8395150D01*
X7703396Y-8395150D02*
X7731968Y-8395150D01*
X7731968Y-8395150D02*
X7751015Y-8404674D01*
X7874825Y-8528484D02*
X7855777Y-8518960D01*
X7855777Y-8518960D02*
X7846254Y-8499912D01*
X7846254Y-8499912D02*
X7846254Y-8328484D01*
X7979587Y-8528484D02*
X7960539Y-8518960D01*
X7960539Y-8518960D02*
X7951015Y-8509436D01*
X7951015Y-8509436D02*
X7941492Y-8490389D01*
X7941492Y-8490389D02*
X7941492Y-8433246D01*
X7941492Y-8433246D02*
X7951015Y-8414198D01*
X7951015Y-8414198D02*
X7960539Y-8404674D01*
X7960539Y-8404674D02*
X7979587Y-8395150D01*
X7979587Y-8395150D02*
X8008158Y-8395150D01*
X8008158Y-8395150D02*
X8027206Y-8404674D01*
X8027206Y-8404674D02*
X8036730Y-8414198D01*
X8036730Y-8414198D02*
X8046254Y-8433246D01*
X8046254Y-8433246D02*
X8046254Y-8490389D01*
X8046254Y-8490389D02*
X8036730Y-8509436D01*
X8036730Y-8509436D02*
X8027206Y-8518960D01*
X8027206Y-8518960D02*
X8008158Y-8528484D01*
X8008158Y-8528484D02*
X7979587Y-8528484D01*
X8103396Y-8395150D02*
X8179587Y-8395150D01*
X8131968Y-8328484D02*
X8131968Y-8499912D01*
X8131968Y-8499912D02*
X8141492Y-8518960D01*
X8141492Y-8518960D02*
X8160539Y-8528484D01*
X8160539Y-8528484D02*
X8179587Y-8528484D01*
X8236730Y-8518960D02*
X8255777Y-8528484D01*
X8255777Y-8528484D02*
X8293873Y-8528484D01*
X8293873Y-8528484D02*
X8312920Y-8518960D01*
X8312920Y-8518960D02*
X8322444Y-8499912D01*
X8322444Y-8499912D02*
X8322444Y-8490389D01*
X8322444Y-8490389D02*
X8312920Y-8471341D01*
X8312920Y-8471341D02*
X8293873Y-8461817D01*
X8293873Y-8461817D02*
X8265301Y-8461817D01*
X8265301Y-8461817D02*
X8246254Y-8452293D01*
X8246254Y-8452293D02*
X8236730Y-8433246D01*
X8236730Y-8433246D02*
X8236730Y-8423722D01*
X8236730Y-8423722D02*
X8246254Y-8404674D01*
X8246254Y-8404674D02*
X8265301Y-8395150D01*
X8265301Y-8395150D02*
X8293873Y-8395150D01*
X8293873Y-8395150D02*
X8312920Y-8404674D01*
X8389111Y-8604674D02*
X8398635Y-8595150D01*
X8398635Y-8595150D02*
X8417682Y-8566579D01*
X8417682Y-8566579D02*
X8427206Y-8547531D01*
X8427206Y-8547531D02*
X8436730Y-8518960D01*
X8436730Y-8518960D02*
X8446254Y-8471341D01*
X8446254Y-8471341D02*
X8446254Y-8433246D01*
X8446254Y-8433246D02*
X8436730Y-8385627D01*
X8436730Y-8385627D02*
X8427206Y-8357055D01*
X8427206Y-8357055D02*
X8417682Y-8338008D01*
X8417682Y-8338008D02*
X8398635Y-8309436D01*
X8398635Y-8309436D02*
X8389111Y-8299912D01*
D10*
X1947500Y-8748500D02*
X1995000Y-8701000D01*
X1947500Y-8653500D01*
X1900000Y-8701000D01*
X1947500Y-8748500D01*
D11*
X2293872Y-8592484D02*
X2312920Y-8592484D01*
X2312920Y-8592484D02*
X2331967Y-8602008D01*
X2331967Y-8602008D02*
X2341491Y-8611531D01*
X2341491Y-8611531D02*
X2351015Y-8630579D01*
X2351015Y-8630579D02*
X2360539Y-8668674D01*
X2360539Y-8668674D02*
X2360539Y-8716293D01*
X2360539Y-8716293D02*
X2351015Y-8754389D01*
X2351015Y-8754389D02*
X2341491Y-8773436D01*
X2341491Y-8773436D02*
X2331967Y-8782960D01*
X2331967Y-8782960D02*
X2312920Y-8792484D01*
X2312920Y-8792484D02*
X2293872Y-8792484D01*
X2293872Y-8792484D02*
X2274824Y-8782960D01*
X2274824Y-8782960D02*
X2265301Y-8773436D01*
X2265301Y-8773436D02*
X2255777Y-8754389D01*
X2255777Y-8754389D02*
X2246253Y-8716293D01*
X2246253Y-8716293D02*
X2246253Y-8668674D01*
X2246253Y-8668674D02*
X2255777Y-8630579D01*
X2255777Y-8630579D02*
X2265301Y-8611531D01*
X2265301Y-8611531D02*
X2274824Y-8602008D01*
X2274824Y-8602008D02*
X2293872Y-8592484D01*
X2446253Y-8773436D02*
X2455777Y-8782960D01*
X2455777Y-8782960D02*
X2446253Y-8792484D01*
X2446253Y-8792484D02*
X2436729Y-8782960D01*
X2436729Y-8782960D02*
X2446253Y-8773436D01*
X2446253Y-8773436D02*
X2446253Y-8792484D01*
X2551015Y-8792484D02*
X2589110Y-8792484D01*
X2589110Y-8792484D02*
X2608158Y-8782960D01*
X2608158Y-8782960D02*
X2617682Y-8773436D01*
X2617682Y-8773436D02*
X2636729Y-8744865D01*
X2636729Y-8744865D02*
X2646253Y-8706770D01*
X2646253Y-8706770D02*
X2646253Y-8630579D01*
X2646253Y-8630579D02*
X2636729Y-8611531D01*
X2636729Y-8611531D02*
X2627205Y-8602008D01*
X2627205Y-8602008D02*
X2608158Y-8592484D01*
X2608158Y-8592484D02*
X2570063Y-8592484D01*
X2570063Y-8592484D02*
X2551015Y-8602008D01*
X2551015Y-8602008D02*
X2541491Y-8611531D01*
X2541491Y-8611531D02*
X2531967Y-8630579D01*
X2531967Y-8630579D02*
X2531967Y-8678198D01*
X2531967Y-8678198D02*
X2541491Y-8697246D01*
X2541491Y-8697246D02*
X2551015Y-8706770D01*
X2551015Y-8706770D02*
X2570063Y-8716293D01*
X2570063Y-8716293D02*
X2608158Y-8716293D01*
X2608158Y-8716293D02*
X2627205Y-8706770D01*
X2627205Y-8706770D02*
X2636729Y-8697246D01*
X2636729Y-8697246D02*
X2646253Y-8678198D01*
X2827205Y-8592484D02*
X2731967Y-8592484D01*
X2731967Y-8592484D02*
X2722444Y-8687722D01*
X2722444Y-8687722D02*
X2731967Y-8678198D01*
X2731967Y-8678198D02*
X2751015Y-8668674D01*
X2751015Y-8668674D02*
X2798634Y-8668674D01*
X2798634Y-8668674D02*
X2817682Y-8678198D01*
X2817682Y-8678198D02*
X2827205Y-8687722D01*
X2827205Y-8687722D02*
X2836729Y-8706770D01*
X2836729Y-8706770D02*
X2836729Y-8754389D01*
X2836729Y-8754389D02*
X2827205Y-8773436D01*
X2827205Y-8773436D02*
X2817682Y-8782960D01*
X2817682Y-8782960D02*
X2798634Y-8792484D01*
X2798634Y-8792484D02*
X2751015Y-8792484D01*
X2751015Y-8792484D02*
X2731967Y-8782960D01*
X2731967Y-8782960D02*
X2722444Y-8773436D01*
X2960539Y-8592484D02*
X2979586Y-8592484D01*
X2979586Y-8592484D02*
X2998634Y-8602008D01*
X2998634Y-8602008D02*
X3008158Y-8611531D01*
X3008158Y-8611531D02*
X3017682Y-8630579D01*
X3017682Y-8630579D02*
X3027205Y-8668674D01*
X3027205Y-8668674D02*
X3027205Y-8716293D01*
X3027205Y-8716293D02*
X3017682Y-8754389D01*
X3017682Y-8754389D02*
X3008158Y-8773436D01*
X3008158Y-8773436D02*
X2998634Y-8782960D01*
X2998634Y-8782960D02*
X2979586Y-8792484D01*
X2979586Y-8792484D02*
X2960539Y-8792484D01*
X2960539Y-8792484D02*
X2941491Y-8782960D01*
X2941491Y-8782960D02*
X2931967Y-8773436D01*
X2931967Y-8773436D02*
X2922443Y-8754389D01*
X2922443Y-8754389D02*
X2912920Y-8716293D01*
X2912920Y-8716293D02*
X2912920Y-8668674D01*
X2912920Y-8668674D02*
X2922443Y-8630579D01*
X2922443Y-8630579D02*
X2931967Y-8611531D01*
X2931967Y-8611531D02*
X2941491Y-8602008D01*
X2941491Y-8602008D02*
X2960539Y-8592484D01*
X3112920Y-8792484D02*
X3112920Y-8659150D01*
X3112920Y-8678198D02*
X3122443Y-8668674D01*
X3122443Y-8668674D02*
X3141491Y-8659150D01*
X3141491Y-8659150D02*
X3170063Y-8659150D01*
X3170063Y-8659150D02*
X3189110Y-8668674D01*
X3189110Y-8668674D02*
X3198634Y-8687722D01*
X3198634Y-8687722D02*
X3198634Y-8792484D01*
X3198634Y-8687722D02*
X3208158Y-8668674D01*
X3208158Y-8668674D02*
X3227205Y-8659150D01*
X3227205Y-8659150D02*
X3255777Y-8659150D01*
X3255777Y-8659150D02*
X3274824Y-8668674D01*
X3274824Y-8668674D02*
X3284348Y-8687722D01*
X3284348Y-8687722D02*
X3284348Y-8792484D01*
X3379586Y-8792484D02*
X3379586Y-8659150D01*
X3379586Y-8678198D02*
X3389110Y-8668674D01*
X3389110Y-8668674D02*
X3408158Y-8659150D01*
X3408158Y-8659150D02*
X3436729Y-8659150D01*
X3436729Y-8659150D02*
X3455777Y-8668674D01*
X3455777Y-8668674D02*
X3465301Y-8687722D01*
X3465301Y-8687722D02*
X3465301Y-8792484D01*
X3465301Y-8687722D02*
X3474824Y-8668674D01*
X3474824Y-8668674D02*
X3493872Y-8659150D01*
X3493872Y-8659150D02*
X3522443Y-8659150D01*
X3522443Y-8659150D02*
X3541491Y-8668674D01*
X3541491Y-8668674D02*
X3551015Y-8687722D01*
X3551015Y-8687722D02*
X3551015Y-8792484D01*
X3941491Y-8582960D02*
X3770063Y-8840103D01*
X4198634Y-8592484D02*
X4217682Y-8592484D01*
X4217682Y-8592484D02*
X4236729Y-8602008D01*
X4236729Y-8602008D02*
X4246253Y-8611531D01*
X4246253Y-8611531D02*
X4255777Y-8630579D01*
X4255777Y-8630579D02*
X4265301Y-8668674D01*
X4265301Y-8668674D02*
X4265301Y-8716293D01*
X4265301Y-8716293D02*
X4255777Y-8754389D01*
X4255777Y-8754389D02*
X4246253Y-8773436D01*
X4246253Y-8773436D02*
X4236729Y-8782960D01*
X4236729Y-8782960D02*
X4217682Y-8792484D01*
X4217682Y-8792484D02*
X4198634Y-8792484D01*
X4198634Y-8792484D02*
X4179586Y-8782960D01*
X4179586Y-8782960D02*
X4170063Y-8773436D01*
X4170063Y-8773436D02*
X4160539Y-8754389D01*
X4160539Y-8754389D02*
X4151015Y-8716293D01*
X4151015Y-8716293D02*
X4151015Y-8668674D01*
X4151015Y-8668674D02*
X4160539Y-8630579D01*
X4160539Y-8630579D02*
X4170063Y-8611531D01*
X4170063Y-8611531D02*
X4179586Y-8602008D01*
X4179586Y-8602008D02*
X4198634Y-8592484D01*
X4351015Y-8773436D02*
X4360539Y-8782960D01*
X4360539Y-8782960D02*
X4351015Y-8792484D01*
X4351015Y-8792484D02*
X4341491Y-8782960D01*
X4341491Y-8782960D02*
X4351015Y-8773436D01*
X4351015Y-8773436D02*
X4351015Y-8792484D01*
X4484348Y-8592484D02*
X4503396Y-8592484D01*
X4503396Y-8592484D02*
X4522444Y-8602008D01*
X4522444Y-8602008D02*
X4531968Y-8611531D01*
X4531968Y-8611531D02*
X4541491Y-8630579D01*
X4541491Y-8630579D02*
X4551015Y-8668674D01*
X4551015Y-8668674D02*
X4551015Y-8716293D01*
X4551015Y-8716293D02*
X4541491Y-8754389D01*
X4541491Y-8754389D02*
X4531968Y-8773436D01*
X4531968Y-8773436D02*
X4522444Y-8782960D01*
X4522444Y-8782960D02*
X4503396Y-8792484D01*
X4503396Y-8792484D02*
X4484348Y-8792484D01*
X4484348Y-8792484D02*
X4465301Y-8782960D01*
X4465301Y-8782960D02*
X4455777Y-8773436D01*
X4455777Y-8773436D02*
X4446253Y-8754389D01*
X4446253Y-8754389D02*
X4436729Y-8716293D01*
X4436729Y-8716293D02*
X4436729Y-8668674D01*
X4436729Y-8668674D02*
X4446253Y-8630579D01*
X4446253Y-8630579D02*
X4455777Y-8611531D01*
X4455777Y-8611531D02*
X4465301Y-8602008D01*
X4465301Y-8602008D02*
X4484348Y-8592484D01*
X4617682Y-8592484D02*
X4741491Y-8592484D01*
X4741491Y-8592484D02*
X4674825Y-8668674D01*
X4674825Y-8668674D02*
X4703396Y-8668674D01*
X4703396Y-8668674D02*
X4722444Y-8678198D01*
X4722444Y-8678198D02*
X4731968Y-8687722D01*
X4731968Y-8687722D02*
X4741491Y-8706770D01*
X4741491Y-8706770D02*
X4741491Y-8754389D01*
X4741491Y-8754389D02*
X4731968Y-8773436D01*
X4731968Y-8773436D02*
X4722444Y-8782960D01*
X4722444Y-8782960D02*
X4703396Y-8792484D01*
X4703396Y-8792484D02*
X4646253Y-8792484D01*
X4646253Y-8792484D02*
X4627206Y-8782960D01*
X4627206Y-8782960D02*
X4617682Y-8773436D01*
X4808158Y-8592484D02*
X4941491Y-8592484D01*
X4941491Y-8592484D02*
X4855777Y-8792484D01*
X5103396Y-8659150D02*
X5103396Y-8792484D01*
X5055777Y-8582960D02*
X5008158Y-8725817D01*
X5008158Y-8725817D02*
X5131968Y-8725817D01*
X5198634Y-8592484D02*
X5198634Y-8630579D01*
X5274825Y-8592484D02*
X5274825Y-8630579D01*
X5570063Y-8868674D02*
X5560539Y-8859150D01*
X5560539Y-8859150D02*
X5541491Y-8830579D01*
X5541491Y-8830579D02*
X5531968Y-8811531D01*
X5531968Y-8811531D02*
X5522444Y-8782960D01*
X5522444Y-8782960D02*
X5512920Y-8735341D01*
X5512920Y-8735341D02*
X5512920Y-8697246D01*
X5512920Y-8697246D02*
X5522444Y-8649627D01*
X5522444Y-8649627D02*
X5531968Y-8621055D01*
X5531968Y-8621055D02*
X5541491Y-8602008D01*
X5541491Y-8602008D02*
X5560539Y-8573436D01*
X5560539Y-8573436D02*
X5570063Y-8563912D01*
X5627206Y-8592484D02*
X5751015Y-8592484D01*
X5751015Y-8592484D02*
X5684348Y-8668674D01*
X5684348Y-8668674D02*
X5712920Y-8668674D01*
X5712920Y-8668674D02*
X5731968Y-8678198D01*
X5731968Y-8678198D02*
X5741491Y-8687722D01*
X5741491Y-8687722D02*
X5751015Y-8706770D01*
X5751015Y-8706770D02*
X5751015Y-8754389D01*
X5751015Y-8754389D02*
X5741491Y-8773436D01*
X5741491Y-8773436D02*
X5731968Y-8782960D01*
X5731968Y-8782960D02*
X5712920Y-8792484D01*
X5712920Y-8792484D02*
X5655777Y-8792484D01*
X5655777Y-8792484D02*
X5636729Y-8782960D01*
X5636729Y-8782960D02*
X5627206Y-8773436D01*
X5989110Y-8792484D02*
X5989110Y-8592484D01*
X6074825Y-8792484D02*
X6074825Y-8687722D01*
X6074825Y-8687722D02*
X6065301Y-8668674D01*
X6065301Y-8668674D02*
X6046253Y-8659150D01*
X6046253Y-8659150D02*
X6017682Y-8659150D01*
X6017682Y-8659150D02*
X5998634Y-8668674D01*
X5998634Y-8668674D02*
X5989110Y-8678198D01*
X6198634Y-8792484D02*
X6179587Y-8782960D01*
X6179587Y-8782960D02*
X6170063Y-8773436D01*
X6170063Y-8773436D02*
X6160539Y-8754389D01*
X6160539Y-8754389D02*
X6160539Y-8697246D01*
X6160539Y-8697246D02*
X6170063Y-8678198D01*
X6170063Y-8678198D02*
X6179587Y-8668674D01*
X6179587Y-8668674D02*
X6198634Y-8659150D01*
X6198634Y-8659150D02*
X6227206Y-8659150D01*
X6227206Y-8659150D02*
X6246253Y-8668674D01*
X6246253Y-8668674D02*
X6255777Y-8678198D01*
X6255777Y-8678198D02*
X6265301Y-8697246D01*
X6265301Y-8697246D02*
X6265301Y-8754389D01*
X6265301Y-8754389D02*
X6255777Y-8773436D01*
X6255777Y-8773436D02*
X6246253Y-8782960D01*
X6246253Y-8782960D02*
X6227206Y-8792484D01*
X6227206Y-8792484D02*
X6198634Y-8792484D01*
X6379587Y-8792484D02*
X6360539Y-8782960D01*
X6360539Y-8782960D02*
X6351015Y-8763912D01*
X6351015Y-8763912D02*
X6351015Y-8592484D01*
X6531968Y-8782960D02*
X6512920Y-8792484D01*
X6512920Y-8792484D02*
X6474825Y-8792484D01*
X6474825Y-8792484D02*
X6455777Y-8782960D01*
X6455777Y-8782960D02*
X6446253Y-8763912D01*
X6446253Y-8763912D02*
X6446253Y-8687722D01*
X6446253Y-8687722D02*
X6455777Y-8668674D01*
X6455777Y-8668674D02*
X6474825Y-8659150D01*
X6474825Y-8659150D02*
X6512920Y-8659150D01*
X6512920Y-8659150D02*
X6531968Y-8668674D01*
X6531968Y-8668674D02*
X6541491Y-8687722D01*
X6541491Y-8687722D02*
X6541491Y-8706770D01*
X6541491Y-8706770D02*
X6446253Y-8725817D01*
X6617682Y-8782960D02*
X6636730Y-8792484D01*
X6636730Y-8792484D02*
X6674825Y-8792484D01*
X6674825Y-8792484D02*
X6693872Y-8782960D01*
X6693872Y-8782960D02*
X6703396Y-8763912D01*
X6703396Y-8763912D02*
X6703396Y-8754389D01*
X6703396Y-8754389D02*
X6693872Y-8735341D01*
X6693872Y-8735341D02*
X6674825Y-8725817D01*
X6674825Y-8725817D02*
X6646253Y-8725817D01*
X6646253Y-8725817D02*
X6627206Y-8716293D01*
X6627206Y-8716293D02*
X6617682Y-8697246D01*
X6617682Y-8697246D02*
X6617682Y-8687722D01*
X6617682Y-8687722D02*
X6627206Y-8668674D01*
X6627206Y-8668674D02*
X6646253Y-8659150D01*
X6646253Y-8659150D02*
X6674825Y-8659150D01*
X6674825Y-8659150D02*
X6693872Y-8668674D01*
X6770063Y-8868674D02*
X6779587Y-8859150D01*
X6779587Y-8859150D02*
X6798634Y-8830579D01*
X6798634Y-8830579D02*
X6808158Y-8811531D01*
X6808158Y-8811531D02*
X6817682Y-8782960D01*
X6817682Y-8782960D02*
X6827206Y-8735341D01*
X6827206Y-8735341D02*
X6827206Y-8697246D01*
X6827206Y-8697246D02*
X6817682Y-8649627D01*
X6817682Y-8649627D02*
X6808158Y-8621055D01*
X6808158Y-8621055D02*
X6798634Y-8602008D01*
X6798634Y-8602008D02*
X6779587Y-8573436D01*
X6779587Y-8573436D02*
X6770063Y-8563912D01*
D10*
X1895000Y-8915000D02*
X1995000Y-9015000D01*
X1995000Y-8915000D02*
X1895000Y-9015000D01*
X1995000Y-8965000D02*
G75*
G02*
X1895000Y-8965000I-50000J0D01*
G01*
X1895000Y-8965000D02*
G75*
G02*
X1995000Y-8965000I50000J0D01*
G01*
D11*
X2360539Y-9056484D02*
X2246253Y-9056484D01*
X2303396Y-9056484D02*
X2303396Y-8856484D01*
X2303396Y-8856484D02*
X2284348Y-8885055D01*
X2284348Y-8885055D02*
X2265301Y-8904103D01*
X2265301Y-8904103D02*
X2246253Y-8913627D01*
X2446253Y-9037436D02*
X2455777Y-9046960D01*
X2455777Y-9046960D02*
X2446253Y-9056484D01*
X2446253Y-9056484D02*
X2436729Y-9046960D01*
X2436729Y-9046960D02*
X2446253Y-9037436D01*
X2446253Y-9037436D02*
X2446253Y-9056484D01*
X2579586Y-8856484D02*
X2598634Y-8856484D01*
X2598634Y-8856484D02*
X2617682Y-8866008D01*
X2617682Y-8866008D02*
X2627205Y-8875531D01*
X2627205Y-8875531D02*
X2636729Y-8894579D01*
X2636729Y-8894579D02*
X2646253Y-8932674D01*
X2646253Y-8932674D02*
X2646253Y-8980293D01*
X2646253Y-8980293D02*
X2636729Y-9018389D01*
X2636729Y-9018389D02*
X2627205Y-9037436D01*
X2627205Y-9037436D02*
X2617682Y-9046960D01*
X2617682Y-9046960D02*
X2598634Y-9056484D01*
X2598634Y-9056484D02*
X2579586Y-9056484D01*
X2579586Y-9056484D02*
X2560539Y-9046960D01*
X2560539Y-9046960D02*
X2551015Y-9037436D01*
X2551015Y-9037436D02*
X2541491Y-9018389D01*
X2541491Y-9018389D02*
X2531967Y-8980293D01*
X2531967Y-8980293D02*
X2531967Y-8932674D01*
X2531967Y-8932674D02*
X2541491Y-8894579D01*
X2541491Y-8894579D02*
X2551015Y-8875531D01*
X2551015Y-8875531D02*
X2560539Y-8866008D01*
X2560539Y-8866008D02*
X2579586Y-8856484D01*
X2770063Y-8856484D02*
X2789110Y-8856484D01*
X2789110Y-8856484D02*
X2808158Y-8866008D01*
X2808158Y-8866008D02*
X2817682Y-8875531D01*
X2817682Y-8875531D02*
X2827205Y-8894579D01*
X2827205Y-8894579D02*
X2836729Y-8932674D01*
X2836729Y-8932674D02*
X2836729Y-8980293D01*
X2836729Y-8980293D02*
X2827205Y-9018389D01*
X2827205Y-9018389D02*
X2817682Y-9037436D01*
X2817682Y-9037436D02*
X2808158Y-9046960D01*
X2808158Y-9046960D02*
X2789110Y-9056484D01*
X2789110Y-9056484D02*
X2770063Y-9056484D01*
X2770063Y-9056484D02*
X2751015Y-9046960D01*
X2751015Y-9046960D02*
X2741491Y-9037436D01*
X2741491Y-9037436D02*
X2731967Y-9018389D01*
X2731967Y-9018389D02*
X2722444Y-8980293D01*
X2722444Y-8980293D02*
X2722444Y-8932674D01*
X2722444Y-8932674D02*
X2731967Y-8894579D01*
X2731967Y-8894579D02*
X2741491Y-8875531D01*
X2741491Y-8875531D02*
X2751015Y-8866008D01*
X2751015Y-8866008D02*
X2770063Y-8856484D01*
X2960539Y-8856484D02*
X2979586Y-8856484D01*
X2979586Y-8856484D02*
X2998634Y-8866008D01*
X2998634Y-8866008D02*
X3008158Y-8875531D01*
X3008158Y-8875531D02*
X3017682Y-8894579D01*
X3017682Y-8894579D02*
X3027205Y-8932674D01*
X3027205Y-8932674D02*
X3027205Y-8980293D01*
X3027205Y-8980293D02*
X3017682Y-9018389D01*
X3017682Y-9018389D02*
X3008158Y-9037436D01*
X3008158Y-9037436D02*
X2998634Y-9046960D01*
X2998634Y-9046960D02*
X2979586Y-9056484D01*
X2979586Y-9056484D02*
X2960539Y-9056484D01*
X2960539Y-9056484D02*
X2941491Y-9046960D01*
X2941491Y-9046960D02*
X2931967Y-9037436D01*
X2931967Y-9037436D02*
X2922443Y-9018389D01*
X2922443Y-9018389D02*
X2912920Y-8980293D01*
X2912920Y-8980293D02*
X2912920Y-8932674D01*
X2912920Y-8932674D02*
X2922443Y-8894579D01*
X2922443Y-8894579D02*
X2931967Y-8875531D01*
X2931967Y-8875531D02*
X2941491Y-8866008D01*
X2941491Y-8866008D02*
X2960539Y-8856484D01*
X3112920Y-9056484D02*
X3112920Y-8923150D01*
X3112920Y-8942198D02*
X3122443Y-8932674D01*
X3122443Y-8932674D02*
X3141491Y-8923150D01*
X3141491Y-8923150D02*
X3170063Y-8923150D01*
X3170063Y-8923150D02*
X3189110Y-8932674D01*
X3189110Y-8932674D02*
X3198634Y-8951722D01*
X3198634Y-8951722D02*
X3198634Y-9056484D01*
X3198634Y-8951722D02*
X3208158Y-8932674D01*
X3208158Y-8932674D02*
X3227205Y-8923150D01*
X3227205Y-8923150D02*
X3255777Y-8923150D01*
X3255777Y-8923150D02*
X3274824Y-8932674D01*
X3274824Y-8932674D02*
X3284348Y-8951722D01*
X3284348Y-8951722D02*
X3284348Y-9056484D01*
X3379586Y-9056484D02*
X3379586Y-8923150D01*
X3379586Y-8942198D02*
X3389110Y-8932674D01*
X3389110Y-8932674D02*
X3408158Y-8923150D01*
X3408158Y-8923150D02*
X3436729Y-8923150D01*
X3436729Y-8923150D02*
X3455777Y-8932674D01*
X3455777Y-8932674D02*
X3465301Y-8951722D01*
X3465301Y-8951722D02*
X3465301Y-9056484D01*
X3465301Y-8951722D02*
X3474824Y-8932674D01*
X3474824Y-8932674D02*
X3493872Y-8923150D01*
X3493872Y-8923150D02*
X3522443Y-8923150D01*
X3522443Y-8923150D02*
X3541491Y-8932674D01*
X3541491Y-8932674D02*
X3551015Y-8951722D01*
X3551015Y-8951722D02*
X3551015Y-9056484D01*
X3941491Y-8846960D02*
X3770063Y-9104103D01*
X4198634Y-8856484D02*
X4217682Y-8856484D01*
X4217682Y-8856484D02*
X4236729Y-8866008D01*
X4236729Y-8866008D02*
X4246253Y-8875531D01*
X4246253Y-8875531D02*
X4255777Y-8894579D01*
X4255777Y-8894579D02*
X4265301Y-8932674D01*
X4265301Y-8932674D02*
X4265301Y-8980293D01*
X4265301Y-8980293D02*
X4255777Y-9018389D01*
X4255777Y-9018389D02*
X4246253Y-9037436D01*
X4246253Y-9037436D02*
X4236729Y-9046960D01*
X4236729Y-9046960D02*
X4217682Y-9056484D01*
X4217682Y-9056484D02*
X4198634Y-9056484D01*
X4198634Y-9056484D02*
X4179586Y-9046960D01*
X4179586Y-9046960D02*
X4170063Y-9037436D01*
X4170063Y-9037436D02*
X4160539Y-9018389D01*
X4160539Y-9018389D02*
X4151015Y-8980293D01*
X4151015Y-8980293D02*
X4151015Y-8932674D01*
X4151015Y-8932674D02*
X4160539Y-8894579D01*
X4160539Y-8894579D02*
X4170063Y-8875531D01*
X4170063Y-8875531D02*
X4179586Y-8866008D01*
X4179586Y-8866008D02*
X4198634Y-8856484D01*
X4351015Y-9037436D02*
X4360539Y-9046960D01*
X4360539Y-9046960D02*
X4351015Y-9056484D01*
X4351015Y-9056484D02*
X4341491Y-9046960D01*
X4341491Y-9046960D02*
X4351015Y-9037436D01*
X4351015Y-9037436D02*
X4351015Y-9056484D01*
X4484348Y-8856484D02*
X4503396Y-8856484D01*
X4503396Y-8856484D02*
X4522444Y-8866008D01*
X4522444Y-8866008D02*
X4531968Y-8875531D01*
X4531968Y-8875531D02*
X4541491Y-8894579D01*
X4541491Y-8894579D02*
X4551015Y-8932674D01*
X4551015Y-8932674D02*
X4551015Y-8980293D01*
X4551015Y-8980293D02*
X4541491Y-9018389D01*
X4541491Y-9018389D02*
X4531968Y-9037436D01*
X4531968Y-9037436D02*
X4522444Y-9046960D01*
X4522444Y-9046960D02*
X4503396Y-9056484D01*
X4503396Y-9056484D02*
X4484348Y-9056484D01*
X4484348Y-9056484D02*
X4465301Y-9046960D01*
X4465301Y-9046960D02*
X4455777Y-9037436D01*
X4455777Y-9037436D02*
X4446253Y-9018389D01*
X4446253Y-9018389D02*
X4436729Y-8980293D01*
X4436729Y-8980293D02*
X4436729Y-8932674D01*
X4436729Y-8932674D02*
X4446253Y-8894579D01*
X4446253Y-8894579D02*
X4455777Y-8875531D01*
X4455777Y-8875531D02*
X4465301Y-8866008D01*
X4465301Y-8866008D02*
X4484348Y-8856484D01*
X4617682Y-8856484D02*
X4741491Y-8856484D01*
X4741491Y-8856484D02*
X4674825Y-8932674D01*
X4674825Y-8932674D02*
X4703396Y-8932674D01*
X4703396Y-8932674D02*
X4722444Y-8942198D01*
X4722444Y-8942198D02*
X4731968Y-8951722D01*
X4731968Y-8951722D02*
X4741491Y-8970770D01*
X4741491Y-8970770D02*
X4741491Y-9018389D01*
X4741491Y-9018389D02*
X4731968Y-9037436D01*
X4731968Y-9037436D02*
X4722444Y-9046960D01*
X4722444Y-9046960D02*
X4703396Y-9056484D01*
X4703396Y-9056484D02*
X4646253Y-9056484D01*
X4646253Y-9056484D02*
X4627206Y-9046960D01*
X4627206Y-9046960D02*
X4617682Y-9037436D01*
X4836729Y-9056484D02*
X4874825Y-9056484D01*
X4874825Y-9056484D02*
X4893872Y-9046960D01*
X4893872Y-9046960D02*
X4903396Y-9037436D01*
X4903396Y-9037436D02*
X4922444Y-9008865D01*
X4922444Y-9008865D02*
X4931968Y-8970770D01*
X4931968Y-8970770D02*
X4931968Y-8894579D01*
X4931968Y-8894579D02*
X4922444Y-8875531D01*
X4922444Y-8875531D02*
X4912920Y-8866008D01*
X4912920Y-8866008D02*
X4893872Y-8856484D01*
X4893872Y-8856484D02*
X4855777Y-8856484D01*
X4855777Y-8856484D02*
X4836729Y-8866008D01*
X4836729Y-8866008D02*
X4827206Y-8875531D01*
X4827206Y-8875531D02*
X4817682Y-8894579D01*
X4817682Y-8894579D02*
X4817682Y-8942198D01*
X4817682Y-8942198D02*
X4827206Y-8961246D01*
X4827206Y-8961246D02*
X4836729Y-8970770D01*
X4836729Y-8970770D02*
X4855777Y-8980293D01*
X4855777Y-8980293D02*
X4893872Y-8980293D01*
X4893872Y-8980293D02*
X4912920Y-8970770D01*
X4912920Y-8970770D02*
X4922444Y-8961246D01*
X4922444Y-8961246D02*
X4931968Y-8942198D01*
X5103396Y-8923150D02*
X5103396Y-9056484D01*
X5055777Y-8846960D02*
X5008158Y-8989817D01*
X5008158Y-8989817D02*
X5131968Y-8989817D01*
X5198634Y-8856484D02*
X5198634Y-8894579D01*
X5274825Y-8856484D02*
X5274825Y-8894579D01*
X5570063Y-9132674D02*
X5560539Y-9123150D01*
X5560539Y-9123150D02*
X5541491Y-9094579D01*
X5541491Y-9094579D02*
X5531968Y-9075531D01*
X5531968Y-9075531D02*
X5522444Y-9046960D01*
X5522444Y-9046960D02*
X5512920Y-8999341D01*
X5512920Y-8999341D02*
X5512920Y-8961246D01*
X5512920Y-8961246D02*
X5522444Y-8913627D01*
X5522444Y-8913627D02*
X5531968Y-8885055D01*
X5531968Y-8885055D02*
X5541491Y-8866008D01*
X5541491Y-8866008D02*
X5560539Y-8837436D01*
X5560539Y-8837436D02*
X5570063Y-8827912D01*
X5731968Y-8856484D02*
X5693872Y-8856484D01*
X5693872Y-8856484D02*
X5674825Y-8866008D01*
X5674825Y-8866008D02*
X5665301Y-8875531D01*
X5665301Y-8875531D02*
X5646253Y-8904103D01*
X5646253Y-8904103D02*
X5636729Y-8942198D01*
X5636729Y-8942198D02*
X5636729Y-9018389D01*
X5636729Y-9018389D02*
X5646253Y-9037436D01*
X5646253Y-9037436D02*
X5655777Y-9046960D01*
X5655777Y-9046960D02*
X5674825Y-9056484D01*
X5674825Y-9056484D02*
X5712920Y-9056484D01*
X5712920Y-9056484D02*
X5731968Y-9046960D01*
X5731968Y-9046960D02*
X5741491Y-9037436D01*
X5741491Y-9037436D02*
X5751015Y-9018389D01*
X5751015Y-9018389D02*
X5751015Y-8970770D01*
X5751015Y-8970770D02*
X5741491Y-8951722D01*
X5741491Y-8951722D02*
X5731968Y-8942198D01*
X5731968Y-8942198D02*
X5712920Y-8932674D01*
X5712920Y-8932674D02*
X5674825Y-8932674D01*
X5674825Y-8932674D02*
X5655777Y-8942198D01*
X5655777Y-8942198D02*
X5646253Y-8951722D01*
X5646253Y-8951722D02*
X5636729Y-8970770D01*
X5989110Y-9056484D02*
X5989110Y-8856484D01*
X6074825Y-9056484D02*
X6074825Y-8951722D01*
X6074825Y-8951722D02*
X6065301Y-8932674D01*
X6065301Y-8932674D02*
X6046253Y-8923150D01*
X6046253Y-8923150D02*
X6017682Y-8923150D01*
X6017682Y-8923150D02*
X5998634Y-8932674D01*
X5998634Y-8932674D02*
X5989110Y-8942198D01*
X6198634Y-9056484D02*
X6179587Y-9046960D01*
X6179587Y-9046960D02*
X6170063Y-9037436D01*
X6170063Y-9037436D02*
X6160539Y-9018389D01*
X6160539Y-9018389D02*
X6160539Y-8961246D01*
X6160539Y-8961246D02*
X6170063Y-8942198D01*
X6170063Y-8942198D02*
X6179587Y-8932674D01*
X6179587Y-8932674D02*
X6198634Y-8923150D01*
X6198634Y-8923150D02*
X6227206Y-8923150D01*
X6227206Y-8923150D02*
X6246253Y-8932674D01*
X6246253Y-8932674D02*
X6255777Y-8942198D01*
X6255777Y-8942198D02*
X6265301Y-8961246D01*
X6265301Y-8961246D02*
X6265301Y-9018389D01*
X6265301Y-9018389D02*
X6255777Y-9037436D01*
X6255777Y-9037436D02*
X6246253Y-9046960D01*
X6246253Y-9046960D02*
X6227206Y-9056484D01*
X6227206Y-9056484D02*
X6198634Y-9056484D01*
X6379587Y-9056484D02*
X6360539Y-9046960D01*
X6360539Y-9046960D02*
X6351015Y-9027912D01*
X6351015Y-9027912D02*
X6351015Y-8856484D01*
X6531968Y-9046960D02*
X6512920Y-9056484D01*
X6512920Y-9056484D02*
X6474825Y-9056484D01*
X6474825Y-9056484D02*
X6455777Y-9046960D01*
X6455777Y-9046960D02*
X6446253Y-9027912D01*
X6446253Y-9027912D02*
X6446253Y-8951722D01*
X6446253Y-8951722D02*
X6455777Y-8932674D01*
X6455777Y-8932674D02*
X6474825Y-8923150D01*
X6474825Y-8923150D02*
X6512920Y-8923150D01*
X6512920Y-8923150D02*
X6531968Y-8932674D01*
X6531968Y-8932674D02*
X6541491Y-8951722D01*
X6541491Y-8951722D02*
X6541491Y-8970770D01*
X6541491Y-8970770D02*
X6446253Y-8989817D01*
X6617682Y-9046960D02*
X6636730Y-9056484D01*
X6636730Y-9056484D02*
X6674825Y-9056484D01*
X6674825Y-9056484D02*
X6693872Y-9046960D01*
X6693872Y-9046960D02*
X6703396Y-9027912D01*
X6703396Y-9027912D02*
X6703396Y-9018389D01*
X6703396Y-9018389D02*
X6693872Y-8999341D01*
X6693872Y-8999341D02*
X6674825Y-8989817D01*
X6674825Y-8989817D02*
X6646253Y-8989817D01*
X6646253Y-8989817D02*
X6627206Y-8980293D01*
X6627206Y-8980293D02*
X6617682Y-8961246D01*
X6617682Y-8961246D02*
X6617682Y-8951722D01*
X6617682Y-8951722D02*
X6627206Y-8932674D01*
X6627206Y-8932674D02*
X6646253Y-8923150D01*
X6646253Y-8923150D02*
X6674825Y-8923150D01*
X6674825Y-8923150D02*
X6693872Y-8932674D01*
X6770063Y-9132674D02*
X6779587Y-9123150D01*
X6779587Y-9123150D02*
X6798634Y-9094579D01*
X6798634Y-9094579D02*
X6808158Y-9075531D01*
X6808158Y-9075531D02*
X6817682Y-9046960D01*
X6817682Y-9046960D02*
X6827206Y-8999341D01*
X6827206Y-8999341D02*
X6827206Y-8961246D01*
X6827206Y-8961246D02*
X6817682Y-8913627D01*
X6817682Y-8913627D02*
X6808158Y-8885055D01*
X6808158Y-8885055D02*
X6798634Y-8866008D01*
X6798634Y-8866008D02*
X6779587Y-8837436D01*
X6779587Y-8837436D02*
X6770063Y-8827912D01*
D12*
X1865000Y-9164000D02*
X1995000Y-9294000D01*
X1995000Y-9164000D02*
X1865000Y-9294000D01*
X1930000Y-9164000D02*
X1930000Y-9294000D01*
X1865000Y-9229000D02*
X1995000Y-9229000D01*
D11*
X2360539Y-9320484D02*
X2246253Y-9320484D01*
X2303396Y-9320484D02*
X2303396Y-9120484D01*
X2303396Y-9120484D02*
X2284348Y-9149055D01*
X2284348Y-9149055D02*
X2265301Y-9168103D01*
X2265301Y-9168103D02*
X2246253Y-9177627D01*
X2446253Y-9301436D02*
X2455777Y-9310960D01*
X2455777Y-9310960D02*
X2446253Y-9320484D01*
X2446253Y-9320484D02*
X2436729Y-9310960D01*
X2436729Y-9310960D02*
X2446253Y-9301436D01*
X2446253Y-9301436D02*
X2446253Y-9320484D01*
X2522444Y-9120484D02*
X2646253Y-9120484D01*
X2646253Y-9120484D02*
X2579586Y-9196674D01*
X2579586Y-9196674D02*
X2608158Y-9196674D01*
X2608158Y-9196674D02*
X2627205Y-9206198D01*
X2627205Y-9206198D02*
X2636729Y-9215722D01*
X2636729Y-9215722D02*
X2646253Y-9234770D01*
X2646253Y-9234770D02*
X2646253Y-9282389D01*
X2646253Y-9282389D02*
X2636729Y-9301436D01*
X2636729Y-9301436D02*
X2627205Y-9310960D01*
X2627205Y-9310960D02*
X2608158Y-9320484D01*
X2608158Y-9320484D02*
X2551015Y-9320484D01*
X2551015Y-9320484D02*
X2531967Y-9310960D01*
X2531967Y-9310960D02*
X2522444Y-9301436D01*
X2770063Y-9120484D02*
X2789110Y-9120484D01*
X2789110Y-9120484D02*
X2808158Y-9130008D01*
X2808158Y-9130008D02*
X2817682Y-9139531D01*
X2817682Y-9139531D02*
X2827205Y-9158579D01*
X2827205Y-9158579D02*
X2836729Y-9196674D01*
X2836729Y-9196674D02*
X2836729Y-9244293D01*
X2836729Y-9244293D02*
X2827205Y-9282389D01*
X2827205Y-9282389D02*
X2817682Y-9301436D01*
X2817682Y-9301436D02*
X2808158Y-9310960D01*
X2808158Y-9310960D02*
X2789110Y-9320484D01*
X2789110Y-9320484D02*
X2770063Y-9320484D01*
X2770063Y-9320484D02*
X2751015Y-9310960D01*
X2751015Y-9310960D02*
X2741491Y-9301436D01*
X2741491Y-9301436D02*
X2731967Y-9282389D01*
X2731967Y-9282389D02*
X2722444Y-9244293D01*
X2722444Y-9244293D02*
X2722444Y-9196674D01*
X2722444Y-9196674D02*
X2731967Y-9158579D01*
X2731967Y-9158579D02*
X2741491Y-9139531D01*
X2741491Y-9139531D02*
X2751015Y-9130008D01*
X2751015Y-9130008D02*
X2770063Y-9120484D01*
X2960539Y-9120484D02*
X2979586Y-9120484D01*
X2979586Y-9120484D02*
X2998634Y-9130008D01*
X2998634Y-9130008D02*
X3008158Y-9139531D01*
X3008158Y-9139531D02*
X3017682Y-9158579D01*
X3017682Y-9158579D02*
X3027205Y-9196674D01*
X3027205Y-9196674D02*
X3027205Y-9244293D01*
X3027205Y-9244293D02*
X3017682Y-9282389D01*
X3017682Y-9282389D02*
X3008158Y-9301436D01*
X3008158Y-9301436D02*
X2998634Y-9310960D01*
X2998634Y-9310960D02*
X2979586Y-9320484D01*
X2979586Y-9320484D02*
X2960539Y-9320484D01*
X2960539Y-9320484D02*
X2941491Y-9310960D01*
X2941491Y-9310960D02*
X2931967Y-9301436D01*
X2931967Y-9301436D02*
X2922443Y-9282389D01*
X2922443Y-9282389D02*
X2912920Y-9244293D01*
X2912920Y-9244293D02*
X2912920Y-9196674D01*
X2912920Y-9196674D02*
X2922443Y-9158579D01*
X2922443Y-9158579D02*
X2931967Y-9139531D01*
X2931967Y-9139531D02*
X2941491Y-9130008D01*
X2941491Y-9130008D02*
X2960539Y-9120484D01*
X3112920Y-9320484D02*
X3112920Y-9187150D01*
X3112920Y-9206198D02*
X3122443Y-9196674D01*
X3122443Y-9196674D02*
X3141491Y-9187150D01*
X3141491Y-9187150D02*
X3170063Y-9187150D01*
X3170063Y-9187150D02*
X3189110Y-9196674D01*
X3189110Y-9196674D02*
X3198634Y-9215722D01*
X3198634Y-9215722D02*
X3198634Y-9320484D01*
X3198634Y-9215722D02*
X3208158Y-9196674D01*
X3208158Y-9196674D02*
X3227205Y-9187150D01*
X3227205Y-9187150D02*
X3255777Y-9187150D01*
X3255777Y-9187150D02*
X3274824Y-9196674D01*
X3274824Y-9196674D02*
X3284348Y-9215722D01*
X3284348Y-9215722D02*
X3284348Y-9320484D01*
X3379586Y-9320484D02*
X3379586Y-9187150D01*
X3379586Y-9206198D02*
X3389110Y-9196674D01*
X3389110Y-9196674D02*
X3408158Y-9187150D01*
X3408158Y-9187150D02*
X3436729Y-9187150D01*
X3436729Y-9187150D02*
X3455777Y-9196674D01*
X3455777Y-9196674D02*
X3465301Y-9215722D01*
X3465301Y-9215722D02*
X3465301Y-9320484D01*
X3465301Y-9215722D02*
X3474824Y-9196674D01*
X3474824Y-9196674D02*
X3493872Y-9187150D01*
X3493872Y-9187150D02*
X3522443Y-9187150D01*
X3522443Y-9187150D02*
X3541491Y-9196674D01*
X3541491Y-9196674D02*
X3551015Y-9215722D01*
X3551015Y-9215722D02*
X3551015Y-9320484D01*
X3941491Y-9110960D02*
X3770063Y-9368103D01*
X4198634Y-9120484D02*
X4217682Y-9120484D01*
X4217682Y-9120484D02*
X4236729Y-9130008D01*
X4236729Y-9130008D02*
X4246253Y-9139531D01*
X4246253Y-9139531D02*
X4255777Y-9158579D01*
X4255777Y-9158579D02*
X4265301Y-9196674D01*
X4265301Y-9196674D02*
X4265301Y-9244293D01*
X4265301Y-9244293D02*
X4255777Y-9282389D01*
X4255777Y-9282389D02*
X4246253Y-9301436D01*
X4246253Y-9301436D02*
X4236729Y-9310960D01*
X4236729Y-9310960D02*
X4217682Y-9320484D01*
X4217682Y-9320484D02*
X4198634Y-9320484D01*
X4198634Y-9320484D02*
X4179586Y-9310960D01*
X4179586Y-9310960D02*
X4170063Y-9301436D01*
X4170063Y-9301436D02*
X4160539Y-9282389D01*
X4160539Y-9282389D02*
X4151015Y-9244293D01*
X4151015Y-9244293D02*
X4151015Y-9196674D01*
X4151015Y-9196674D02*
X4160539Y-9158579D01*
X4160539Y-9158579D02*
X4170063Y-9139531D01*
X4170063Y-9139531D02*
X4179586Y-9130008D01*
X4179586Y-9130008D02*
X4198634Y-9120484D01*
X4351015Y-9301436D02*
X4360539Y-9310960D01*
X4360539Y-9310960D02*
X4351015Y-9320484D01*
X4351015Y-9320484D02*
X4341491Y-9310960D01*
X4341491Y-9310960D02*
X4351015Y-9301436D01*
X4351015Y-9301436D02*
X4351015Y-9320484D01*
X4484348Y-9120484D02*
X4503396Y-9120484D01*
X4503396Y-9120484D02*
X4522444Y-9130008D01*
X4522444Y-9130008D02*
X4531968Y-9139531D01*
X4531968Y-9139531D02*
X4541491Y-9158579D01*
X4541491Y-9158579D02*
X4551015Y-9196674D01*
X4551015Y-9196674D02*
X4551015Y-9244293D01*
X4551015Y-9244293D02*
X4541491Y-9282389D01*
X4541491Y-9282389D02*
X4531968Y-9301436D01*
X4531968Y-9301436D02*
X4522444Y-9310960D01*
X4522444Y-9310960D02*
X4503396Y-9320484D01*
X4503396Y-9320484D02*
X4484348Y-9320484D01*
X4484348Y-9320484D02*
X4465301Y-9310960D01*
X4465301Y-9310960D02*
X4455777Y-9301436D01*
X4455777Y-9301436D02*
X4446253Y-9282389D01*
X4446253Y-9282389D02*
X4436729Y-9244293D01*
X4436729Y-9244293D02*
X4436729Y-9196674D01*
X4436729Y-9196674D02*
X4446253Y-9158579D01*
X4446253Y-9158579D02*
X4455777Y-9139531D01*
X4455777Y-9139531D02*
X4465301Y-9130008D01*
X4465301Y-9130008D02*
X4484348Y-9120484D01*
X4731968Y-9120484D02*
X4636729Y-9120484D01*
X4636729Y-9120484D02*
X4627206Y-9215722D01*
X4627206Y-9215722D02*
X4636729Y-9206198D01*
X4636729Y-9206198D02*
X4655777Y-9196674D01*
X4655777Y-9196674D02*
X4703396Y-9196674D01*
X4703396Y-9196674D02*
X4722444Y-9206198D01*
X4722444Y-9206198D02*
X4731968Y-9215722D01*
X4731968Y-9215722D02*
X4741491Y-9234770D01*
X4741491Y-9234770D02*
X4741491Y-9282389D01*
X4741491Y-9282389D02*
X4731968Y-9301436D01*
X4731968Y-9301436D02*
X4722444Y-9310960D01*
X4722444Y-9310960D02*
X4703396Y-9320484D01*
X4703396Y-9320484D02*
X4655777Y-9320484D01*
X4655777Y-9320484D02*
X4636729Y-9310960D01*
X4636729Y-9310960D02*
X4627206Y-9301436D01*
X4931968Y-9320484D02*
X4817682Y-9320484D01*
X4874825Y-9320484D02*
X4874825Y-9120484D01*
X4874825Y-9120484D02*
X4855777Y-9149055D01*
X4855777Y-9149055D02*
X4836729Y-9168103D01*
X4836729Y-9168103D02*
X4817682Y-9177627D01*
X5008158Y-9139531D02*
X5017682Y-9130008D01*
X5017682Y-9130008D02*
X5036729Y-9120484D01*
X5036729Y-9120484D02*
X5084349Y-9120484D01*
X5084349Y-9120484D02*
X5103396Y-9130008D01*
X5103396Y-9130008D02*
X5112920Y-9139531D01*
X5112920Y-9139531D02*
X5122444Y-9158579D01*
X5122444Y-9158579D02*
X5122444Y-9177627D01*
X5122444Y-9177627D02*
X5112920Y-9206198D01*
X5112920Y-9206198D02*
X4998634Y-9320484D01*
X4998634Y-9320484D02*
X5122444Y-9320484D01*
X5198634Y-9120484D02*
X5198634Y-9158579D01*
X5274825Y-9120484D02*
X5274825Y-9158579D01*
X5570063Y-9396674D02*
X5560539Y-9387150D01*
X5560539Y-9387150D02*
X5541491Y-9358579D01*
X5541491Y-9358579D02*
X5531968Y-9339531D01*
X5531968Y-9339531D02*
X5522444Y-9310960D01*
X5522444Y-9310960D02*
X5512920Y-9263341D01*
X5512920Y-9263341D02*
X5512920Y-9225246D01*
X5512920Y-9225246D02*
X5522444Y-9177627D01*
X5522444Y-9177627D02*
X5531968Y-9149055D01*
X5531968Y-9149055D02*
X5541491Y-9130008D01*
X5541491Y-9130008D02*
X5560539Y-9101436D01*
X5560539Y-9101436D02*
X5570063Y-9091912D01*
X5751015Y-9320484D02*
X5636729Y-9320484D01*
X5693872Y-9320484D02*
X5693872Y-9120484D01*
X5693872Y-9120484D02*
X5674825Y-9149055D01*
X5674825Y-9149055D02*
X5655777Y-9168103D01*
X5655777Y-9168103D02*
X5636729Y-9177627D01*
X5922444Y-9120484D02*
X5884348Y-9120484D01*
X5884348Y-9120484D02*
X5865301Y-9130008D01*
X5865301Y-9130008D02*
X5855777Y-9139531D01*
X5855777Y-9139531D02*
X5836729Y-9168103D01*
X5836729Y-9168103D02*
X5827206Y-9206198D01*
X5827206Y-9206198D02*
X5827206Y-9282389D01*
X5827206Y-9282389D02*
X5836729Y-9301436D01*
X5836729Y-9301436D02*
X5846253Y-9310960D01*
X5846253Y-9310960D02*
X5865301Y-9320484D01*
X5865301Y-9320484D02*
X5903396Y-9320484D01*
X5903396Y-9320484D02*
X5922444Y-9310960D01*
X5922444Y-9310960D02*
X5931968Y-9301436D01*
X5931968Y-9301436D02*
X5941491Y-9282389D01*
X5941491Y-9282389D02*
X5941491Y-9234770D01*
X5941491Y-9234770D02*
X5931968Y-9215722D01*
X5931968Y-9215722D02*
X5922444Y-9206198D01*
X5922444Y-9206198D02*
X5903396Y-9196674D01*
X5903396Y-9196674D02*
X5865301Y-9196674D01*
X5865301Y-9196674D02*
X5846253Y-9206198D01*
X5846253Y-9206198D02*
X5836729Y-9215722D01*
X5836729Y-9215722D02*
X5827206Y-9234770D01*
X6179587Y-9320484D02*
X6179587Y-9120484D01*
X6265301Y-9320484D02*
X6265301Y-9215722D01*
X6265301Y-9215722D02*
X6255777Y-9196674D01*
X6255777Y-9196674D02*
X6236730Y-9187150D01*
X6236730Y-9187150D02*
X6208158Y-9187150D01*
X6208158Y-9187150D02*
X6189110Y-9196674D01*
X6189110Y-9196674D02*
X6179587Y-9206198D01*
X6389110Y-9320484D02*
X6370063Y-9310960D01*
X6370063Y-9310960D02*
X6360539Y-9301436D01*
X6360539Y-9301436D02*
X6351015Y-9282389D01*
X6351015Y-9282389D02*
X6351015Y-9225246D01*
X6351015Y-9225246D02*
X6360539Y-9206198D01*
X6360539Y-9206198D02*
X6370063Y-9196674D01*
X6370063Y-9196674D02*
X6389110Y-9187150D01*
X6389110Y-9187150D02*
X6417682Y-9187150D01*
X6417682Y-9187150D02*
X6436730Y-9196674D01*
X6436730Y-9196674D02*
X6446253Y-9206198D01*
X6446253Y-9206198D02*
X6455777Y-9225246D01*
X6455777Y-9225246D02*
X6455777Y-9282389D01*
X6455777Y-9282389D02*
X6446253Y-9301436D01*
X6446253Y-9301436D02*
X6436730Y-9310960D01*
X6436730Y-9310960D02*
X6417682Y-9320484D01*
X6417682Y-9320484D02*
X6389110Y-9320484D01*
X6570063Y-9320484D02*
X6551015Y-9310960D01*
X6551015Y-9310960D02*
X6541491Y-9291912D01*
X6541491Y-9291912D02*
X6541491Y-9120484D01*
X6722444Y-9310960D02*
X6703396Y-9320484D01*
X6703396Y-9320484D02*
X6665301Y-9320484D01*
X6665301Y-9320484D02*
X6646253Y-9310960D01*
X6646253Y-9310960D02*
X6636730Y-9291912D01*
X6636730Y-9291912D02*
X6636730Y-9215722D01*
X6636730Y-9215722D02*
X6646253Y-9196674D01*
X6646253Y-9196674D02*
X6665301Y-9187150D01*
X6665301Y-9187150D02*
X6703396Y-9187150D01*
X6703396Y-9187150D02*
X6722444Y-9196674D01*
X6722444Y-9196674D02*
X6731968Y-9215722D01*
X6731968Y-9215722D02*
X6731968Y-9234770D01*
X6731968Y-9234770D02*
X6636730Y-9253817D01*
X6808158Y-9310960D02*
X6827206Y-9320484D01*
X6827206Y-9320484D02*
X6865301Y-9320484D01*
X6865301Y-9320484D02*
X6884349Y-9310960D01*
X6884349Y-9310960D02*
X6893872Y-9291912D01*
X6893872Y-9291912D02*
X6893872Y-9282389D01*
X6893872Y-9282389D02*
X6884349Y-9263341D01*
X6884349Y-9263341D02*
X6865301Y-9253817D01*
X6865301Y-9253817D02*
X6836730Y-9253817D01*
X6836730Y-9253817D02*
X6817682Y-9244293D01*
X6817682Y-9244293D02*
X6808158Y-9225246D01*
X6808158Y-9225246D02*
X6808158Y-9215722D01*
X6808158Y-9215722D02*
X6817682Y-9196674D01*
X6817682Y-9196674D02*
X6836730Y-9187150D01*
X6836730Y-9187150D02*
X6865301Y-9187150D01*
X6865301Y-9187150D02*
X6884349Y-9196674D01*
X6960539Y-9396674D02*
X6970063Y-9387150D01*
X6970063Y-9387150D02*
X6989111Y-9358579D01*
X6989111Y-9358579D02*
X6998634Y-9339531D01*
X6998634Y-9339531D02*
X7008158Y-9310960D01*
X7008158Y-9310960D02*
X7017682Y-9263341D01*
X7017682Y-9263341D02*
X7017682Y-9225246D01*
X7017682Y-9225246D02*
X7008158Y-9177627D01*
X7008158Y-9177627D02*
X6998634Y-9149055D01*
X6998634Y-9149055D02*
X6989111Y-9130008D01*
X6989111Y-9130008D02*
X6970063Y-9101436D01*
X6970063Y-9101436D02*
X6960539Y-9091912D01*
D10*
X1930000Y-9460500D02*
X1995000Y-9525500D01*
X1995000Y-9460500D02*
X1930000Y-9525500D01*
X1985481Y-9515981D02*
X1985481Y-9470019D01*
X1939519Y-9470019D01*
X1939519Y-9515981D01*
X1985481Y-9515981D01*
D11*
X2293872Y-9384484D02*
X2312920Y-9384484D01*
X2312920Y-9384484D02*
X2331967Y-9394008D01*
X2331967Y-9394008D02*
X2341491Y-9403531D01*
X2341491Y-9403531D02*
X2351015Y-9422579D01*
X2351015Y-9422579D02*
X2360539Y-9460674D01*
X2360539Y-9460674D02*
X2360539Y-9508293D01*
X2360539Y-9508293D02*
X2351015Y-9546389D01*
X2351015Y-9546389D02*
X2341491Y-9565436D01*
X2341491Y-9565436D02*
X2331967Y-9574960D01*
X2331967Y-9574960D02*
X2312920Y-9584484D01*
X2312920Y-9584484D02*
X2293872Y-9584484D01*
X2293872Y-9584484D02*
X2274824Y-9574960D01*
X2274824Y-9574960D02*
X2265301Y-9565436D01*
X2265301Y-9565436D02*
X2255777Y-9546389D01*
X2255777Y-9546389D02*
X2246253Y-9508293D01*
X2246253Y-9508293D02*
X2246253Y-9460674D01*
X2246253Y-9460674D02*
X2255777Y-9422579D01*
X2255777Y-9422579D02*
X2265301Y-9403531D01*
X2265301Y-9403531D02*
X2274824Y-9394008D01*
X2274824Y-9394008D02*
X2293872Y-9384484D01*
X2446253Y-9565436D02*
X2455777Y-9574960D01*
X2455777Y-9574960D02*
X2446253Y-9584484D01*
X2446253Y-9584484D02*
X2436729Y-9574960D01*
X2436729Y-9574960D02*
X2446253Y-9565436D01*
X2446253Y-9565436D02*
X2446253Y-9584484D01*
X2627205Y-9384484D02*
X2589110Y-9384484D01*
X2589110Y-9384484D02*
X2570063Y-9394008D01*
X2570063Y-9394008D02*
X2560539Y-9403531D01*
X2560539Y-9403531D02*
X2541491Y-9432103D01*
X2541491Y-9432103D02*
X2531967Y-9470198D01*
X2531967Y-9470198D02*
X2531967Y-9546389D01*
X2531967Y-9546389D02*
X2541491Y-9565436D01*
X2541491Y-9565436D02*
X2551015Y-9574960D01*
X2551015Y-9574960D02*
X2570063Y-9584484D01*
X2570063Y-9584484D02*
X2608158Y-9584484D01*
X2608158Y-9584484D02*
X2627205Y-9574960D01*
X2627205Y-9574960D02*
X2636729Y-9565436D01*
X2636729Y-9565436D02*
X2646253Y-9546389D01*
X2646253Y-9546389D02*
X2646253Y-9498770D01*
X2646253Y-9498770D02*
X2636729Y-9479722D01*
X2636729Y-9479722D02*
X2627205Y-9470198D01*
X2627205Y-9470198D02*
X2608158Y-9460674D01*
X2608158Y-9460674D02*
X2570063Y-9460674D01*
X2570063Y-9460674D02*
X2551015Y-9470198D01*
X2551015Y-9470198D02*
X2541491Y-9479722D01*
X2541491Y-9479722D02*
X2531967Y-9498770D01*
X2827205Y-9384484D02*
X2731967Y-9384484D01*
X2731967Y-9384484D02*
X2722444Y-9479722D01*
X2722444Y-9479722D02*
X2731967Y-9470198D01*
X2731967Y-9470198D02*
X2751015Y-9460674D01*
X2751015Y-9460674D02*
X2798634Y-9460674D01*
X2798634Y-9460674D02*
X2817682Y-9470198D01*
X2817682Y-9470198D02*
X2827205Y-9479722D01*
X2827205Y-9479722D02*
X2836729Y-9498770D01*
X2836729Y-9498770D02*
X2836729Y-9546389D01*
X2836729Y-9546389D02*
X2827205Y-9565436D01*
X2827205Y-9565436D02*
X2817682Y-9574960D01*
X2817682Y-9574960D02*
X2798634Y-9584484D01*
X2798634Y-9584484D02*
X2751015Y-9584484D01*
X2751015Y-9584484D02*
X2731967Y-9574960D01*
X2731967Y-9574960D02*
X2722444Y-9565436D01*
X2960539Y-9384484D02*
X2979586Y-9384484D01*
X2979586Y-9384484D02*
X2998634Y-9394008D01*
X2998634Y-9394008D02*
X3008158Y-9403531D01*
X3008158Y-9403531D02*
X3017682Y-9422579D01*
X3017682Y-9422579D02*
X3027205Y-9460674D01*
X3027205Y-9460674D02*
X3027205Y-9508293D01*
X3027205Y-9508293D02*
X3017682Y-9546389D01*
X3017682Y-9546389D02*
X3008158Y-9565436D01*
X3008158Y-9565436D02*
X2998634Y-9574960D01*
X2998634Y-9574960D02*
X2979586Y-9584484D01*
X2979586Y-9584484D02*
X2960539Y-9584484D01*
X2960539Y-9584484D02*
X2941491Y-9574960D01*
X2941491Y-9574960D02*
X2931967Y-9565436D01*
X2931967Y-9565436D02*
X2922443Y-9546389D01*
X2922443Y-9546389D02*
X2912920Y-9508293D01*
X2912920Y-9508293D02*
X2912920Y-9460674D01*
X2912920Y-9460674D02*
X2922443Y-9422579D01*
X2922443Y-9422579D02*
X2931967Y-9403531D01*
X2931967Y-9403531D02*
X2941491Y-9394008D01*
X2941491Y-9394008D02*
X2960539Y-9384484D01*
X3112920Y-9584484D02*
X3112920Y-9451150D01*
X3112920Y-9470198D02*
X3122443Y-9460674D01*
X3122443Y-9460674D02*
X3141491Y-9451150D01*
X3141491Y-9451150D02*
X3170063Y-9451150D01*
X3170063Y-9451150D02*
X3189110Y-9460674D01*
X3189110Y-9460674D02*
X3198634Y-9479722D01*
X3198634Y-9479722D02*
X3198634Y-9584484D01*
X3198634Y-9479722D02*
X3208158Y-9460674D01*
X3208158Y-9460674D02*
X3227205Y-9451150D01*
X3227205Y-9451150D02*
X3255777Y-9451150D01*
X3255777Y-9451150D02*
X3274824Y-9460674D01*
X3274824Y-9460674D02*
X3284348Y-9479722D01*
X3284348Y-9479722D02*
X3284348Y-9584484D01*
X3379586Y-9584484D02*
X3379586Y-9451150D01*
X3379586Y-9470198D02*
X3389110Y-9460674D01*
X3389110Y-9460674D02*
X3408158Y-9451150D01*
X3408158Y-9451150D02*
X3436729Y-9451150D01*
X3436729Y-9451150D02*
X3455777Y-9460674D01*
X3455777Y-9460674D02*
X3465301Y-9479722D01*
X3465301Y-9479722D02*
X3465301Y-9584484D01*
X3465301Y-9479722D02*
X3474824Y-9460674D01*
X3474824Y-9460674D02*
X3493872Y-9451150D01*
X3493872Y-9451150D02*
X3522443Y-9451150D01*
X3522443Y-9451150D02*
X3541491Y-9460674D01*
X3541491Y-9460674D02*
X3551015Y-9479722D01*
X3551015Y-9479722D02*
X3551015Y-9584484D01*
X3941491Y-9374960D02*
X3770063Y-9632103D01*
X4198634Y-9384484D02*
X4217682Y-9384484D01*
X4217682Y-9384484D02*
X4236729Y-9394008D01*
X4236729Y-9394008D02*
X4246253Y-9403531D01*
X4246253Y-9403531D02*
X4255777Y-9422579D01*
X4255777Y-9422579D02*
X4265301Y-9460674D01*
X4265301Y-9460674D02*
X4265301Y-9508293D01*
X4265301Y-9508293D02*
X4255777Y-9546389D01*
X4255777Y-9546389D02*
X4246253Y-9565436D01*
X4246253Y-9565436D02*
X4236729Y-9574960D01*
X4236729Y-9574960D02*
X4217682Y-9584484D01*
X4217682Y-9584484D02*
X4198634Y-9584484D01*
X4198634Y-9584484D02*
X4179586Y-9574960D01*
X4179586Y-9574960D02*
X4170063Y-9565436D01*
X4170063Y-9565436D02*
X4160539Y-9546389D01*
X4160539Y-9546389D02*
X4151015Y-9508293D01*
X4151015Y-9508293D02*
X4151015Y-9460674D01*
X4151015Y-9460674D02*
X4160539Y-9422579D01*
X4160539Y-9422579D02*
X4170063Y-9403531D01*
X4170063Y-9403531D02*
X4179586Y-9394008D01*
X4179586Y-9394008D02*
X4198634Y-9384484D01*
X4351015Y-9565436D02*
X4360539Y-9574960D01*
X4360539Y-9574960D02*
X4351015Y-9584484D01*
X4351015Y-9584484D02*
X4341491Y-9574960D01*
X4341491Y-9574960D02*
X4351015Y-9565436D01*
X4351015Y-9565436D02*
X4351015Y-9584484D01*
X4484348Y-9384484D02*
X4503396Y-9384484D01*
X4503396Y-9384484D02*
X4522444Y-9394008D01*
X4522444Y-9394008D02*
X4531968Y-9403531D01*
X4531968Y-9403531D02*
X4541491Y-9422579D01*
X4541491Y-9422579D02*
X4551015Y-9460674D01*
X4551015Y-9460674D02*
X4551015Y-9508293D01*
X4551015Y-9508293D02*
X4541491Y-9546389D01*
X4541491Y-9546389D02*
X4531968Y-9565436D01*
X4531968Y-9565436D02*
X4522444Y-9574960D01*
X4522444Y-9574960D02*
X4503396Y-9584484D01*
X4503396Y-9584484D02*
X4484348Y-9584484D01*
X4484348Y-9584484D02*
X4465301Y-9574960D01*
X4465301Y-9574960D02*
X4455777Y-9565436D01*
X4455777Y-9565436D02*
X4446253Y-9546389D01*
X4446253Y-9546389D02*
X4436729Y-9508293D01*
X4436729Y-9508293D02*
X4436729Y-9460674D01*
X4436729Y-9460674D02*
X4446253Y-9422579D01*
X4446253Y-9422579D02*
X4455777Y-9403531D01*
X4455777Y-9403531D02*
X4465301Y-9394008D01*
X4465301Y-9394008D02*
X4484348Y-9384484D01*
X4627206Y-9403531D02*
X4636729Y-9394008D01*
X4636729Y-9394008D02*
X4655777Y-9384484D01*
X4655777Y-9384484D02*
X4703396Y-9384484D01*
X4703396Y-9384484D02*
X4722444Y-9394008D01*
X4722444Y-9394008D02*
X4731968Y-9403531D01*
X4731968Y-9403531D02*
X4741491Y-9422579D01*
X4741491Y-9422579D02*
X4741491Y-9441627D01*
X4741491Y-9441627D02*
X4731968Y-9470198D01*
X4731968Y-9470198D02*
X4617682Y-9584484D01*
X4617682Y-9584484D02*
X4741491Y-9584484D01*
X4922444Y-9384484D02*
X4827206Y-9384484D01*
X4827206Y-9384484D02*
X4817682Y-9479722D01*
X4817682Y-9479722D02*
X4827206Y-9470198D01*
X4827206Y-9470198D02*
X4846253Y-9460674D01*
X4846253Y-9460674D02*
X4893872Y-9460674D01*
X4893872Y-9460674D02*
X4912920Y-9470198D01*
X4912920Y-9470198D02*
X4922444Y-9479722D01*
X4922444Y-9479722D02*
X4931968Y-9498770D01*
X4931968Y-9498770D02*
X4931968Y-9546389D01*
X4931968Y-9546389D02*
X4922444Y-9565436D01*
X4922444Y-9565436D02*
X4912920Y-9574960D01*
X4912920Y-9574960D02*
X4893872Y-9584484D01*
X4893872Y-9584484D02*
X4846253Y-9584484D01*
X4846253Y-9584484D02*
X4827206Y-9574960D01*
X4827206Y-9574960D02*
X4817682Y-9565436D01*
X5103396Y-9384484D02*
X5065301Y-9384484D01*
X5065301Y-9384484D02*
X5046253Y-9394008D01*
X5046253Y-9394008D02*
X5036729Y-9403531D01*
X5036729Y-9403531D02*
X5017682Y-9432103D01*
X5017682Y-9432103D02*
X5008158Y-9470198D01*
X5008158Y-9470198D02*
X5008158Y-9546389D01*
X5008158Y-9546389D02*
X5017682Y-9565436D01*
X5017682Y-9565436D02*
X5027206Y-9574960D01*
X5027206Y-9574960D02*
X5046253Y-9584484D01*
X5046253Y-9584484D02*
X5084349Y-9584484D01*
X5084349Y-9584484D02*
X5103396Y-9574960D01*
X5103396Y-9574960D02*
X5112920Y-9565436D01*
X5112920Y-9565436D02*
X5122444Y-9546389D01*
X5122444Y-9546389D02*
X5122444Y-9498770D01*
X5122444Y-9498770D02*
X5112920Y-9479722D01*
X5112920Y-9479722D02*
X5103396Y-9470198D01*
X5103396Y-9470198D02*
X5084349Y-9460674D01*
X5084349Y-9460674D02*
X5046253Y-9460674D01*
X5046253Y-9460674D02*
X5027206Y-9470198D01*
X5027206Y-9470198D02*
X5017682Y-9479722D01*
X5017682Y-9479722D02*
X5008158Y-9498770D01*
X5198634Y-9384484D02*
X5198634Y-9422579D01*
X5274825Y-9384484D02*
X5274825Y-9422579D01*
X5570063Y-9660674D02*
X5560539Y-9651150D01*
X5560539Y-9651150D02*
X5541491Y-9622579D01*
X5541491Y-9622579D02*
X5531968Y-9603531D01*
X5531968Y-9603531D02*
X5522444Y-9574960D01*
X5522444Y-9574960D02*
X5512920Y-9527341D01*
X5512920Y-9527341D02*
X5512920Y-9489246D01*
X5512920Y-9489246D02*
X5522444Y-9441627D01*
X5522444Y-9441627D02*
X5531968Y-9413055D01*
X5531968Y-9413055D02*
X5541491Y-9394008D01*
X5541491Y-9394008D02*
X5560539Y-9365436D01*
X5560539Y-9365436D02*
X5570063Y-9355912D01*
X5636729Y-9403531D02*
X5646253Y-9394008D01*
X5646253Y-9394008D02*
X5665301Y-9384484D01*
X5665301Y-9384484D02*
X5712920Y-9384484D01*
X5712920Y-9384484D02*
X5731968Y-9394008D01*
X5731968Y-9394008D02*
X5741491Y-9403531D01*
X5741491Y-9403531D02*
X5751015Y-9422579D01*
X5751015Y-9422579D02*
X5751015Y-9441627D01*
X5751015Y-9441627D02*
X5741491Y-9470198D01*
X5741491Y-9470198D02*
X5627206Y-9584484D01*
X5627206Y-9584484D02*
X5751015Y-9584484D01*
X5989110Y-9584484D02*
X5989110Y-9384484D01*
X6074825Y-9584484D02*
X6074825Y-9479722D01*
X6074825Y-9479722D02*
X6065301Y-9460674D01*
X6065301Y-9460674D02*
X6046253Y-9451150D01*
X6046253Y-9451150D02*
X6017682Y-9451150D01*
X6017682Y-9451150D02*
X5998634Y-9460674D01*
X5998634Y-9460674D02*
X5989110Y-9470198D01*
X6198634Y-9584484D02*
X6179587Y-9574960D01*
X6179587Y-9574960D02*
X6170063Y-9565436D01*
X6170063Y-9565436D02*
X6160539Y-9546389D01*
X6160539Y-9546389D02*
X6160539Y-9489246D01*
X6160539Y-9489246D02*
X6170063Y-9470198D01*
X6170063Y-9470198D02*
X6179587Y-9460674D01*
X6179587Y-9460674D02*
X6198634Y-9451150D01*
X6198634Y-9451150D02*
X6227206Y-9451150D01*
X6227206Y-9451150D02*
X6246253Y-9460674D01*
X6246253Y-9460674D02*
X6255777Y-9470198D01*
X6255777Y-9470198D02*
X6265301Y-9489246D01*
X6265301Y-9489246D02*
X6265301Y-9546389D01*
X6265301Y-9546389D02*
X6255777Y-9565436D01*
X6255777Y-9565436D02*
X6246253Y-9574960D01*
X6246253Y-9574960D02*
X6227206Y-9584484D01*
X6227206Y-9584484D02*
X6198634Y-9584484D01*
X6379587Y-9584484D02*
X6360539Y-9574960D01*
X6360539Y-9574960D02*
X6351015Y-9555912D01*
X6351015Y-9555912D02*
X6351015Y-9384484D01*
X6531968Y-9574960D02*
X6512920Y-9584484D01*
X6512920Y-9584484D02*
X6474825Y-9584484D01*
X6474825Y-9584484D02*
X6455777Y-9574960D01*
X6455777Y-9574960D02*
X6446253Y-9555912D01*
X6446253Y-9555912D02*
X6446253Y-9479722D01*
X6446253Y-9479722D02*
X6455777Y-9460674D01*
X6455777Y-9460674D02*
X6474825Y-9451150D01*
X6474825Y-9451150D02*
X6512920Y-9451150D01*
X6512920Y-9451150D02*
X6531968Y-9460674D01*
X6531968Y-9460674D02*
X6541491Y-9479722D01*
X6541491Y-9479722D02*
X6541491Y-9498770D01*
X6541491Y-9498770D02*
X6446253Y-9517817D01*
X6617682Y-9574960D02*
X6636730Y-9584484D01*
X6636730Y-9584484D02*
X6674825Y-9584484D01*
X6674825Y-9584484D02*
X6693872Y-9574960D01*
X6693872Y-9574960D02*
X6703396Y-9555912D01*
X6703396Y-9555912D02*
X6703396Y-9546389D01*
X6703396Y-9546389D02*
X6693872Y-9527341D01*
X6693872Y-9527341D02*
X6674825Y-9517817D01*
X6674825Y-9517817D02*
X6646253Y-9517817D01*
X6646253Y-9517817D02*
X6627206Y-9508293D01*
X6627206Y-9508293D02*
X6617682Y-9489246D01*
X6617682Y-9489246D02*
X6617682Y-9479722D01*
X6617682Y-9479722D02*
X6627206Y-9460674D01*
X6627206Y-9460674D02*
X6646253Y-9451150D01*
X6646253Y-9451150D02*
X6674825Y-9451150D01*
X6674825Y-9451150D02*
X6693872Y-9460674D01*
X6770063Y-9660674D02*
X6779587Y-9651150D01*
X6779587Y-9651150D02*
X6798634Y-9622579D01*
X6798634Y-9622579D02*
X6808158Y-9603531D01*
X6808158Y-9603531D02*
X6817682Y-9574960D01*
X6817682Y-9574960D02*
X6827206Y-9527341D01*
X6827206Y-9527341D02*
X6827206Y-9489246D01*
X6827206Y-9489246D02*
X6817682Y-9441627D01*
X6817682Y-9441627D02*
X6808158Y-9413055D01*
X6808158Y-9413055D02*
X6798634Y-9394008D01*
X6798634Y-9394008D02*
X6779587Y-9365436D01*
X6779587Y-9365436D02*
X6770063Y-9355912D01*
X7131968Y-9660674D02*
X7122444Y-9651150D01*
X7122444Y-9651150D02*
X7103396Y-9622579D01*
X7103396Y-9622579D02*
X7093872Y-9603531D01*
X7093872Y-9603531D02*
X7084349Y-9574960D01*
X7084349Y-9574960D02*
X7074825Y-9527341D01*
X7074825Y-9527341D02*
X7074825Y-9489246D01*
X7074825Y-9489246D02*
X7084349Y-9441627D01*
X7084349Y-9441627D02*
X7093872Y-9413055D01*
X7093872Y-9413055D02*
X7103396Y-9394008D01*
X7103396Y-9394008D02*
X7122444Y-9365436D01*
X7122444Y-9365436D02*
X7131968Y-9355912D01*
X7208158Y-9451150D02*
X7208158Y-9584484D01*
X7208158Y-9470198D02*
X7217682Y-9460674D01*
X7217682Y-9460674D02*
X7236730Y-9451150D01*
X7236730Y-9451150D02*
X7265301Y-9451150D01*
X7265301Y-9451150D02*
X7284349Y-9460674D01*
X7284349Y-9460674D02*
X7293872Y-9479722D01*
X7293872Y-9479722D02*
X7293872Y-9584484D01*
X7417682Y-9584484D02*
X7398634Y-9574960D01*
X7398634Y-9574960D02*
X7389111Y-9565436D01*
X7389111Y-9565436D02*
X7379587Y-9546389D01*
X7379587Y-9546389D02*
X7379587Y-9489246D01*
X7379587Y-9489246D02*
X7389111Y-9470198D01*
X7389111Y-9470198D02*
X7398634Y-9460674D01*
X7398634Y-9460674D02*
X7417682Y-9451150D01*
X7417682Y-9451150D02*
X7446253Y-9451150D01*
X7446253Y-9451150D02*
X7465301Y-9460674D01*
X7465301Y-9460674D02*
X7474825Y-9470198D01*
X7474825Y-9470198D02*
X7484349Y-9489246D01*
X7484349Y-9489246D02*
X7484349Y-9546389D01*
X7484349Y-9546389D02*
X7474825Y-9565436D01*
X7474825Y-9565436D02*
X7465301Y-9574960D01*
X7465301Y-9574960D02*
X7446253Y-9584484D01*
X7446253Y-9584484D02*
X7417682Y-9584484D01*
X7541492Y-9451150D02*
X7617682Y-9451150D01*
X7570063Y-9384484D02*
X7570063Y-9555912D01*
X7570063Y-9555912D02*
X7579587Y-9574960D01*
X7579587Y-9574960D02*
X7598634Y-9584484D01*
X7598634Y-9584484D02*
X7617682Y-9584484D01*
X7836730Y-9451150D02*
X7836730Y-9651150D01*
X7836730Y-9460674D02*
X7855777Y-9451150D01*
X7855777Y-9451150D02*
X7893873Y-9451150D01*
X7893873Y-9451150D02*
X7912920Y-9460674D01*
X7912920Y-9460674D02*
X7922444Y-9470198D01*
X7922444Y-9470198D02*
X7931968Y-9489246D01*
X7931968Y-9489246D02*
X7931968Y-9546389D01*
X7931968Y-9546389D02*
X7922444Y-9565436D01*
X7922444Y-9565436D02*
X7912920Y-9574960D01*
X7912920Y-9574960D02*
X7893873Y-9584484D01*
X7893873Y-9584484D02*
X7855777Y-9584484D01*
X7855777Y-9584484D02*
X7836730Y-9574960D01*
X8046253Y-9584484D02*
X8027206Y-9574960D01*
X8027206Y-9574960D02*
X8017682Y-9555912D01*
X8017682Y-9555912D02*
X8017682Y-9384484D01*
X8208158Y-9584484D02*
X8208158Y-9479722D01*
X8208158Y-9479722D02*
X8198634Y-9460674D01*
X8198634Y-9460674D02*
X8179587Y-9451150D01*
X8179587Y-9451150D02*
X8141492Y-9451150D01*
X8141492Y-9451150D02*
X8122444Y-9460674D01*
X8208158Y-9574960D02*
X8189111Y-9584484D01*
X8189111Y-9584484D02*
X8141492Y-9584484D01*
X8141492Y-9584484D02*
X8122444Y-9574960D01*
X8122444Y-9574960D02*
X8112920Y-9555912D01*
X8112920Y-9555912D02*
X8112920Y-9536865D01*
X8112920Y-9536865D02*
X8122444Y-9517817D01*
X8122444Y-9517817D02*
X8141492Y-9508293D01*
X8141492Y-9508293D02*
X8189111Y-9508293D01*
X8189111Y-9508293D02*
X8208158Y-9498770D01*
X8274825Y-9451150D02*
X8351015Y-9451150D01*
X8303396Y-9384484D02*
X8303396Y-9555912D01*
X8303396Y-9555912D02*
X8312920Y-9574960D01*
X8312920Y-9574960D02*
X8331968Y-9584484D01*
X8331968Y-9584484D02*
X8351015Y-9584484D01*
X8493873Y-9574960D02*
X8474825Y-9584484D01*
X8474825Y-9584484D02*
X8436730Y-9584484D01*
X8436730Y-9584484D02*
X8417682Y-9574960D01*
X8417682Y-9574960D02*
X8408158Y-9555912D01*
X8408158Y-9555912D02*
X8408158Y-9479722D01*
X8408158Y-9479722D02*
X8417682Y-9460674D01*
X8417682Y-9460674D02*
X8436730Y-9451150D01*
X8436730Y-9451150D02*
X8474825Y-9451150D01*
X8474825Y-9451150D02*
X8493873Y-9460674D01*
X8493873Y-9460674D02*
X8503396Y-9479722D01*
X8503396Y-9479722D02*
X8503396Y-9498770D01*
X8503396Y-9498770D02*
X8408158Y-9517817D01*
X8674825Y-9584484D02*
X8674825Y-9384484D01*
X8674825Y-9574960D02*
X8655777Y-9584484D01*
X8655777Y-9584484D02*
X8617682Y-9584484D01*
X8617682Y-9584484D02*
X8598635Y-9574960D01*
X8598635Y-9574960D02*
X8589111Y-9565436D01*
X8589111Y-9565436D02*
X8579587Y-9546389D01*
X8579587Y-9546389D02*
X8579587Y-9489246D01*
X8579587Y-9489246D02*
X8589111Y-9470198D01*
X8589111Y-9470198D02*
X8598635Y-9460674D01*
X8598635Y-9460674D02*
X8617682Y-9451150D01*
X8617682Y-9451150D02*
X8655777Y-9451150D01*
X8655777Y-9451150D02*
X8674825Y-9460674D01*
X8751016Y-9660674D02*
X8760539Y-9651150D01*
X8760539Y-9651150D02*
X8779587Y-9622579D01*
X8779587Y-9622579D02*
X8789111Y-9603531D01*
X8789111Y-9603531D02*
X8798635Y-9574960D01*
X8798635Y-9574960D02*
X8808158Y-9527341D01*
X8808158Y-9527341D02*
X8808158Y-9489246D01*
X8808158Y-9489246D02*
X8798635Y-9441627D01*
X8798635Y-9441627D02*
X8789111Y-9413055D01*
X8789111Y-9413055D02*
X8779587Y-9394008D01*
X8779587Y-9394008D02*
X8760539Y-9365436D01*
X8760539Y-9365436D02*
X8751016Y-9355912D01*
X1795000Y-9657000D02*
X1995000Y-9857000D01*
X1995000Y-9657000D02*
X1795000Y-9857000D01*
X1895000Y-9857000D02*
X1995000Y-9757000D01*
X1895000Y-9657000D01*
X1795000Y-9757000D01*
X1895000Y-9857000D01*
X2236729Y-9648484D02*
X2360539Y-9648484D01*
X2360539Y-9648484D02*
X2293872Y-9724674D01*
X2293872Y-9724674D02*
X2322444Y-9724674D01*
X2322444Y-9724674D02*
X2341491Y-9734198D01*
X2341491Y-9734198D02*
X2351015Y-9743722D01*
X2351015Y-9743722D02*
X2360539Y-9762770D01*
X2360539Y-9762770D02*
X2360539Y-9810389D01*
X2360539Y-9810389D02*
X2351015Y-9829436D01*
X2351015Y-9829436D02*
X2341491Y-9838960D01*
X2341491Y-9838960D02*
X2322444Y-9848484D01*
X2322444Y-9848484D02*
X2265301Y-9848484D01*
X2265301Y-9848484D02*
X2246253Y-9838960D01*
X2246253Y-9838960D02*
X2236729Y-9829436D01*
X2446253Y-9829436D02*
X2455777Y-9838960D01*
X2455777Y-9838960D02*
X2446253Y-9848484D01*
X2446253Y-9848484D02*
X2436729Y-9838960D01*
X2436729Y-9838960D02*
X2446253Y-9829436D01*
X2446253Y-9829436D02*
X2446253Y-9848484D01*
X2531967Y-9667531D02*
X2541491Y-9658008D01*
X2541491Y-9658008D02*
X2560539Y-9648484D01*
X2560539Y-9648484D02*
X2608158Y-9648484D01*
X2608158Y-9648484D02*
X2627205Y-9658008D01*
X2627205Y-9658008D02*
X2636729Y-9667531D01*
X2636729Y-9667531D02*
X2646253Y-9686579D01*
X2646253Y-9686579D02*
X2646253Y-9705627D01*
X2646253Y-9705627D02*
X2636729Y-9734198D01*
X2636729Y-9734198D02*
X2522444Y-9848484D01*
X2522444Y-9848484D02*
X2646253Y-9848484D01*
X2770063Y-9648484D02*
X2789110Y-9648484D01*
X2789110Y-9648484D02*
X2808158Y-9658008D01*
X2808158Y-9658008D02*
X2817682Y-9667531D01*
X2817682Y-9667531D02*
X2827205Y-9686579D01*
X2827205Y-9686579D02*
X2836729Y-9724674D01*
X2836729Y-9724674D02*
X2836729Y-9772293D01*
X2836729Y-9772293D02*
X2827205Y-9810389D01*
X2827205Y-9810389D02*
X2817682Y-9829436D01*
X2817682Y-9829436D02*
X2808158Y-9838960D01*
X2808158Y-9838960D02*
X2789110Y-9848484D01*
X2789110Y-9848484D02*
X2770063Y-9848484D01*
X2770063Y-9848484D02*
X2751015Y-9838960D01*
X2751015Y-9838960D02*
X2741491Y-9829436D01*
X2741491Y-9829436D02*
X2731967Y-9810389D01*
X2731967Y-9810389D02*
X2722444Y-9772293D01*
X2722444Y-9772293D02*
X2722444Y-9724674D01*
X2722444Y-9724674D02*
X2731967Y-9686579D01*
X2731967Y-9686579D02*
X2741491Y-9667531D01*
X2741491Y-9667531D02*
X2751015Y-9658008D01*
X2751015Y-9658008D02*
X2770063Y-9648484D01*
X2960539Y-9648484D02*
X2979586Y-9648484D01*
X2979586Y-9648484D02*
X2998634Y-9658008D01*
X2998634Y-9658008D02*
X3008158Y-9667531D01*
X3008158Y-9667531D02*
X3017682Y-9686579D01*
X3017682Y-9686579D02*
X3027205Y-9724674D01*
X3027205Y-9724674D02*
X3027205Y-9772293D01*
X3027205Y-9772293D02*
X3017682Y-9810389D01*
X3017682Y-9810389D02*
X3008158Y-9829436D01*
X3008158Y-9829436D02*
X2998634Y-9838960D01*
X2998634Y-9838960D02*
X2979586Y-9848484D01*
X2979586Y-9848484D02*
X2960539Y-9848484D01*
X2960539Y-9848484D02*
X2941491Y-9838960D01*
X2941491Y-9838960D02*
X2931967Y-9829436D01*
X2931967Y-9829436D02*
X2922443Y-9810389D01*
X2922443Y-9810389D02*
X2912920Y-9772293D01*
X2912920Y-9772293D02*
X2912920Y-9724674D01*
X2912920Y-9724674D02*
X2922443Y-9686579D01*
X2922443Y-9686579D02*
X2931967Y-9667531D01*
X2931967Y-9667531D02*
X2941491Y-9658008D01*
X2941491Y-9658008D02*
X2960539Y-9648484D01*
X3112920Y-9848484D02*
X3112920Y-9715150D01*
X3112920Y-9734198D02*
X3122443Y-9724674D01*
X3122443Y-9724674D02*
X3141491Y-9715150D01*
X3141491Y-9715150D02*
X3170063Y-9715150D01*
X3170063Y-9715150D02*
X3189110Y-9724674D01*
X3189110Y-9724674D02*
X3198634Y-9743722D01*
X3198634Y-9743722D02*
X3198634Y-9848484D01*
X3198634Y-9743722D02*
X3208158Y-9724674D01*
X3208158Y-9724674D02*
X3227205Y-9715150D01*
X3227205Y-9715150D02*
X3255777Y-9715150D01*
X3255777Y-9715150D02*
X3274824Y-9724674D01*
X3274824Y-9724674D02*
X3284348Y-9743722D01*
X3284348Y-9743722D02*
X3284348Y-9848484D01*
X3379586Y-9848484D02*
X3379586Y-9715150D01*
X3379586Y-9734198D02*
X3389110Y-9724674D01*
X3389110Y-9724674D02*
X3408158Y-9715150D01*
X3408158Y-9715150D02*
X3436729Y-9715150D01*
X3436729Y-9715150D02*
X3455777Y-9724674D01*
X3455777Y-9724674D02*
X3465301Y-9743722D01*
X3465301Y-9743722D02*
X3465301Y-9848484D01*
X3465301Y-9743722D02*
X3474824Y-9724674D01*
X3474824Y-9724674D02*
X3493872Y-9715150D01*
X3493872Y-9715150D02*
X3522443Y-9715150D01*
X3522443Y-9715150D02*
X3541491Y-9724674D01*
X3541491Y-9724674D02*
X3551015Y-9743722D01*
X3551015Y-9743722D02*
X3551015Y-9848484D01*
X3941491Y-9638960D02*
X3770063Y-9896103D01*
X4198634Y-9648484D02*
X4217682Y-9648484D01*
X4217682Y-9648484D02*
X4236729Y-9658008D01*
X4236729Y-9658008D02*
X4246253Y-9667531D01*
X4246253Y-9667531D02*
X4255777Y-9686579D01*
X4255777Y-9686579D02*
X4265301Y-9724674D01*
X4265301Y-9724674D02*
X4265301Y-9772293D01*
X4265301Y-9772293D02*
X4255777Y-9810389D01*
X4255777Y-9810389D02*
X4246253Y-9829436D01*
X4246253Y-9829436D02*
X4236729Y-9838960D01*
X4236729Y-9838960D02*
X4217682Y-9848484D01*
X4217682Y-9848484D02*
X4198634Y-9848484D01*
X4198634Y-9848484D02*
X4179586Y-9838960D01*
X4179586Y-9838960D02*
X4170063Y-9829436D01*
X4170063Y-9829436D02*
X4160539Y-9810389D01*
X4160539Y-9810389D02*
X4151015Y-9772293D01*
X4151015Y-9772293D02*
X4151015Y-9724674D01*
X4151015Y-9724674D02*
X4160539Y-9686579D01*
X4160539Y-9686579D02*
X4170063Y-9667531D01*
X4170063Y-9667531D02*
X4179586Y-9658008D01*
X4179586Y-9658008D02*
X4198634Y-9648484D01*
X4351015Y-9829436D02*
X4360539Y-9838960D01*
X4360539Y-9838960D02*
X4351015Y-9848484D01*
X4351015Y-9848484D02*
X4341491Y-9838960D01*
X4341491Y-9838960D02*
X4351015Y-9829436D01*
X4351015Y-9829436D02*
X4351015Y-9848484D01*
X4551015Y-9848484D02*
X4436729Y-9848484D01*
X4493872Y-9848484D02*
X4493872Y-9648484D01*
X4493872Y-9648484D02*
X4474825Y-9677055D01*
X4474825Y-9677055D02*
X4455777Y-9696103D01*
X4455777Y-9696103D02*
X4436729Y-9705627D01*
X4627206Y-9667531D02*
X4636729Y-9658008D01*
X4636729Y-9658008D02*
X4655777Y-9648484D01*
X4655777Y-9648484D02*
X4703396Y-9648484D01*
X4703396Y-9648484D02*
X4722444Y-9658008D01*
X4722444Y-9658008D02*
X4731968Y-9667531D01*
X4731968Y-9667531D02*
X4741491Y-9686579D01*
X4741491Y-9686579D02*
X4741491Y-9705627D01*
X4741491Y-9705627D02*
X4731968Y-9734198D01*
X4731968Y-9734198D02*
X4617682Y-9848484D01*
X4617682Y-9848484D02*
X4741491Y-9848484D01*
X4912920Y-9648484D02*
X4874825Y-9648484D01*
X4874825Y-9648484D02*
X4855777Y-9658008D01*
X4855777Y-9658008D02*
X4846253Y-9667531D01*
X4846253Y-9667531D02*
X4827206Y-9696103D01*
X4827206Y-9696103D02*
X4817682Y-9734198D01*
X4817682Y-9734198D02*
X4817682Y-9810389D01*
X4817682Y-9810389D02*
X4827206Y-9829436D01*
X4827206Y-9829436D02*
X4836729Y-9838960D01*
X4836729Y-9838960D02*
X4855777Y-9848484D01*
X4855777Y-9848484D02*
X4893872Y-9848484D01*
X4893872Y-9848484D02*
X4912920Y-9838960D01*
X4912920Y-9838960D02*
X4922444Y-9829436D01*
X4922444Y-9829436D02*
X4931968Y-9810389D01*
X4931968Y-9810389D02*
X4931968Y-9762770D01*
X4931968Y-9762770D02*
X4922444Y-9743722D01*
X4922444Y-9743722D02*
X4912920Y-9734198D01*
X4912920Y-9734198D02*
X4893872Y-9724674D01*
X4893872Y-9724674D02*
X4855777Y-9724674D01*
X4855777Y-9724674D02*
X4836729Y-9734198D01*
X4836729Y-9734198D02*
X4827206Y-9743722D01*
X4827206Y-9743722D02*
X4817682Y-9762770D01*
X5055777Y-9648484D02*
X5074825Y-9648484D01*
X5074825Y-9648484D02*
X5093872Y-9658008D01*
X5093872Y-9658008D02*
X5103396Y-9667531D01*
X5103396Y-9667531D02*
X5112920Y-9686579D01*
X5112920Y-9686579D02*
X5122444Y-9724674D01*
X5122444Y-9724674D02*
X5122444Y-9772293D01*
X5122444Y-9772293D02*
X5112920Y-9810389D01*
X5112920Y-9810389D02*
X5103396Y-9829436D01*
X5103396Y-9829436D02*
X5093872Y-9838960D01*
X5093872Y-9838960D02*
X5074825Y-9848484D01*
X5074825Y-9848484D02*
X5055777Y-9848484D01*
X5055777Y-9848484D02*
X5036729Y-9838960D01*
X5036729Y-9838960D02*
X5027206Y-9829436D01*
X5027206Y-9829436D02*
X5017682Y-9810389D01*
X5017682Y-9810389D02*
X5008158Y-9772293D01*
X5008158Y-9772293D02*
X5008158Y-9724674D01*
X5008158Y-9724674D02*
X5017682Y-9686579D01*
X5017682Y-9686579D02*
X5027206Y-9667531D01*
X5027206Y-9667531D02*
X5036729Y-9658008D01*
X5036729Y-9658008D02*
X5055777Y-9648484D01*
X5198634Y-9648484D02*
X5198634Y-9686579D01*
X5274825Y-9648484D02*
X5274825Y-9686579D01*
X5570063Y-9924674D02*
X5560539Y-9915150D01*
X5560539Y-9915150D02*
X5541491Y-9886579D01*
X5541491Y-9886579D02*
X5531968Y-9867531D01*
X5531968Y-9867531D02*
X5522444Y-9838960D01*
X5522444Y-9838960D02*
X5512920Y-9791341D01*
X5512920Y-9791341D02*
X5512920Y-9753246D01*
X5512920Y-9753246D02*
X5522444Y-9705627D01*
X5522444Y-9705627D02*
X5531968Y-9677055D01*
X5531968Y-9677055D02*
X5541491Y-9658008D01*
X5541491Y-9658008D02*
X5560539Y-9629436D01*
X5560539Y-9629436D02*
X5570063Y-9619912D01*
X5731968Y-9715150D02*
X5731968Y-9848484D01*
X5684348Y-9638960D02*
X5636729Y-9781817D01*
X5636729Y-9781817D02*
X5760539Y-9781817D01*
X5989110Y-9848484D02*
X5989110Y-9648484D01*
X6074825Y-9848484D02*
X6074825Y-9743722D01*
X6074825Y-9743722D02*
X6065301Y-9724674D01*
X6065301Y-9724674D02*
X6046253Y-9715150D01*
X6046253Y-9715150D02*
X6017682Y-9715150D01*
X6017682Y-9715150D02*
X5998634Y-9724674D01*
X5998634Y-9724674D02*
X5989110Y-9734198D01*
X6198634Y-9848484D02*
X6179587Y-9838960D01*
X6179587Y-9838960D02*
X6170063Y-9829436D01*
X6170063Y-9829436D02*
X6160539Y-9810389D01*
X6160539Y-9810389D02*
X6160539Y-9753246D01*
X6160539Y-9753246D02*
X6170063Y-9734198D01*
X6170063Y-9734198D02*
X6179587Y-9724674D01*
X6179587Y-9724674D02*
X6198634Y-9715150D01*
X6198634Y-9715150D02*
X6227206Y-9715150D01*
X6227206Y-9715150D02*
X6246253Y-9724674D01*
X6246253Y-9724674D02*
X6255777Y-9734198D01*
X6255777Y-9734198D02*
X6265301Y-9753246D01*
X6265301Y-9753246D02*
X6265301Y-9810389D01*
X6265301Y-9810389D02*
X6255777Y-9829436D01*
X6255777Y-9829436D02*
X6246253Y-9838960D01*
X6246253Y-9838960D02*
X6227206Y-9848484D01*
X6227206Y-9848484D02*
X6198634Y-9848484D01*
X6379587Y-9848484D02*
X6360539Y-9838960D01*
X6360539Y-9838960D02*
X6351015Y-9819912D01*
X6351015Y-9819912D02*
X6351015Y-9648484D01*
X6531968Y-9838960D02*
X6512920Y-9848484D01*
X6512920Y-9848484D02*
X6474825Y-9848484D01*
X6474825Y-9848484D02*
X6455777Y-9838960D01*
X6455777Y-9838960D02*
X6446253Y-9819912D01*
X6446253Y-9819912D02*
X6446253Y-9743722D01*
X6446253Y-9743722D02*
X6455777Y-9724674D01*
X6455777Y-9724674D02*
X6474825Y-9715150D01*
X6474825Y-9715150D02*
X6512920Y-9715150D01*
X6512920Y-9715150D02*
X6531968Y-9724674D01*
X6531968Y-9724674D02*
X6541491Y-9743722D01*
X6541491Y-9743722D02*
X6541491Y-9762770D01*
X6541491Y-9762770D02*
X6446253Y-9781817D01*
X6617682Y-9838960D02*
X6636730Y-9848484D01*
X6636730Y-9848484D02*
X6674825Y-9848484D01*
X6674825Y-9848484D02*
X6693872Y-9838960D01*
X6693872Y-9838960D02*
X6703396Y-9819912D01*
X6703396Y-9819912D02*
X6703396Y-9810389D01*
X6703396Y-9810389D02*
X6693872Y-9791341D01*
X6693872Y-9791341D02*
X6674825Y-9781817D01*
X6674825Y-9781817D02*
X6646253Y-9781817D01*
X6646253Y-9781817D02*
X6627206Y-9772293D01*
X6627206Y-9772293D02*
X6617682Y-9753246D01*
X6617682Y-9753246D02*
X6617682Y-9743722D01*
X6617682Y-9743722D02*
X6627206Y-9724674D01*
X6627206Y-9724674D02*
X6646253Y-9715150D01*
X6646253Y-9715150D02*
X6674825Y-9715150D01*
X6674825Y-9715150D02*
X6693872Y-9724674D01*
X6770063Y-9924674D02*
X6779587Y-9915150D01*
X6779587Y-9915150D02*
X6798634Y-9886579D01*
X6798634Y-9886579D02*
X6808158Y-9867531D01*
X6808158Y-9867531D02*
X6817682Y-9838960D01*
X6817682Y-9838960D02*
X6827206Y-9791341D01*
X6827206Y-9791341D02*
X6827206Y-9753246D01*
X6827206Y-9753246D02*
X6817682Y-9705627D01*
X6817682Y-9705627D02*
X6808158Y-9677055D01*
X6808158Y-9677055D02*
X6798634Y-9658008D01*
X6798634Y-9658008D02*
X6779587Y-9629436D01*
X6779587Y-9629436D02*
X6770063Y-9619912D01*
X7131968Y-9924674D02*
X7122444Y-9915150D01*
X7122444Y-9915150D02*
X7103396Y-9886579D01*
X7103396Y-9886579D02*
X7093872Y-9867531D01*
X7093872Y-9867531D02*
X7084349Y-9838960D01*
X7084349Y-9838960D02*
X7074825Y-9791341D01*
X7074825Y-9791341D02*
X7074825Y-9753246D01*
X7074825Y-9753246D02*
X7084349Y-9705627D01*
X7084349Y-9705627D02*
X7093872Y-9677055D01*
X7093872Y-9677055D02*
X7103396Y-9658008D01*
X7103396Y-9658008D02*
X7122444Y-9629436D01*
X7122444Y-9629436D02*
X7131968Y-9619912D01*
X7208158Y-9715150D02*
X7208158Y-9848484D01*
X7208158Y-9734198D02*
X7217682Y-9724674D01*
X7217682Y-9724674D02*
X7236730Y-9715150D01*
X7236730Y-9715150D02*
X7265301Y-9715150D01*
X7265301Y-9715150D02*
X7284349Y-9724674D01*
X7284349Y-9724674D02*
X7293872Y-9743722D01*
X7293872Y-9743722D02*
X7293872Y-9848484D01*
X7417682Y-9848484D02*
X7398634Y-9838960D01*
X7398634Y-9838960D02*
X7389111Y-9829436D01*
X7389111Y-9829436D02*
X7379587Y-9810389D01*
X7379587Y-9810389D02*
X7379587Y-9753246D01*
X7379587Y-9753246D02*
X7389111Y-9734198D01*
X7389111Y-9734198D02*
X7398634Y-9724674D01*
X7398634Y-9724674D02*
X7417682Y-9715150D01*
X7417682Y-9715150D02*
X7446253Y-9715150D01*
X7446253Y-9715150D02*
X7465301Y-9724674D01*
X7465301Y-9724674D02*
X7474825Y-9734198D01*
X7474825Y-9734198D02*
X7484349Y-9753246D01*
X7484349Y-9753246D02*
X7484349Y-9810389D01*
X7484349Y-9810389D02*
X7474825Y-9829436D01*
X7474825Y-9829436D02*
X7465301Y-9838960D01*
X7465301Y-9838960D02*
X7446253Y-9848484D01*
X7446253Y-9848484D02*
X7417682Y-9848484D01*
X7541492Y-9715150D02*
X7617682Y-9715150D01*
X7570063Y-9648484D02*
X7570063Y-9819912D01*
X7570063Y-9819912D02*
X7579587Y-9838960D01*
X7579587Y-9838960D02*
X7598634Y-9848484D01*
X7598634Y-9848484D02*
X7617682Y-9848484D01*
X7836730Y-9715150D02*
X7836730Y-9915150D01*
X7836730Y-9724674D02*
X7855777Y-9715150D01*
X7855777Y-9715150D02*
X7893873Y-9715150D01*
X7893873Y-9715150D02*
X7912920Y-9724674D01*
X7912920Y-9724674D02*
X7922444Y-9734198D01*
X7922444Y-9734198D02*
X7931968Y-9753246D01*
X7931968Y-9753246D02*
X7931968Y-9810389D01*
X7931968Y-9810389D02*
X7922444Y-9829436D01*
X7922444Y-9829436D02*
X7912920Y-9838960D01*
X7912920Y-9838960D02*
X7893873Y-9848484D01*
X7893873Y-9848484D02*
X7855777Y-9848484D01*
X7855777Y-9848484D02*
X7836730Y-9838960D01*
X8046253Y-9848484D02*
X8027206Y-9838960D01*
X8027206Y-9838960D02*
X8017682Y-9819912D01*
X8017682Y-9819912D02*
X8017682Y-9648484D01*
X8208158Y-9848484D02*
X8208158Y-9743722D01*
X8208158Y-9743722D02*
X8198634Y-9724674D01*
X8198634Y-9724674D02*
X8179587Y-9715150D01*
X8179587Y-9715150D02*
X8141492Y-9715150D01*
X8141492Y-9715150D02*
X8122444Y-9724674D01*
X8208158Y-9838960D02*
X8189111Y-9848484D01*
X8189111Y-9848484D02*
X8141492Y-9848484D01*
X8141492Y-9848484D02*
X8122444Y-9838960D01*
X8122444Y-9838960D02*
X8112920Y-9819912D01*
X8112920Y-9819912D02*
X8112920Y-9800865D01*
X8112920Y-9800865D02*
X8122444Y-9781817D01*
X8122444Y-9781817D02*
X8141492Y-9772293D01*
X8141492Y-9772293D02*
X8189111Y-9772293D01*
X8189111Y-9772293D02*
X8208158Y-9762770D01*
X8274825Y-9715150D02*
X8351015Y-9715150D01*
X8303396Y-9648484D02*
X8303396Y-9819912D01*
X8303396Y-9819912D02*
X8312920Y-9838960D01*
X8312920Y-9838960D02*
X8331968Y-9848484D01*
X8331968Y-9848484D02*
X8351015Y-9848484D01*
X8493873Y-9838960D02*
X8474825Y-9848484D01*
X8474825Y-9848484D02*
X8436730Y-9848484D01*
X8436730Y-9848484D02*
X8417682Y-9838960D01*
X8417682Y-9838960D02*
X8408158Y-9819912D01*
X8408158Y-9819912D02*
X8408158Y-9743722D01*
X8408158Y-9743722D02*
X8417682Y-9724674D01*
X8417682Y-9724674D02*
X8436730Y-9715150D01*
X8436730Y-9715150D02*
X8474825Y-9715150D01*
X8474825Y-9715150D02*
X8493873Y-9724674D01*
X8493873Y-9724674D02*
X8503396Y-9743722D01*
X8503396Y-9743722D02*
X8503396Y-9762770D01*
X8503396Y-9762770D02*
X8408158Y-9781817D01*
X8674825Y-9848484D02*
X8674825Y-9648484D01*
X8674825Y-9838960D02*
X8655777Y-9848484D01*
X8655777Y-9848484D02*
X8617682Y-9848484D01*
X8617682Y-9848484D02*
X8598635Y-9838960D01*
X8598635Y-9838960D02*
X8589111Y-9829436D01*
X8589111Y-9829436D02*
X8579587Y-9810389D01*
X8579587Y-9810389D02*
X8579587Y-9753246D01*
X8579587Y-9753246D02*
X8589111Y-9734198D01*
X8589111Y-9734198D02*
X8598635Y-9724674D01*
X8598635Y-9724674D02*
X8617682Y-9715150D01*
X8617682Y-9715150D02*
X8655777Y-9715150D01*
X8655777Y-9715150D02*
X8674825Y-9724674D01*
X8751016Y-9924674D02*
X8760539Y-9915150D01*
X8760539Y-9915150D02*
X8779587Y-9886579D01*
X8779587Y-9886579D02*
X8789111Y-9867531D01*
X8789111Y-9867531D02*
X8798635Y-9838960D01*
X8798635Y-9838960D02*
X8808158Y-9791341D01*
X8808158Y-9791341D02*
X8808158Y-9753246D01*
X8808158Y-9753246D02*
X8798635Y-9705627D01*
X8798635Y-9705627D02*
X8789111Y-9677055D01*
X8789111Y-9677055D02*
X8779587Y-9658008D01*
X8779587Y-9658008D02*
X8760539Y-9629436D01*
X8760539Y-9629436D02*
X8751016Y-9619912D01*
M02*
